<svg width="24" height="24" viewBox="0 0 24 24" fill="none" xmlns="http://www.w3.org/2000/svg">
    <mask id="mask0_2676_80963" style="mask-type:alpha" maskUnits="userSpaceOnUse" x="0" y="0" width="24" height="24">
        <rect width="24" height="24" fill="#D9D9D9" />
    </mask>
    <g mask="url(#mask0_2676_80963)">
        <path
            d="M3 21C2.45 21 1.97917 20.8042 1.5875 20.4125C1.19583 20.0208 1 19.55 1 19V7C1 6.45 1.19583 5.97917 1.5875 5.5875C1.97917 5.19583 2.45 5 3 5H6.15L7.4 3.65C7.58333 3.45 7.80417 3.29167 8.0625 3.175C8.32083 3.05833 8.59167 3 8.875 3H13C13.2833 3 13.5208 3.09583 13.7125 3.2875C13.9042 3.47917 14 3.71667 14 4C14 4.28333 13.9042 4.52083 13.7125 4.7125C13.5208 4.90417 13.2833 5 13 5H8.875L7.05 7H3V19H19V11C19 10.7167 19.0958 10.4792 19.2875 10.2875C19.4792 10.0958 19.7167 10 20 10C20.2833 10 20.5208 10.0958 20.7125 10.2875C20.9042 10.4792 21 10.7167 21 11V19C21 19.55 20.8042 20.0208 20.4125 20.4125C20.0208 20.8042 19.55 21 19 21H3ZM19 5H18C17.7167 5 17.4792 4.90417 17.2875 4.7125C17.0958 4.52083 17 4.28333 17 4C17 3.71667 17.0958 3.47917 17.2875 3.2875C17.4792 3.09583 17.7167 3 18 3H19V2C19 1.71667 19.0958 1.47917 19.2875 1.2875C19.4792 1.09583 19.7167 1 20 1C20.2833 1 20.5208 1.09583 20.7125 1.2875C20.9042 1.47917 21 1.71667 21 2V3H22C22.2833 3 22.5208 3.09583 22.7125 3.2875C22.9042 3.47917 23 3.71667 23 4C23 4.28333 22.9042 4.52083 22.7125 4.7125C22.5208 4.90417 22.2833 5 22 5H21V6C21 6.28333 20.9042 6.52083 20.7125 6.7125C20.5208 6.90417 20.2833 7 20 7C19.7167 7 19.4792 6.90417 19.2875 6.7125C19.0958 6.52083 19 6.28333 19 6V5ZM11 17.5C12.25 17.5 13.3125 17.0625 14.1875 16.1875C15.0625 15.3125 15.5 14.25 15.5 13C15.5 11.75 15.0625 10.6875 14.1875 9.8125C13.3125 8.9375 12.25 8.5 11 8.5C9.75 8.5 8.6875 8.9375 7.8125 9.8125C6.9375 10.6875 6.5 11.75 6.5 13C6.5 14.25 6.9375 15.3125 7.8125 16.1875C8.6875 17.0625 9.75 17.5 11 17.5ZM11 15.5C10.3 15.5 9.70833 15.2583 9.225 14.775C8.74167 14.2917 8.5 13.7 8.5 13C8.5 12.3 8.74167 11.7083 9.225 11.225C9.70833 10.7417 10.3 10.5 11 10.5C11.7 10.5 12.2917 10.7417 12.775 11.225C13.2583 11.7083 13.5 12.3 13.5 13C13.5 13.7 13.2583 14.2917 12.775 14.775C12.2917 15.2583 11.7 15.5 11 15.5Z"
            fill="#212121" />
    </g>
</svg>