<svg width="24" height="24" viewBox="0 0 24 24" fill="none" xmlns="http://www.w3.org/2000/svg">
<mask id="mask0_11_6654" style="mask-type:alpha" maskUnits="userSpaceOnUse" x="0" y="0" width="24" height="24">
<rect width="24" height="24" fill="#D9D9D9"/>
</mask>
<g mask="url(#mask0_11_6654)">
<path d="M8.20001 14C8.05001 14 7.92918 13.95 7.83751 13.85C7.74585 13.75 7.70001 13.6333 7.70001 13.5C7.70001 13.4667 7.75001 13.35 7.85001 13.15L11.475 9.525C11.5583 9.44167 11.6417 9.38334 11.725 9.35C11.8083 9.31667 11.9 9.3 12 9.3C12.1 9.3 12.1917 9.31667 12.275 9.35C12.3583 9.38334 12.4417 9.44167 12.525 9.525L16.15 13.15C16.2 13.2 16.2375 13.2542 16.2625 13.3125C16.2875 13.3708 16.3 13.4333 16.3 13.5C16.3 13.6333 16.2542 13.75 16.1625 13.85C16.0708 13.95 15.95 14 15.8 14H8.20001Z" fill="black"/>
</g>
</svg>
