<svg width="24" height="24" viewBox="0 0 24 24" fill="none" xmlns="http://www.w3.org/2000/svg">
<g clip-path="url(#clip0_37_14039)">
<path d="M13 14C13 12.8954 13.8954 12 15 12H21V16H15C13.8954 16 13 15.1046 13 14Z" fill="black"/>
<path d="M4 8H19C19.5523 8 20 8.44772 20 9V19C20 19.5523 19.5523 20 19 20H5C4.44772 20 4 19.5523 4 19V8Z" stroke="black" stroke-width="2"/>
<path d="M4 5C4 4.44772 4.44772 4 5 4H16C16.5523 4 17 4.44772 17 5V7C17 7.55228 16.5523 8 16 8H5C4.44772 8 4 7.55228 4 7V5Z" stroke="black" stroke-width="2"/>
</g>
<defs>
<clipPath id="clip0_37_14039">
<rect width="18" height="18" fill="white" transform="translate(3 3)"/>
</clipPath>
</defs>
</svg>
