<svg width="24" height="24" viewBox="0 0 24 24" fill="none" xmlns="http://www.w3.org/2000/svg">
<mask id="mask0_1_78" style="mask-type:alpha" maskUnits="userSpaceOnUse" x="0" y="0" width="24" height="24">
<rect width="24" height="24" fill="#D9D9D9"/>
</mask>
<g mask="url(#mask0_1_78)">
<path d="M8 16V17.25C8 17.4667 8.07083 17.6458 8.2125 17.7875C8.35417 17.9292 8.53333 18 8.75 18C8.96667 18 9.14583 17.9292 9.2875 17.7875C9.42917 17.6458 9.5 17.4667 9.5 17.25V16H10.75C10.9667 16 11.1458 15.9292 11.2875 15.7875C11.4292 15.6458 11.5 15.4667 11.5 15.25C11.5 15.0333 11.4292 14.8542 11.2875 14.7125C11.1458 14.5708 10.9667 14.5 10.75 14.5H9.5V13.25C9.5 13.0333 9.42917 12.8542 9.2875 12.7125C9.14583 12.5708 8.96667 12.5 8.75 12.5C8.53333 12.5 8.35417 12.5708 8.2125 12.7125C8.07083 12.8542 8 13.0333 8 13.25V14.5H6.75C6.53333 14.5 6.35417 14.5708 6.2125 14.7125C6.07083 14.8542 6 15.0333 6 15.25C6 15.4667 6.07083 15.6458 6.2125 15.7875C6.35417 15.9292 6.53333 16 6.75 16H8ZM13.75 17.25H17.25C17.4667 17.25 17.6458 17.1792 17.7875 17.0375C17.9292 16.8958 18 16.7167 18 16.5C18 16.2833 17.9292 16.1042 17.7875 15.9625C17.6458 15.8208 17.4667 15.75 17.25 15.75H13.75C13.5333 15.75 13.3542 15.8208 13.2125 15.9625C13.0708 16.1042 13 16.2833 13 16.5C13 16.7167 13.0708 16.8958 13.2125 17.0375C13.3542 17.1792 13.5333 17.25 13.75 17.25ZM13.75 14.75H17.25C17.4667 14.75 17.6458 14.6792 17.7875 14.5375C17.9292 14.3958 18 14.2167 18 14C18 13.7833 17.9292 13.6042 17.7875 13.4625C17.6458 13.3208 17.4667 13.25 17.25 13.25H13.75C13.5333 13.25 13.3542 13.3208 13.2125 13.4625C13.0708 13.6042 13 13.7833 13 14C13 14.2167 13.0708 14.3958 13.2125 14.5375C13.3542 14.6792 13.5333 14.75 13.75 14.75ZM15.5 9.55L16.375 10.425C16.525 10.575 16.7 10.65 16.9 10.65C17.1 10.65 17.275 10.575 17.425 10.425C17.5583 10.2917 17.6292 10.1208 17.6375 9.9125C17.6458 9.70417 17.5833 9.525 17.45 9.375L16.55 8.45L17.425 7.575C17.575 7.425 17.65 7.25 17.65 7.05C17.65 6.85 17.575 6.675 17.425 6.525C17.275 6.375 17.1 6.3 16.9 6.3C16.7 6.3 16.525 6.375 16.375 6.525L15.5 7.4L14.625 6.525C14.475 6.375 14.3 6.3 14.1 6.3C13.9 6.3 13.725 6.375 13.575 6.525C13.425 6.675 13.35 6.85 13.35 7.05C13.35 7.25 13.425 7.425 13.575 7.575L14.45 8.45L13.55 9.375C13.4167 9.525 13.35 9.7 13.35 9.9C13.35 10.1 13.425 10.275 13.575 10.425C13.725 10.575 13.9 10.65 14.1 10.65C14.3 10.65 14.475 10.575 14.625 10.425L15.5 9.55ZM7 9.2H10.5C10.7167 9.2 10.8958 9.12917 11.0375 8.9875C11.1792 8.84583 11.25 8.66667 11.25 8.45C11.25 8.23333 11.1792 8.05417 11.0375 7.9125C10.8958 7.77083 10.7167 7.7 10.5 7.7H7C6.78333 7.7 6.60417 7.77083 6.4625 7.9125C6.32083 8.05417 6.25 8.23333 6.25 8.45C6.25 8.66667 6.32083 8.84583 6.4625 8.9875C6.60417 9.12917 6.78333 9.2 7 9.2ZM5 21C4.45 21 3.97917 20.8042 3.5875 20.4125C3.19583 20.0208 3 19.55 3 19V5C3 4.45 3.19583 3.97917 3.5875 3.5875C3.97917 3.19583 4.45 3 5 3H19C19.55 3 20.0208 3.19583 20.4125 3.5875C20.8042 3.97917 21 4.45 21 5V19C21 19.55 20.8042 20.0208 20.4125 20.4125C20.0208 20.8042 19.55 21 19 21H5ZM5 19H19V5H5V19Z" fill="black"/>
</g>
</svg>
