<svg width="24" height="24" viewBox="0 0 24 24" fill="none" xmlns="http://www.w3.org/2000/svg">
<mask id="mask0_37_13999" style="mask-type:alpha" maskUnits="userSpaceOnUse" x="0" y="0" width="24" height="24">
<rect width="24" height="24" fill="#D9D9D9"/>
</mask>
<g mask="url(#mask0_37_13999)">
<path d="M8 18H9.5V16H11.5V14.5H9.5V12.5H8V14.5H6V16H8V18ZM13 17.25H18V15.75H13V17.25ZM13 14.75H18V13.25H13V14.75ZM14.1 10.95L15.5 9.55L16.9 10.95L17.95 9.9L16.55 8.45L17.95 7.05L16.9 6L15.5 7.4L14.1 6L13.05 7.05L14.45 8.45L13.05 9.9L14.1 10.95ZM6.25 9.2H11.25V7.7H6.25V9.2ZM5 21C4.45 21 3.97917 20.8042 3.5875 20.4125C3.19583 20.0208 3 19.55 3 19V5C3 4.45 3.19583 3.97917 3.5875 3.5875C3.97917 3.19583 4.45 3 5 3H19C19.55 3 20.0208 3.19583 20.4125 3.5875C20.8042 3.97917 21 4.45 21 5V19C21 19.55 20.8042 20.0208 20.4125 20.4125C20.0208 20.8042 19.55 21 19 21H5ZM5 19H19V5H5V19Z" fill="#1C1B1F"/>
</g>
</svg>
