<svg width="24" height="24" viewBox="0 0 24 24" fill="none" xmlns="http://www.w3.org/2000/svg">
<mask id="mask0_37_14059" style="mask-type:alpha" maskUnits="userSpaceOnUse" x="0" y="0" width="24" height="24">
<rect width="24" height="24" fill="#D9D9D9"/>
</mask>
<g mask="url(#mask0_37_14059)">
<path d="M7 13C6.71667 13 6.47917 12.9042 6.2875 12.7125C6.09583 12.5208 6 12.2833 6 12C6 11.7167 6.09583 11.4792 6.2875 11.2875C6.47917 11.0958 6.71667 11 7 11H17C17.2833 11 17.5208 11.0958 17.7125 11.2875C17.9042 11.4792 18 11.7167 18 12C18 12.2833 17.9042 12.5208 17.7125 12.7125C17.5208 12.9042 17.2833 13 17 13H7Z" fill="#1C1B1F"/>
</g>
</svg>
