<svg width="24" height="24" viewBox="0 0 24 24" fill="none" xmlns="http://www.w3.org/2000/svg">
<g clip-path="url(#clip0_37_14005)">
<path fill-rule="evenodd" clip-rule="evenodd" d="M5.81281 5.32004C6.30097 4.83189 7.17157 4.91103 7.75735 5.49682L18.364 16.1034C18.9497 16.6892 19.0289 17.5598 18.5407 18.048C18.0526 18.5361 17.182 18.457 16.5962 17.8712L5.98959 7.26459C5.4038 6.6788 5.32465 5.8082 5.81281 5.32004Z" fill="black"/>
<path fill-rule="evenodd" clip-rule="evenodd" d="M18.5407 5.32004C19.0289 5.8082 18.9497 6.6788 18.364 7.26459L7.75735 17.8712C7.17157 18.457 6.30097 18.5361 5.81281 18.048C5.32465 17.5598 5.4038 16.6892 5.98959 16.1034L16.5962 5.49682C17.182 4.91103 18.0526 4.83189 18.5407 5.32004Z" fill="black"/>
</g>
<defs>
<clipPath id="clip0_37_14005">
<rect width="24" height="24" fill="white"/>
</clipPath>
</defs>
</svg>
