<svg width="24" height="24" viewBox="0 0 24 24" fill="none" xmlns="http://www.w3.org/2000/svg">
<mask id="mask0_1_89" style="mask-type:alpha" maskUnits="userSpaceOnUse" x="0" y="0" width="24" height="24">
<rect width="24" height="24" fill="#D9D9D9"/>
</mask>
<g mask="url(#mask0_1_89)">
<path d="M5 21C4.45 21 3.97917 20.8042 3.5875 20.4125C3.19583 20.0208 3 19.55 3 19V5C3 4.45 3.19583 3.97917 3.5875 3.5875C3.97917 3.19583 4.45 3 5 3H11.525C11.8583 3 12.1083 3.10417 12.275 3.3125C12.4417 3.52083 12.525 3.75 12.525 4C12.525 4.25 12.4375 4.47917 12.2625 4.6875C12.0875 4.89583 11.8333 5 11.5 5H5V19H19V12.475C19 12.1417 19.1042 11.8917 19.3125 11.725C19.5208 11.5583 19.75 11.475 20 11.475C20.25 11.475 20.4792 11.5583 20.6875 11.725C20.8958 11.8917 21 12.1417 21 12.475V19C21 19.55 20.8042 20.0208 20.4125 20.4125C20.0208 20.8042 19.55 21 19 21H5ZM9 14V11.575C9 11.3083 9.05 11.0542 9.15 10.8125C9.25 10.5708 9.39167 10.3583 9.575 10.175L18.175 1.575C18.375 1.375 18.6 1.225 18.85 1.125C19.1 1.025 19.35 0.974998 19.6 0.974998C19.8667 0.974998 20.1208 1.025 20.3625 1.125C20.6042 1.225 20.825 1.375 21.025 1.575L22.425 3C22.6083 3.2 22.75 3.42083 22.85 3.6625C22.95 3.90417 23 4.15 23 4.4C23 4.65 22.9542 4.89583 22.8625 5.1375C22.7708 5.37917 22.625 5.6 22.425 5.8L13.825 14.4C13.6417 14.5833 13.4292 14.7292 13.1875 14.8375C12.9458 14.9458 12.6917 15 12.425 15H10C9.71667 15 9.47917 14.9042 9.2875 14.7125C9.09583 14.5208 9 14.2833 9 14ZM11 13H12.4L18.2 7.2L17.5 6.5L16.775 5.8L11 11.575V13Z" fill="black"/>
</g>
</svg>
