<svg width="24" height="24" viewBox="0 0 24 24" fill="none" xmlns="http://www.w3.org/2000/svg">
<g clip-path="url(#clip0_37_14023)">
<rect width="24" height="24" rx="12" fill="#E53935"/>
<path fill-rule="evenodd" clip-rule="evenodd" d="M6.84405 6.43336C7.25085 6.02656 7.97635 6.09252 8.4645 6.58067L17.3033 15.4195C17.7915 15.9077 17.8574 16.6332 17.4506 17.04C17.0439 17.4468 16.3184 17.3808 15.8302 16.8926L6.99136 8.05381C6.50321 7.56566 6.43725 6.84016 6.84405 6.43336Z" fill="white"/>
<path fill-rule="evenodd" clip-rule="evenodd" d="M17.4506 6.43336C17.8574 6.84016 17.7914 7.56566 17.3033 8.05381L8.46446 16.8926C7.9763 17.3808 7.2508 17.4468 6.844 17.04C6.43721 16.6332 6.50316 15.9077 6.99132 15.4195L15.8302 6.58067C16.3183 6.09252 17.0438 6.02656 17.4506 6.43336Z" fill="white"/>
</g>
<defs>
<clipPath id="clip0_37_14023">
<rect width="24" height="24" rx="12" fill="white"/>
</clipPath>
</defs>
</svg>
