<svg width="24" height="24" viewBox="0 0 24 24" fill="none" xmlns="http://www.w3.org/2000/svg">
<mask id="mask0_136_26" style="mask-type:alpha" maskUnits="userSpaceOnUse" x="0" y="0" width="24" height="24">
<rect width="24" height="24" fill="#D9D9D9"/>
</mask>
<g mask="url(#mask0_136_26)">
<path d="M11 20C10.7167 20 10.4792 19.9042 10.2875 19.7125C10.0958 19.5208 9.99999 19.2833 9.99999 19V13L4.19999 5.6C3.94999 5.26667 3.91249 4.91667 4.08749 4.55C4.26249 4.18333 4.56666 4 4.99999 4H19C19.4333 4 19.7375 4.18333 19.9125 4.55C20.0875 4.91667 20.05 5.26667 19.8 5.6L14 13V19C14 19.2833 13.9042 19.5208 13.7125 19.7125C13.5208 19.9042 13.2833 20 13 20H11ZM12 12.3L16.95 6H7.04999L12 12.3Z" fill="#1C1B1F"/>
</g>
</svg>
