<svg width="24" height="24" viewBox="0 0 24 24" fill="none" xmlns="http://www.w3.org/2000/svg">
<mask id="mask0_309_130295" style="mask-type:alpha" maskUnits="userSpaceOnUse" x="0" y="0" width="24" height="24">
<rect width="24" height="24" fill="#D9D9D9"/>
</mask>
<g mask="url(#mask0_309_130295)">
<path d="M6 21C5.45 21 4.97917 20.8042 4.5875 20.4125C4.19583 20.0208 4 19.55 4 19V5C4 4.45 4.19583 3.97917 4.5875 3.5875C4.97917 3.19583 5.45 3 6 3H20C20.55 3 21.0208 3.19583 21.4125 3.5875C21.8042 3.97917 22 4.45 22 5V7.5H20V5H6V19H20V16.5H22V19C22 19.55 21.8042 20.0208 21.4125 20.4125C21.0208 20.8042 20.55 21 20 21H6ZM14 17C13.45 17 12.9792 16.8042 12.5875 16.4125C12.1958 16.0208 12 15.55 12 15V9C12 8.45 12.1958 7.97917 12.5875 7.5875C12.9792 7.19583 13.45 7 14 7H21C21.55 7 22.0208 7.19583 22.4125 7.5875C22.8042 7.97917 23 8.45 23 9V15C23 15.55 22.8042 16.0208 22.4125 16.4125C22.0208 16.8042 21.55 17 21 17H14ZM21 15V9H14V15H21ZM17 13.5C17.4167 13.5 17.7708 13.3542 18.0625 13.0625C18.3542 12.7708 18.5 12.4167 18.5 12C18.5 11.5833 18.3542 11.2292 18.0625 10.9375C17.7708 10.6458 17.4167 10.5 17 10.5C16.5833 10.5 16.2292 10.6458 15.9375 10.9375C15.6458 11.2292 15.5 11.5833 15.5 12C15.5 12.4167 15.6458 12.7708 15.9375 13.0625C16.2292 13.3542 16.5833 13.5 17 13.5Z" fill="black"/>
<path d="M9.80355 19.7964L9.86093 19.8538L9.89721 19.9264C9.94884 20.0297 9.99138 20.1189 10.0221 20.1905C10.0372 20.2258 10.0525 20.264 10.065 20.3013C10.0652 20.3019 10.0654 20.3026 10.0657 20.3034C10.0732 20.3257 10.1 20.4057 10.1 20.5C10.1 20.7608 10.0056 20.9974 9.83108 21.1879C9.63411 21.4027 9.37366 21.5 9.1 21.5H1.5C1.22633 21.5 0.96589 21.4027 0.768923 21.1879C0.594357 20.9974 0.5 20.7608 0.5 20.5C0.5 20.3691 0.524917 20.2392 0.577927 20.1155C0.630691 19.9924 0.706595 19.8863 0.796447 19.7964L4.42145 16.1714C4.53839 16.0545 4.67674 15.9508 4.8393 15.8858L4.99686 16.2797L4.83931 15.8858C4.98808 15.8263 5.14364 15.8 5.3 15.8C5.45636 15.8 5.61192 15.8263 5.76069 15.8858C5.92326 15.9508 6.06161 16.0545 6.17855 16.1714L9.80355 19.7964Z" fill="black" stroke="white"/>
</g>
</svg>
