<svg width="24" height="24" viewBox="0 0 24 24" fill="none" xmlns="http://www.w3.org/2000/svg">
<circle cx="17.25" cy="10.25" r="1.25" fill="#FFB900"/>
<circle cx="6.64999" cy="10.25" r="1.25" fill="#FFB900"/>
<mask id="path-3-outside-1_37_13983" maskUnits="userSpaceOnUse" x="6" y="3" width="12" height="9" fill="black">
<rect fill="white" x="6" y="3" width="12" height="9"/>
<path d="M16.2323 11.1565C16.3553 11.2191 16.5065 11.1705 16.5629 11.0445C16.8773 10.3429 17.0261 9.57716 16.9963 8.80672C16.9632 7.95288 16.7119 7.12176 16.2664 6.39266C15.8208 5.66356 15.1958 5.06082 14.451 4.64195C13.7062 4.22309 12.8666 4.00208 12.0121 4.00001C11.1576 3.99795 10.3169 4.2149 9.57008 4.63016C8.82329 5.04542 8.19539 5.64514 7.74629 6.37208C7.29719 7.09901 7.04189 7.92891 7.00473 8.78258C6.9712 9.55287 7.1163 10.3193 7.42726 11.0224C7.4831 11.1487 7.63403 11.1981 7.75735 11.136C7.88067 11.0739 7.92963 10.9238 7.87448 10.7972C7.60155 10.1708 7.47445 9.48923 7.50426 8.80432C7.5377 8.03602 7.76748 7.28911 8.17166 6.63487C8.57585 5.98063 9.14097 5.44088 9.81307 5.06715C10.4852 4.69341 11.2418 4.49816 12.0109 4.50001C12.7799 4.50187 13.5356 4.70078 14.2059 5.07776C14.8762 5.45474 15.4387 5.9972 15.8397 6.65339C16.2407 7.30958 16.4669 8.05759 16.4966 8.82605C16.5231 9.51109 16.3927 10.192 16.1168 10.8172C16.061 10.9435 16.1093 11.0938 16.2323 11.1565Z"/>
</mask>
<path d="M16.2323 11.1565C16.3553 11.2191 16.5065 11.1705 16.5629 11.0445C16.8773 10.3429 17.0261 9.57716 16.9963 8.80672C16.9632 7.95288 16.7119 7.12176 16.2664 6.39266C15.8208 5.66356 15.1958 5.06082 14.451 4.64195C13.7062 4.22309 12.8666 4.00208 12.0121 4.00001C11.1576 3.99795 10.3169 4.2149 9.57008 4.63016C8.82329 5.04542 8.19539 5.64514 7.74629 6.37208C7.29719 7.09901 7.04189 7.92891 7.00473 8.78258C6.9712 9.55287 7.1163 10.3193 7.42726 11.0224C7.4831 11.1487 7.63403 11.1981 7.75735 11.136C7.88067 11.0739 7.92963 10.9238 7.87448 10.7972C7.60155 10.1708 7.47445 9.48923 7.50426 8.80432C7.5377 8.03602 7.76748 7.28911 8.17166 6.63487C8.57585 5.98063 9.14097 5.44088 9.81307 5.06715C10.4852 4.69341 11.2418 4.49816 12.0109 4.50001C12.7799 4.50187 13.5356 4.70078 14.2059 5.07776C14.8762 5.45474 15.4387 5.9972 15.8397 6.65339C16.2407 7.30958 16.4669 8.05759 16.4966 8.82605C16.5231 9.51109 16.3927 10.192 16.1168 10.8172C16.061 10.9435 16.1093 11.0938 16.2323 11.1565Z" fill="#FFB900"/>
<path d="M16.2323 11.1565C16.3553 11.2191 16.5065 11.1705 16.5629 11.0445C16.8773 10.3429 17.0261 9.57716 16.9963 8.80672C16.9632 7.95288 16.7119 7.12176 16.2664 6.39266C15.8208 5.66356 15.1958 5.06082 14.451 4.64195C13.7062 4.22309 12.8666 4.00208 12.0121 4.00001C11.1576 3.99795 10.3169 4.2149 9.57008 4.63016C8.82329 5.04542 8.19539 5.64514 7.74629 6.37208C7.29719 7.09901 7.04189 7.92891 7.00473 8.78258C6.9712 9.55287 7.1163 10.3193 7.42726 11.0224C7.4831 11.1487 7.63403 11.1981 7.75735 11.136C7.88067 11.0739 7.92963 10.9238 7.87448 10.7972C7.60155 10.1708 7.47445 9.48923 7.50426 8.80432C7.5377 8.03602 7.76748 7.28911 8.17166 6.63487C8.57585 5.98063 9.14097 5.44088 9.81307 5.06715C10.4852 4.69341 11.2418 4.49816 12.0109 4.50001C12.7799 4.50187 13.5356 4.70078 14.2059 5.07776C14.8762 5.45474 15.4387 5.9972 15.8397 6.65339C16.2407 7.30958 16.4669 8.05759 16.4966 8.82605C16.5231 9.51109 16.3927 10.192 16.1168 10.8172C16.061 10.9435 16.1093 11.0938 16.2323 11.1565Z" stroke="#FFB900" stroke-width="1.4" mask="url(#path-3-outside-1_37_13983)"/>
<circle cx="12" cy="9" r="5" fill="#212121"/>
<path opacity="0.5" fill-rule="evenodd" clip-rule="evenodd" d="M12 8.00049C11.0878 9.21466 9.6356 10 8 10C7.68704 10 7.38079 9.97125 7.08376 9.91624C7.02875 9.61921 7 9.31296 7 9C7 6.55154 8.75992 4.51413 11.0838 4.08376C11.0941 4.08184 11.1045 4.07995 11.1149 4.07809C11.4022 4.02678 11.698 4 12 4C12.313 4 12.6192 4.02875 12.9162 4.08376C15.2401 4.51413 17 6.55154 17 9C17 9.31296 16.9712 9.61921 16.9162 9.91624C16.6192 9.97125 16.313 10 16 10C14.3644 10 12.9122 9.21466 12 8.00049Z" fill="#424242"/>
<path d="M16.8 11.3C15.4608 12.5649 14.5952 12.9247 12.8 12.8" stroke="#FFA600" stroke-width="0.7" stroke-linecap="round"/>
<path d="M4 21C4 17.6863 6.68629 15 10 15H14C17.3137 15 20 17.6863 20 21H4Z" fill="#212121"/>
</svg>
