<svg width="24" height="24" viewBox="0 0 24 24" fill="none" xmlns="http://www.w3.org/2000/svg">
<g clip-path="url(#clip0_37_13961)">
<path d="M16 4H7C5.89543 4 5 4.89543 5 6V18C5 19.1046 5.89543 20 7 20H16" stroke="black" stroke-width="2" stroke-linecap="round"/>
<path fill-rule="evenodd" clip-rule="evenodd" d="M14.1667 7.83334C14.6269 7.3731 15.3731 7.3731 15.8333 7.83334L19.1667 11.1667C19.6269 11.6269 19.6269 12.3731 19.1667 12.8333L15.8333 16.1667C15.3731 16.6269 14.6269 16.6269 14.1667 16.1667C13.7064 15.7064 13.7064 14.9602 14.1667 14.5L15.6667 13L10 13C9.44772 13 9 12.5523 9 12C9 11.4477 9.44772 11 10 11L15.6667 11L14.1667 9.5C13.7064 9.03977 13.7064 8.29357 14.1667 7.83334Z" fill="black"/>
</g>
<defs>
<clipPath id="clip0_37_13961">
<rect width="16" height="18" fill="white" transform="translate(4 3)"/>
</clipPath>
</defs>
</svg>
