<svg width="24" height="24" viewBox="0 0 24 24" fill="none" xmlns="http://www.w3.org/2000/svg">
<mask id="mask0_309_134070" style="mask-type:alpha" maskUnits="userSpaceOnUse" x="0" y="0" width="24" height="24">
<rect width="24" height="24" fill="#D9D9D9"/>
</mask>
<g mask="url(#mask0_309_134070)">
<path d="M6 21C5.45 21 4.97917 20.8042 4.5875 20.4125C4.19583 20.0208 4 19.55 4 19V5C4 4.45 4.19583 3.97917 4.5875 3.5875C4.97917 3.19583 5.45 3 6 3H20C20.55 3 21.0208 3.19583 21.4125 3.5875C21.8042 3.97917 22 4.45 22 5V7.5H20V5H6V19H20V16.5H22V19C22 19.55 21.8042 20.0208 21.4125 20.4125C21.0208 20.8042 20.55 21 20 21H6ZM14 17C13.45 17 12.9792 16.8042 12.5875 16.4125C12.1958 16.0208 12 15.55 12 15V9C12 8.45 12.1958 7.97917 12.5875 7.5875C12.9792 7.19583 13.45 7 14 7H21C21.55 7 22.0208 7.19583 22.4125 7.5875C22.8042 7.97917 23 8.45 23 9V15C23 15.55 22.8042 16.0208 22.4125 16.4125C22.0208 16.8042 21.55 17 21 17H14ZM21 15V9H14V15H21ZM17 13.5C17.4167 13.5 17.7708 13.3542 18.0625 13.0625C18.3542 12.7708 18.5 12.4167 18.5 12C18.5 11.5833 18.3542 11.2292 18.0625 10.9375C17.7708 10.6458 17.4167 10.5 17 10.5C16.5833 10.5 16.2292 10.6458 15.9375 10.9375C15.6458 11.2292 15.5 11.5833 15.5 12C15.5 12.4167 15.6458 12.7708 15.9375 13.0625C16.2292 13.3542 16.5833 13.5 17 13.5Z" fill="black"/>
<path d="M9.80355 17.5036L9.86093 17.4462L9.89721 17.3736C9.94884 17.2704 9.99138 17.1811 10.0221 17.1095C10.0372 17.0742 10.0525 17.036 10.065 16.9987C10.0652 16.9981 10.0654 16.9974 10.0657 16.9966C10.0732 16.9743 10.1 16.8943 10.1 16.8C10.1 16.5392 10.0056 16.3026 9.83108 16.1121C9.63411 15.8973 9.37366 15.8 9.1 15.8H1.5C1.22633 15.8 0.96589 15.8973 0.768923 16.1121C0.594357 16.3026 0.5 16.5392 0.5 16.8C0.5 16.9309 0.524917 17.0608 0.577927 17.1845C0.630691 17.3076 0.706595 17.4137 0.796447 17.5036L4.42145 21.1286C4.53839 21.2455 4.67674 21.3492 4.8393 21.4142L4.99686 21.0203L4.83931 21.4142C4.98808 21.4738 5.14364 21.5 5.3 21.5C5.45636 21.5 5.61192 21.4738 5.76069 21.4142C5.92326 21.3492 6.06161 21.2455 6.17855 21.1286L9.80355 17.5036Z" fill="black" stroke="white"/>
</g>
</svg>
