<svg width="24" height="24" viewBox="0 0 24 24" fill="none" xmlns="http://www.w3.org/2000/svg">
<mask id="mask0_1_72" style="mask-type:alpha" maskUnits="userSpaceOnUse" x="0" y="0" width="24" height="24">
<rect width="24" height="24" fill="#D9D9D9"/>
</mask>
<g mask="url(#mask0_1_72)">
<path d="M18.175 18H15C14.7167 18 14.4792 17.9042 14.2875 17.7125C14.0958 17.5208 14 17.2833 14 17C14 16.7167 14.0958 16.4792 14.2875 16.2875C14.4792 16.0958 14.7167 16 15 16H18.175L17.275 15.1C17.0917 14.9167 17 14.6875 17 14.4125C17 14.1375 17.1 13.9 17.3 13.7C17.4833 13.5167 17.7167 13.425 18 13.425C18.2833 13.425 18.5167 13.5167 18.7 13.7L21.3 16.3C21.3833 16.3833 21.45 16.4875 21.5 16.6125C21.55 16.7375 21.575 16.8667 21.575 17C21.575 17.1333 21.55 17.2625 21.5 17.3875C21.45 17.5125 21.3833 17.6167 21.3 17.7L18.7 20.3C18.5167 20.4833 18.2875 20.5792 18.0125 20.5875C17.7375 20.5958 17.5 20.5 17.3 20.3C17.1167 20.1167 17.025 19.8833 17.025 19.6C17.025 19.3167 17.1167 19.0833 17.3 18.9L18.175 18ZM4 18C3.45 18 2.97917 17.8042 2.5875 17.4125C2.19583 17.0208 2 16.55 2 16V6C2 5.45 2.19583 4.97917 2.5875 4.5875C2.97917 4.19583 3.45 4 4 4H17C17.55 4 18.0208 4.19583 18.4125 4.5875C18.8042 4.97917 19 5.45 19 6V10.075C19 10.3417 18.9 10.575 18.7 10.775C18.5 10.975 18.2667 11.075 18 11.075C17.7167 11.075 17.4792 10.9792 17.2875 10.7875C17.0958 10.5958 17 10.3583 17 10.075V7.4L10.4 12L4 7.425V16H11.075C11.3583 16 11.5958 16.0958 11.7875 16.2875C11.9792 16.4792 12.075 16.7167 12.075 17C12.075 17.2833 11.9792 17.5208 11.7875 17.7125C11.5958 17.9042 11.3583 18 11.075 18H4ZM5.45 6L10.4 9.55L15.5 6H5.45Z" fill="black"/>
</g>
</svg>
