<svg width="24" height="24" viewBox="0 0 24 24" fill="none" xmlns="http://www.w3.org/2000/svg">
<mask id="mask0_37_14009" style="mask-type:alpha" maskUnits="userSpaceOnUse" x="0" y="0" width="24" height="24">
<rect width="24" height="24" fill="#D9D9D9"/>
</mask>
<g mask="url(#mask0_37_14009)">
<path d="M18 21L16.6 19.6L18.175 18H14V16H18.175L16.6 14.4L18 13L22 17L18 21ZM4 18C3.45 18 2.97917 17.8042 2.5875 17.4125C2.19583 17.0208 2 16.55 2 16V6C2 5.45 2.19583 4.97917 2.5875 4.5875C2.97917 4.19583 3.45 4 4 4H17C17.55 4 18.0208 4.19583 18.4125 4.5875C18.8042 4.97917 19 5.45 19 6V11.1C18.8333 11.0667 18.6667 11.0417 18.5 11.025C18.3333 11.0083 18.1667 11 18 11C17.8333 11 17.6667 11.0042 17.5 11.0125C17.3333 11.0208 17.1667 11.0417 17 11.075V7.4L10.4 12L4 7.425V16H12.075C12.0417 16.1667 12.0208 16.3333 12.0125 16.5C12.0042 16.6667 12 16.8333 12 17C12 17.1667 12.0083 17.3333 12.025 17.5C12.0417 17.6667 12.0667 17.8333 12.1 18H4ZM5.45 6L10.4 9.55L15.5 6H5.45Z" fill="#1C1B1F"/>
</g>
</svg>
