<svg width="24" height="24" viewBox="0 0 24 24" fill="none" xmlns="http://www.w3.org/2000/svg">
<path d="M10.6988 6.81668L7.65408 3.30239C7.30309 2.89741 6.65959 2.89921 6.25189 3.30779L3.74811 5.81594C3.00291 6.56199 2.78961 7.66983 3.22071 8.55807C5.79615 13.8902 10.0967 18.1966 15.4255 20.7793C16.3129 21.2104 17.4199 20.9971 18.1651 20.2511L20.6923 17.7195C21.1018 17.31 21.1027 16.663 20.6941 16.312L17.1661 13.2837C16.7971 12.9669 16.2238 13.0083 15.8539 13.3791L14.6263 14.6084C14.5635 14.6743 14.4808 14.7177 14.3909 14.732C14.301 14.7463 14.2088 14.7307 14.1286 14.6876C12.1221 13.5322 10.4576 11.8656 9.30467 9.8576C9.2615 9.77728 9.24587 9.68501 9.26017 9.59495C9.27448 9.50489 9.31793 9.42201 9.38387 9.35902L10.6079 8.1342C10.9787 7.76162 11.0192 7.18566 10.6988 6.81578V6.81668Z" stroke="black" stroke-width="2" stroke-linecap="round" stroke-linejoin="round"/>
</svg>
