<svg width="24" height="24" viewBox="0 0 24 24" fill="none" xmlns="http://www.w3.org/2000/svg">
<mask id="mask0_1_75" style="mask-type:alpha" maskUnits="userSpaceOnUse" x="0" y="0" width="24" height="24">
<rect width="24" height="24" fill="#D9D9D9"/>
</mask>
<g mask="url(#mask0_1_75)">
<path d="M8 21C7.45 21 6.97917 20.8042 6.5875 20.4125C6.19583 20.0208 6 19.55 6 19V17H4C3.45 17 2.97917 16.8042 2.5875 16.4125C2.19583 16.0208 2 15.55 2 15V11C2 10.15 2.29167 9.4375 2.875 8.8625C3.45833 8.2875 4.16667 8 5 8H19C19.85 8 20.5625 8.2875 21.1375 8.8625C21.7125 9.4375 22 10.15 22 11V15C22 15.55 21.8042 16.0208 21.4125 16.4125C21.0208 16.8042 20.55 17 20 17H18V19C18 19.55 17.8042 20.0208 17.4125 20.4125C17.0208 20.8042 16.55 21 16 21H8ZM4 15H6C6 14.45 6.19583 13.9792 6.5875 13.5875C6.97917 13.1958 7.45 13 8 13H16C16.55 13 17.0208 13.1958 17.4125 13.5875C17.8042 13.9792 18 14.45 18 15H20V11C20 10.7167 19.9042 10.4792 19.7125 10.2875C19.5208 10.0958 19.2833 10 19 10H5C4.71667 10 4.47917 10.0958 4.2875 10.2875C4.09583 10.4792 4 10.7167 4 11V15ZM16 8V5H8V8H6V5C6 4.45 6.19583 3.97917 6.5875 3.5875C6.97917 3.19583 7.45 3 8 3H16C16.55 3 17.0208 3.19583 17.4125 3.5875C17.8042 3.97917 18 4.45 18 5V8H16ZM18 12.5C18.2833 12.5 18.5208 12.4042 18.7125 12.2125C18.9042 12.0208 19 11.7833 19 11.5C19 11.2167 18.9042 10.9792 18.7125 10.7875C18.5208 10.5958 18.2833 10.5 18 10.5C17.7167 10.5 17.4792 10.5958 17.2875 10.7875C17.0958 10.9792 17 11.2167 17 11.5C17 11.7833 17.0958 12.0208 17.2875 12.2125C17.4792 12.4042 17.7167 12.5 18 12.5ZM16 19V15H8V19H16Z" fill="black"/>
</g>
</svg>
