<svg width="24" height="24" viewBox="0 0 24 24" fill="none" xmlns="http://www.w3.org/2000/svg">
<mask id="mask0_37_14068" style="mask-type:alpha" maskUnits="userSpaceOnUse" x="0" y="0" width="24" height="24">
<rect width="24" height="24" fill="#D9D9D9"/>
</mask>
<g mask="url(#mask0_37_14068)">
<path d="M9.825 20.7C8.10833 20.2167 6.70833 19.2708 5.625 17.8625C4.54167 16.4542 4 14.8333 4 13C4 12.05 4.15833 11.1458 4.475 10.2875C4.79167 9.42916 5.24167 8.64165 5.825 7.92499C6.00833 7.72499 6.23333 7.62082 6.5 7.61249C6.76667 7.60416 7.00833 7.70832 7.225 7.92499C7.40833 8.10832 7.50417 8.33332 7.5125 8.59999C7.52083 8.86666 7.43333 9.11666 7.25 9.34999C6.85 9.86666 6.54167 10.4333 6.325 11.05C6.10833 11.6667 6 12.3167 6 13C6 14.35 6.39583 15.5542 7.1875 16.6125C7.97917 17.6708 9 18.3917 10.25 18.775C10.4667 18.8417 10.6458 18.9667 10.7875 19.15C10.9292 19.3333 11 19.5333 11 19.75C11 20.0833 10.8833 20.3458 10.65 20.5375C10.4167 20.7292 10.1417 20.7833 9.825 20.7ZM14.175 20.7C13.8583 20.7833 13.5833 20.725 13.35 20.525C13.1167 20.325 13 20.0583 13 19.725C13 19.525 13.0708 19.3333 13.2125 19.15C13.3542 18.9667 13.5333 18.8417 13.75 18.775C15 18.375 16.0208 17.65 16.8125 16.6C17.6042 15.55 18 14.35 18 13C18 11.3333 17.4167 9.91665 16.25 8.74999C15.0833 7.58332 13.6667 6.99999 12 6.99999H11.925L12.325 7.39999C12.5083 7.58332 12.6 7.81666 12.6 8.09999C12.6 8.38332 12.5083 8.61665 12.325 8.79999C12.1417 8.98332 11.9083 9.07499 11.625 9.07499C11.3417 9.07499 11.1083 8.98332 10.925 8.79999L8.825 6.69999C8.725 6.59999 8.65417 6.49165 8.6125 6.37499C8.57083 6.25832 8.55 6.13332 8.55 5.99999C8.55 5.86665 8.57083 5.74165 8.6125 5.62499C8.65417 5.50832 8.725 5.39999 8.825 5.29999L10.925 3.19999C11.1083 3.01665 11.3417 2.92499 11.625 2.92499C11.9083 2.92499 12.1417 3.01665 12.325 3.19999C12.5083 3.38332 12.6 3.61665 12.6 3.89999C12.6 4.18332 12.5083 4.41665 12.325 4.59999L11.925 4.99999H12C14.2333 4.99999 16.125 5.77499 17.675 7.32499C19.225 8.87499 20 10.7667 20 13C20 14.8167 19.4583 16.4333 18.375 17.85C17.2917 19.2667 15.8917 20.2167 14.175 20.7Z" fill="#1C1B1F"/>
</g>
</svg>
