<svg width="24" height="24" viewBox="0 0 24 24" fill="none" xmlns="http://www.w3.org/2000/svg">
<mask id="mask0_168_100627" style="mask-type:alpha" maskUnits="userSpaceOnUse" x="0" y="0" width="24" height="24">
<rect width="24" height="24" fill="#D9D9D9"/>
</mask>
<g mask="url(#mask0_168_100627)">
<path d="M5 21C4.45 21 3.97917 20.8042 3.5875 20.4125C3.19583 20.0208 3 19.55 3 19V5C3 4.45 3.19583 3.97917 3.5875 3.5875C3.97917 3.19583 4.45 3 5 3H16.175C16.4417 3 16.6958 3.05 16.9375 3.15C17.1792 3.25 17.3917 3.39167 17.575 3.575L20.425 6.425C20.6083 6.60833 20.75 6.82083 20.85 7.0625C20.95 7.30417 21 7.55833 21 7.825V19C21 19.55 20.8042 20.0208 20.4125 20.4125C20.0208 20.8042 19.55 21 19 21H5ZM19 7.85L16.15 5H5V19H19V7.85ZM12 18C12.8333 18 13.5417 17.7083 14.125 17.125C14.7083 16.5417 15 15.8333 15 15C15 14.1667 14.7083 13.4583 14.125 12.875C13.5417 12.2917 12.8333 12 12 12C11.1667 12 10.4583 12.2917 9.875 12.875C9.29167 13.4583 9 14.1667 9 15C9 15.8333 9.29167 16.5417 9.875 17.125C10.4583 17.7083 11.1667 18 12 18ZM7 10H14C14.2833 10 14.5208 9.90417 14.7125 9.7125C14.9042 9.52083 15 9.28333 15 9V7C15 6.71667 14.9042 6.47917 14.7125 6.2875C14.5208 6.09583 14.2833 6 14 6H7C6.71667 6 6.47917 6.09583 6.2875 6.2875C6.09583 6.47917 6 6.71667 6 7V9C6 9.28333 6.09583 9.52083 6.2875 9.7125C6.47917 9.90417 6.71667 10 7 10Z" fill="#1C1B1F"/>
</g>
</svg>
