<svg width="24" height="24" viewBox="0 0 24 24" fill="none" xmlns="http://www.w3.org/2000/svg">
<mask id="mask0_37_14015" style="mask-type:alpha" maskUnits="userSpaceOnUse" x="0" y="0" width="24" height="24">
<rect width="24" height="24" fill="#D9D9D9"/>
</mask>
<g mask="url(#mask0_37_14015)">
<path d="M6 22C5.45 22 4.97917 21.8042 4.5875 21.4125C4.19583 21.0208 4 20.55 4 20V4C4 3.45 4.19583 2.97917 4.5875 2.5875C4.97917 2.19583 5.45 2 6 2H13.175C13.4417 2 13.6958 2.05 13.9375 2.15C14.1792 2.25 14.3917 2.39167 14.575 2.575L19.425 7.425C19.6083 7.60833 19.75 7.82083 19.85 8.0625C19.95 8.30417 20 8.55833 20 8.825V12.35C19.6833 12.2333 19.3583 12.1458 19.025 12.0875C18.6917 12.0292 18.35 12 18 12V9H15C14.45 9 13.9792 8.80417 13.5875 8.4125C13.1958 8.02083 13 7.55 13 7V4H6V20H12.35C12.4833 20.3833 12.65 20.7417 12.85 21.075C13.05 21.4083 13.2833 21.7167 13.55 22H6ZM18 19.425L16.6 20.8C16.4167 20.9833 16.1875 21.0792 15.9125 21.0875C15.6375 21.0958 15.4 21 15.2 20.8C15.0167 20.6167 14.925 20.3833 14.925 20.1C14.925 19.8167 15.0167 19.5833 15.2 19.4L16.6 18L15.2 16.6C15.0167 16.4167 14.925 16.1833 14.925 15.9C14.925 15.6167 15.0167 15.3833 15.2 15.2C15.3833 15.0167 15.6167 14.925 15.9 14.925C16.1833 14.925 16.4167 15.0167 16.6 15.2L18 16.6L19.4 15.2C19.5833 15.0167 19.8125 14.9208 20.0875 14.9125C20.3625 14.9042 20.6 15 20.8 15.2C20.9833 15.3833 21.075 15.6167 21.075 15.9C21.075 16.1833 20.9833 16.4167 20.8 16.6L19.425 18L20.8 19.4C20.9833 19.5833 21.0792 19.8125 21.0875 20.0875C21.0958 20.3625 21 20.6 20.8 20.8C20.6167 20.9833 20.3833 21.075 20.1 21.075C19.8167 21.075 19.5833 20.9833 19.4 20.8L18 19.425Z" fill="#1C1B1F"/>
</g>
</svg>
