<svg width="24" height="24" viewBox="0 0 24 24" fill="none" xmlns="http://www.w3.org/2000/svg">
<path d="M3.1875 9H4.5C4.60312 9 4.6875 8.91563 4.6875 8.8125V4.6875H8.8125C8.91563 4.6875 9 4.60312 9 4.5V3.1875C9 3.08437 8.91563 3 8.8125 3H4.59375C3.7125 3 3 3.7125 3 4.59375V8.8125C3 8.91563 3.08437 9 3.1875 9ZM15.1875 4.6875H19.3125V8.8125C19.3125 8.91563 19.3969 9 19.5 9H20.8125C20.9156 9 21 8.91563 21 8.8125V4.59375C21 3.7125 20.2875 3 19.4062 3H15.1875C15.0844 3 15 3.08437 15 3.1875V4.5C15 4.60312 15.0844 4.6875 15.1875 4.6875ZM8.8125 19.3125H4.6875V15.1875C4.6875 15.0844 4.60312 15 4.5 15H3.1875C3.08437 15 3 15.0844 3 15.1875V19.4062C3 20.2875 3.7125 21 4.59375 21H8.8125C8.91563 21 9 20.9156 9 20.8125V19.5C9 19.3969 8.91563 19.3125 8.8125 19.3125ZM20.8125 15H19.5C19.3969 15 19.3125 15.0844 19.3125 15.1875V19.3125H15.1875C15.0844 19.3125 15 19.3969 15 19.5V20.8125C15 20.9156 15.0844 21 15.1875 21H19.4062C20.2875 21 21 20.2875 21 19.4062V15.1875C21 15.0844 20.9156 15 20.8125 15ZM21.1875 11.1562H2.8125C2.70937 11.1562 2.625 11.2406 2.625 11.3438V12.6562C2.625 12.7594 2.70937 12.8438 2.8125 12.8438H21.1875C21.2906 12.8438 21.375 12.7594 21.375 12.6562V11.3438C21.375 11.2406 21.2906 11.1562 21.1875 11.1562Z" fill="black"/>
</svg>
