<svg width="32" height="32" viewBox="0 0 32 32" fill="none" xmlns="http://www.w3.org/2000/svg">
    <mask id="mask0_1074_6803" style="mask-type:alpha" maskUnits="userSpaceOnUse" x="0" y="0" width="32" height="32">
        <rect width="32" height="32" fill="#D9D9D9" />
    </mask>
    <g mask="url(#mask0_1074_6803)">
        <path
            d="M8.00016 29.3333C7.26683 29.3333 6.63905 29.0722 6.11683 28.55C5.59461 28.0278 5.3335 27.4 5.3335 26.6667V5.33333C5.3335 4.6 5.59461 3.97222 6.11683 3.45C6.63905 2.92778 7.26683 2.66667 8.00016 2.66667H17.5668C17.9224 2.66667 18.2613 2.73333 18.5835 2.86667C18.9057 3 19.1891 3.18889 19.4335 3.43333L25.9002 9.9C26.1446 10.1444 26.3335 10.4278 26.4668 10.75C26.6002 11.0722 26.6668 11.4111 26.6668 11.7667V16.4667C26.2446 16.3111 25.8113 16.1944 25.3668 16.1167C24.9224 16.0389 24.4668 16 24.0002 16V12H20.0002C19.2668 12 18.6391 11.7389 18.1168 11.2167C17.5946 10.6944 17.3335 10.0667 17.3335 9.33333V5.33333H8.00016V26.6667H16.4668C16.6446 27.1778 16.8668 27.6556 17.1335 28.1C17.4002 28.5444 17.7113 28.9556 18.0668 29.3333H8.00016ZM24.0002 25.9L22.1335 27.7333C21.8891 27.9778 21.5835 28.1056 21.2168 28.1167C20.8502 28.1278 20.5335 28 20.2668 27.7333C20.0224 27.4889 19.9002 27.1778 19.9002 26.8C19.9002 26.4222 20.0224 26.1111 20.2668 25.8667L22.1335 24L20.2668 22.1333C20.0224 21.8889 19.9002 21.5778 19.9002 21.2C19.9002 20.8222 20.0224 20.5111 20.2668 20.2667C20.5113 20.0222 20.8224 19.9 21.2002 19.9C21.5779 19.9 21.8891 20.0222 22.1335 20.2667L24.0002 22.1333L25.8668 20.2667C26.1113 20.0222 26.4168 19.8944 26.7835 19.8833C27.1502 19.8722 27.4668 20 27.7335 20.2667C27.9779 20.5111 28.1002 20.8222 28.1002 21.2C28.1002 21.5778 27.9779 21.8889 27.7335 22.1333L25.9002 24L27.7335 25.8667C27.9779 26.1111 28.1057 26.4167 28.1168 26.7833C28.1279 27.15 28.0002 27.4667 27.7335 27.7333C27.4891 27.9778 27.1779 28.1 26.8002 28.1C26.4224 28.1 26.1113 27.9778 25.8668 27.7333L24.0002 25.9Z"
            fill="#616161" />
    </g>
</svg>