<svg width="24" height="24" viewBox="0 0 24 24" fill="none" xmlns="http://www.w3.org/2000/svg">
<mask id="mask0_14_58857" style="mask-type:alpha" maskUnits="userSpaceOnUse" x="0" y="0" width="24" height="24">
<rect width="24" height="24" fill="#D9D9D9"/>
</mask>
<g mask="url(#mask0_14_58857)">
<path fill-rule="evenodd" clip-rule="evenodd" d="M14.8303 16.4466C13.7094 17.2448 12.3381 17.7143 10.8571 17.7143C7.07005 17.7143 4 14.6442 4 10.8571C4 7.07005 7.07005 4 10.8571 4C14.6442 4 17.7143 7.07005 17.7143 10.8571C17.7143 12.3381 17.2448 13.7094 16.4466 14.8303L19.6653 18.049C20.1116 18.4953 20.1116 19.219 19.6653 19.6653C19.219 20.1116 18.4953 20.1116 18.049 19.6653L14.8303 16.4466ZM15.4286 10.8571C15.4286 13.3819 13.3819 15.4286 10.8571 15.4286C8.33241 15.4286 6.28571 13.3819 6.28571 10.8571C6.28571 8.33241 8.33241 6.28571 10.8571 6.28571C13.3819 6.28571 15.4286 8.33241 15.4286 10.8571Z" fill="black"/>
</g>
</svg>
