<svg width="24" height="24" viewBox="0 0 24 24" fill="none" xmlns="http://www.w3.org/2000/svg">
<path d="M13.8 10.8C13.8002 11.1724 13.6849 11.5357 13.47 11.8398C13.2551 12.1439 12.9511 12.3739 12.6 12.498V15C12.6 15.1591 12.5368 15.3117 12.4243 15.4243C12.3117 15.5368 12.1591 15.6 12 15.6C11.8409 15.6 11.6883 15.5368 11.5757 15.4243C11.4632 15.3117 11.4 15.1591 11.4 15V12.498C11.0889 12.388 10.814 12.1946 10.6054 11.939C10.3968 11.6833 10.2625 11.3753 10.2171 11.0485C10.1717 10.7216 10.2171 10.3886 10.3482 10.0858C10.4792 9.78303 10.691 9.52208 10.9604 9.33151C11.2297 9.14094 11.5463 9.02807 11.8755 9.00525C12.2046 8.98242 12.5338 9.05051 12.8268 9.20207C13.1199 9.35364 13.3657 9.58285 13.5373 9.86466C13.709 10.1465 13.7998 10.47 13.8 10.8ZM12.3324 2.50079C12.2339 2.43526 12.1183 2.4003 12 2.4003C11.8817 2.4003 11.7661 2.43526 11.6676 2.50079C9.40217 4.02802 6.81975 5.02136 4.11481 5.40599C3.97189 5.42649 3.84115 5.49784 3.74659 5.60695C3.65203 5.71606 3.59999 5.85561 3.60001 5.99999V11.4C3.60001 16.0692 6.36841 19.476 11.784 21.5604C11.923 21.614 12.077 21.614 12.216 21.5604C17.6316 19.476 20.4 16.068 20.4 11.4V5.99999C20.4 5.85543 20.3478 5.71573 20.253 5.6066C20.1582 5.49746 20.0271 5.42623 19.884 5.40599C17.1795 5.02118 14.5975 4.02785 12.3324 2.50079ZM4.80001 6.51359C7.17723 6.11096 9.45713 5.26333 11.52 4.01519L12 3.71639L12.48 4.01519C14.5429 5.26333 16.8228 6.11096 19.2 6.51359V11.4C19.2 15.4704 16.8384 18.4356 12 20.3556C7.16161 18.4356 4.80001 15.4704 4.80001 11.4V6.51359Z" fill="#212121" stroke="#212121" stroke-width="0.4"/>
<path d="M13.8 10.8C13.8002 11.1724 13.6849 11.5357 13.47 11.8398C13.2551 12.1439 12.9511 12.3739 12.6 12.498V15C12.6 15.1591 12.5368 15.3117 12.4243 15.4243C12.3118 15.5368 12.1591 15.6 12 15.6C11.8409 15.6 11.6883 15.5368 11.5757 15.4243C11.4632 15.3117 11.4 15.1591 11.4 15V12.498C11.0889 12.388 10.8141 12.1946 10.6054 11.939C10.3968 11.6834 10.2625 11.3753 10.2171 11.0485C10.1717 10.7217 10.2171 10.3886 10.3482 10.0858C10.4792 9.78304 10.691 9.5221 10.9604 9.33152C11.2298 9.14095 11.5463 9.02809 11.8755 9.00526C12.2047 8.98243 12.5338 9.05052 12.8268 9.20209C13.1199 9.35365 13.3657 9.58287 13.5373 9.86468C13.709 10.1465 13.7998 10.47 13.8 10.8Z" fill="#FFA600" stroke="#FFA600" stroke-width="0.4"/>
<rect width="7.56901" height="6.5625" transform="translate(13 15)" fill="white"/>
<path d="M18.075 17.5438L17.0125 16.4937L17.3625 16.1438C17.4583 16.0479 17.5761 16 17.7158 16C17.8553 16 17.9729 16.0479 18.0687 16.1438L18.4187 16.4937C18.5146 16.5896 18.5646 16.7052 18.5687 16.8407C18.5729 16.9761 18.5271 17.0917 18.4313 17.1875L18.075 17.5438ZM14.25 20.5625C14.1792 20.5625 14.1198 20.5385 14.072 20.4905C14.024 20.4427 14 20.3833 14 20.3125V19.6062C14 19.5729 14.0063 19.5407 14.0188 19.5095C14.0313 19.4782 14.05 19.45 14.075 19.425L16.65 16.85L17.7125 17.9125L15.1375 20.4875C15.1125 20.5125 15.0844 20.5312 15.0532 20.5437C15.0219 20.5562 14.9896 20.5625 14.9562 20.5625H14.25Z" fill="#111111"/>
</svg>
