<svg width="24" height="24" viewBox="0 0 24 24" fill="none" xmlns="http://www.w3.org/2000/svg">
<mask id="mask0_37_14050" style="mask-type:alpha" maskUnits="userSpaceOnUse" x="0" y="0" width="24" height="24">
<rect width="24" height="24" fill="#D9D9D9"/>
</mask>
<g mask="url(#mask0_37_14050)">
<path d="M6.4 19H8C8.28333 19 8.52083 19.0958 8.7125 19.2875C8.90417 19.4792 9 19.7167 9 20C9 20.2833 8.90417 20.5208 8.7125 20.7125C8.52083 20.9042 8.28333 21 8 21H4C3.71667 21 3.47917 20.9042 3.2875 20.7125C3.09583 20.5208 3 20.2833 3 20V16C3 15.7167 3.09583 15.4792 3.2875 15.2875C3.47917 15.0958 3.71667 15 4 15C4.28333 15 4.52083 15.0958 4.7125 15.2875C4.90417 15.4792 5 15.7167 5 16V17.6L7.4 15.2C7.58333 15.0167 7.81667 14.925 8.1 14.925C8.38333 14.925 8.61667 15.0167 8.8 15.2C8.98333 15.3833 9.075 15.6167 9.075 15.9C9.075 16.1833 8.98333 16.4167 8.8 16.6L6.4 19ZM17.6 19L15.2 16.6C15.0167 16.4167 14.925 16.1833 14.925 15.9C14.925 15.6167 15.0167 15.3833 15.2 15.2C15.3833 15.0167 15.6167 14.925 15.9 14.925C16.1833 14.925 16.4167 15.0167 16.6 15.2L19 17.6V16C19 15.7167 19.0958 15.4792 19.2875 15.2875C19.4792 15.0958 19.7167 15 20 15C20.2833 15 20.5208 15.0958 20.7125 15.2875C20.9042 15.4792 21 15.7167 21 16V20C21 20.2833 20.9042 20.5208 20.7125 20.7125C20.5208 20.9042 20.2833 21 20 21H16C15.7167 21 15.4792 20.9042 15.2875 20.7125C15.0958 20.5208 15 20.2833 15 20C15 19.7167 15.0958 19.4792 15.2875 19.2875C15.4792 19.0958 15.7167 19 16 19H17.6ZM5 6.4V8C5 8.28333 4.90417 8.52083 4.7125 8.7125C4.52083 8.90417 4.28333 9 4 9C3.71667 9 3.47917 8.90417 3.2875 8.7125C3.09583 8.52083 3 8.28333 3 8V4C3 3.71667 3.09583 3.47917 3.2875 3.2875C3.47917 3.09583 3.71667 3 4 3H8C8.28333 3 8.52083 3.09583 8.7125 3.2875C8.90417 3.47917 9 3.71667 9 4C9 4.28333 8.90417 4.52083 8.7125 4.7125C8.52083 4.90417 8.28333 5 8 5H6.4L8.8 7.4C8.98333 7.58333 9.075 7.81667 9.075 8.1C9.075 8.38333 8.98333 8.61667 8.8 8.8C8.61667 8.98333 8.38333 9.075 8.1 9.075C7.81667 9.075 7.58333 8.98333 7.4 8.8L5 6.4ZM19 6.4L16.6 8.8C16.4167 8.98333 16.1833 9.075 15.9 9.075C15.6167 9.075 15.3833 8.98333 15.2 8.8C15.0167 8.61667 14.925 8.38333 14.925 8.1C14.925 7.81667 15.0167 7.58333 15.2 7.4L17.6 5H16C15.7167 5 15.4792 4.90417 15.2875 4.7125C15.0958 4.52083 15 4.28333 15 4C15 3.71667 15.0958 3.47917 15.2875 3.2875C15.4792 3.09583 15.7167 3 16 3H20C20.2833 3 20.5208 3.09583 20.7125 3.2875C20.9042 3.47917 21 3.71667 21 4V8C21 8.28333 20.9042 8.52083 20.7125 8.7125C20.5208 8.90417 20.2833 9 20 9C19.7167 9 19.4792 8.90417 19.2875 8.7125C19.0958 8.52083 19 8.28333 19 8V6.4Z" fill="#1C1B1F"/>
</g>
</svg>
