<svg width="110" height="27" viewBox="0 0 110 27" fill="none" xmlns="http://www.w3.org/2000/svg">
    <path
        d="M3.8 6.11965C2.875 6.59465 1.025 8.5259 0.25 9.6759V0.582155C1.375 0.582155 3.75 2.79465 4.35 4.54465L4.725 5.64465L3.8 6.11965Z"
        fill="#BDBDBD" />
    <path
        d="M93.125 0.9947C91.925 1.5197 90.4 3.4197 89.9 5.0697C89.75 5.5197 89.925 5.7447 91.075 6.4697C91.825 6.9447 92.825 7.8697 93.275 8.5197L94.125 9.6947L94.2 5.3697C94.225 2.9947 94.175 0.969701 94.075 0.8697C93.95 0.769701 93.525 0.8197 93.125 0.9947Z"
        fill="#BDBDBD" />
    <path
        d="M6.175 5.89466C3.925 6.46966 1.95 8.04466 0.924999 10.1447C-0.175001 12.3697 0.324999 17.1447 1.625 16.9447C3 16.7197 4.4 14.8197 4.875 12.5447C5.075 11.5697 6.25 10.4697 7.3 10.2697C9.075 9.94466 11 11.4697 11 13.2197C11 14.9447 9.55 16.4447 7.9 16.4447C6.925 16.4447 5.625 15.8197 5.275 15.2197C5.05 14.7947 4.975 14.8197 4.575 15.3947C3.95 16.2947 3.1 17.0447 2.225 17.4447L1.475 17.8197L2.75 18.9697C4.4 20.4697 6 20.9947 8.35 20.8447C11.25 20.6447 13.275 19.3197 14.525 16.7447C15.225 15.3447 15.325 14.8697 15.325 13.2447C15.3 11.6697 15.175 11.1197 14.6 9.94466C13.05 6.91966 9.3 5.11966 6.175 5.89466Z"
        fill="#BDBDBD" />
    <path
        d="M21.925 5.91969C19.775 6.41969 18.05 7.74469 16.825 9.81969C16.325 10.6697 16.15 11.3947 16.05 12.7697C15.875 15.3697 16.45 16.8697 18.225 18.6697C20.025 20.4447 21.525 21.0197 24.1 20.8447C26.925 20.6697 28.9 19.3697 30.25 16.8697C30.975 15.5197 31.075 15.0947 31.075 13.4197C31.075 11.4697 30.55 9.64469 29.975 9.64469C29.475 9.64469 28.025 10.6447 27.525 11.3697C27.25 11.7197 26.875 12.6947 26.675 13.4947C26.225 15.1697 25.525 16.0447 24.325 16.3697C22.025 17.0197 19.75 14.7447 20.5 12.5447C21.275 10.2197 24.1 9.49469 25.725 11.2447L26.275 11.8447L27.625 10.4947C28.0312 10.0509 29.2438 9.0822 29.4375 9.01969C29.8063 8.7072 29.825 8.76969 28.775 7.81969C27.525 6.69469 26.7 6.26969 25.05 5.91969C23.8125 5.73844 22.6546 5.75002 21.925 5.91969Z"
        fill="#BDBDBD" />
    <path
        d="M37.55 6.01966C36.075 6.41966 35.225 6.89466 34.075 7.99466C33.175 8.81966 33.05 9.14466 33.65 9.14466C33.85 9.14466 34.625 9.74466 35.35 10.4697L36.675 11.7697L37.1 11.2197C37.6 10.5197 39.225 10.0197 40.15 10.2447C40.525 10.3447 41.625 10.8009 41.8125 11.0822C42.0732 11.4733 42.5 12.2697 42.5 13.3447C42.5 16.1947 39.35 17.5947 37.25 15.6447C36.85 15.2697 36.475 14.6697 36.4 14.3197C36.325 13.9447 36.2 13.3947 36.125 13.0697C35.875 11.7447 33.65 9.46966 32.9 9.71966C32.325 9.89466 31.75 12.2197 31.85 13.8447C32.025 16.5947 33.525 18.8447 36.075 20.1947C37.575 21.0197 41.15 20.9947 42.7 20.1947C49.025 16.8697 48.025 7.81966 41.1 6.01966C39.6562 5.73841 39 5.73841 37.55 6.01966Z"
        fill="#BDBDBD" />
    <path
        d="M52.7312 6.1884C50.5562 7.0384 49.2062 8.2884 48.3062 10.2384C47.5312 11.9634 47.5062 14.9884 48.2812 16.6634C48.9312 18.0884 50.1812 19.3884 51.5812 20.0884L52.6062 20.6134V19.0884C52.6062 17.9634 53.1094 16.8009 53.1562 16.7072C53.25 16.5197 53.625 16.1447 53.625 16.1447C53.05 16.1447 52.1062 14.2884 52.1062 13.3384C52.1062 12.0634 53.0062 10.8134 54.2812 10.3884C55.1562 10.0634 55.7 10.2072 56.2562 10.3884C57.4062 10.8134 58.3562 12.1134 58.3562 13.2134C58.4062 14.5509 56.5312 15.0197 56.0625 15.2072C53.7125 16.4572 53.575 16.6009 53.25 17.9259C52.975 19.0509 53.1312 20.8322 53.5312 20.8322C53.6562 20.8322 55.9437 19.7197 57.8437 18.7697C61.5937 16.8447 62.1562 16.0634 62.6062 14.3384C63.4312 11.2884 60.7562 7.0634 57.4062 6.1134C56.1812 5.7884 53.6812 5.8134 52.7312 6.1884Z"
        fill="#BDBDBD" />
    <path
        d="M68.475 6.21965C66.375 7.01965 65 8.21965 63.925 10.2447C63.425 11.1697 63.375 11.7197 63.3 16.1947L63.2 21.1447L64.05 20.9947C66.375 20.5697 67.75 17.8947 67.75 13.7447C67.75 10.5697 71.025 9.04465 73.125 11.2447C73.85 12.0197 73.9 12.2197 74.175 15.2447C74.475 18.6197 74.825 19.5697 76 20.4197C76.35 20.6697 77.025 20.8947 77.5 20.9447L78.375 21.0197V16.3947C78.375 16.3947 78.375 12.4884 78.375 12.3009C78.375 12.0197 78.375 11.2697 77.7188 9.8634C77.0625 8.45715 75.725 7.39465 74 6.51965C72.875 5.91965 69.7 5.76965 68.475 6.21965Z"
        fill="#BDBDBD" />
    <path
        d="M84.175 6.24465C81.75 7.14465 80.05 8.94465 79.35 11.3696C78.55 14.0446 79.425 17.1196 81.475 18.9196C82.9 20.1946 83.525 20.5196 85.175 20.8696C87.5 21.3446 90 20.5946 91.85 18.8196L92.875 17.8446L92.125 17.5196C91.275 17.1696 90.45 16.4196 89.85 15.5196L89.45 14.8946L88.975 15.4946C88.375 16.2696 86.95 16.7446 85.875 16.5446C84.875 16.3446 83.625 15.0196 83.375 13.9196C83.175 12.9446 83.825 11.5196 84.825 10.7946C85.7 10.1446 87.375 10.1196 88.3 10.7446C89.05 11.2196 89.75 12.5446 89.75 13.4446C89.75 14.3446 90.95 16.0196 92.05 16.6446C93 17.1696 93.05 17.1696 93.375 16.7446C93.575 16.4696 93.825 15.8696 93.925 15.3946C94.725 11.7446 93.075 8.24465 89.75 6.51965C88.2188 5.5509 85.45 5.76965 84.175 6.24465Z"
        fill="#BDBDBD" />
    <path
        d="M100.025 6.1697C98.85 6.5197 97.15 7.7197 96.375 8.7697C92.1 14.3697 97.025 22.1947 103.9 20.7447C106.425 20.2197 108.2 18.7697 109.325 16.3197C109.9 14.9947 109.9 11.5947 109.3 10.4697L108.875 9.6447L108 10.0947C106.9 10.6447 105.5 12.4697 105.5 13.3447C105.5 15.1197 103.675 16.7697 101.95 16.5697C100 16.3197 98.65 14.3197 99.25 12.5447C99.575 11.5197 100.675 10.4947 101.7 10.2697C102.6 10.0697 104.425 10.7697 104.775 11.4447C105.025 11.8947 105.1 11.8447 106 10.8197C106.55 10.2197 107.325 9.5447 107.75 9.3447L108.525 8.9697L107.9 8.2197C107.575 7.8197 106.7 7.1697 105.975 6.7697C104.9 6.1947 104.275 6.0447 102.75 5.9947C101.725 5.9447 100.5 6.0197 100.025 6.1697Z"
        fill="#BDBDBD" />
    <path
        d="M30.775 17.3947C30.6 17.7447 30.1 18.3947 29.675 18.8447C29.05 19.4947 28.95 19.7447 29.15 20.0947C29.425 20.5197 30.9 21.0697 31.15 20.8447C31.225 20.7697 31.25 19.8197 31.2 18.7447C31.125 16.9197 31.1 16.8197 30.775 17.3947Z"
        fill="#BDBDBD" />
    <path
        d="M31.75 21.4697C31.75 25.1447 31.825 26.1447 32.075 26.1447C32.8 26.1447 34.475 24.7447 35.2 23.5447C36.475 21.3947 36.475 21.2947 34.9 20.2947C34.05 19.7697 33.175 18.9197 32.65 18.0947L31.75 16.7697V21.4697Z"
        fill="#BDBDBD" />
    <path
        d="M109.5 17.5947C109.5 17.7197 109.1 18.2947 108.6 18.8697C107.825 19.7697 107.725 19.9697 108.025 20.2697C108.225 20.4697 108.675 20.6947 109.075 20.7697L109.75 20.9447V19.1697C109.75 18.1947 109.7 17.3947 109.625 17.3947C109.55 17.3947 109.5 17.4947 109.5 17.5947Z"
        fill="#BDBDBD" />
    <path
        d="M57.15 19.6697C55.775 20.3447 54.6 20.9697 54.525 21.0447C54.35 21.2447 62.2 21.0197 62.4 20.8447C62.725 20.4947 60.475 18.3697 59.825 18.4197C59.725 18.4197 58.5 18.9947 57.15 19.6697Z"
        fill="#BDBDBD" />
</svg>