<svg width="96" height="69" viewBox="0 0 96 69" fill="none" xmlns="http://www.w3.org/2000/svg">
    <g clip-path="url(#clip0_263_70503)">
        <path opacity="0.61"
            d="M45.9262 68.1859C65.8136 68.1859 81.9356 52.922 81.9356 34.093C81.9356 15.2639 65.8136 0 45.9262 0C26.0388 0 9.91684 15.2639 9.91684 34.093C9.91684 52.922 26.0388 68.1859 45.9262 68.1859Z"
            fill="#FFF9E1" />
        <g style="mix-blend-mode:overlay">
            <path
                d="M15.1139 32.7871C15.1139 32.4114 17.3491 32.1075 20.106 32.1075C20.4472 32.1075 20.7822 32.1075 21.105 32.1212C21.9143 31.9272 22.7452 31.8373 23.5774 31.8539C25.2954 31.8539 26.6892 32.1594 26.6892 32.5321C26.6892 32.6375 26.576 32.7367 26.3832 32.8253C28.3308 32.9169 29.7291 33.169 29.7291 33.4653C29.7291 33.8395 27.4939 34.1434 24.737 34.1434C21.9801 34.1434 19.7449 33.8379 19.7449 33.4653C17.1563 33.4317 15.1139 33.1384 15.1139 32.7871Z"
                fill="#FFD026" />
        </g>
        <g style="mix-blend-mode:overlay">
            <path
                d="M42.3554 36.6299C42.3554 36.2541 44.5891 35.9502 47.346 35.9502C47.6887 35.9502 48.0237 35.9502 48.3465 35.964C49.1573 35.7695 49.9898 35.6797 50.8235 35.6967C52.5415 35.6967 53.9353 36.0021 53.9353 36.3748C53.9353 36.4802 53.8221 36.5779 53.6293 36.6665C55.5769 36.7597 56.9752 37.0117 56.9752 37.308C56.9752 37.6822 54.74 37.9861 51.9831 37.9861C49.2262 37.9861 46.991 37.6807 46.991 37.308C44.3979 37.2805 42.3554 36.9873 42.3554 36.6299Z"
                fill="#FFD026" />
        </g>
        <g style="mix-blend-mode:overlay">
            <path
                d="M60.237 25.9264C60.237 25.5522 62.4722 25.2483 65.229 25.2483C65.5717 25.2483 65.9048 25.2528 66.2281 25.262C67.038 25.0691 67.8694 24.9803 68.7019 24.9978C70.42 24.9978 71.8122 25.3032 71.8122 25.6759C71.8122 25.7798 71.7005 25.879 71.5062 25.9676C73.4538 26.0608 74.8521 26.3128 74.8521 26.6091C74.8521 26.9833 72.617 27.2872 69.8601 27.2872C67.1032 27.2872 64.868 26.9818 64.868 26.6091C62.2794 26.5785 60.237 26.2853 60.237 25.9264Z"
                fill="#FFD026" />
        </g>
        <path
            d="M94.4701 64.25C94.6399 58.4829 89.7901 49.5144 85.8032 49.322C80.1532 49.322 70.3664 55.503 68.9268 60.4714C67.4872 65.4398 74.4253 64.9312 80.0752 64.9312C85.7252 64.9312 92.703 64.3295 94.4701 64.25Z"
            fill="#6B534E" />
        <path
            d="M41.797 65.4368C41.797 62.6219 39.3583 53.8963 36.7483 53.8963C34.1383 53.8963 30.3227 57.988 30.3227 60.7983C30.3227 63.6086 33.4514 63.323 36.0553 63.323C38.6592 63.323 40.9892 65.4826 41.797 65.4368Z"
            fill="#6B534E" />
        <path
            d="M72.8892 64.5891C72.34 61.8277 64.6966 53.1922 58.2022 54.4797C51.7077 55.7672 42.9521 61.6673 43.5013 64.4287C44.0505 67.1901 51.8026 65.3573 58.3016 64.0713C64.8006 62.7853 70.8927 65.0305 72.8892 64.5891Z"
            fill="#6B534E" />
        <path
            d="M39.4134 64.4195C37.3817 56.0742 19.569 40.1595 12.2255 40.1595C4.88193 40.1595 -1.65229 56.5232 0.374829 64.8686C5.58721 64.5509 11.8491 66.4264 19.1927 66.4264C26.5362 66.4264 37.1798 64.5555 39.4134 64.4195Z"
            fill="#6B534E" />
        <path
            d="M96 64.4196C96 63.4344 74.4895 63.7399 48.1645 63.7399C21.8394 63.7399 0.670105 63.2649 0.670105 64.25C0.670105 65.2352 21.7553 69 48.0803 69C74.4054 69 96 65.4032 96 64.4196Z"
            fill="#B5857D" />
        <g style="mix-blend-mode:multiply" opacity="0.5">
            <path
                d="M86.6951 64.8609C86.6951 64.3691 75.0311 64.5219 61.3767 64.5219C47.7223 64.5219 35.8013 64.7922 35.8013 65.2855C35.8013 65.7789 47.8065 65.8797 61.4609 65.8797C75.1153 65.8797 86.6951 65.3573 86.6951 64.8609Z"
                fill="#691B9A" />
        </g>
        <g style="mix-blend-mode:multiply" opacity="0.5">
            <path
                d="M27.8412 64.1248C27.9575 63.972 24.1373 63.6559 19.3518 63.6559C14.5662 63.6559 9.86636 63.7536 9.86636 63.9491C9.86636 64.1446 13.7753 64.3585 18.5608 64.3585C23.3464 64.3585 27.6653 64.3585 27.8412 64.1248Z"
                fill="#691B9A" />
        </g>
        <path d="M27.0992 56.0361H11.7711V60.98H27.0992V56.0361Z" fill="#616161" />
        <path
            d="M19.107 58.6066H15.9202C15.6904 58.6066 15.5041 58.7926 15.5041 59.022V61.6719C15.5041 61.9013 15.6904 62.0873 15.9202 62.0873H19.107C19.3368 62.0873 19.5231 61.9013 19.5231 61.6719V59.022C19.5231 58.7926 19.3368 58.6066 19.107 58.6066Z"
            fill="#9E9E9E" />
        <path
            d="M23.3402 64.36C25.3022 64.36 26.8927 62.7722 26.8927 60.8135C26.8927 58.8549 25.3022 57.2671 23.3402 57.2671C21.3783 57.2671 19.7878 58.8549 19.7878 60.8135C19.7878 62.7722 21.3783 64.36 23.3402 64.36Z"
            fill="#212121" />
        <path
            d="M25.095 60.812C25.0944 61.1584 24.991 61.4968 24.7978 61.7845C24.6046 62.0722 24.3304 62.2962 24.0097 62.4283C23.689 62.5605 23.3362 62.5947 22.996 62.5268C22.6558 62.4588 22.3434 62.2917 22.0983 62.0466C21.8532 61.8015 21.6864 61.4894 21.6189 61.1496C21.5515 60.8099 21.5864 60.4578 21.7193 60.1379C21.8522 59.8179 22.0771 59.5445 22.3657 59.3522C22.6542 59.1598 22.9933 59.0571 23.3402 59.0571C23.5709 59.0573 23.7992 59.1029 24.0123 59.1912C24.2253 59.2795 24.4188 59.4088 24.5817 59.5718C24.7447 59.7347 24.8739 59.9281 24.9619 60.1409C25.05 60.3537 25.0952 60.5818 25.095 60.812Z"
            fill="#FFB900" />
        <path
            d="M11.7711 64.36C13.7331 64.36 15.3235 62.7722 15.3235 60.8135C15.3235 58.8549 13.7331 57.2671 11.7711 57.2671C9.80914 57.2671 8.21866 58.8549 8.21866 60.8135C8.21866 62.7722 9.80914 64.36 11.7711 64.36Z"
            fill="#212121" />
        <path
            d="M11.7711 62.5654C12.7402 62.5654 13.5259 61.7811 13.5259 60.8135C13.5259 59.846 12.7402 59.0617 11.7711 59.0617C10.8019 59.0617 10.0163 59.846 10.0163 60.8135C10.0163 61.7811 10.8019 62.5654 11.7711 62.5654Z"
            fill="#FFB900" />
        <path d="M19.3747 58.437H19.1743L20.614 56.0361H27.0977V58.437H26.8927L25.427 56.5844H21.2198L19.3747 58.437Z"
            fill="#FFB900" />
        <path
            d="M18.8729 58.2767L22.4223 52.1735H26.8927V51.5702H21.0469L20.3997 52.2178H5.77997L4.2363 55.0693L18.8729 58.2767Z"
            fill="#FFB900" />
        <path d="M4.71823 54.8478L5.97122 52.537H21.8425L18.7138 57.9147L4.71823 54.8478Z" fill="#FF9500" />
        <path d="M27.5918 56.0361H27.0992V60.98H27.5918V56.0361Z" fill="#FF9500" />
        <path d="M21.9159 56.0361V54.0994L22.3886 53.1265H25.5601L24.7508 56.0361H21.9159Z" fill="#FF9500" />
        <path d="M24.4724 55.1395H22.8507V53.3663H24.0578L24.4724 55.1395Z" fill="white" />
        <path d="M24.3622 53.3663L24.7799 55.1395L25.2771 53.3663H24.3622Z" fill="white" />
        <path d="M16.4725 58.6066H16.1879V62.0873H16.4725V58.6066Z" fill="#616161" />
        <path d="M18.5562 62.0873H18.8408V58.6066H18.5562V62.0873Z" fill="#616161" />
        <path
            d="M17.698 59.3977C17.698 59.4339 17.6872 59.4694 17.667 59.4995C17.6468 59.5297 17.6182 59.5532 17.5846 59.567C17.5511 59.5809 17.5142 59.5845 17.4786 59.5774C17.4429 59.5704 17.4102 59.5529 17.3845 59.5273C17.3589 59.5017 17.3414 59.469 17.3343 59.4334C17.3272 59.3979 17.3309 59.361 17.3448 59.3275C17.3587 59.2941 17.3822 59.2654 17.4124 59.2453C17.4426 59.2252 17.4781 59.2144 17.5144 59.2144C17.5631 59.2144 17.6098 59.2337 17.6442 59.2681C17.6786 59.3025 17.698 59.3491 17.698 59.3977Z"
            fill="#616161" />
        <path d="M18.3711 52.537L15.6341 57.2396L17.2084 57.5848L20.1458 52.537H18.3711Z" fill="#FFB900" />
        <path d="M14.6657 52.537L12.3479 56.5203L13.9221 56.8639L16.4404 52.537H14.6657Z" fill="#FFB900" />
        <path d="M10.9603 52.537L9.06165 55.7994L10.6359 56.1445L12.7349 52.537H10.9603Z" fill="#FFB900" />
        <path d="M7.25481 52.537L5.77539 55.08L7.34966 55.4236L9.0295 52.537H7.25481Z" fill="#FFB900" />
        <path
            d="M20.3707 52.2177L19.8123 51.9291L19.5002 51.4235H18.6006L17.7928 50.8538L16.9544 50.4124L16.1772 51.3151L14.0644 50.4124L13.3194 49.7618L11.7359 50.0871L11.1454 50.8538L9.68432 50.9898L9.18863 51.1715L8.38084 51.9291L7.54245 52.2177H20.3707Z"
            fill="#424242" />
        <path d="M67.1123 57.0288H57.5198V58.5989H67.1123V57.0288Z" fill="#212121" />
        <path
            d="M81.7275 51.6908C81.6028 51.1278 81.2893 50.6241 80.8389 50.2631C80.3886 49.9021 79.8282 49.7053 79.2506 49.7053H63.9516V57.0365H80.9871C81.219 57.0389 81.4484 56.9886 81.6579 56.8895C81.8675 56.7904 82.0518 56.645 82.1968 56.4643C82.3418 56.2836 82.4438 56.0724 82.495 55.8466C82.5462 55.6208 82.5454 55.3863 82.4925 55.1609L81.7275 51.6908Z"
            fill="#FFB900" />
        <path
            d="M54.1541 56.0116C54.4493 56.2652 55.3183 56.7661 56.0649 56.592C56.2179 56.5584 56.3602 56.5248 56.5101 56.4943C56.66 56.4637 56.7794 56.4378 56.9155 56.4103C57.2001 56.3538 57.4862 56.3018 57.7646 56.2575C58.6198 56.1048 59.8591 53.6046 60.3563 53.5404C60.5383 53.516 60.0274 52.2422 60.1192 52.2315C60.1666 52.1704 60.214 52.1093 60.263 52.0498C60.3899 51.897 60.5246 51.7443 60.6638 51.5916C60.8494 51.3972 61.0456 51.2132 61.2513 51.0402L61.2268 50.0199L61.1228 45.8198L61.0952 44.6743V44.5674H61.0524C60.8994 44.5674 60.7464 44.5674 60.5858 44.5781C60.0243 44.5933 59.4475 44.6239 58.9029 44.6621C58.4806 44.6911 58.0737 44.7247 57.6958 44.7583L57.1205 44.8133C56.8895 44.8347 56.6753 44.8576 56.4841 44.8774C56.0848 44.9202 55.7788 44.9569 55.6075 44.9782C55.5111 45.247 54.971 45.6991 54.7262 46.6293C54.6191 47.0325 54.5472 47.6801 54.4386 48.1841C54.3912 48.404 54.3422 48.6301 54.2963 48.8683C54.2504 49.1066 54.3438 49.3708 54.2963 49.6427C54.0913 50.7897 54.226 54.5912 54.1541 56.0116Z"
            fill="#C7BBBB" />
        <path
            d="M62.6863 50.0184C62.9587 49.8519 63.0994 49.4487 63.2493 49.3662C63.2704 49.3543 63.2904 49.3405 63.309 49.325C63.3567 49.2852 63.3939 49.2343 63.4174 49.1768C63.4409 49.1192 63.4499 49.0569 63.4436 48.9951C63.2753 47.3441 62.8975 45.3967 62.694 44.8255L62.3345 44.7736C62.0285 44.7171 61.8281 44.7888 61.3951 44.7644C61.2987 44.7644 61.1901 44.8194 61.0891 44.8148L61.1243 46.3421L61.1488 47.3807L61.1778 48.5277L61.2299 50.666H61.2406C61.4716 50.4934 61.7745 50.5331 61.9841 50.3911"
            fill="#C7BBBB" />
        <path
            d="M51.3681 65.2672C50.4623 65.2482 49.6 64.8756 48.9661 64.2294C48.3322 63.5831 47.9772 62.7146 47.9772 61.8101C47.9772 60.9056 48.3322 60.0371 48.9661 59.3909C49.6 58.7446 50.4623 58.372 51.3681 58.353C51.4293 58.353 59.2318 57.8001 61.8296 57.8001C64.4274 57.8001 72.2329 58.3469 72.3079 58.353C73.2138 58.3743 74.0752 58.749 74.7075 59.397C75.3398 60.045 75.6926 60.9145 75.6902 61.8191C75.6878 62.7237 75.3304 63.5913 74.6947 64.2359C74.059 64.8805 73.1955 65.2507 72.2895 65.2672H51.3681Z"
            fill="#616161" />
        <path
            d="M72.2911 64.777C73.0791 64.7792 73.8356 64.4688 74.3944 63.9142C74.9532 63.3595 75.2683 62.6059 75.2706 61.8193C75.2728 61.0326 74.9619 60.2773 74.4063 59.7195C73.8507 59.1617 73.0959 58.847 72.3079 58.8448H72.2712C72.1962 58.8448 64.409 58.2935 61.8296 58.2935C59.2502 58.2935 51.4798 58.8387 51.4094 58.8433H51.3681C50.5916 58.8609 49.8528 59.1812 49.3099 59.7357C48.7669 60.2901 48.4629 61.0347 48.4629 61.8101C48.4629 62.5855 48.7669 63.3301 49.3099 63.8846C49.8528 64.4391 50.5916 64.7594 51.3681 64.777H72.2911Z"
            fill="#212121" />
        <path d="M72.6552 60.5737H51.0055V63.0465H72.6552V60.5737Z" fill="#FFB900" />
        <path
            d="M54.3422 61.8063C54.3425 61.2193 54.1685 60.6454 53.842 60.1572C53.5156 59.6689 53.0514 59.2883 52.5083 59.0635C51.9651 58.8386 51.3674 58.7797 50.7906 58.894C50.2139 59.0083 49.6841 59.2908 49.2682 59.7058C48.8524 60.1208 48.5691 60.6495 48.4543 61.2252C48.3394 61.8009 48.3982 62.3977 48.6232 62.94C48.8481 63.4824 49.2291 63.946 49.718 64.2721C50.2069 64.5983 50.7816 64.7723 51.3696 64.7723C52.1578 64.7723 52.9136 64.4599 53.471 63.9037C54.0285 63.3475 54.3418 62.5931 54.3422 61.8063Z"
            fill="#9E9E9E" />
        <path
            d="M51.3681 63.5138C51.0305 63.5138 50.7005 63.414 50.4198 63.2268C50.1391 63.0396 49.9203 62.7736 49.791 62.4623C49.6616 62.1511 49.6277 61.8085 49.6933 61.4779C49.7589 61.1474 49.9212 60.8437 50.1597 60.6052C50.3982 60.3667 50.7021 60.2041 51.0331 60.138C51.3641 60.0719 51.7073 60.1052 52.0193 60.2337C52.3314 60.3623 52.5982 60.5803 52.7862 60.8602C52.9742 61.1401 53.0748 61.4693 53.0754 61.8063C53.0757 62.0303 53.0316 62.2522 52.946 62.4593C52.8603 62.6663 52.7346 62.8545 52.576 63.0131C52.4175 63.1716 52.2292 63.2975 52.0219 63.3834C51.8147 63.4693 51.5925 63.5136 51.3681 63.5138Z"
            fill="#212121" />
        <path
            d="M67.3755 59.4619C67.3755 59.2909 67.3247 59.1238 67.2296 58.9816C67.1344 58.8394 66.9992 58.7286 66.8409 58.6632C66.6827 58.5978 66.5086 58.5807 66.3406 58.614C66.1727 58.6474 66.0184 58.7297 65.8973 58.8506C65.7762 58.9715 65.6937 59.1255 65.6603 59.2932C65.6269 59.4609 65.644 59.6347 65.7096 59.7927C65.7751 59.9507 65.8861 60.0857 66.0285 60.1807C66.1709 60.2756 66.3383 60.3263 66.5096 60.3263C66.7392 60.3263 66.9595 60.2353 67.1219 60.0731C67.2843 59.911 67.3755 59.6912 67.3755 59.4619Z"
            fill="#9E9E9E" />
        <path d="M54.9961 29.4634L55.7898 28.1505L46.9639 22.8333L46.1702 24.1462L54.9961 29.4634Z" fill="#757575" />
        <path d="M46.3319 23.877L46.8007 23.1016L41.4224 19.8613L40.9536 20.6368L46.3319 23.877Z" fill="#9E9E9E" />
        <path
            d="M58.8799 44.6743V39.3714C58.8799 36.8987 57.4296 34.0777 54.9955 32.4053C52.5614 30.7329 43.8073 27.1696 42.3983 26.4121C40.8684 25.5934 40.4798 25.097 40.2396 24.3654C40.0131 23.6766 40.5777 22.8748 41.2019 23.0871C41.8261 23.2994 55.5662 27.8997 57.7983 28.9214C60.0671 29.9539 62.9281 34.0594 62.9281 38.0487V44.6743H58.8799Z"
            fill="#FFB900" />
        <path
            d="M31.9169 45.3875C31.9169 45.3875 40.4277 26.2502 40.8255 25.3444C41.2233 24.4387 41.6073 20.2355 41.6073 19.504C41.6073 18.7724 40.3834 18.9511 39.9045 19.2275C39.4257 19.504 36.6167 22.9527 36.3368 23.6018C36.0568 24.2509 30.6608 43.9152 30.6608 44.4635C30.6608 45.0118 31.6843 45.3875 31.9169 45.3875Z"
            fill="#FF9500" />
        <path
            d="M33.3611 44.9782L32.0852 44.0893C31.9778 44.0149 31.8539 43.9678 31.7242 43.952C31.5945 43.9362 31.4629 43.9523 31.3408 43.9988C31.2187 44.0453 31.1098 44.1208 31.0236 44.2188C30.9374 44.3168 30.8764 44.4344 30.846 44.5613L30.517 47.0874L32.4126 52.5308L33.3611 44.9782Z"
            fill="#FFB900" />
        <path
            d="M38.8244 47.8939C38.8244 47.8939 40.3252 47.9504 40.57 47.8771C41.0122 47.7473 41.9561 45.6289 42.308 45.4334C42.4526 45.334 42.6144 45.2625 42.7853 45.2226L41.3809 48.7935L40.1569 48.6224L38.8244 47.8939Z"
            fill="#212121" />
        <path
            d="M40.3849 50.614L32.1938 46.1695L33.1882 44.3367C33.1882 44.3367 35.942 46.5559 36.9809 47.118C38.0197 47.6801 41.3809 48.7812 41.3809 48.7812L40.3849 50.614Z"
            fill="#616161" />
        <path
            d="M36.2894 48.3918L32.4478 46.307C32.4478 46.307 31.6996 50.0092 31.5467 50.8096C31.3937 51.645 32.076 52.3628 32.4065 52.5431L33.6579 53.2212L34.9079 53.8993C35.2383 54.0796 36.2159 54.2644 36.8325 53.6779C37.4184 53.1189 40.1248 50.4812 40.1248 50.4812L36.2894 48.3918Z"
            fill="#212121" />
        <path
            d="M63.1438 46.8523C63.0379 46.1677 62.8877 45.4907 62.694 44.8255L62.3344 44.7736C62.2993 44.7736 62.2656 44.7629 62.2304 44.7598L62.1554 44.5872C62.0591 44.5872 61.9596 44.5765 61.8495 44.5735L61.5435 44.5643L61.62 44.769C61.5481 44.769 61.467 44.769 61.3844 44.769C61.3018 44.769 61.1886 44.8179 61.0876 44.8194V44.6758V44.5689H61.0447C60.8917 44.5689 60.7388 44.5689 60.5781 44.5796C60.0166 44.5949 59.4399 44.6254 58.8952 44.6636C58.473 44.6926 58.066 44.7262 57.6881 44.7598L57.1129 44.8148H57.0655L57.0394 44.7507C56.4887 44.7904 55.9547 44.8362 55.4591 44.8851L55.5417 45.0882C55.3688 45.3677 54.9297 45.8152 54.7186 46.6262C54.6115 47.0294 54.5396 47.677 54.431 48.181C54.3835 48.401 54.3346 48.627 54.2887 48.8653C54.2428 49.1035 54.3361 49.3678 54.2887 49.6396C54.0929 50.7882 54.2275 54.5897 54.1556 56.0101C54.4509 56.2636 55.3198 56.7646 56.0664 56.5905C56.2194 56.5569 56.3617 56.5233 56.5116 56.4928C56.6616 56.4622 56.7809 56.4362 56.9171 56.4087C57.2016 56.3522 57.4877 56.3003 57.7662 56.256C58.4102 56.1445 59.2716 54.6966 59.8698 53.965C59.9554 53.8825 60.0411 53.7985 60.1299 53.7176V53.6809C60.1914 53.6139 60.2711 53.5661 60.3593 53.5435C60.5414 53.519 60.0304 52.2453 60.1222 52.2346C60.1696 52.1735 60.2171 52.1124 60.266 52.0528C60.393 51.9001 60.5276 51.7473 60.6669 51.5946C60.8525 51.4003 61.0486 51.2163 61.2543 51.0433V50.6752C61.4838 50.5056 61.7852 50.5423 61.9933 50.4018L62.4431 50.1605L62.5854 50.5316C62.8577 50.3636 63.0826 50.2368 63.2325 50.1543C63.2536 50.1424 63.2735 50.1286 63.2922 50.1131L63.0627 49.5877C63.1093 49.4999 63.174 49.4229 63.2524 49.3617C63.2734 49.3497 63.2934 49.3359 63.3121 49.3204L63.3319 49.2975L63.3748 49.409C63.6471 49.241 63.8705 49.1142 64.0219 49.0318C64.0423 49.0194 64.0617 49.0056 64.0801 48.9905L63.1438 46.8523Z"
            fill="white" />
        <path
            d="M67.3571 63.911C67.3571 63.74 67.3063 63.5729 67.2112 63.4307C67.116 63.2885 66.9808 63.1777 66.8226 63.1123C66.6643 63.0469 66.4902 63.0298 66.3223 63.0631C66.1543 63.0965 66 63.1788 65.8789 63.2997C65.7578 63.4206 65.6753 63.5746 65.6419 63.7423C65.6085 63.91 65.6256 64.0838 65.6912 64.2418C65.7567 64.3998 65.8677 64.5348 66.0101 64.6298C66.1525 64.7247 66.3199 64.7754 66.4912 64.7754C66.7209 64.7754 66.9411 64.6844 67.1035 64.5222C67.2659 64.3601 67.3571 64.1403 67.3571 63.911Z"
            fill="#9E9E9E" />
        <path
            d="M58.014 63.911C58.014 63.74 57.9632 63.5729 57.8681 63.4307C57.7729 63.2885 57.6377 63.1777 57.4795 63.1123C57.3212 63.0469 57.1471 63.0298 56.9792 63.0631C56.8112 63.0965 56.6569 63.1788 56.5358 63.2997C56.4147 63.4206 56.3322 63.5746 56.2988 63.7423C56.2654 63.91 56.2825 64.0838 56.3481 64.2418C56.4136 64.3998 56.5246 64.5348 56.667 64.6298C56.8094 64.7247 56.9768 64.7754 57.1481 64.7754C57.3778 64.7754 57.598 64.6844 57.7604 64.5222C57.9228 64.3601 58.014 64.1403 58.014 63.911Z"
            fill="#9E9E9E" />
        <path
            d="M56.2837 59.4619C56.2837 59.2909 56.3345 59.1238 56.4296 58.9816C56.5248 58.8394 56.66 58.7286 56.8182 58.6632C56.9765 58.5978 57.1506 58.5807 57.3186 58.614C57.4865 58.6474 57.6408 58.7297 57.7619 58.8506C57.883 58.9715 57.9655 59.1255 57.9989 59.2932C58.0323 59.4609 58.0152 59.6347 57.9496 59.7927C57.8841 59.9507 57.7731 60.0857 57.6307 60.1807C57.4883 60.2756 57.3209 60.3263 57.1496 60.3263C56.92 60.3263 56.6997 60.2353 56.5373 60.0731C56.3749 59.911 56.2837 59.6912 56.2837 59.4619Z"
            fill="#9E9E9E" />
        <path
            d="M69.32 61.8063C69.32 61.2196 69.4943 60.6462 69.8207 60.1584C70.1472 59.6707 70.6112 59.2905 71.1541 59.066C71.697 58.8415 72.2944 58.7828 72.8707 58.8972C73.447 59.0116 73.9764 59.2941 74.3919 59.709C74.8075 60.1238 75.0904 60.6523 75.2051 61.2276C75.3197 61.803 75.2609 62.3994 75.036 62.9413C74.8111 63.4833 74.4303 63.9466 73.9417 64.2725C73.4531 64.5984 72.8787 64.7723 72.2911 64.7723C71.5031 64.7723 70.7474 64.4598 70.1902 63.9036C69.633 63.3474 69.32 62.5929 69.32 61.8063Z"
            fill="#9E9E9E" />
        <path
            d="M72.2911 63.5138C71.9534 63.5141 71.6233 63.4145 71.3424 63.2275C71.0615 63.0406 70.8424 62.7747 70.7129 62.4634C70.5833 62.1521 70.5491 61.8095 70.6145 61.4789C70.68 61.1482 70.8422 60.8444 71.0806 60.6057C71.319 60.3671 71.623 60.2043 71.954 60.1381C72.285 60.0719 72.6283 60.1051 72.9404 60.2336C73.2526 60.3621 73.5195 60.5801 73.7076 60.86C73.8956 61.1399 73.9963 61.4692 73.9969 61.8063C73.9973 62.2585 73.8179 62.6924 73.498 63.0125C73.1781 63.3327 72.744 63.513 72.2911 63.5138Z"
            fill="#212121" />
        <path
            d="M63.462 44.7354C63.443 44.5404 63.3519 44.3595 63.2065 44.2279C63.0611 44.0963 62.8719 44.0235 62.6756 44.0237H56.1338C55.9879 44.0225 55.8437 44.0537 55.7114 44.115C55.5791 44.1763 55.4621 44.2661 55.3688 44.378C53.1596 47.0325 53.4472 51.8436 53.4472 53.6534V55.4862C53.4476 55.8935 53.61 56.2839 53.8986 56.5717C54.1872 56.8595 54.5784 57.0212 54.9863 57.0212H63.9347V49.69L63.462 44.7354ZM62.108 50.1986L61.0371 50.6782C60.7368 50.8126 60.4684 51.0089 60.2495 51.2542C60.0307 51.4996 59.8663 51.7884 59.7673 52.1017L58.8249 55.1044C58.729 55.4097 58.5379 55.6765 58.2795 55.8658C58.0211 56.0551 57.7088 56.1571 57.3883 56.1567H55.0781C54.8744 56.1567 54.6789 56.0766 54.5339 55.9336C54.389 55.7907 54.3064 55.5964 54.304 55.3931V53.5862C54.304 53.4198 54.304 53.2288 54.304 53.0165C54.2795 51.1059 54.229 47.1287 56.019 44.9767C56.041 44.9508 56.0685 44.93 56.0994 44.9157C56.1303 44.9015 56.164 44.8942 56.198 44.8942H62.5991C62.6041 44.894 62.6092 44.8948 62.6139 44.8965C62.6186 44.8983 62.6229 44.9009 62.6266 44.9043C62.6303 44.9077 62.6333 44.9118 62.6354 44.9164C62.6375 44.9209 62.6387 44.9259 62.6389 44.9309L63.0015 48.682C63.0311 48.9965 62.9607 49.3122 62.8003 49.5845C62.6399 49.8567 62.3977 50.0716 62.108 50.1986Z"
            fill="#FF9500" />
        <path
            d="M70.9218 50.5865H67.556C67.4535 50.5865 67.3709 50.8187 67.3709 51.1043H71.1024C71.1069 50.8187 71.0182 50.5865 70.9218 50.5865Z"
            fill="#FF9500" />
        <path
            d="M70.9218 51.6588H67.556C67.4535 51.6588 67.3709 51.8909 67.3709 52.178H71.1024C71.1069 51.8909 71.0182 51.6588 70.9218 51.6588Z"
            fill="#FF9500" />
        <path
            d="M70.9218 52.7325H67.556C67.4535 52.7325 67.3709 52.9646 67.3709 53.2502H71.1024C71.1069 52.9646 71.0182 52.7325 70.9218 52.7325Z"
            fill="#FF9500" />
        <path
            d="M75.1918 50.5865H71.826C71.7235 50.5865 71.6409 50.8187 71.6409 51.1043H75.3723C75.3769 50.8187 75.2928 50.5865 75.1918 50.5865Z"
            fill="#FF9500" />
        <path
            d="M75.1918 51.6588H71.826C71.7235 51.6588 71.6409 51.8909 71.6409 52.178H75.3723C75.3769 51.8909 75.2928 51.6588 75.1918 51.6588Z"
            fill="#FF9500" />
        <path
            d="M75.1918 52.7325H71.826C71.7235 52.7325 71.6409 52.9646 71.6409 53.2502H75.3723C75.3769 52.9646 75.2928 52.7325 75.1918 52.7325Z"
            fill="#FF9500" />
        <path
            d="M79.4602 50.5865H76.0944C75.9919 50.5865 75.9093 50.8187 75.9093 51.1043H79.6392C79.6453 50.8187 79.5627 50.5865 79.4602 50.5865Z"
            fill="#FF9500" />
        <path
            d="M79.4602 51.6588H76.0944C75.9919 51.6588 75.9093 51.8909 75.9093 52.178H79.6392C79.6453 51.8909 79.5627 51.6588 79.4602 51.6588Z"
            fill="#FF9500" />
        <path
            d="M79.4602 52.7325H76.0944C75.9919 52.7325 75.9093 52.9646 75.9093 53.2502H79.6392C79.6453 52.9646 79.5627 52.7325 79.4602 52.7325Z"
            fill="#FF9500" />
        <path
            d="M66.505 47.816H77.0965C77.2495 47.816 77.3962 47.8766 77.5043 47.9846C77.6125 48.0926 77.6733 48.2391 77.6733 48.3918V49.7053H65.9267V48.3918C65.9267 48.316 65.9416 48.241 65.9707 48.1711C65.9998 48.1011 66.0424 48.0376 66.0961 47.9841C66.1499 47.9306 66.2136 47.8882 66.2838 47.8594C66.3539 47.8305 66.4291 47.8158 66.505 47.816Z"
            fill="#FF9500" />
        <path d="M67.5438 47.816H67.1124V49.0149H67.5438V47.816Z" fill="#616161" />
        <path d="M68.8197 47.816H68.3883V49.0149H68.8197V47.816Z" fill="#616161" />
        <path d="M70.0941 47.816H69.6627V49.0149H70.0941V47.816Z" fill="#616161" />
        <path d="M71.3701 47.816H70.9386V49.0149H71.3701V47.816Z" fill="#616161" />
        <path d="M72.646 47.816H72.2146V49.0149H72.646V47.816Z" fill="#616161" />
        <path d="M73.9204 47.816H73.489V49.0149H73.9204V47.816Z" fill="#616161" />
        <path d="M75.1964 47.816H74.7649V49.0149H75.1964V47.816Z" fill="#616161" />
        <path d="M76.4708 47.816H76.0393V49.0149H76.4708V47.816Z" fill="#616161" />
        <path
            d="M9.60475 32.6145H7.96316C7.73334 32.6145 7.54703 32.8005 7.54703 33.0299V33.0315C7.54703 33.2609 7.73334 33.4469 7.96316 33.4469H9.60475C9.83457 33.4469 10.0209 33.2609 10.0209 33.0315V33.0299C10.0209 32.8005 9.83457 32.6145 9.60475 32.6145Z"
            fill="#CCD1CD" />
        <path
            d="M11.8185 31.2369H7.96316C7.73334 31.2369 7.54703 31.4229 7.54703 31.6523V31.6538C7.54703 31.8833 7.73334 32.0693 7.96316 32.0693H11.8185C12.0483 32.0693 12.2347 31.8833 12.2347 31.6538V31.6523C12.2347 31.4229 12.0483 31.2369 11.8185 31.2369Z"
            fill="#CCD1CD" />
        <path
            d="M37.0054 5.99475H33.15C32.9202 5.99475 32.7339 6.18075 32.7339 6.41018V6.41171C32.7339 6.64115 32.9202 6.82714 33.15 6.82714H37.0054C37.2352 6.82714 37.4215 6.64115 37.4215 6.41171V6.41018C37.4215 6.18075 37.2352 5.99475 37.0054 5.99475Z"
            fill="#CCD1CD" />
        <path
            d="M78.582 9.00818H76.9665C76.7366 9.00818 76.5503 9.19417 76.5503 9.42361V9.42514C76.5503 9.65458 76.7366 9.84057 76.9665 9.84057H78.582C78.8119 9.84057 78.9982 9.65458 78.9982 9.42514V9.42361C78.9982 9.19417 78.8119 9.00818 78.582 9.00818Z"
            fill="#E4995E" />
        <path
            d="M80.9626 7.59082H77.098C76.8682 7.59082 76.6819 7.77682 76.6819 8.00625V8.00778C76.6819 8.23722 76.8682 8.42321 77.098 8.42321H80.9626C81.1924 8.42321 81.3787 8.23722 81.3787 8.00778V8.00625C81.3787 7.77682 81.1924 7.59082 80.9626 7.59082Z"
            fill="#CCD1CD" />
        <path
            d="M34.0373 4.56519H33.0337C32.8039 4.56519 32.6176 4.75118 32.6176 4.98062V4.98215C32.6176 5.21158 32.8039 5.39758 33.0337 5.39758H34.0373C34.2672 5.39758 34.4535 5.21158 34.4535 4.98215V4.98062C34.4535 4.75118 34.2672 4.56519 34.0373 4.56519Z"
            fill="#CCD1CD" />
        <path
            d="M36.2893 4.56519H35.2857C35.0559 4.56519 34.8696 4.75118 34.8696 4.98062V4.98215C34.8696 5.21158 35.0559 5.39758 35.2857 5.39758H36.2893C36.5192 5.39758 36.7055 5.21158 36.7055 4.98215V4.98062C36.7055 4.75118 36.5192 4.56519 36.2893 4.56519Z"
            fill="#CCD1CD" />
        <path
            d="M38.6332 4.56519H37.6295C37.3997 4.56519 37.2134 4.75118 37.2134 4.98062V4.98215C37.2134 5.21158 37.3997 5.39758 37.6295 5.39758H38.6332C38.863 5.39758 39.0493 5.21158 39.0493 4.98215V4.98062C39.0493 4.75118 38.863 4.56519 38.6332 4.56519Z"
            fill="#CCD1CD" />
        <path
            d="M11.8185 29.8593H7.96316C7.73334 29.8593 7.54703 30.0452 7.54703 30.2747V30.2762C7.54703 30.5056 7.73334 30.6916 7.96316 30.6916H11.8185C12.0483 30.6916 12.2347 30.5056 12.2347 30.2762V30.2747C12.2347 30.0452 12.0483 29.8593 11.8185 29.8593Z"
            fill="#CCD1CD" />
        <path
            d="M8.18498 28.4709H7.91113C7.6813 28.4709 7.495 28.6569 7.495 28.8863V28.8878C7.495 29.1173 7.6813 29.3033 7.91113 29.3033H8.18498C8.41481 29.3033 8.60112 29.1173 8.60112 28.8878V28.8863C8.60112 28.6569 8.41481 28.4709 8.18498 28.4709Z"
            fill="#DA9863" />
        <path
            d="M9.73326 28.4709H9.45941C9.22958 28.4709 9.04327 28.6569 9.04327 28.8863V28.8878C9.04327 29.1173 9.22958 29.3033 9.45941 29.3033H9.73326C9.96309 29.3033 10.1494 29.1173 10.1494 28.8878V28.8863C10.1494 28.6569 9.96309 28.4709 9.73326 28.4709Z"
            fill="#424242" />
        <path
            d="M28.3078 29.8546C28.2765 29.8551 28.2455 29.8489 28.2167 29.8365C28.188 29.8242 28.1622 29.8059 28.1411 29.7828L26.2134 27.7561C26.1714 27.7119 26.1487 27.6529 26.1503 27.592C26.1518 27.5312 26.1776 27.4734 26.2218 27.4315C26.266 27.3896 26.3251 27.3669 26.3861 27.3685C26.4471 27.3701 26.5049 27.3957 26.5469 27.4399L28.473 29.4682C28.515 29.5122 28.5378 29.5709 28.5364 29.6317C28.5349 29.6924 28.5094 29.7501 28.4654 29.792C28.4231 29.8326 28.3665 29.8551 28.3078 29.8546Z"
            fill="#212121" />
        <path
            d="M26.3251 29.8027C26.2795 29.8018 26.2353 29.7873 26.198 29.7613C26.1607 29.7352 26.132 29.6986 26.1156 29.6562C26.0992 29.6137 26.0958 29.5674 26.1059 29.523C26.1159 29.4787 26.139 29.4383 26.1721 29.4071L28.2038 27.4842C28.225 27.4609 28.2509 27.4423 28.2796 27.4294C28.3084 27.4165 28.3396 27.4097 28.3711 27.4094C28.4026 27.409 28.4339 27.4152 28.463 27.4275C28.492 27.4398 28.5182 27.4579 28.5399 27.4807C28.5616 27.5036 28.5784 27.5306 28.5892 27.5602C28.5999 27.5898 28.6045 27.6213 28.6025 27.6527C28.6006 27.6842 28.5921 27.7148 28.5777 27.7429C28.5634 27.7709 28.5434 27.7957 28.519 27.8156L26.4888 29.7401C26.467 29.7608 26.4413 29.777 26.4132 29.7877C26.3851 29.7985 26.3552 29.8036 26.3251 29.8027Z"
            fill="#212121" />
        <path
            d="M70.2073 35.7028C70.1761 35.7027 70.1453 35.6963 70.1166 35.6839C70.0879 35.6716 70.0621 35.6536 70.0406 35.631L68.1114 33.6027C68.0711 33.5583 68.0498 33.4999 68.0521 33.44C68.0545 33.3801 68.0802 33.3235 68.1238 33.2824C68.1675 33.2412 68.2255 33.2188 68.2855 33.2198C68.3455 33.2209 68.4028 33.2454 68.4449 33.2881L70.3726 35.3164C70.4034 35.3489 70.4239 35.3897 70.4317 35.4338C70.4395 35.4778 70.4342 35.5232 70.4165 35.5643C70.3988 35.6054 70.3694 35.6404 70.3319 35.665C70.2945 35.6896 70.2506 35.7028 70.2058 35.7028H70.2073Z"
            fill="#212121" />
        <path
            d="M68.2261 35.6509C68.1806 35.6499 68.1363 35.6355 68.099 35.6094C68.0617 35.5833 68.0331 35.5467 68.0167 35.5043C68.0002 35.4619 67.9969 35.4156 68.0069 35.3712C68.017 35.3269 68.04 35.2865 68.0731 35.2553L70.1003 33.3308C70.1447 33.2895 70.2036 33.2673 70.2643 33.269C70.325 33.2707 70.3826 33.2962 70.4246 33.34C70.4455 33.3618 70.4618 33.3875 70.4727 33.4156C70.4835 33.4437 70.4887 33.4737 70.4878 33.5038C70.4869 33.5339 70.4801 33.5636 70.4677 33.5911C70.4553 33.6185 70.4375 33.6432 70.4154 33.6638L68.3852 35.5882C68.3422 35.6287 68.2852 35.6511 68.2261 35.6509Z"
            fill="#212121" />
        <path
            d="M15.5056 43.5043C14.7079 43.5046 13.928 43.2688 13.2646 42.8266C12.6012 42.3844 12.0841 41.7557 11.7786 41.0201C11.4732 40.2844 11.3931 39.4749 11.5485 38.6938C11.704 37.9127 12.0879 37.1952 12.6519 36.632C13.2158 36.0688 13.9344 35.6852 14.7167 35.5297C15.4991 35.3743 16.31 35.4539 17.047 35.7586C17.784 36.0633 18.4139 36.5793 18.8571 37.2414C19.3003 37.9035 19.5369 38.682 19.5369 39.4783C19.5361 40.5456 19.1111 41.5689 18.3553 42.3237C17.5995 43.0785 16.5746 43.5031 15.5056 43.5043ZM15.5056 35.9395C14.8041 35.9392 14.1182 36.1466 13.5348 36.5355C12.9514 36.9244 12.4966 37.4773 12.228 38.1243C11.9594 38.7713 11.889 39.4832 12.0258 40.1701C12.1626 40.857 12.5004 41.488 12.9964 41.9832C13.4925 42.4785 14.1245 42.8157 14.8126 42.9522C15.5006 43.0888 16.2138 43.0185 16.8619 42.7504C17.5099 42.4822 18.0638 42.0282 18.4533 41.4458C18.8429 40.8634 19.0507 40.1786 19.0504 39.4783C19.0492 38.5401 18.6753 37.6407 18.0108 36.9773C17.3463 36.3139 16.4453 35.9407 15.5056 35.9395Z"
            fill="#212121" />
        <path
            d="M15.5056 48.2742C15.3135 48.2742 15.1256 48.2173 14.9659 48.1107C14.8061 48.0042 14.6816 47.8527 14.6081 47.6755C14.5345 47.4983 14.5153 47.3032 14.5528 47.1151C14.5903 46.927 14.6828 46.7542 14.8187 46.6185C14.9545 46.4829 15.1276 46.3905 15.3161 46.3531C15.5045 46.3157 15.6999 46.3349 15.8774 46.4083C16.0549 46.4817 16.2066 46.606 16.3134 46.7655C16.4201 46.925 16.4771 47.1125 16.4771 47.3043C16.4767 47.5614 16.3742 47.8079 16.1921 47.9897C16.01 48.1715 15.7631 48.2738 15.5056 48.2742ZM15.5056 46.7927C15.4042 46.7927 15.3052 46.8227 15.2209 46.8789C15.1366 46.9351 15.0709 47.015 15.0321 47.1085C14.9933 47.202 14.9832 47.3049 15.0029 47.4041C15.0227 47.5034 15.0715 47.5946 15.1432 47.6661C15.2149 47.7377 15.3062 47.7864 15.4056 47.8061C15.505 47.8259 15.6081 47.8158 15.7017 47.777C15.7954 47.7383 15.8754 47.6727 15.9318 47.5886C15.9881 47.5044 16.0181 47.4055 16.0181 47.3043C16.0177 47.1687 15.9636 47.0388 15.8676 46.943C15.7715 46.8471 15.6414 46.7931 15.5056 46.7927Z"
            fill="#212121" />
        <path
            d="M15.5056 46.8293C15.4447 46.8293 15.3863 46.8052 15.3433 46.7622C15.3003 46.7193 15.2761 46.661 15.2761 46.6002V43.2615C15.2761 43.2007 15.3003 43.1425 15.3433 43.0995C15.3863 43.0565 15.4447 43.0324 15.5056 43.0324C15.5664 43.0324 15.6248 43.0565 15.6679 43.0995C15.7109 43.1425 15.7351 43.2007 15.7351 43.2615V46.6002C15.7351 46.661 15.7109 46.7193 15.6679 46.7622C15.6248 46.8052 15.5664 46.8293 15.5056 46.8293Z"
            fill="#212121" />
        <path
            d="M61.0019 24C60.0128 24.0004 59.0459 23.7074 58.2233 23.1581C57.4008 22.6089 56.7596 21.828 56.381 20.9143C56.0023 20.0006 55.9031 18.9951 56.096 18.025C56.2888 17.0549 56.7651 16.1638 57.4645 15.4645C58.1639 14.7651 59.0549 14.2888 60.025 14.096C60.9951 13.9031 62.0006 14.0023 62.9143 14.381C63.828 14.7596 64.6089 15.4008 65.1581 16.2233C65.7074 17.0459 66.0004 18.0128 66 19.0019C65.9985 20.327 65.4714 21.5974 64.5344 22.5344C63.5974 23.4714 62.327 23.9985 61.0019 24ZM61.0019 14.5729C60.1259 14.5725 59.2694 14.832 58.5408 15.3184C57.8122 15.8048 57.2442 16.4964 56.9087 17.3057C56.5732 18.1149 56.4852 19.0055 56.6559 19.8648C56.8266 20.7241 57.2482 21.5134 57.8675 22.133C58.4869 22.7526 59.2761 23.1746 60.1352 23.3457C60.9944 23.5167 61.8851 23.4291 62.6945 23.094C63.5039 22.7588 64.1957 22.1911 64.6825 21.4627C65.1692 20.7343 65.429 19.878 65.429 19.0019C65.4275 17.828 64.9607 16.7027 64.1308 15.8725C63.3009 15.0422 62.1758 14.5749 61.0019 14.5729Z"
            fill="#E4995E" />
        <path
            d="M61.0876 28.6878C60.8954 28.6878 60.7076 28.6309 60.5478 28.5243C60.3881 28.4177 60.2636 28.2663 60.19 28.089C60.1165 27.9118 60.0973 27.7168 60.1348 27.5287C60.1722 27.3406 60.2648 27.1678 60.4006 27.0321C60.5365 26.8965 60.7096 26.8041 60.8981 26.7667C61.0865 26.7293 61.2818 26.7485 61.4593 26.8219C61.6369 26.8953 61.7886 27.0196 61.8953 27.1791C62.0021 27.3386 62.0591 27.5261 62.0591 27.7179C62.0591 27.9751 61.9567 28.2218 61.7745 28.4037C61.5923 28.5856 61.3452 28.6878 61.0876 28.6878ZM61.0876 27.2062C60.9862 27.2062 60.8871 27.2363 60.8028 27.2925C60.7186 27.3487 60.6529 27.4286 60.6141 27.5221C60.5753 27.6156 60.5651 27.7185 60.5849 27.8177C60.6047 27.917 60.6535 28.0081 60.7252 28.0797C60.7969 28.1513 60.8882 28.2 60.9876 28.2197C61.087 28.2395 61.1901 28.2293 61.2837 28.1906C61.3774 28.1519 61.4574 28.0863 61.5137 28.0022C61.57 27.918 61.6001 27.8191 61.6001 27.7179C61.5997 27.5823 61.5456 27.4524 61.4495 27.3565C61.3535 27.2607 61.2234 27.2066 61.0876 27.2062Z"
            fill="#E4995E" />
        <path d="M61.3171 23.6766H60.8581V27.0154H61.3171V23.6766Z" fill="#E4995E" />
        <path d="M63.1332 16.0826H59V21.9999H63.1332V16.0826Z" fill="#1565C0" />
        <path d="M62.8948 16.2834V21.7684H59.2385V16.7029L60.0836 16.2834H62.8948Z" fill="white" />
        <path d="M60.0836 16.2834L59.4023 16.9069L59.2385 16.7029L60.0836 16.2834Z" fill="#E3F2FD" />
        <path
            d="M61.6392 16.6009H60.494C60.4687 16.6011 60.4437 16.5963 60.4203 16.5868C60.3968 16.5773 60.3756 16.5632 60.3576 16.5455C60.3397 16.5277 60.3254 16.5066 60.3157 16.4833C60.306 16.46 60.301 16.435 60.301 16.4098V16.0341H61.8323V16.4098C61.8323 16.435 61.8273 16.46 61.8176 16.4833C61.8078 16.5066 61.7936 16.5277 61.7756 16.5455C61.7577 16.5632 61.7364 16.5773 61.713 16.5868C61.6896 16.5963 61.6645 16.6011 61.6392 16.6009Z"
            fill="#90CAF9" />
        <path
            d="M61.6392 16.5668H60.494C60.4428 16.5668 60.3937 16.5465 60.3575 16.5104C60.3213 16.4742 60.301 16.4252 60.301 16.3741V16H61.8323V16.3741C61.8323 16.3994 61.8273 16.4245 61.8176 16.4478C61.8079 16.4712 61.7937 16.4925 61.7757 16.5104C61.7578 16.5282 61.7365 16.5424 61.7131 16.5521C61.6897 16.5618 61.6646 16.5668 61.6392 16.5668Z"
            fill="#E3F2FD" />
        <path
            d="M60.6481 16.1652C60.6251 16.1468 60.5965 16.1368 60.567 16.1368C60.5375 16.1368 60.5089 16.1468 60.4859 16.1652L60.4681 16.1846C60.4628 16.1916 60.4584 16.1992 60.4551 16.2073C60.4421 16.2334 60.4387 16.2632 60.4454 16.2915C60.4521 16.3198 60.4686 16.3449 60.4919 16.3624C60.5152 16.3799 60.5439 16.3887 60.573 16.3873C60.6022 16.3859 60.6299 16.3743 60.6514 16.3547C60.6577 16.3491 60.6637 16.3432 60.6692 16.3369C60.6745 16.3299 60.6788 16.3223 60.6822 16.3142C60.6939 16.2891 60.6969 16.2608 60.6907 16.2339C60.6845 16.2069 60.6695 16.1827 60.6481 16.1652Z"
            fill="#90CAF9" />
        <path
            d="M60.5037 16.1636C60.5237 16.1467 60.549 16.1374 60.5751 16.1374C60.6013 16.1374 60.6266 16.1467 60.6465 16.1636L60.6611 16.1797C60.666 16.1858 60.6703 16.1923 60.6741 16.1992C60.6853 16.2227 60.688 16.2493 60.6818 16.2746C60.6757 16.2999 60.661 16.3223 60.6403 16.338C60.6196 16.3538 60.594 16.3619 60.568 16.3611C60.5419 16.3603 60.517 16.3506 60.4973 16.3336L60.4827 16.3158C60.4771 16.3102 60.4726 16.3036 60.4697 16.2963C60.4598 16.2736 60.4577 16.2482 60.4639 16.2241C60.4701 16.2001 60.4841 16.1788 60.5037 16.1636Z"
            fill="#FFC07B" />
        <path
            d="M60.4697 16.3013L60.6465 16.1685L60.6611 16.1847C60.666 16.1907 60.6703 16.1972 60.6741 16.2041L60.4972 16.3385L60.4826 16.3207C60.4771 16.3151 60.4726 16.3085 60.4697 16.3013Z"
            fill="#F7A741" />
        <path
            d="M61.6376 16.1652C61.6146 16.1468 61.586 16.1368 61.5565 16.1368C61.5271 16.1368 61.4984 16.1468 61.4754 16.1652L61.4576 16.1846C61.4523 16.1916 61.448 16.1992 61.4446 16.2073C61.4325 16.2332 61.4296 16.2624 61.4364 16.2901C61.4433 16.3178 61.4595 16.3423 61.4822 16.3596C61.505 16.3768 61.533 16.3858 61.5616 16.3849C61.5902 16.384 61.6176 16.3733 61.6393 16.3547C61.646 16.3496 61.652 16.3436 61.6571 16.3369C61.6629 16.3299 61.6678 16.3223 61.6717 16.3142C61.6828 16.289 61.6855 16.2609 61.6794 16.2341C61.6733 16.2072 61.6586 16.1831 61.6376 16.1652Z"
            fill="#90CAF9" />
        <path
            d="M61.6295 16.1636C61.6096 16.1467 61.5843 16.1374 61.5581 16.1374C61.532 16.1374 61.5067 16.1467 61.4868 16.1636L61.4705 16.1797C61.4662 16.1859 61.4624 16.1924 61.4592 16.1992C61.448 16.2226 61.4452 16.2492 61.4511 16.2745C61.457 16.2998 61.4713 16.3223 61.4916 16.3384C61.512 16.3545 61.5371 16.3632 61.563 16.3632C61.5889 16.3632 61.6141 16.3545 61.6344 16.3384C61.6406 16.3333 61.6461 16.3273 61.6506 16.3206C61.6562 16.3151 61.6606 16.3085 61.6636 16.3012C61.6747 16.2779 61.6774 16.2514 61.6712 16.2263C61.665 16.2012 61.6503 16.179 61.6295 16.1636Z"
            fill="#FFC07B" />
        <path
            d="M61.6636 16.3013L61.4868 16.1685L61.4706 16.1847C61.4662 16.1908 61.4624 16.1973 61.4592 16.2041L61.6344 16.3385C61.6406 16.3334 61.6461 16.3274 61.6506 16.3207C61.6562 16.3151 61.6606 16.3085 61.6636 16.3013Z"
            fill="#F7A741" />
        <path d="M61.4592 16.0244L61.112 16.5442H60.859L61.2061 16.0244H61.4592Z" fill="white" />
        <path d="M61.0698 16.0244L60.7227 16.5442H60.6027L60.9498 16.0244H61.0698Z" fill="white" />
        <path d="M60.6448 19.6956H59.4169V19.7377H60.6448V19.6956Z" fill="#E3F2FD" />
        <path d="M61.3018 19.6956H60.726V19.7377H61.3018V19.6956Z" fill="#E3F2FD" />
        <path d="M62.7163 19.6956H61.3537V19.7377H62.7163V19.6956Z" fill="#E3F2FD" />
        <path d="M60.6448 20.2526H59.4169V20.2947H60.6448V20.2526Z" fill="#E3F2FD" />
        <path d="M61.3018 20.2526H60.726V20.2947H61.3018V20.2526Z" fill="#E3F2FD" />
        <path d="M62.7163 20.2526H61.3537V20.2947H62.7163V20.2526Z" fill="#E3F2FD" />
        <path d="M60.4469 19.8769H59.4169V19.919H60.4469V19.8769Z" fill="#E3F2FD" />
        <path d="M60.9985 19.8769H60.5151V19.919H60.9985V19.8769Z" fill="#E3F2FD" />
        <path d="M62.1859 19.8769H61.0423V19.919H62.1859V19.8769Z" fill="#E3F2FD" />
        <path d="M62.7163 19.8769H62.2297V19.919H62.7163V19.8769Z" fill="#E3F2FD" />
        <path d="M62.7163 20.0519H61.9799V20.094H62.7163V20.0519Z" fill="#E3F2FD" />
        <path d="M60.2052 20.0519H59.4169V20.094H60.2052V20.0519Z" fill="#E3F2FD" />
        <path d="M60.627 20.0519H60.2572V20.094H60.627V20.0519Z" fill="#E3F2FD" />
        <path d="M61.537 20.0519H60.6611V20.094H61.537V20.0519Z" fill="#E3F2FD" />
        <path d="M61.9442 20.0519H61.5711V20.094H61.9442V20.0519Z" fill="#E3F2FD" />
        <path d="M60.6448 20.4291H59.4169V20.4712H60.6448V20.4291Z" fill="#E3F2FD" />
        <path d="M61.3018 20.4291H60.726V20.4712H61.3018V20.4291Z" fill="#E3F2FD" />
        <path d="M62.7163 20.4291H61.3537V20.4712H62.7163V20.4291Z" fill="#E3F2FD" />
        <path d="M60.6448 20.9861H59.4169V21.0282H60.6448V20.9861Z" fill="#E3F2FD" />
        <path d="M61.3018 20.9861H60.726V21.0282H61.3018V20.9861Z" fill="#E3F2FD" />
        <path d="M62.7163 20.9861H61.3537V21.0282H62.7163V20.9861Z" fill="#E3F2FD" />
        <path d="M60.4469 20.6105H59.4169V20.6526H60.4469V20.6105Z" fill="#E3F2FD" />
        <path d="M60.9985 20.6105H60.5151V20.6526H60.9985V20.6105Z" fill="#E3F2FD" />
        <path d="M62.1859 20.6105H61.0423V20.6526H62.1859V20.6105Z" fill="#E3F2FD" />
        <path d="M62.7163 20.6105H62.2297V20.6526H62.7163V20.6105Z" fill="#E3F2FD" />
        <path d="M62.7163 20.7854H61.9799V20.8275H62.7163V20.7854Z" fill="#E3F2FD" />
        <path d="M60.2052 20.7854H59.4169V20.8275H60.2052V20.7854Z" fill="#E3F2FD" />
        <path d="M60.627 20.7854H60.2572V20.8275H60.627V20.7854Z" fill="#E3F2FD" />
        <path d="M61.537 20.7854H60.6611V20.8275H61.537V20.7854Z" fill="#E3F2FD" />
        <path d="M61.9442 20.7854H61.5711V20.8275H61.9442V20.7854Z" fill="#E3F2FD" />
        <path d="M60.6448 21.1627H59.4169V21.2048H60.6448V21.1627Z" fill="#E3F2FD" />
        <path d="M61.3018 21.1627H60.726V21.2048H61.3018V21.1627Z" fill="#E3F2FD" />
        <path d="M62.7163 21.1627H61.3537V21.2048H62.7163V21.1627Z" fill="#E3F2FD" />
        <path d="M60.4469 21.3442H59.4169V21.3863H60.4469V21.3442Z" fill="#E3F2FD" />
        <path d="M60.9985 21.3442H60.5151V21.3863H60.9985V21.3442Z" fill="#E3F2FD" />
        <path d="M62.1859 21.3442H61.0423V21.3863H62.1859V21.3442Z" fill="#E3F2FD" />
        <path d="M62.7163 21.3442H62.2297V21.3863H62.7163V21.3442Z" fill="#E3F2FD" />
        <path d="M60.6448 17.5854H59.4169V17.6276H60.6448V17.5854Z" fill="#E3F2FD" />
        <path d="M62.7164 17.5854H61.7787V17.6276H62.7164V17.5854Z" fill="#E3F2FD" />
        <path d="M61.6555 17.4656H60.8039V17.7457H61.6555V17.4656Z" fill="#E3F2FD" />
        <path d="M61.2888 18.0259H60.3512V18.068H61.2888V18.0259Z" fill="#E3F2FD" />
        <path d="M62.7179 18.0259H62.2637V18.068H62.7179V18.0259Z" fill="#E3F2FD" />
        <path d="M60.2669 17.9077H59.4153V18.1879H60.2669V17.9077Z" fill="#E3F2FD" />
        <path d="M62.2054 17.9077H61.3537V18.1879H62.2054V17.9077Z" fill="#E3F2FD" />
        <path d="M60.2182 18.4663H59.4169V18.5084H60.2182V18.4663Z" fill="#E3F2FD" />
        <path d="M62.718 18.4663H61.271V18.5084H62.718V18.4663Z" fill="#E3F2FD" />
        <path d="M61.1802 18.3482H60.3286V18.6284H61.1802V18.3482Z" fill="#E3F2FD" />
        <path d="M61.2402 18.9069H60.3318V18.949H61.2402V18.9069Z" fill="#E3F2FD" />
        <path d="M62.718 18.9069H62.2491V18.949H62.718V18.9069Z" fill="#E3F2FD" />
        <path d="M62.1534 18.7886H61.3018V19.0688H62.1534V18.7886Z" fill="#E3F2FD" />
        <path d="M60.2685 18.7886H59.4169V19.0688H60.2685V18.7886Z" fill="#E3F2FD" />
        <path d="M60.6448 19.3474H59.4169V19.3895H60.6448V19.3474Z" fill="#E3F2FD" />
        <path d="M62.7164 19.3474H61.7787V19.3895H62.7164V19.3474Z" fill="#E3F2FD" />
        <path d="M61.6555 19.2291H60.8039V19.5093H61.6555V19.2291Z" fill="#E3F2FD" />
        <path d="M60.3869 16.8809H60.4194V17.0833H60.5264V17.1141H60.3869V16.8809Z" fill="#90CAF9" />
        <path d="M60.5492 16.8809H60.58V17.1141H60.5492V16.8809Z" fill="#90CAF9" />
        <path
            d="M60.8054 16.9312C60.7993 16.9226 60.7909 16.9158 60.7811 16.9117C60.7716 16.9068 60.761 16.9041 60.7503 16.9037C60.7379 16.9037 60.7258 16.9064 60.7146 16.9117C60.704 16.9159 60.6945 16.9225 60.687 16.9312C60.679 16.9401 60.6729 16.9505 60.6692 16.9619C60.6667 16.9742 60.6667 16.9869 60.6692 16.9992C60.6667 17.0104 60.6667 17.022 60.6692 17.0332C60.6726 17.0439 60.6781 17.0538 60.6854 17.0624C60.6935 17.0702 60.7028 17.0768 60.713 17.0818C60.7247 17.0871 60.7374 17.0899 60.7503 17.0899C60.7621 17.0899 60.7738 17.0871 60.7844 17.0818C60.7947 17.0765 60.8036 17.0687 60.8103 17.0591L60.8379 17.0785L60.8282 17.0883C60.8229 17.0939 60.8169 17.0988 60.8103 17.1028L60.7844 17.1142C60.7725 17.1161 60.7605 17.1161 60.7487 17.1142C60.7319 17.1144 60.7154 17.1111 60.7 17.1045C60.6855 17.0976 60.6724 17.0883 60.6611 17.0769C60.6512 17.0652 60.643 17.0521 60.6367 17.0381C60.6344 17.0236 60.6344 17.0088 60.6367 16.9943C60.6365 16.9771 60.6398 16.96 60.6465 16.9441C60.652 16.9298 60.6603 16.9166 60.6708 16.9053C60.6821 16.8943 60.6953 16.8855 60.7097 16.8794C60.7251 16.8727 60.7417 16.8694 60.7584 16.8696C60.7741 16.8696 60.7896 16.8729 60.8038 16.8794C60.8184 16.8845 60.8312 16.8934 60.8411 16.9053L60.8054 16.9312Z"
            fill="#90CAF9" />
        <path
            d="M60.8736 16.8809H61.0244V16.9101H60.906V16.9797H61.0163V17.0089H60.906V17.0833H61.0358V17.1141H60.8736V16.8809Z"
            fill="#90CAF9" />
        <path
            d="M61.0764 16.8809H61.1185L61.2467 17.072V16.8809H61.2775V17.1141H61.237L61.1072 16.9214V17.1141H61.0747L61.0764 16.8809Z"
            fill="#90CAF9" />
        <path
            d="M61.5014 16.9312C61.4952 16.9226 61.4868 16.9158 61.477 16.9117C61.4669 16.9068 61.4559 16.904 61.4446 16.9037C61.4323 16.9038 61.4201 16.9066 61.4089 16.9117C61.399 16.9163 61.3902 16.923 61.383 16.9312C61.3749 16.9401 61.3688 16.9505 61.3651 16.9619C61.3627 16.9742 61.3627 16.9869 61.3651 16.9992C61.3634 17.0105 61.3634 17.0219 61.3651 17.0332C61.3691 17.044 61.3752 17.0539 61.383 17.0624C61.3907 17.0706 61.4001 17.0772 61.4105 17.0818C61.4217 17.0871 61.4339 17.0899 61.4462 17.0899C61.4586 17.0901 61.4708 17.0873 61.4819 17.0818C61.492 17.076 61.5008 17.0683 61.5079 17.0591L61.5338 17.0785V17.0883L61.516 17.1028L61.49 17.1142C61.4782 17.116 61.4662 17.116 61.4543 17.1142C61.4371 17.1144 61.42 17.1111 61.4041 17.1045C61.3901 17.0976 61.3774 17.0882 61.3667 17.0769C61.3562 17.0656 61.348 17.0524 61.3424 17.0381C61.3374 17.024 61.3346 17.0093 61.3343 16.9943C61.3341 16.9771 61.3374 16.96 61.344 16.9441C61.349 16.9295 61.3573 16.9161 61.3684 16.9053C61.379 16.8936 61.3924 16.8847 61.4073 16.8794C61.4226 16.8727 61.4392 16.8694 61.456 16.8696C61.4716 16.8698 61.4871 16.8731 61.5014 16.8794C61.5157 16.8841 61.5281 16.8932 61.5371 16.9053L61.5014 16.9312Z"
            fill="#90CAF9" />
        <path
            d="M61.5712 16.8809H61.722V16.9101H61.602V16.9797H61.7139V17.0089H61.602V17.0833H61.7269V17.1141H61.5647L61.5712 16.8809Z"
            fill="#90CAF9" />
        <path d="M17.4272 36.7521H13.529V42.3329H17.4272V36.7521Z" fill="#1565C0" />
        <path d="M17.2023 36.9414V42.1145H13.7538V37.337L14.5525 36.9414H17.2023Z" fill="white" />
        <path d="M14.5525 36.9414L13.9084 37.5294L13.7538 37.337L14.5525 36.9414Z" fill="#E3F2FD" />
        <path
            d="M16.0181 37.2408H14.938C14.9141 37.2408 14.8904 37.2361 14.8683 37.227C14.8463 37.2178 14.8262 37.2045 14.8093 37.1876C14.7924 37.1707 14.779 37.1507 14.7698 37.1286C14.7607 37.1066 14.756 37.0829 14.756 37.059V36.7062H16.2002V37.0636C16.199 37.111 16.1793 37.1561 16.1453 37.1892C16.1112 37.2223 16.0656 37.2408 16.0181 37.2408Z"
            fill="#90CAF9" />
        <path
            d="M16.0181 37.2163H14.938C14.8897 37.2163 14.8434 37.1972 14.8093 37.1631C14.7751 37.129 14.756 37.0828 14.756 37.0346V36.6802H16.2002V37.0346C16.2002 37.0828 16.181 37.129 16.1469 37.1631C16.1127 37.1972 16.0664 37.2163 16.0181 37.2163Z"
            fill="#E3F2FD" />
        <path
            d="M15.0833 36.8299C15.0619 36.812 15.0348 36.8022 15.0068 36.8022C14.9789 36.8022 14.9518 36.812 14.9303 36.8299C14.9249 36.8357 14.9198 36.8419 14.915 36.8483C14.9099 36.8545 14.9053 36.8612 14.9013 36.8681C14.8902 36.8927 14.8878 36.9203 14.8944 36.9464C14.9011 36.9725 14.9164 36.9956 14.9379 37.0119C14.9593 37.0282 14.9857 37.0368 15.0127 37.0362C15.0397 37.0356 15.0657 37.0259 15.0864 37.0086C15.0924 37.0034 15.098 36.9978 15.1032 36.9918C15.1079 36.9851 15.112 36.9779 15.1155 36.9705C15.1265 36.9468 15.1293 36.9201 15.1235 36.8947C15.1177 36.8693 15.1035 36.8465 15.0833 36.8299Z"
            fill="#90CAF9" />
        <path
            d="M14.9472 36.8284C14.9661 36.8128 14.9899 36.8042 15.0145 36.8042C15.0391 36.8042 15.0629 36.8128 15.0818 36.8284L15.0971 36.8452C15.1012 36.851 15.1048 36.8571 15.1078 36.8635C15.1183 36.8855 15.1209 36.9105 15.115 36.9342C15.1092 36.9579 15.0953 36.9788 15.0757 36.9934C15.057 37.0089 15.0334 37.0174 15.0091 37.0174C14.9848 37.0174 14.9613 37.0089 14.9426 36.9934C14.9367 36.9885 14.9315 36.9829 14.9273 36.9766C14.9227 36.9708 14.9186 36.9647 14.915 36.9582C14.9045 36.9362 14.902 36.9112 14.9078 36.8876C14.9137 36.8639 14.9276 36.843 14.9472 36.8284Z"
            fill="#FFC07B" />
        <path
            d="M14.915 36.9583L15.0818 36.8315L15.0971 36.8483C15.1012 36.8541 15.1048 36.8602 15.1078 36.8666L14.9426 36.9934C14.9367 36.9885 14.9315 36.9829 14.9273 36.9766C14.9227 36.9708 14.9186 36.9647 14.915 36.9583Z"
            fill="#F7A741" />
        <path
            d="M16.0166 36.8299C15.9951 36.812 15.9681 36.8022 15.9401 36.8022C15.9121 36.8022 15.8851 36.812 15.8636 36.8299L15.8468 36.8483L15.8345 36.8681C15.8235 36.8927 15.821 36.9203 15.8277 36.9464C15.8343 36.9725 15.8496 36.9956 15.8711 37.0119C15.8926 37.0282 15.919 37.0368 15.946 37.0362C15.9729 37.0356 15.9989 37.0259 16.0197 37.0086C16.0255 37.0038 16.0307 36.9982 16.0349 36.9918C16.0401 36.9851 16.0447 36.9779 16.0487 36.9705C16.0595 36.9468 16.0622 36.9202 16.0564 36.8948C16.0506 36.8694 16.0366 36.8466 16.0166 36.8299Z"
            fill="#90CAF9" />
        <path
            d="M16.0089 36.8284C15.99 36.8128 15.9662 36.8042 15.9416 36.8042C15.917 36.8042 15.8932 36.8128 15.8743 36.8284C15.8689 36.8333 15.8643 36.839 15.8605 36.8452L15.8483 36.8635C15.8377 36.8857 15.8351 36.9108 15.8409 36.9346C15.8467 36.9585 15.8606 36.9796 15.8801 36.9945C15.8997 37.0093 15.9238 37.017 15.9483 37.0163C15.9729 37.0155 15.9965 37.0063 16.015 36.9903L16.0288 36.9735C16.0334 36.9678 16.0375 36.9616 16.041 36.9552C16.0508 36.9335 16.0529 36.9092 16.0471 36.8862C16.0412 36.8632 16.0278 36.8428 16.0089 36.8284Z"
            fill="#FFC07B" />
        <path
            d="M16.0411 36.9583L15.8743 36.8315C15.8689 36.8364 15.8643 36.842 15.8605 36.8483L15.8483 36.8666L16.0151 36.9934L16.0288 36.9766C16.0334 36.9708 16.0375 36.9647 16.0411 36.9583Z"
            fill="#F7A741" />
        <path d="M15.8483 36.6956L15.5209 37.1858H15.2822L15.6096 36.6956H15.8483Z" fill="white" />
        <path d="M15.4811 36.6956L15.1537 37.1858H15.0405L15.3679 36.6956H15.4811Z" fill="white" />
        <path d="M15.0803 40.1595H13.9221V40.1992H15.0803V40.1595Z" fill="#E3F2FD" />
        <path d="M15.6999 40.1595H15.1568V40.1992H15.6999V40.1595Z" fill="#E3F2FD" />
        <path d="M17.034 40.1595H15.7488V40.1992H17.034V40.1595Z" fill="#E3F2FD" />
        <path d="M15.0803 40.6849H13.9221V40.7246H15.0803V40.6849Z" fill="#E3F2FD" />
        <path d="M15.6999 40.6849H15.1568V40.7246H15.6999V40.6849Z" fill="#E3F2FD" />
        <path d="M17.034 40.6849H15.7488V40.7246H17.034V40.6849Z" fill="#E3F2FD" />
        <path d="M14.8936 40.329H13.9221V40.3688H14.8936V40.329Z" fill="#E3F2FD" />
        <path d="M15.4138 40.329H14.9579V40.3688H15.4138V40.329Z" fill="#E3F2FD" />
        <path d="M16.5337 40.329H15.4551V40.3688H16.5337V40.329Z" fill="#E3F2FD" />
        <path d="M17.034 40.329H16.575V40.3688H17.034V40.329Z" fill="#E3F2FD" />
        <path d="M17.034 40.4955H16.3394V40.5353H17.034V40.4955Z" fill="#E3F2FD" />
        <path d="M14.6657 40.4955H13.9221V40.5353H14.6657V40.4955Z" fill="#E3F2FD" />
        <path d="M15.065 40.4955H14.7162V40.5353H15.065V40.4955Z" fill="#E3F2FD" />
        <path d="M15.9217 40.4955H15.0956V40.5353H15.9217V40.4955Z" fill="#E3F2FD" />
        <path d="M16.3057 40.4955H15.9539V40.5353H16.3057V40.4955Z" fill="#E3F2FD" />
        <path d="M15.0803 40.8514H13.9221V40.8911H15.0803V40.8514Z" fill="#E3F2FD" />
        <path d="M15.6999 40.8514H15.1568V40.8911H15.6999V40.8514Z" fill="#E3F2FD" />
        <path d="M17.034 40.8514H15.7488V40.8911H17.034V40.8514Z" fill="#E3F2FD" />
        <path d="M15.0803 41.3768H13.9221V41.4165H15.0803V41.3768Z" fill="#E3F2FD" />
        <path d="M15.6999 41.3768H15.1568V41.4165H15.6999V41.3768Z" fill="#E3F2FD" />
        <path d="M17.034 41.3768H15.7488V41.4165H17.034V41.3768Z" fill="#E3F2FD" />
        <path d="M14.8936 41.0225H13.9221V41.0622H14.8936V41.0225Z" fill="#E3F2FD" />
        <path d="M15.4138 41.0225H14.9579V41.0622H15.4138V41.0225Z" fill="#E3F2FD" />
        <path d="M16.5337 41.0225H15.4551V41.0622H16.5337V41.0225Z" fill="#E3F2FD" />
        <path d="M17.034 41.0225H16.575V41.0622H17.034V41.0225Z" fill="#E3F2FD" />
        <path d="M17.034 41.1874H16.3394V41.2271H17.034V41.1874Z" fill="#E3F2FD" />
        <path d="M14.6657 41.1874H13.9221V41.2271H14.6657V41.1874Z" fill="#E3F2FD" />
        <path d="M15.065 41.1874H14.7162V41.2271H15.065V41.1874Z" fill="#E3F2FD" />
        <path d="M15.9217 41.1874H15.0956V41.2271H15.9217V41.1874Z" fill="#E3F2FD" />
        <path d="M16.3057 41.1874H15.9539V41.2271H16.3057V41.1874Z" fill="#E3F2FD" />
        <path d="M15.0803 41.5433H13.9221V41.583H15.0803V41.5433Z" fill="#E3F2FD" />
        <path d="M15.6999 41.5433H15.1568V41.583H15.6999V41.5433Z" fill="#E3F2FD" />
        <path d="M17.034 41.5433H15.7488V41.583H17.034V41.5433Z" fill="#E3F2FD" />
        <path d="M14.8936 41.7143H13.9221V41.754H14.8936V41.7143Z" fill="#E3F2FD" />
        <path d="M15.4138 41.7143H14.9579V41.754H15.4138V41.7143Z" fill="#E3F2FD" />
        <path d="M16.5337 41.7143H15.4551V41.754H16.5337V41.7143Z" fill="#E3F2FD" />
        <path d="M17.034 41.7143H16.575V41.754H17.034V41.7143Z" fill="#E3F2FD" />
        <path d="M15.0803 38.1678H13.9221V38.2076H15.0803V38.1678Z" fill="#E3F2FD" />
        <path d="M17.0355 38.1678H16.1512V38.2076H17.0355V38.1678Z" fill="#E3F2FD" />
        <path d="M16.0334 38.0564H15.2302V38.3206H16.0334V38.0564Z" fill="#E3F2FD" />
        <path d="M15.6877 38.5848H14.8034V38.6245H15.6877V38.5848Z" fill="#E3F2FD" />
        <path d="M17.0355 38.5848H16.6071V38.6245H17.0355V38.5848Z" fill="#E3F2FD" />
        <path d="M14.7238 38.4718H13.9206V38.736H14.7238V38.4718Z" fill="#E3F2FD" />
        <path d="M16.552 38.4718H15.7488V38.736H16.552V38.4718Z" fill="#E3F2FD" />
        <path d="M14.6779 39.0002H13.9221V39.04H14.6779V39.0002Z" fill="#E3F2FD" />
        <path d="M17.0355 39.0002H15.6708V39.04H17.0355V39.0002Z" fill="#E3F2FD" />
        <path d="M15.5852 38.8873H14.782V39.1515H15.5852V38.8873Z" fill="#E3F2FD" />
        <path d="M15.6418 39.4157H14.785V39.4554H15.6418V39.4157Z" fill="#E3F2FD" />
        <path d="M17.0355 39.4157H16.5934V39.4554H17.0355V39.4157Z" fill="#E3F2FD" />
        <path d="M16.5031 39.3042H15.6999V39.5684H16.5031V39.3042Z" fill="#E3F2FD" />
        <path d="M14.7253 39.3042H13.9221V39.5684H14.7253V39.3042Z" fill="#E3F2FD" />
        <path d="M15.0803 39.8311H13.9221V39.8708H15.0803V39.8311Z" fill="#E3F2FD" />
        <path d="M17.0355 39.8311H16.1512V39.8708H17.0355V39.8311Z" fill="#E3F2FD" />
        <path d="M16.0334 39.7196H15.2302V39.9838H16.0334V39.7196Z" fill="#E3F2FD" />
        <path d="M14.8324 37.5035H14.8615V37.6959H14.9625V37.7234H14.8324V37.5035Z" fill="#90CAF9" />
        <path d="M14.9931 37.5035H15.0237V37.7234H14.9946L14.9931 37.5035Z" fill="#90CAF9" />
        <path
            d="M15.2333 37.5524C15.2266 37.5441 15.2183 37.5373 15.2088 37.5325C15.1992 37.5311 15.1894 37.5311 15.1797 37.5325C15.1681 37.5325 15.1566 37.5351 15.1461 37.5402C15.1362 37.5445 15.1274 37.5507 15.1201 37.5585C15.1127 37.567 15.107 37.5769 15.1032 37.5875C15.1015 37.5992 15.1015 37.611 15.1032 37.6226C15.1038 37.6443 15.1113 37.6652 15.1246 37.6822C15.1323 37.6896 15.1411 37.6958 15.1507 37.7005C15.1623 37.703 15.1742 37.703 15.1858 37.7005C15.1969 37.7028 15.2084 37.7028 15.2195 37.7005C15.2286 37.6945 15.2364 37.6867 15.2424 37.6776L15.2685 37.6975L15.2593 37.7066C15.2546 37.7119 15.2489 37.7161 15.2424 37.7189C15.2351 37.7244 15.2268 37.7286 15.218 37.7311C15.2068 37.7329 15.1955 37.7329 15.1843 37.7311C15.1683 37.7316 15.1525 37.7279 15.1384 37.7204C15.1247 37.714 15.1122 37.7052 15.1017 37.6944C15.0922 37.6837 15.085 37.6713 15.0803 37.6578C15.0747 37.6453 15.0721 37.6317 15.0726 37.6181C15.0718 37.6019 15.0744 37.5858 15.0803 37.5707C15.0857 37.5568 15.0935 37.5439 15.1032 37.5325C15.1139 37.5226 15.1264 37.5149 15.1399 37.5096C15.1544 37.5034 15.1701 37.5002 15.1858 37.5004C15.2 37.4981 15.2145 37.4981 15.2287 37.5004C15.2422 37.5064 15.2542 37.5153 15.2639 37.5264L15.2333 37.5524Z"
            fill="#90CAF9" />
        <path
            d="M15.2975 37.5035H15.4398V37.5325H15.3297V37.5982H15.4337V37.6257H15.3297V37.6959H15.4475V37.7234H15.2945L15.2975 37.5035Z"
            fill="#90CAF9" />
        <path
            d="M15.4826 37.5035H15.5224L15.6433 37.6852V37.5035H15.6723V37.7234H15.6356L15.5132 37.5432V37.7234H15.4826V37.5035Z"
            fill="#90CAF9" />
        <path
            d="M15.8881 37.5524C15.8824 37.5438 15.8744 37.5369 15.8651 37.5325C15.8555 37.5311 15.8457 37.5311 15.8361 37.5325C15.8244 37.5324 15.8128 37.535 15.8024 37.5402C15.7924 37.5441 15.7834 37.5504 15.7764 37.5585C15.7685 37.5666 15.7627 37.5766 15.7596 37.5875C15.7571 37.5991 15.7571 37.6111 15.7596 37.6226C15.7585 37.6389 15.7625 37.6551 15.771 37.6691C15.7795 37.683 15.792 37.694 15.807 37.7005C15.8186 37.703 15.8306 37.703 15.8422 37.7005C15.8535 37.7009 15.8646 37.6982 15.8746 37.6928C15.8845 37.6875 15.8929 37.6796 15.8988 37.67L15.9248 37.6898L15.9156 37.699C15.911 37.7043 15.9052 37.7084 15.8988 37.7112L15.8743 37.7234C15.8631 37.7251 15.8518 37.7251 15.8406 37.7234C15.8242 37.7237 15.8079 37.7201 15.7932 37.7128C15.7797 37.7068 15.7677 37.6979 15.758 37.6868C15.7487 37.6757 15.741 37.6634 15.7351 37.6501C15.7239 37.6222 15.7239 37.591 15.7351 37.5631C15.7393 37.5486 15.7472 37.5355 15.758 37.5249C15.7684 37.5147 15.781 37.5068 15.7947 37.502C15.8092 37.4957 15.8249 37.4926 15.8406 37.4928C15.8548 37.4905 15.8693 37.4905 15.8835 37.4928C15.897 37.4988 15.909 37.5077 15.9187 37.5188L15.8881 37.5524Z"
            fill="#90CAF9" />
        <path
            d="M15.9539 37.5035H16.0946V37.5325H15.9829V37.5982H16.0946V37.6257H15.9906V37.6959H16.1084V37.7234H15.9554L15.9539 37.5035Z"
            fill="#90CAF9" />
    </g>
    <defs>
        <clipPath id="clip0_263_70503">
            <rect width="96" height="69" fill="white" />
        </clipPath>
    </defs>
</svg>