<svg width="19" height="24" viewBox="0 0 19 24" fill="none" xmlns="http://www.w3.org/2000/svg">
<path fill-rule="evenodd" clip-rule="evenodd" d="M13.4522 3.16602L15.2752 8.43218C15.3801 8.73939 15.3895 9.10994 15.2752 9.40345L13.6294 12.6978L11.815 10.4447L11.4057 9.22763C11.3422 8.98835 11.3516 8.73558 11.4326 8.50166L11.7384 7.83618C11.8046 7.69108 11.9407 7.68304 11.9898 7.80357L12.833 10.224C13.0004 10.1346 13.1166 9.7083 13.0103 9.38502L12.1902 7.10784C12.0485 6.61157 12.2158 6.10631 12.54 5.59539C12.6142 5.47156 12.7215 5.47581 12.7763 5.58972L13.7372 8.35135C13.94 8.2814 14.0175 7.86784 13.879 7.45617L12.9621 4.80939C12.9082 4.47337 12.9516 4.12894 13.0873 3.81684C13.0873 3.81684 13.4479 3.17264 13.4541 3.16696L13.4522 3.16602ZM14.3535 12.3986C14.7855 12.5044 15.4987 12.5054 16.2805 12.4803C16.5337 12.54 16.7532 12.6968 16.8916 12.9171C17.5769 12.9246 17.8695 13.2262 17.7977 13.8014C17.5939 13.2881 16.962 13.229 16.668 13.6076C16.8647 13.7749 17.0901 13.7829 17.3449 13.6265C17.3737 13.8964 17.0504 14.0571 16.3523 14.0991C15.9137 14.1634 14.484 15.346 13.6016 16.1348C12.7232 16.7916 11.7146 17.2532 10.6433 17.4884L3.50879 19.6612C3.35944 19.7018 3.27625 19.5406 3.36133 19.4868C3.73282 19.1587 4.30661 18.8359 4.97728 18.515C4.94231 18.4238 4.75703 18.403 4.47487 18.4276L1.97507 19.4721C2.05542 19.171 2.4099 18.8251 3.10941 18.4625L6.93543 16.1589C7.04083 16.1031 7.06635 16.0445 6.9827 15.9817C6.62396 15.9958 5.24622 14.4924 4.12795 13.375C3.9371 13.1822 3.81788 12.9299 3.79001 12.6599V11.8461C3.79427 11.7213 3.85476 11.718 3.97009 11.8314L6.7407 14.5094C7.03847 14.7764 7.0172 14.2258 6.80357 14.0263L3.43175 10.6205C3.27135 10.4245 3.16713 10.1886 3.13021 9.93801V9.07166C3.13021 8.96626 3.1855 8.94357 3.30508 9.05653L6.76386 12.4123C7.02145 12.6321 6.99168 12.0342 6.7615 11.7874L2.92981 8.02665C2.67363 7.73929 2.52381 7.44058 2.47135 7.13147V6.17296C2.47135 6.05716 2.54886 6.04534 2.6949 6.18383L6.75961 10.1464C6.986 10.3662 7.12921 9.92572 6.75961 9.56793L2.23644 5.04854C2.05022 4.84578 1.83801 4.51824 1.81768 4.24506L1.82997 3.24211C1.83753 3.09701 1.96231 3.07149 2.07149 3.17264L6.75063 7.72511C7.03847 8.02854 7.0465 7.57292 6.8376 7.25247L1.51236 1.97544C1.1092 1.48106 1.20609 0.718688 1.23444 0.0896037C1.2387 -0.00492438 1.30818 -0.0323374 1.39231 0.044703L8.16193 6.65316L13.8336 13.7815C13.9031 13.8623 13.9792 13.8921 14.0628 13.8524L14.0576 13.5362L13.7793 13.0636L14.6196 12.8778L14.3535 12.3986ZM16.0158 12.9223L16.4596 12.9591C16.3112 13.1557 16.116 13.1676 15.866 12.9648L15.9241 12.8405L16.0158 12.9223Z" fill="#F5303E"/>
<path fill-rule="evenodd" clip-rule="evenodd" d="M4.84377 17.4189C2.85443 17.2247 0.235529 17.3386 0.253017 20.8744C0.300281 22.8841 1.3434 23.9225 3.51707 24C4.40847 24 5.25922 23.8289 6.05988 23.4489L6.04853 20.6249C5.75502 20.1995 5.32445 20.1106 4.76673 20.3299L2.93667 21.0583V21.2128H4.7327L4.76673 22.5513C3.08461 23.0509 1.73096 22.6043 1.73852 20.8276C1.71478 20.3624 1.79553 19.8978 1.97485 19.4678C2.05661 19.1677 2.41109 18.8227 3.10918 18.4611L4.84283 17.4175L4.84377 17.4189Z" fill="#212121"/>
<path fill-rule="evenodd" clip-rule="evenodd" d="M13.4 17.2937H14.3027C14.4389 17.2937 14.5703 17.3745 14.6771 17.5139L17.5285 21.4099V17.3887C17.5273 17.3767 17.5285 17.3645 17.5321 17.353C17.5356 17.3414 17.5415 17.3307 17.5493 17.3215C17.5571 17.3123 17.5667 17.3047 17.5775 17.2993C17.5883 17.2939 17.6001 17.2907 17.6122 17.2899L18.4629 17.2928C18.7418 17.2928 18.9923 17.5607 18.997 17.8018L18.9998 23.7098C18.9998 23.81 18.9526 23.8866 18.832 23.8884L17.8301 23.8913C17.6263 23.8913 17.4742 23.6762 17.3343 23.5042L14.7645 19.9693L14.7588 23.7452C14.7588 23.8341 14.7158 23.8936 14.6128 23.8941L13.7899 23.8913C13.5366 23.8884 13.27 23.577 13.27 23.3794V17.4241C13.27 17.3443 13.3045 17.2942 13.399 17.2932L13.4 17.2937Z" fill="#212121"/>
<path fill-rule="evenodd" clip-rule="evenodd" d="M9.40098 18.4455L11.6668 17.9483C12.3881 18.4838 12.5767 19.732 12.1149 20.744C11.7368 21.4359 11.1668 21.8268 10.3784 21.8637H8.47272L8.45901 23.7448C8.4661 23.8469 8.41175 23.9012 8.27893 23.8974L7.52271 23.9003C7.28166 23.8681 7.0132 23.5481 6.99902 23.3213L7.00139 19.1115C7.00139 19.0122 7.2344 18.8752 7.50097 18.8057L8.17826 18.6582C8.3451 18.6294 8.51431 18.6681 8.51951 18.7348L8.53038 20.6527L9.9828 20.6499C10.4654 20.6433 10.851 20.2992 10.8619 19.6059C10.8619 18.9097 10.5944 18.5032 9.40665 18.5897L9.40145 18.4455H9.40098Z" fill="#212121"/>
</svg>
