<svg width="170" height="170" viewBox="0 0 170 170" fill="none" xmlns="http://www.w3.org/2000/svg">
<g clip-path="url(#clip0_1006_776)">
<path d="M22.9837 134.169H115.803V103.681L22.9837 103.681V134.169Z" fill="#535B65"/>
<path d="M71.3762 140.987H90.6695C92.0639 140.987 93.1943 139.838 93.1943 138.421V122.088C93.1943 120.67 92.0639 119.521 90.6695 119.521H71.3762C69.9818 119.521 68.8514 120.67 68.8514 122.088V138.421C68.8514 139.838 69.9818 140.987 71.3762 140.987Z" fill="#B9BCBA"/>
<path d="M45.7454 155C57.6261 155 67.2574 145.209 67.2574 133.132C67.2574 121.054 57.6261 111.264 45.7454 111.264C33.8646 111.264 24.2333 121.054 24.2333 133.132C24.2333 145.209 33.8646 155 45.7454 155Z" fill="#34373D"/>
<path d="M35.1233 133.132C35.1233 135.268 35.7463 137.355 36.9135 139.131C38.0806 140.907 39.7396 142.291 41.6805 143.108C43.6214 143.925 45.7572 144.139 47.8177 143.722C49.8782 143.306 51.7709 142.277 53.2564 140.767C54.7419 139.257 55.7536 137.333 56.1634 135.238C56.5733 133.144 56.3629 130.973 55.559 129C54.755 127.027 53.3936 125.34 51.6468 124.154C49.9 122.967 47.8463 122.334 45.7454 122.334C42.9283 122.334 40.2265 123.472 38.2345 125.497C36.2424 127.522 35.1233 130.268 35.1233 133.132Z" fill="#FBB03B"/>
<path d="M115.803 155C127.684 155 137.315 145.209 137.315 133.132C137.315 121.054 127.684 111.264 115.803 111.264C103.922 111.264 94.291 121.054 94.291 133.132C94.291 145.209 103.922 155 115.803 155Z" fill="#34373D"/>
<path d="M115.803 143.93C121.669 143.93 126.425 139.095 126.425 133.132C126.425 127.168 121.669 122.334 115.803 122.334C109.937 122.334 105.181 127.168 105.181 133.132C105.181 139.095 109.937 143.93 115.803 143.93Z" fill="#FBB03B"/>
<path d="M69.7568 118.484H71.032L62.2588 103.629H22.9965V118.432H24.2716L33.1978 107.025H58.7011L69.7568 118.484Z" fill="#FBB03B"/>
<path d="M72.8044 117.486L51.3051 79.8682H24.2333V76.1479H59.6319L63.5594 80.1404H152.069L161.428 97.7178L72.8044 117.486Z" fill="#FBB03B"/>
<path d="M158.496 96.3567L150.921 82.0978H54.8246L73.7608 115.256L158.496 96.3567Z" fill="#E58126"/>
<path d="M19.9998 134.169H22.9837L22.9837 103.681H19.9998L19.9998 134.169Z" fill="#E58126"/>
<path d="M54.3783 103.681V91.742L51.5092 85.7403H32.3052L37.2146 103.681H54.3783Z" fill="#E58126"/>
<path d="M38.8978 98.1456H48.7165V87.218H41.4098L38.8978 98.1456Z" fill="white"/>
<path d="M39.5608 87.218L37.036 98.1456L34.0266 87.218H39.5608Z" fill="white"/>
<path d="M87.3413 140.987H89.0627V119.521H87.3413V140.987Z" fill="#535B65"/>
<path d="M74.7171 119.521H72.9957V140.987H74.7171V119.521Z" fill="#535B65"/>
<path d="M79.9071 124.369C79.9046 124.596 79.9685 124.818 80.0909 125.008C80.2132 125.197 80.3883 125.345 80.5939 125.433C80.7994 125.521 81.0261 125.545 81.2449 125.501C81.4638 125.458 81.665 125.349 81.8227 125.189C81.9804 125.028 82.0874 124.824 82.1303 124.601C82.1732 124.379 82.15 124.148 82.0635 123.939C81.977 123.731 81.8311 123.553 81.6447 123.428C81.4582 123.304 81.2395 123.239 81.0165 123.241C80.7223 123.241 80.4401 123.36 80.2321 123.572C80.024 123.783 79.9071 124.07 79.9071 124.369Z" fill="#535B65"/>
<path d="M75.8393 82.0978L92.4037 111.095L82.8782 113.234L65.0897 82.0978H75.8393Z" fill="#FBB03B"/>
<path d="M98.2822 82.0978L112.309 106.662L102.771 108.788L87.5326 82.0978H98.2822Z" fill="#FBB03B"/>
<path d="M120.712 82.0978L132.202 102.216L122.676 104.355L109.963 82.0978H120.712Z" fill="#FBB03B"/>
<path d="M143.143 82.0978L152.107 97.7826L142.569 99.9085L132.393 82.0978H143.143Z" fill="#FBB03B"/>
<path d="M63.7252 80.1404L67.1172 78.3645L68.9916 75.2405H74.4494L79.346 71.7406L84.4212 69.0054L89.1138 74.5664L101.916 69.0054L106.431 65L116.02 66.9962L119.59 71.7406L128.427 72.5702L131.436 73.685L136.333 78.3645L141.408 80.1404H63.7252Z" fill="#1B2326"/>
</g>
<g clip-path="url(#clip1_1006_776)">
<g clip-path="url(#clip2_1006_776)">
<circle cx="115" cy="65" r="45" fill="#E53935"/>
<path fill-rule="evenodd" clip-rule="evenodd" d="M95.6652 44.1251C97.1907 42.5996 99.9113 42.847 101.742 44.6775L134.888 77.8232C136.718 79.6538 136.965 82.3744 135.44 83.8999C133.914 85.4254 131.194 85.178 129.363 83.3474L96.2176 50.2018C94.387 48.3712 94.1397 45.6506 95.6652 44.1251Z" fill="white"/>
<path fill-rule="evenodd" clip-rule="evenodd" d="M135.44 44.1251C136.965 45.6506 136.718 48.3712 134.887 50.2018L101.742 83.3474C99.9111 85.178 97.1905 85.4254 95.665 83.8999C94.1395 82.3744 94.3868 79.6538 96.2174 77.8232L129.363 44.6775C131.194 42.847 133.914 42.5996 135.44 44.1251Z" fill="white"/>
</g>
</g>
<defs>
<clipPath id="clip0_1006_776">
<rect width="141.429" height="90" fill="white" transform="translate(19.9998 65)"/>
</clipPath>
<clipPath id="clip1_1006_776">
<rect x="70" y="20" width="90" height="90" rx="22" fill="white"/>
</clipPath>
<clipPath id="clip2_1006_776">
<rect x="70" y="20" width="90" height="90" rx="16" fill="white"/>
</clipPath>
</defs>
</svg>
