<svg width="154" height="20" viewBox="0 0 154 20" fill="none" xmlns="http://www.w3.org/2000/svg">
<path d="M32.0536 3.26505H45.6604V11.4285H39.952L45.6604 16.6529H40.8112L35.213 11.4285V16.6529H32.0536V8.35399H42.03V6.36759L32.0536 6.36741V3.26505Z" fill="#757575"/>
<path d="M47.0732 16.6529H50.3985V3.23795H47.073L47.0732 16.6529Z" fill="#757575"/>
<path d="M20.4428 13.4147V3.26505H17.838C17.3668 3.26505 17.0067 3.61906 17.0067 4.05393C17.0067 6.44931 16.979 13.4965 16.979 15.8365C16.979 16.2719 17.3392 16.6527 17.7825 16.6527C19.5838 16.6527 24.7657 16.6527 25.5136 16.6527V13.4147H20.4428V13.4147Z" fill="#757575"/>
<path d="M27.2319 20C27.5372 20 29.8647 20 30.6409 20C30.6409 20 30.6409 13.3877 30.6409 13.279C29.5322 13.279 28.3689 13.279 27.2319 13.279C27.2319 15.5101 27.2319 17.7413 27.2319 20Z" fill="#757575"/>
<path d="M22.1055 3.26505C22.1055 3.31982 22.1055 6.61171 22.1055 6.61171C23.6298 6.61171 25.5691 6.61171 27.2316 6.61171C27.2316 8.92536 27.2316 11.6189 27.2316 11.6189C28.0078 11.6189 30.3354 11.6189 30.6406 11.6189V4.08176C30.6406 3.64601 30.2799 3.29199 29.8371 3.26505C28.1746 3.26505 24.239 3.26505 22.1053 3.26505H22.1055V3.26505Z" fill="#757575"/>
<path d="M22.1055 8.24452C22.1055 9.36049 22.1055 10.4765 22.1055 11.6461C22.3828 11.6461 22.6875 11.6461 22.9645 11.6461C23.7409 11.6461 24.71 11.6461 25.4862 11.6461C25.4862 11.6461 25.4862 8.29947 25.4862 8.24452C24.3774 8.24452 23.2416 8.24452 22.1053 8.24452H22.1055ZM24.4887 10.6121C24.1562 10.6121 23.7682 10.6121 23.463 10.6121C23.3527 10.6121 23.2417 10.6121 23.1031 10.6121C23.1031 10.1492 23.1031 9.71451 23.1031 9.25181C23.5743 9.25181 24.0178 9.25181 24.4887 9.25181C24.4887 9.27876 24.4887 10.6121 24.4887 10.6121Z" fill="#757575"/>
<path d="M66.7207 13.279V18.2859C66.7207 18.7211 66.3326 19.075 65.8899 19.075H60.7911V19.8912H66.7207C67.1362 19.8912 67.4959 19.5375 67.4959 19.1021V19.075V13.2792L66.7207 13.279V13.279Z" fill="#757575"/>
<path d="M15.5933 6.585V1.57778C15.5933 1.14291 15.9258 0.815839 16.3692 0.815839H21.4681C21.496 0.815839 21.496 0.78889 21.496 0.78889V0.0271248C21.496 0.0271248 21.496 0 21.4681 0H15.5933C15.1223 0 14.762 0.354024 14.762 0.815839V6.58483C14.762 6.61177 14.7898 6.61177 14.7898 6.61177H15.5656C15.5656 6.61177 15.5933 6.61177 15.5933 6.58483V6.585V6.585Z" fill="#757575"/>
<path d="M65.2793 6.58493V3.26505H51.8395V8.24426V11.5922H60.791V13.2515H51.8395V16.5985H65.2795V8.27226H56.3289V6.58493H65.2793Z" fill="#757575"/>
<path d="M74.9788 8.08175H72.0135C71.6537 8.08175 71.3211 8.02697 70.9886 7.89135C70.6835 7.78268 70.3792 7.59211 70.1569 7.37371C69.9073 7.12941 69.7143 6.85711 69.5748 6.55804C69.4362 6.23097 69.3534 5.90495 69.3534 5.52381C69.3534 5.14283 69.4364 4.81593 69.5748 4.48974C69.7143 4.19049 69.88 3.89125 70.1296 3.67302C70.3792 3.42873 70.6561 3.2651 70.9604 3.12948C71.2929 2.99298 71.6255 2.93909 72.0135 2.93909C72.3742 2.93909 72.7067 2.99298 73.0393 3.12948C73.3436 3.2651 73.6214 3.42873 73.8701 3.64607C74.0924 3.89142 74.2865 4.13572 74.4249 4.46279C74.5635 4.76204 74.619 5.08806 74.619 5.44208C74.619 5.6596 74.5906 5.87783 74.5633 6.0684C74.5077 6.28575 74.4249 6.47614 74.3138 6.66672C74.2308 6.83034 74.0924 6.99273 73.9539 7.12941C73.8155 7.29198 73.6487 7.40171 73.4546 7.48255L74.9788 7.48238V8.08175ZM71.9862 7.45561C72.2631 7.45561 72.54 7.40171 72.7624 7.29198C72.9838 7.18331 73.205 7.04769 73.3718 6.88406C73.5376 6.69367 73.6487 6.50309 73.76 6.2588C73.8428 6.01345 73.8985 5.74133 73.8985 5.46903C73.8985 5.22473 73.8428 4.95244 73.76 4.73509C73.6487 4.48974 73.5103 4.29934 73.3436 4.13572C73.1779 3.94532 72.9838 3.8097 72.7624 3.7278C72.5128 3.6193 72.2631 3.56435 71.9862 3.56435C71.7093 3.56435 71.4597 3.61913 71.2382 3.7278C71.0159 3.8097 70.8218 3.94532 70.6561 4.13572C70.4894 4.29934 70.351 4.48974 70.2399 4.73509C70.1569 4.95244 70.1012 5.19673 70.1012 5.46903C70.1012 5.74133 70.1569 5.98668 70.2399 6.23097C70.3237 6.47632 70.4621 6.69367 70.6279 6.85711C70.7947 7.04751 70.9886 7.18331 71.2383 7.29198C71.4597 7.40171 71.7093 7.45561 71.9864 7.45561H71.9862V7.45561Z" fill="#757575"/>
<path d="M75.6995 3.04788H77.5004C77.8329 3.04788 78.1098 3.1016 78.3039 3.1835C78.5264 3.29217 78.6921 3.40173 78.8305 3.53753C78.9417 3.67315 79.0245 3.80965 79.0801 3.97327C79.1356 4.13567 79.1356 4.29929 79.1356 4.46292C79.1356 4.62531 79.1083 4.78894 79.0528 4.92561C78.9972 5.08818 78.9142 5.22486 78.8032 5.33353C78.6919 5.46915 78.5818 5.55088 78.415 5.6326C78.2493 5.7145 78.0825 5.7684 77.8886 5.79623L79.3572 8.08188H78.4707L77.168 5.87795H76.3917V8.08188H75.6995V3.04788V3.04788ZM76.3917 5.27875H77.3065C77.4449 5.27875 77.5834 5.27875 77.7229 5.25163C77.8329 5.22468 77.9715 5.19685 78.0554 5.11601C78.1655 5.06123 78.2493 4.97951 78.3039 4.87066C78.3877 4.78893 78.4152 4.62531 78.4152 4.46292C78.4152 4.29929 78.3877 4.16367 78.3039 4.05394C78.2495 3.94527 78.1655 3.86354 78.0554 3.80965C77.9715 3.75487 77.8329 3.70098 77.7229 3.70098C77.5834 3.67315 77.4449 3.6462 77.3065 3.6462H76.3917V5.27875V5.27875Z" fill="#757575"/>
<path d="M85.7031 4.13572C85.5645 3.97315 85.3705 3.8097 85.1491 3.7278C84.9269 3.6193 84.7055 3.56435 84.4559 3.56435C84.179 3.56435 83.902 3.61913 83.6807 3.7278C83.4583 3.83647 83.2371 3.97315 83.0703 4.16372C82.9045 4.35412 82.7934 4.57146 82.6831 4.81593C82.5993 5.06128 82.5438 5.33341 82.5438 5.6057C82.5438 5.87783 82.5993 6.1223 82.6831 6.36747C82.7661 6.61176 82.9045 6.83034 83.0703 6.99273C83.2371 7.18331 83.431 7.31998 83.6524 7.42848C83.902 7.53715 84.1788 7.59211 84.4559 7.59211C84.7611 7.59211 85.0107 7.51038 85.2321 7.40171C85.4535 7.29198 85.6476 7.12941 85.8142 6.91101L86.3963 7.34676C86.3407 7.40154 86.285 7.45543 86.1739 7.56428C86.0909 7.646 85.9527 7.75467 85.814 7.86335C85.6472 7.94525 85.4533 8.02698 85.2319 8.1087C85.0107 8.1906 84.7337 8.21737 84.4557 8.21737C84.0404 8.21737 83.6806 8.13565 83.348 8.00002C83.043 7.8364 82.7659 7.646 82.5163 7.40153C82.2949 7.15618 82.1281 6.85711 81.9897 6.55787C81.8786 6.2588 81.824 5.93172 81.824 5.60553C81.824 5.22456 81.8786 4.87053 82.0172 4.54452C82.1565 4.21744 82.3222 3.91837 82.572 3.70085C82.7934 3.4555 83.0703 3.2651 83.4028 3.12948C83.7353 2.99298 84.0961 2.93909 84.4841 2.93909C84.8166 2.93909 85.1491 2.99298 85.4817 3.12948C85.8142 3.2651 86.0638 3.4555 86.2852 3.7278L85.7031 4.13572V4.13572Z" fill="#757575"/>
<path d="M86.8947 6.39483C86.8947 6.14948 86.9501 5.93195 87.0331 5.71461C87.1442 5.49726 87.2556 5.30687 87.4213 5.17019C87.5879 5.00656 87.782 4.87095 88.0032 4.78922C88.2246 4.68055 88.4744 4.6256 88.724 4.6256C88.9735 4.6256 89.2222 4.68037 89.4445 4.78922C89.6659 4.87095 89.86 5.00656 90.0266 5.17019C90.1924 5.30669 90.3035 5.49726 90.4137 5.71461C90.4976 5.93213 90.5522 6.14948 90.5522 6.39483C90.5522 6.66695 90.4976 6.88429 90.4137 7.10181C90.3035 7.32022 90.1924 7.51062 90.0266 7.67319C89.8598 7.80986 89.6659 7.94548 89.4445 8.02721C89.2222 8.13588 88.9735 8.16371 88.724 8.16371C88.4744 8.16371 88.2246 8.13588 88.0032 8.02721C87.782 7.94548 87.5879 7.80986 87.4213 7.67319C87.2556 7.51062 87.1442 7.32022 87.0331 7.10181C86.9501 6.88429 86.8947 6.66695 86.8947 6.39483ZM87.5879 6.39483C87.5879 6.58522 87.6154 6.74867 87.6709 6.8843C87.7265 7.02097 87.8095 7.15659 87.8923 7.23832C88.0034 7.34699 88.1145 7.42871 88.253 7.48261C88.3916 7.53739 88.5573 7.59234 88.724 7.59234C88.8897 7.59234 89.0565 7.53756 89.1951 7.48261C89.3335 7.42871 89.4447 7.34699 89.5549 7.23832C89.6388 7.15659 89.7217 7.02097 89.7772 6.8843C89.8329 6.74867 89.8602 6.58522 89.8602 6.39483C89.8602 6.2312 89.8329 6.06863 89.7772 5.93196C89.7217 5.79633 89.6388 5.65983 89.5549 5.57793C89.4447 5.46926 89.3335 5.38754 89.1951 5.33364C89.0565 5.25192 88.8899 5.22497 88.724 5.22497C88.5573 5.22497 88.3916 5.25209 88.253 5.33364C88.1145 5.38754 88.0034 5.46926 87.8923 5.57793C87.8093 5.65983 87.7265 5.79633 87.6709 5.93196C87.6154 6.06863 87.5879 6.2312 87.5879 6.39483Z" fill="#757575"/>
<path d="M94.793 8.08189H94.1554V7.61919H94.1281C94.0168 7.78282 93.8229 7.91844 93.6015 8.02711C93.4076 8.13578 93.1578 8.16361 92.9366 8.16361C92.687 8.16361 92.4372 8.13578 92.2159 8.05406C91.9936 7.94539 91.8278 7.83654 91.661 7.67309C91.5226 7.51052 91.4115 7.31994 91.3285 7.10154C91.2455 6.8842 91.1901 6.66668 91.1901 6.39455C91.1901 6.1492 91.2455 5.93168 91.3285 5.71451C91.4115 5.49699 91.5226 5.30659 91.661 5.14297C91.8278 4.97952 91.9936 4.87085 92.2159 4.762C92.4372 4.68028 92.687 4.6255 92.9366 4.6255C93.1853 4.6255 93.4076 4.68028 93.6289 4.78912C93.8502 4.8978 94.017 5.03447 94.1281 5.19687H94.1554V2.72064L94.793 2.72082V8.08189V8.08189ZM93.0194 7.59224C93.1851 7.59224 93.3519 7.53747 93.4903 7.48251C93.6289 7.42862 93.7399 7.34689 93.8502 7.23822C93.934 7.15649 94.017 7.02088 94.0726 6.8842C94.1281 6.74858 94.1556 6.58513 94.1556 6.39473C94.1556 6.23111 94.1281 6.06854 94.0726 5.93186C94.017 5.79624 93.934 5.65974 93.8502 5.57783C93.7401 5.46916 93.6289 5.38744 93.4903 5.33354C93.3519 5.25182 93.1853 5.22487 93.0194 5.22487C92.8526 5.22487 92.6868 5.25199 92.5484 5.33354C92.4098 5.38744 92.2988 5.46916 92.1875 5.57783C92.1045 5.65974 92.0218 5.79624 91.9663 5.93186C91.9106 6.06854 91.8833 6.23111 91.8833 6.39473C91.8833 6.58513 91.9106 6.74858 91.9663 6.8842C92.0218 7.02088 92.1047 7.15649 92.1875 7.23822C92.2988 7.34689 92.4099 7.42862 92.5484 7.48251C92.6868 7.53729 92.8526 7.59224 93.0194 7.59224Z" fill="#757575"/>
<path d="M96.2615 6.63982C96.2615 6.77562 96.3171 6.91124 96.3717 7.04775C96.4272 7.15642 96.5111 7.26527 96.6213 7.34699C96.7325 7.42872 96.8709 7.51044 97.0093 7.56433C97.148 7.59234 97.2864 7.61911 97.4248 7.61911C97.6471 7.61911 97.8128 7.56434 97.9513 7.48261C98.1181 7.40177 98.2565 7.26526 98.3677 7.12947L98.8659 7.48261C98.5061 7.94531 98.0069 8.16371 97.3419 8.16371C97.065 8.16371 96.8436 8.13588 96.6213 8.05398C96.3999 7.94531 96.2058 7.83663 96.0392 7.67301C95.9006 7.51044 95.7905 7.32004 95.7067 7.10164C95.6237 6.88412 95.5682 6.66677 95.5682 6.39465C95.5682 6.1493 95.6237 5.93178 95.7067 5.71443C95.7905 5.49709 95.9291 5.30669 96.0949 5.14307C96.2333 4.97944 96.4272 4.87095 96.6497 4.7621C96.8709 4.68037 97.0923 4.6256 97.342 4.6256C97.6471 4.6256 97.9242 4.68037 98.1183 4.78904C98.3395 4.89772 98.5063 5.03439 98.6447 5.19696C98.7833 5.36059 98.8661 5.55098 98.9216 5.76833C99.0045 5.98673 99.0329 6.20408 99.0329 6.4216V6.63982H96.2615V6.63982ZM98.3395 6.12235C98.3122 5.98673 98.3122 5.85005 98.2565 5.74138C98.2292 5.63271 98.1454 5.52386 98.0626 5.44213C97.9796 5.33346 97.8958 5.27869 97.7574 5.22479C97.6471 5.17002 97.5087 5.14289 97.3419 5.14289C97.1761 5.14289 97.0377 5.17001 96.8982 5.25156C96.7598 5.30634 96.6495 5.38718 96.5657 5.46908C96.4827 5.55081 96.3999 5.65948 96.3444 5.79616C96.2888 5.90483 96.2615 6.0135 96.2615 6.12218L98.3395 6.12235V6.12235Z" fill="#757575"/>
<path d="M102.137 7.04769C102.247 7.21131 102.414 7.34693 102.608 7.45561C102.802 7.53733 103.023 7.59211 103.217 7.59211C103.328 7.59211 103.467 7.56428 103.577 7.53733C103.688 7.48255 103.799 7.42866 103.909 7.37371C103.993 7.29198 104.076 7.21131 104.132 7.10158C104.215 6.99291 104.242 6.88406 104.242 6.74844C104.242 6.55805 104.187 6.3946 104.048 6.28575C103.938 6.20402 103.771 6.12212 103.577 6.04039C103.411 5.95867 103.189 5.90478 102.967 5.85C102.746 5.76828 102.552 5.68743 102.358 5.5777C102.191 5.46903 102.026 5.30646 101.914 5.11606C101.776 4.92566 101.72 4.68032 101.72 4.32629C101.72 4.19067 101.749 4.02705 101.804 3.8636C101.887 3.70103 101.97 3.56435 102.108 3.42873C102.247 3.2651 102.441 3.15643 102.663 3.07471C102.885 2.96603 103.134 2.93909 103.439 2.93909C103.744 2.93909 103.993 2.96603 104.242 3.04776C104.52 3.12948 104.741 3.2651 104.935 3.51045L104.353 4.0001C104.27 3.89143 104.159 3.78258 103.993 3.70085C103.827 3.61913 103.661 3.56435 103.439 3.56435C103.245 3.56435 103.106 3.59218 102.967 3.64607C102.829 3.70085 102.746 3.75475 102.663 3.83647C102.579 3.91837 102.524 4.0001 102.497 4.08182C102.469 4.19049 102.441 4.27222 102.441 4.32612C102.441 4.54452 102.524 4.70709 102.635 4.84376C102.773 4.95244 102.912 5.03416 103.106 5.11588C103.3 5.16978 103.494 5.25151 103.715 5.30628C103.938 5.36018 104.132 5.44208 104.326 5.52381C104.52 5.63248 104.658 5.7681 104.797 5.95867C104.907 6.12212 104.963 6.36747 104.963 6.66654C104.963 6.91083 104.935 7.12941 104.824 7.31981C104.741 7.51021 104.603 7.67295 104.464 7.80945C104.297 7.94508 104.104 8.05375 103.882 8.1087C103.688 8.19043 103.438 8.21737 103.189 8.21737C102.856 8.21737 102.552 8.16347 102.275 8.05375C101.97 7.94507 101.749 7.7545 101.555 7.51021L102.137 7.04769V7.04769Z" fill="#757575"/>
<path d="M107.678 5.27883H106.736V6.80254C106.736 6.91121 106.736 6.99293 106.736 7.07483C106.764 7.18351 106.764 7.26523 106.792 7.34696C106.847 7.40174 106.875 7.45563 106.957 7.51058C107.013 7.56448 107.097 7.59231 107.235 7.59231C107.318 7.59231 107.401 7.56448 107.484 7.56448C107.568 7.53735 107.624 7.51058 107.707 7.48258V8.05412C107.624 8.1089 107.512 8.13602 107.401 8.16385C107.263 8.16385 107.18 8.16385 107.124 8.16385C106.847 8.16385 106.653 8.13602 106.542 8.08213C106.404 8.00023 106.293 7.9185 106.238 7.80983C106.154 7.70116 106.127 7.56448 106.099 7.42886C106.099 7.29236 106.099 7.15674 106.099 7.02094V5.27883H105.351V4.73529H106.098V3.78278H106.736V4.73529H107.678V5.27883V5.27883Z" fill="#757575"/>
<path d="M108.537 5.14307C108.704 4.97962 108.925 4.844 109.175 4.7621C109.396 4.68037 109.646 4.6256 109.896 4.6256C110.145 4.6256 110.367 4.68037 110.532 4.73532C110.726 4.78922 110.866 4.87094 110.976 4.97962C111.087 5.08829 111.198 5.19696 111.249 5.33364C111.278 5.46926 111.308 5.60576 111.308 5.76851V7.48261C111.308 7.59234 111.337 7.70101 111.337 7.80986C111.337 7.91836 111.337 8.00026 111.366 8.08198H110.782C110.755 7.91836 110.755 7.75491 110.755 7.59234H110.727C110.588 7.80986 110.422 7.94548 110.228 8.05415C110.034 8.13588 109.785 8.16371 109.535 8.16371C109.369 8.16371 109.231 8.16371 109.092 8.10893C108.925 8.08198 108.815 8.00026 108.704 7.91853C108.593 7.83681 108.51 7.72814 108.455 7.59252C108.372 7.48279 108.344 7.32022 108.344 7.15677C108.344 6.93925 108.399 6.7758 108.51 6.61217C108.593 6.47655 108.732 6.33988 108.898 6.25903C109.064 6.17731 109.286 6.09558 109.508 6.06863C109.729 6.01386 109.979 6.01385 110.228 6.01385L110.726 6.01368V5.85023C110.726 5.76851 110.699 5.68766 110.672 5.60594C110.644 5.52404 110.588 5.44231 110.505 5.36059C110.45 5.30669 110.367 5.25191 110.255 5.19696C110.145 5.17001 110.034 5.14307 109.896 5.14307C109.784 5.14307 109.674 5.17019 109.563 5.19696C109.48 5.19696 109.396 5.25174 109.313 5.27886C109.231 5.30669 109.175 5.36059 109.092 5.38754C109.037 5.44231 108.981 5.49709 108.925 5.52404L108.537 5.14307V5.14307ZM110.367 6.47655C110.2 6.47655 110.061 6.47655 109.896 6.5035C109.729 6.5035 109.591 6.55828 109.452 6.58523C109.313 6.64 109.202 6.6939 109.119 6.80274C109.036 6.88447 109.008 6.99314 109.008 7.12982C109.008 7.32022 109.064 7.45584 109.202 7.53774C109.341 7.61946 109.507 7.67336 109.729 7.67336C109.923 7.67336 110.061 7.64641 110.2 7.56469C110.311 7.51079 110.422 7.42907 110.505 7.34717C110.588 7.23867 110.643 7.15677 110.672 7.02115C110.699 6.91142 110.726 6.80275 110.726 6.69407V6.47655H110.367V6.47655Z" fill="#757575"/>
<path d="M112.282 4.73515H112.916V5.25174H112.946C113.023 5.06134 113.17 4.92572 113.355 4.81599C113.55 4.68037 113.804 4.6256 114.047 4.6256C114.223 4.6256 114.389 4.65342 114.555 4.70732C114.691 4.76209 114.828 4.84382 114.935 4.95267C115.052 5.03439 115.13 5.17001 115.218 5.33364C115.276 5.49727 115.296 5.71461 115.296 5.93196V8.08198H114.662V6.09541C114.662 5.93196 114.632 5.82328 114.574 5.68766C114.554 5.57793 114.496 5.49726 114.408 5.44231C114.36 5.36059 114.272 5.30669 114.165 5.27868C114.077 5.25174 113.969 5.22479 113.882 5.22479C113.745 5.22479 113.609 5.25191 113.501 5.30669C113.384 5.33364 113.277 5.41536 113.189 5.49709C113.111 5.60576 113.053 5.71444 112.994 5.85006C112.946 5.98673 112.916 6.1493 112.916 6.3677V8.08198L112.282 8.08181V4.73515V4.73515Z" fill="#757575"/>
<path d="M119.732 8.08206H119.069V7.61919C118.933 7.78282 118.767 7.91844 118.543 8.02711C118.318 8.13578 118.094 8.16361 117.88 8.16361C117.597 8.16361 117.373 8.13578 117.158 8.05406C116.934 7.94539 116.739 7.83654 116.602 7.67309C116.437 7.51052 116.329 7.31994 116.242 7.10154C116.154 6.8842 116.134 6.66668 116.134 6.39455C116.134 6.1492 116.154 5.93168 116.242 5.71451C116.329 5.49699 116.437 5.30659 116.602 5.14297C116.739 4.97952 116.934 4.87085 117.158 4.762C117.373 4.68028 117.597 4.6255 117.88 4.6255C118.123 4.6255 118.348 4.68028 118.572 4.78912C118.787 4.8978 118.952 5.03447 119.069 5.19687V2.72064L119.732 2.72082V8.08206ZM117.958 7.59224C118.123 7.59224 118.289 7.53747 118.426 7.48251C118.572 7.42862 118.679 7.34689 118.767 7.23822C118.874 7.15649 118.952 7.02088 118.981 6.8842C119.04 6.74858 119.069 6.58513 119.069 6.39473C119.069 6.23111 119.04 6.06854 118.981 5.93186C118.952 5.79624 118.874 5.65974 118.767 5.57783C118.679 5.46916 118.572 5.38744 118.426 5.33354C118.289 5.25182 118.123 5.22487 117.958 5.22487C117.763 5.22487 117.626 5.25199 117.49 5.33354C117.353 5.38744 117.207 5.46916 117.129 5.57783C117.021 5.65974 116.963 5.79624 116.904 5.93186C116.846 6.06854 116.826 6.23111 116.826 6.39473C116.826 6.58513 116.846 6.74858 116.904 6.8842C116.963 7.02088 117.021 7.15649 117.129 7.23822C117.207 7.34689 117.353 7.42862 117.49 7.48251C117.626 7.53729 117.763 7.59224 117.958 7.59224Z" fill="#757575"/>
<path d="M120.727 5.14307C120.922 4.97962 121.117 4.844 121.371 4.7621C121.614 4.68037 121.839 4.6256 122.092 4.6256C122.336 4.6256 122.56 4.68037 122.726 4.73532C122.921 4.78922 123.057 4.87094 123.165 4.97962C123.311 5.08829 123.389 5.19696 123.447 5.33364C123.506 5.46926 123.525 5.60576 123.525 5.76851V7.48261C123.525 7.59234 123.525 7.70101 123.525 7.80986C123.525 7.91836 123.525 8.00026 123.555 8.08198L122.979 8.08216C122.95 7.91854 122.95 7.75491 122.95 7.59252C122.785 7.80986 122.619 7.94548 122.424 8.05415C122.229 8.13606 122.004 8.16388 121.731 8.16388C121.566 8.16388 121.419 8.16389 121.283 8.10911C121.146 8.08216 121.01 8.00044 120.893 7.91871C120.786 7.83681 120.708 7.72831 120.649 7.59252C120.591 7.48296 120.532 7.32039 120.532 7.15677C120.532 6.93942 120.59 6.7758 120.708 6.61235C120.786 6.47655 120.922 6.34005 121.088 6.25921C121.283 6.17748 121.478 6.09558 121.702 6.06881C121.927 6.01403 122.17 6.01403 122.453 6.01403L122.921 6.01368V5.85023C122.921 5.76851 122.892 5.68766 122.863 5.60594C122.833 5.52404 122.785 5.44231 122.697 5.36059C122.638 5.30669 122.56 5.25191 122.453 5.19696C122.365 5.17001 122.229 5.14307 122.092 5.14307C121.975 5.14307 121.868 5.17019 121.761 5.19696C121.673 5.19696 121.585 5.25174 121.507 5.27886C121.42 5.30669 121.371 5.36059 121.312 5.38736C121.234 5.44231 121.176 5.49709 121.117 5.52404L120.727 5.14307V5.14307ZM122.56 6.47655C122.424 6.47655 122.258 6.47655 122.092 6.5035C121.926 6.5035 121.78 6.55828 121.644 6.58523C121.507 6.64 121.419 6.6939 121.312 6.80274C121.234 6.88447 121.205 6.99314 121.205 7.12982C121.205 7.32022 121.253 7.45584 121.4 7.53774C121.536 7.61946 121.702 7.67336 121.946 7.67336C122.112 7.67336 122.258 7.64641 122.394 7.56469C122.531 7.51079 122.619 7.42907 122.697 7.34717C122.784 7.23867 122.833 7.15677 122.862 7.02115C122.892 6.91142 122.921 6.80275 122.921 6.69407V6.47655H122.56V6.47655Z" fill="#757575"/>
<path d="M124.471 4.73515H125.105V5.25174H125.134C125.164 5.14306 125.252 5.06134 125.3 5.00639C125.388 4.92554 125.466 4.87077 125.554 4.81599C125.632 4.76209 125.749 4.70732 125.856 4.68037C125.944 4.65325 126.051 4.6256 126.158 4.6256C126.275 4.6256 126.353 4.65342 126.441 4.68037L126.412 5.36041C126.353 5.36041 126.324 5.33346 126.275 5.33346C126.217 5.33346 126.158 5.33346 126.109 5.33346C125.778 5.33346 125.554 5.41519 125.388 5.57775C125.193 5.76815 125.105 6.04045 125.105 6.39447V8.08181L124.471 8.08198V4.73515V4.73515Z" fill="#757575"/>
<path d="M69.686 11.5921H71.487C71.8195 11.5921 72.0974 11.6191 72.2905 11.7277C72.5129 11.8095 72.6787 11.9181 72.7898 12.0543C72.9282 12.1903 73.0112 12.3264 73.0667 12.5168C73.095 12.6801 73.1222 12.8434 73.1222 13.0066C73.1222 13.1426 73.095 13.3059 73.0667 13.4693C73.0112 13.6597 72.9282 13.7957 72.7896 13.9318C72.6787 14.068 72.5128 14.1767 72.2905 14.2584C72.0974 14.3671 71.8195 14.3944 71.487 14.3944H70.3793V16.6256H69.686V11.5921V11.5921ZM70.3793 13.7957H71.293C71.4315 13.7957 71.571 13.7957 71.6811 13.7684C71.8197 13.7413 71.9306 13.714 72.042 13.6597C72.152 13.6053 72.2359 13.5236 72.2905 13.4149C72.3461 13.306 72.4018 13.1699 72.4018 13.0066C72.4018 12.8162 72.3461 12.6801 72.2905 12.5712C72.236 12.4624 72.152 12.3808 72.042 12.3264C71.9306 12.2718 71.8195 12.2447 71.6811 12.2174C71.571 12.1903 71.4315 12.1903 71.293 12.1903H70.3793V13.7957Z" fill="#757575"/>
<path d="M74.3138 15.1562C74.3138 15.3195 74.3411 15.4555 74.3968 15.5645C74.4523 15.7005 74.5352 15.782 74.6463 15.891C74.7575 15.9726 74.8959 16.027 75.0344 16.0814C75.173 16.1359 75.3114 16.1359 75.4499 16.1359C75.6723 16.1359 75.838 16.1086 75.9763 15.9999C76.1431 15.9182 76.2815 15.7822 76.3918 15.646L76.891 15.9997C76.5313 16.4622 76.032 16.7072 75.3669 16.7072C75.09 16.7072 74.8677 16.6528 74.6463 16.5713C74.425 16.4895 74.2309 16.3536 74.0924 16.1903C73.9258 16.027 73.8155 15.8364 73.7317 15.6187C73.6487 15.4283 73.5933 15.1835 73.5933 14.9385C73.5933 14.6937 73.6487 14.4489 73.7317 14.2312C73.8155 14.0135 73.9542 13.8229 74.1199 13.6598C74.2583 13.5237 74.4522 13.3877 74.6736 13.306C74.8961 13.1971 75.1173 13.1698 75.3669 13.1698C75.6721 13.1698 75.949 13.2242 76.1431 13.3331C76.3645 13.4148 76.5313 13.5508 76.6697 13.7414C76.8082 13.9045 76.891 14.095 76.9466 14.2854C77.0296 14.5031 77.0577 14.7208 77.0577 14.9385V15.1562H74.3138V15.1562ZM76.3645 14.6664C76.3372 14.5031 76.3372 14.3943 76.2815 14.2583C76.2534 14.1495 76.1704 14.0406 76.1148 13.9589C76.032 13.8773 75.9208 13.7956 75.7822 13.7412C75.6721 13.6868 75.5326 13.6868 75.3669 13.6868C75.2001 13.6868 75.0618 13.7139 74.9232 13.7683C74.7848 13.8229 74.6736 13.9045 74.5907 13.9862C74.5077 14.0949 74.4249 14.2039 74.3695 14.3125C74.3138 14.4214 74.3138 14.5304 74.3138 14.6664H76.3645Z" fill="#757575"/>
<path d="M77.833 13.2514H78.4424V13.7683C78.4708 13.7139 78.4981 13.6596 78.5536 13.6052C78.6365 13.5235 78.6922 13.4692 78.8033 13.3875C78.8861 13.3331 78.9972 13.2788 79.1357 13.2242C79.247 13.1971 79.3852 13.1698 79.5512 13.1698C79.8007 13.1698 80.0221 13.2242 80.1889 13.3331C80.3828 13.4148 80.5213 13.5779 80.6326 13.7958C80.7427 13.5781 80.8813 13.4148 81.1036 13.3331C81.2975 13.2242 81.4918 13.1698 81.713 13.1698C81.9626 13.1698 82.184 13.1971 82.3508 13.2788C82.5165 13.3875 82.6549 13.4964 82.7661 13.6325C82.849 13.7685 82.9318 13.9318 82.9602 14.095C82.9875 14.2854 83.0157 14.476 83.0157 14.6664V16.6255H82.3508V14.7479C82.3508 14.612 82.3508 14.476 82.3224 14.367C82.3224 14.2583 82.2951 14.1495 82.2395 14.0677C82.184 13.9589 82.101 13.9045 82.0172 13.85C81.9071 13.7956 81.7685 13.7683 81.63 13.7683C81.2975 13.7683 81.0752 13.85 80.9368 14.0404C80.8256 14.231 80.7429 14.476 80.7429 14.7752V16.6255H80.106V14.857C80.106 14.6937 80.0778 14.5575 80.0778 14.4216C80.0505 14.2854 80.0221 14.1768 79.9667 14.0679C79.9121 13.9589 79.8564 13.9045 79.7453 13.8502C79.6623 13.7958 79.524 13.7685 79.3854 13.7685C79.247 13.7685 79.1359 13.7958 79.0247 13.8229C78.9145 13.8773 78.8306 13.9318 78.7478 14.0406C78.6649 14.1222 78.6092 14.231 78.5536 14.367C78.4981 14.5031 78.4708 14.6664 78.4708 14.8568V16.6255H77.833V13.2514V13.2514Z" fill="#757575"/>
<path d="M83.9851 11.2382H84.65V13.7416C84.7886 13.551 84.9552 13.415 85.1493 13.3062C85.3707 13.2244 85.6203 13.17 85.8417 13.17C86.1186 13.17 86.3682 13.1973 86.5623 13.3062C86.7847 13.3877 86.9777 13.5239 87.1172 13.66C87.283 13.8231 87.3941 14.0137 87.4771 14.2314C87.56 14.4491 87.5882 14.6939 87.5882 14.9387C87.5882 15.1837 87.56 15.4285 87.4771 15.6189C87.3939 15.8366 87.2828 16.0272 87.1171 16.1905C86.9776 16.3538 86.7845 16.4897 86.5623 16.5713C86.3682 16.653 86.1186 16.7074 85.8417 16.7074C85.6203 16.7074 85.3991 16.653 85.1766 16.5442C84.9554 16.4626 84.7886 16.3266 84.6502 16.1361V16.6257H83.9851V11.2382V11.2382ZM85.786 16.1088C85.9528 16.1088 86.1186 16.0816 86.2581 16.0272C86.3965 15.9457 86.5068 15.8639 86.5906 15.7822C86.7007 15.6734 86.7845 15.5374 86.8118 15.4013C86.8675 15.2653 86.8948 15.102 86.8948 14.9387C86.8948 14.7755 86.8675 14.6122 86.8118 14.4489C86.7845 14.3128 86.7007 14.2041 86.5906 14.0951C86.5068 13.9862 86.3965 13.9047 86.2581 13.8501C86.1186 13.7956 85.9528 13.7685 85.786 13.7685C85.593 13.7685 85.4537 13.7956 85.3151 13.8501C85.1766 13.9047 85.0382 13.9864 84.9552 14.0951C84.8441 14.2041 84.7886 14.3128 84.7338 14.4491C84.6784 14.6122 84.65 14.7755 84.65 14.9387C84.65 15.102 84.6784 15.2653 84.7338 15.4014C84.7884 15.5374 84.8441 15.6735 84.9552 15.7824C85.0382 15.8639 85.1766 15.9457 85.3151 16.0272C85.4537 16.0816 85.593 16.1089 85.786 16.1089V16.1088Z" fill="#757575"/>
<path d="M88.4188 13.6596C88.6129 13.4964 88.8352 13.3604 89.0566 13.2787C89.3062 13.1969 89.5549 13.1698 89.8045 13.1698C90.054 13.1698 90.2481 13.1969 90.4422 13.2514C90.608 13.3058 90.7748 13.3873 90.8859 13.4964C90.996 13.605 91.0789 13.7412 91.1346 13.85C91.1901 13.986 91.2184 14.1495 91.2184 14.2854V15.9997C91.2184 16.1357 91.2184 16.2445 91.2184 16.3263C91.2457 16.4351 91.2457 16.5167 91.2457 16.6255H90.6635C90.6635 16.4351 90.6635 16.2718 90.6635 16.1086H90.6363C90.4977 16.3263 90.3311 16.4895 90.137 16.5711C89.9156 16.6528 89.6944 16.7072 89.4446 16.7072C89.2778 16.7072 89.1121 16.6801 88.9737 16.6255C88.835 16.5984 88.6957 16.544 88.6129 16.4351C88.5027 16.3536 88.4188 16.2447 88.3359 16.1359C88.2804 15.9999 88.2529 15.8637 88.2529 15.7005C88.2529 15.4828 88.3086 15.2922 88.3915 15.1562C88.5027 14.9929 88.6411 14.8841 88.807 14.7752C88.9737 14.6935 89.1678 14.6393 89.4164 14.5848C89.6387 14.5575 89.8874 14.5304 90.137 14.5304H90.608V14.3945C90.608 14.3127 90.608 14.2039 90.5523 14.1223C90.525 14.0408 90.4694 13.9591 90.4139 13.9046C90.3593 13.8231 90.2481 13.7687 90.1652 13.7414C90.054 13.6871 89.9427 13.6871 89.8045 13.6871C89.6658 13.6871 89.5549 13.6871 89.4719 13.7142C89.3608 13.7412 89.2778 13.7683 89.2224 13.7956C89.1394 13.8229 89.0566 13.8773 89.001 13.9318C88.9453 13.9589 88.8898 14.0133 88.807 14.0679L88.4188 13.6596V13.6596ZM90.2754 14.9929C90.1097 14.9929 89.9429 14.9929 89.8045 15.0202C89.6387 15.0474 89.5003 15.0745 89.3608 15.1289C89.2224 15.1562 89.1121 15.2378 89.0283 15.3195C88.9453 15.401 88.8898 15.5099 88.8898 15.646C88.8898 15.8364 88.9737 15.9726 89.1123 16.0541C89.2224 16.1359 89.4164 16.1903 89.6387 16.1903C89.8045 16.1903 89.9713 16.163 90.0813 16.1086C90.22 16.0541 90.3311 15.9726 90.3866 15.8637C90.4695 15.7822 90.5252 15.6733 90.5523 15.5645C90.608 15.4283 90.608 15.3195 90.608 15.2106V14.9929H90.2754V14.9929Z" fill="#757575"/>
<path d="M91.7721 13.2515H92.5201L93.5459 15.891L94.5151 13.2515H95.2084L93.6014 17.3332C93.5459 17.4964 93.4621 17.6326 93.4073 17.7413C93.3518 17.8503 93.269 17.959 93.1852 18.0407C93.1022 18.1495 92.9909 18.204 92.8808 18.2584C92.7424 18.2857 92.6029 18.3128 92.4099 18.3128C92.326 18.3128 92.2158 18.3128 92.1319 18.3128C92.0217 18.2857 91.9378 18.2584 91.8549 18.2313L91.9378 17.6597C92.049 17.687 92.1876 17.7143 92.326 17.7143C92.4099 17.7143 92.4928 17.7143 92.5756 17.687C92.6311 17.6597 92.6867 17.6326 92.7424 17.5782C92.7968 17.5237 92.8525 17.4693 92.8808 17.3878C92.9081 17.3333 92.9365 17.2516 92.9638 17.1701L93.1852 16.6258L91.7721 13.2515V13.2515Z" fill="#757575"/>
<path d="M95.7907 13.6596C95.9846 13.4964 96.2062 13.3604 96.4274 13.2787C96.677 13.1969 96.9267 13.1698 97.1763 13.1698C97.425 13.1698 97.6189 13.1969 97.813 13.2514C97.9798 13.3058 98.1456 13.3873 98.2569 13.4964C98.368 13.605 98.4508 13.7412 98.5065 13.85C98.5619 13.986 98.5892 14.1495 98.5892 14.2854V15.9997C98.5892 16.1357 98.5892 16.2445 98.6167 16.3263C98.6167 16.4351 98.6167 16.5167 98.6167 16.6255H98.0355C98.0355 16.4351 98.0355 16.2718 98.0355 16.1086H98.0073C97.8687 16.3263 97.7029 16.4895 97.5088 16.5711C97.2866 16.6528 97.0652 16.7072 96.8156 16.7072C96.6499 16.7072 96.4831 16.6801 96.3446 16.6255C96.206 16.5984 96.095 16.544 95.9846 16.4351C95.8735 16.3536 95.7907 16.2447 95.7067 16.1359C95.6523 15.9999 95.6239 15.8637 95.6239 15.7005C95.6239 15.4828 95.6794 15.2922 95.7623 15.1562C95.8735 14.9929 96.0119 14.8841 96.1787 14.7752C96.3445 14.6935 96.5385 14.6393 96.7881 14.5848C97.0095 14.5575 97.2591 14.5304 97.5087 14.5304H97.9798V14.3945C97.9798 14.3127 97.9798 14.2039 97.9243 14.1223C97.896 14.0408 97.8414 13.9591 97.7857 13.9046C97.7302 13.8231 97.6189 13.7687 97.5362 13.7414C97.425 13.6871 97.3149 13.6871 97.1763 13.6871C97.0379 13.6871 96.9267 13.6871 96.8438 13.7142C96.7599 13.7412 96.6499 13.7683 96.5942 13.7956C96.5113 13.8229 96.4274 13.8773 96.3719 13.9318C96.3173 13.9589 96.2617 14.0133 96.2062 14.0679L95.7907 13.6596V13.6596ZM97.6473 14.9929C97.4807 14.9929 97.3149 14.9929 97.1763 15.0202C97.0097 15.0474 96.8711 15.0745 96.7326 15.1289C96.5942 15.1562 96.4831 15.2378 96.4001 15.3195C96.3173 15.401 96.2617 15.5099 96.2617 15.646C96.2617 15.8364 96.3446 15.9726 96.4831 16.0541C96.5942 16.1359 96.7883 16.1903 97.0095 16.1903C97.2036 16.1903 97.3421 16.163 97.4807 16.1086C97.5918 16.0541 97.7029 15.9726 97.7575 15.8637C97.8414 15.7822 97.896 15.6733 97.9243 15.5645C97.9798 15.4283 97.9798 15.3195 97.9798 15.2106V14.9929H97.6473V14.9929Z" fill="#757575"/>
<path d="M99.5311 13.2514H100.196V13.7683C100.252 13.6868 100.307 13.6052 100.39 13.5235C100.446 13.4419 100.529 13.3875 100.613 13.3331C100.723 13.2788 100.806 13.2515 100.917 13.1971C101.028 13.1698 101.138 13.1698 101.249 13.1698C101.332 13.1698 101.443 13.1698 101.526 13.1971L101.499 13.9045C101.443 13.8773 101.388 13.8773 101.332 13.8502C101.278 13.8502 101.222 13.8502 101.166 13.8502C100.861 13.8502 100.613 13.9318 100.446 14.095C100.28 14.2854 100.196 14.5577 100.196 14.9387V16.6255H99.5311V13.2514V13.2514Z" fill="#757575"/>
<path d="M102.247 13.6596C102.414 13.4964 102.635 13.3604 102.884 13.2787C103.106 13.1969 103.355 13.1698 103.605 13.1698C103.855 13.1698 104.048 13.1969 104.242 13.2514C104.436 13.3058 104.574 13.3875 104.685 13.4964C104.797 13.6052 104.88 13.7412 104.935 13.85C104.991 13.9862 105.018 14.1495 105.018 14.2854V15.9997C105.018 16.1357 105.018 16.2445 105.046 16.3263C105.046 16.4351 105.046 16.5167 105.046 16.6255H104.491C104.464 16.4351 104.464 16.2718 104.464 16.1086H104.436C104.297 16.3263 104.132 16.4895 103.938 16.5713C103.743 16.6528 103.494 16.7072 103.244 16.7072C103.079 16.7072 102.94 16.6801 102.773 16.6255C102.635 16.5984 102.524 16.544 102.413 16.4351C102.302 16.3536 102.219 16.2447 102.136 16.1359C102.081 15.9999 102.053 15.8637 102.053 15.7005C102.053 15.4828 102.108 15.2922 102.191 15.1562C102.302 14.9929 102.441 14.8841 102.607 14.7752C102.773 14.6935 102.967 14.6393 103.217 14.5848C103.438 14.5575 103.688 14.5304 103.938 14.5304H104.409V14.3945C104.409 14.3127 104.409 14.2039 104.381 14.1223C104.326 14.0408 104.297 13.9591 104.214 13.9046C104.159 13.8231 104.076 13.7687 103.965 13.7414C103.855 13.6871 103.743 13.6871 103.605 13.6871C103.466 13.6871 103.355 13.6871 103.272 13.7142C103.189 13.7412 103.106 13.7683 103.023 13.7956C102.94 13.8229 102.856 13.8773 102.802 13.9318C102.746 13.9589 102.69 14.0133 102.635 14.0679L102.247 13.6596V13.6596ZM104.076 14.9929C103.909 14.9929 103.771 14.9929 103.605 15.0202C103.438 15.0474 103.3 15.0745 103.161 15.1289C103.023 15.1562 102.912 15.2378 102.829 15.3195C102.746 15.401 102.718 15.5099 102.718 15.646C102.718 15.8364 102.773 15.9726 102.912 16.0541C103.05 16.1359 103.217 16.1903 103.438 16.1903C103.632 16.1903 103.771 16.163 103.909 16.1086C104.02 16.0541 104.131 15.9726 104.214 15.8637C104.27 15.7822 104.326 15.6733 104.381 15.5645C104.408 15.4283 104.408 15.3195 104.408 15.2106V14.9929H104.076V14.9929Z" fill="#757575"/>
<path d="M105.988 13.2514H106.625V13.7683H106.653C106.736 13.5779 106.875 13.4419 107.069 13.3329C107.263 13.2242 107.512 13.1698 107.762 13.1698C107.928 13.1698 108.094 13.1969 108.233 13.2242C108.399 13.2787 108.537 13.3602 108.648 13.4691C108.76 13.5779 108.842 13.7139 108.925 13.8773C108.981 14.0404 109.008 14.231 109.008 14.4487V16.6255H108.371V14.6393C108.371 14.476 108.343 14.3399 108.288 14.231C108.26 14.1222 108.205 14.0133 108.122 13.9589C108.039 13.8773 107.956 13.8502 107.872 13.7958C107.789 13.7685 107.678 13.7685 107.595 13.7685C107.457 13.7685 107.318 13.7685 107.207 13.8229C107.097 13.8773 106.986 13.9318 106.903 14.0133C106.819 14.1222 106.736 14.231 106.709 14.3672C106.653 14.5304 106.625 14.6935 106.625 14.8841V16.6255H105.988V13.2514V13.2514Z" fill="#757575"/>
<path d="M112.166 11.5921H113.082L115.91 15.7277H115.939V11.5921H116.631V16.6256H115.744L112.887 12.4897H112.858V16.6256H112.166V11.5921Z" fill="#757575"/>
<path d="M117.792 13.6596C117.958 13.4964 118.182 13.3604 118.426 13.2787C118.65 13.1969 118.903 13.1698 119.147 13.1698C119.401 13.1698 119.625 13.1969 119.791 13.2514C119.986 13.3058 120.122 13.3873 120.23 13.4964C120.347 13.605 120.425 13.7412 120.483 13.85C120.532 13.986 120.561 14.1495 120.561 14.2854L120.561 15.9999C120.561 16.1359 120.561 16.2447 120.59 16.3264C120.59 16.4351 120.59 16.5168 120.59 16.6257L120.035 16.6255C120.005 16.4351 120.005 16.2718 120.005 16.1086H119.986C119.84 16.3263 119.674 16.4895 119.479 16.5713C119.294 16.6528 119.04 16.7072 118.787 16.7072C118.621 16.7072 118.484 16.6801 118.318 16.6255C118.182 16.5984 118.075 16.544 117.958 16.4351C117.85 16.3536 117.763 16.2447 117.714 16.1359C117.626 15.9999 117.597 15.8637 117.597 15.7005C117.597 15.4828 117.655 15.2922 117.733 15.1562C117.851 14.9929 117.987 14.8841 118.153 14.7752C118.319 14.6935 118.514 14.6393 118.767 14.5848C118.982 14.5575 119.235 14.5304 119.479 14.5304H119.957V14.3945C119.957 14.3127 119.957 14.2039 119.927 14.1223C119.869 14.0408 119.84 13.9591 119.762 13.9046C119.703 13.8231 119.625 13.7687 119.508 13.7414C119.401 13.6871 119.294 13.6871 119.147 13.6871C119.011 13.6871 118.933 13.6871 118.816 13.7142C118.738 13.7414 118.65 13.7687 118.572 13.7958C118.484 13.8231 118.426 13.8775 118.348 13.9318C118.289 13.9591 118.24 14.0135 118.182 14.0679L117.792 13.6596V13.6596ZM119.625 14.9929C119.459 14.9929 119.313 14.9929 119.147 15.0202C118.982 15.0474 118.845 15.0745 118.708 15.1289C118.572 15.1562 118.455 15.2378 118.377 15.3195C118.289 15.401 118.26 15.5099 118.26 15.646C118.26 15.8364 118.318 15.9726 118.455 16.0541C118.601 16.1359 118.767 16.1903 118.981 16.1903C119.176 16.1903 119.313 16.163 119.459 16.1086C119.567 16.0541 119.674 15.9726 119.762 15.8637C119.82 15.7822 119.869 15.6733 119.927 15.5645C119.957 15.4283 119.957 15.3195 119.957 15.2106V14.9929H119.625V14.9929Z" fill="#757575"/>
<path d="M123.34 14.0949C123.282 13.9862 123.165 13.9318 123.057 13.85C122.95 13.7956 122.814 13.7683 122.638 13.7683C122.502 13.7683 122.365 13.7956 122.258 13.85C122.141 13.9316 122.063 14.0133 122.063 14.1495C122.063 14.231 122.111 14.3126 122.17 14.367C122.229 14.4487 122.307 14.4758 122.394 14.5303C122.502 14.5576 122.59 14.5847 122.697 14.612C122.784 14.6391 122.863 14.6391 122.95 14.6662C123.087 14.6935 123.223 14.7479 123.34 14.7751C123.477 14.8295 123.584 14.8839 123.672 14.9655C123.75 15.047 123.838 15.1287 123.857 15.2376C123.916 15.3466 123.945 15.4826 123.945 15.6459C123.945 15.8363 123.916 15.9997 123.838 16.1357C123.75 16.2717 123.643 16.3805 123.506 16.4622C123.389 16.544 123.223 16.5982 123.057 16.6526C122.892 16.6799 122.726 16.7071 122.56 16.7071C122.287 16.7071 122.034 16.6526 121.809 16.5711C121.585 16.4895 121.4 16.3263 121.234 16.1086L121.731 15.7003C121.839 15.8091 121.946 15.8907 122.092 15.9724C122.199 16.054 122.365 16.1084 122.56 16.1084C122.638 16.1084 122.726 16.1084 122.814 16.0811C122.892 16.054 122.979 16.0267 123.028 15.9995C123.087 15.9724 123.145 15.918 123.194 15.8636C123.223 15.8091 123.252 15.7547 123.252 15.673C123.252 15.5914 123.223 15.5099 123.165 15.4555C123.116 15.3739 123.028 15.3466 122.95 15.2922C122.862 15.2651 122.784 15.2378 122.667 15.2106C122.589 15.1835 122.502 15.1835 122.424 15.1562C122.287 15.1289 122.141 15.1018 122.033 15.0474C121.897 14.9929 121.78 14.9385 121.702 14.8841C121.585 14.8025 121.536 14.7208 121.478 14.612C121.4 14.5031 121.37 14.3672 121.37 14.2039C121.37 14.0133 121.419 13.8773 121.478 13.7412C121.565 13.6052 121.673 13.4964 121.78 13.4146C121.926 13.3329 122.063 13.2787 122.199 13.2242C122.365 13.1969 122.531 13.1698 122.667 13.1698C122.921 13.1698 123.145 13.1969 123.34 13.2787C123.555 13.3873 123.72 13.5235 123.857 13.7139L123.34 14.0949V14.0949Z" fill="#757575"/>
<path d="M124.637 12.0544C124.637 11.9182 124.696 11.8094 124.774 11.7007C124.862 11.619 124.969 11.5642 125.105 11.5642C125.252 11.5642 125.359 11.619 125.437 11.7007C125.554 11.8094 125.583 11.9182 125.583 12.0544C125.583 12.163 125.554 12.2719 125.437 12.3809C125.359 12.4624 125.252 12.5169 125.105 12.5169C124.969 12.5169 124.862 12.4624 124.774 12.3809C124.696 12.272 124.637 12.1632 124.637 12.0544ZM124.774 13.2515H125.437V16.6256H124.774V13.2515Z" fill="#757575"/>
<path d="M126.305 14.9385C126.305 14.6937 126.353 14.4489 126.441 14.2312C126.548 14.0408 126.666 13.8502 126.831 13.6869C126.997 13.5237 127.192 13.3877 127.407 13.306C127.631 13.1971 127.884 13.1698 128.128 13.1698C128.382 13.1698 128.626 13.1971 128.85 13.306C129.074 13.3875 129.269 13.5237 129.435 13.6869C129.6 13.8502 129.708 14.0408 129.825 14.2312C129.903 14.4489 129.961 14.6937 129.961 14.9385C129.961 15.1835 129.903 15.4012 129.825 15.6187C129.708 15.8364 129.6 16.027 129.435 16.1903C129.269 16.3536 129.074 16.4624 128.85 16.5713C128.625 16.6528 128.382 16.7072 128.128 16.7072C127.884 16.7072 127.631 16.6528 127.407 16.5713C127.192 16.4624 126.997 16.3536 126.831 16.1903C126.666 16.027 126.548 15.8364 126.441 15.6187C126.353 15.401 126.305 15.1835 126.305 14.9385ZM126.997 14.9385C126.997 15.1018 127.016 15.2651 127.075 15.4012C127.133 15.5372 127.211 15.6733 127.299 15.7822C127.407 15.8637 127.524 15.9455 127.66 16.027C127.797 16.0814 127.962 16.1087 128.128 16.1087C128.294 16.1087 128.46 16.0814 128.596 16.027C128.742 15.9455 128.85 15.8639 128.957 15.7822C129.045 15.6733 129.123 15.5374 129.181 15.4012C129.24 15.2651 129.269 15.102 129.269 14.9385C129.269 14.7754 129.24 14.612 129.181 14.4489C129.123 14.3127 129.045 14.2039 128.957 14.0949C128.85 13.9862 128.742 13.9045 128.596 13.85C128.459 13.7956 128.294 13.7683 128.128 13.7683C127.962 13.7683 127.797 13.7956 127.66 13.85C127.524 13.9045 127.407 13.9862 127.299 14.0949C127.211 14.2039 127.134 14.3127 127.075 14.4489C127.016 14.612 126.997 14.7752 126.997 14.9385V14.9385Z" fill="#757575"/>
<path d="M130.761 13.2514H131.424V13.7683C131.512 13.5779 131.648 13.4419 131.873 13.3329C132.068 13.2242 132.282 13.1698 132.565 13.1698C132.731 13.1698 132.896 13.1969 133.033 13.2242C133.199 13.2787 133.316 13.3602 133.452 13.4691C133.56 13.5779 133.647 13.7139 133.696 13.8773C133.784 14.0404 133.813 14.231 133.813 14.4487V16.6255H133.15V14.6393C133.15 14.476 133.15 14.3399 133.092 14.231C133.062 14.1222 132.974 14.0133 132.926 13.9589C132.838 13.8773 132.76 13.8502 132.672 13.7958C132.565 13.7685 132.477 13.7685 132.37 13.7685C132.233 13.7685 132.116 13.7685 132.009 13.8229C131.902 13.8773 131.785 13.9318 131.707 14.0133C131.619 14.1222 131.541 14.231 131.483 14.3672C131.453 14.5304 131.424 14.6937 131.424 14.8841L131.424 16.6255H130.761V13.2514V13.2514Z" fill="#757575"/>
<path d="M134.808 13.6596C135.003 13.4964 135.197 13.3604 135.441 13.2787C135.695 13.1969 135.919 13.1698 136.163 13.1698C136.416 13.1698 136.641 13.1969 136.806 13.2514C137.001 13.3058 137.138 13.3873 137.274 13.4964C137.382 13.605 137.469 13.7412 137.528 13.85C137.577 13.986 137.606 14.1495 137.606 14.2854L137.606 15.9999C137.606 16.1359 137.606 16.2447 137.606 16.3264C137.606 16.4351 137.606 16.5168 137.635 16.6257L137.05 16.6255C137.021 16.4351 137.021 16.2718 137.021 16.1086C136.855 16.3263 136.689 16.4895 136.495 16.5713C136.309 16.6528 136.085 16.7072 135.802 16.7072C135.666 16.7072 135.5 16.6801 135.363 16.6255C135.227 16.5984 135.081 16.544 134.973 16.4351C134.866 16.3536 134.778 16.2447 134.73 16.1359C134.671 15.9999 134.613 15.8637 134.613 15.7005C134.613 15.4828 134.671 15.2922 134.778 15.1562C134.866 14.9929 135.003 14.8841 135.168 14.7752C135.363 14.6935 135.558 14.6393 135.783 14.5848C135.997 14.5575 136.251 14.5304 136.524 14.5304H137.002V14.3945C137.002 14.3127 136.972 14.2039 136.943 14.1223C136.914 14.0408 136.855 13.9591 136.806 13.9046C136.719 13.8231 136.641 13.7687 136.524 13.7414C136.446 13.6871 136.309 13.6871 136.163 13.6871C136.056 13.6871 135.948 13.6871 135.831 13.7142C135.753 13.7414 135.666 13.7687 135.588 13.7958C135.5 13.8231 135.441 13.8775 135.393 13.9318C135.305 13.9591 135.256 14.0135 135.197 14.0679L134.808 13.6596V13.6596ZM136.641 14.9929C136.495 14.9929 136.329 14.9929 136.163 15.0202C135.997 15.0474 135.861 15.0745 135.724 15.1289C135.588 15.1562 135.5 15.2378 135.422 15.3195C135.305 15.401 135.276 15.5099 135.276 15.646C135.276 15.8364 135.334 15.9726 135.471 16.0541C135.607 16.1359 135.783 16.1903 136.027 16.1903C136.192 16.1903 136.358 16.163 136.475 16.1086C136.612 16.0541 136.689 15.9726 136.777 15.8637C136.855 15.7822 136.914 15.6733 136.943 15.5645C136.972 15.4283 137.002 15.3195 137.002 15.2106V14.9929H136.641V14.9929Z" fill="#757575"/>
<path d="M138.601 16.6259H139.238V11.2382H138.601V16.6259Z" fill="#757575"/>
</svg>
