<svg width="125" height="20" viewBox="0 0 125 20" fill="none" xmlns="http://www.w3.org/2000/svg">
<path d="M17.2915 3.26501H30.8983V11.4285H25.1899L30.8983 16.6529H26.0491L20.4509 11.4285V16.6529H17.2915V8.35396H27.2679V6.36756L17.2915 6.36738V3.26501Z" fill="#212121"/>
<path d="M32.3112 16.653H35.6366V3.23798H32.311L32.3112 16.653Z" fill="#212121"/>
<path d="M5.68083 13.4147V3.26501H3.07603C2.60488 3.26501 2.24469 3.61903 2.24469 4.0539C2.24469 6.44928 2.21704 13.4964 2.21704 15.8365C2.21704 16.2719 2.57723 16.6527 3.02055 16.6527C4.82184 16.6527 10.0038 16.6527 10.7516 16.6527V13.4147H5.68083Z" fill="#212121"/>
<path d="M12.47 20C12.7752 20 15.1028 20 15.879 20C15.879 20 15.879 13.3877 15.879 13.2791C14.7702 13.2791 13.6069 13.2791 12.47 13.2791C12.47 15.5101 12.47 17.7413 12.47 20Z" fill="#212121"/>
<path d="M7.34344 3.26501C7.34344 3.31979 7.34344 6.61168 7.34344 6.61168C8.86767 6.61168 10.807 6.61168 12.4695 6.61168C12.4695 8.92533 12.4695 11.6189 12.4695 11.6189C13.2458 11.6189 15.5733 11.6189 15.8786 11.6189V4.08173C15.8786 3.64598 15.5178 3.29196 15.075 3.26501C13.4125 3.26501 9.47691 3.26501 7.34326 3.26501H7.34344Z" fill="#212121"/>
<path d="M7.34344 8.24451C7.34344 9.36047 7.34344 10.4764 7.34344 11.6461C7.62067 11.6461 7.92537 11.6461 8.20243 11.6461C8.97881 11.6461 9.94788 11.6461 10.7241 11.6461C10.7241 11.6461 10.7241 8.29946 10.7241 8.24451C9.61535 8.24451 8.47948 8.24451 7.34326 8.24451H7.34344ZM9.72666 10.6121C9.39413 10.6121 9.00611 10.6121 8.70088 10.6121C8.59062 10.6121 8.47966 10.6121 8.34104 10.6121C8.34104 10.1492 8.34104 9.71449 8.34104 9.2518C8.81219 9.2518 9.25569 9.2518 9.72666 9.2518C9.72666 9.27875 9.72666 10.6121 9.72666 10.6121Z" fill="#212121"/>
<path d="M51.9589 13.2791V18.2859C51.9589 18.7211 51.5707 19.075 51.1281 19.075H46.0293V19.8912H51.9589C52.3744 19.8912 52.7341 19.5375 52.7341 19.1021V19.075V13.2792L51.9589 13.2791Z" fill="#212121"/>
<path d="M0.831336 6.585V1.57778C0.831336 1.14291 1.16387 0.815839 1.60719 0.815839H6.70618C6.734 0.815839 6.734 0.78889 6.734 0.78889V0.0271248C6.734 0.0271248 6.734 0 6.70618 0H0.831336C0.360363 0 0 0.354024 0 0.815839V6.58483C0 6.61177 0.0278279 6.61177 0.0278279 6.61177H0.803684C0.803684 6.61177 0.831336 6.61177 0.831336 6.58483V6.585Z" fill="#212121"/>
<path d="M50.5175 6.5849V3.26501H37.0776V8.24423V11.5921H46.0291V13.2514H37.0776V16.5985H50.5176V8.27223H41.567V6.5849H50.5175Z" fill="#212121"/>
<path d="M60.217 8.08175H57.2517C56.8918 8.08175 56.5593 8.02697 56.2268 7.89135C55.9217 7.78268 55.6173 7.59211 55.3951 7.37371C55.1455 7.12941 54.9524 6.85711 54.813 6.55804C54.6743 6.23097 54.5916 5.90495 54.5916 5.52381C54.5916 5.14283 54.6745 4.81593 54.813 4.48974C54.9524 4.19049 55.1182 3.89125 55.3678 3.67302C55.6173 3.42873 55.8942 3.2651 56.1986 3.12948C56.5311 2.99298 56.8636 2.93909 57.2517 2.93909C57.6124 2.93909 57.9449 2.99298 58.2774 3.12948C58.5818 3.2651 58.8595 3.42873 59.1082 3.64607C59.3305 3.89142 59.5246 4.13572 59.6631 4.46279C59.8017 4.76204 59.8572 5.08806 59.8572 5.44208C59.8572 5.6596 59.8288 5.87783 59.8015 6.0684C59.7458 6.28575 59.6631 6.47614 59.5519 6.66672C59.469 6.83034 59.3305 6.99273 59.1921 7.12941C59.0537 7.29198 58.8869 7.40171 58.6928 7.48255L60.217 7.48238V8.08175ZM57.2244 7.45561C57.5012 7.45561 57.7781 7.40171 58.0006 7.29198C58.222 7.18331 58.4432 7.04769 58.61 6.88406C58.7757 6.69367 58.8869 6.50309 58.9982 6.2588C59.0809 6.01345 59.1366 5.74133 59.1366 5.46903C59.1366 5.22473 59.0809 4.95244 58.9982 4.73509C58.8869 4.48974 58.7484 4.29934 58.5818 4.13572C58.4161 3.94532 58.222 3.8097 58.0006 3.7278C57.751 3.6193 57.5012 3.56435 57.2244 3.56435C56.9475 3.56435 56.6979 3.61913 56.4763 3.7278C56.2541 3.8097 56.06 3.94532 55.8942 4.13572C55.7276 4.29934 55.5892 4.48974 55.478 4.73509C55.3951 4.95244 55.3394 5.19673 55.3394 5.46903C55.3394 5.74133 55.3951 5.98668 55.478 6.23097C55.5619 6.47632 55.7003 6.69367 55.866 6.85711C56.0328 7.04751 56.2268 7.18331 56.4765 7.29198C56.6979 7.40171 56.9475 7.45561 57.2245 7.45561H57.2244Z" fill="#212121"/>
<path d="M60.9375 3.04791H62.7384C63.071 3.04791 63.3478 3.10163 63.5419 3.18353C63.7644 3.29221 63.9301 3.40176 64.0686 3.53756C64.1797 3.67318 64.2625 3.80968 64.3182 3.9733C64.3736 4.1357 64.3736 4.29932 64.3736 4.46295C64.3736 4.62534 64.3463 4.78897 64.2908 4.92564C64.2352 5.08821 64.1522 5.22489 64.0413 5.33356C63.93 5.46918 63.8199 5.55091 63.6531 5.63263C63.4873 5.71453 63.3205 5.76843 63.1266 5.79626L64.5952 8.08191H63.7087L62.4061 5.87798H61.6297V8.08191H60.9375V3.04791ZM61.6297 5.27878H62.5445C62.683 5.27878 62.8214 5.27878 62.9609 5.25166C63.071 5.22471 63.2096 5.19688 63.2934 5.11604C63.4035 5.06126 63.4873 4.97954 63.5419 4.87069C63.6258 4.78896 63.6533 4.62534 63.6533 4.46295C63.6533 4.29932 63.6258 4.1637 63.5419 4.05397C63.4875 3.9453 63.4035 3.86357 63.2934 3.80968C63.2096 3.7549 63.071 3.70101 62.9609 3.70101C62.8214 3.67318 62.683 3.64623 62.5445 3.64623H61.6297V5.27878Z" fill="#212121"/>
<path d="M70.9411 4.13572C70.8025 3.97315 70.6086 3.8097 70.3872 3.7278C70.1649 3.6193 69.9435 3.56435 69.6939 3.56435C69.417 3.56435 69.14 3.61913 68.9188 3.7278C68.6963 3.83647 68.4751 3.97315 68.3083 4.16372C68.1426 4.35412 68.0314 4.57146 67.9212 4.81593C67.8373 5.06128 67.7819 5.33341 67.7819 5.6057C67.7819 5.87783 67.8373 6.1223 67.9212 6.36747C68.0041 6.61176 68.1426 6.83034 68.3083 6.99273C68.4751 7.18331 68.669 7.31998 68.8904 7.42848C69.14 7.53715 69.4169 7.59211 69.6939 7.59211C69.9992 7.59211 70.2487 7.51038 70.4701 7.40171C70.6915 7.29198 70.8856 7.12941 71.0522 6.91101L71.6344 7.34676C71.5787 7.40154 71.523 7.45543 71.4119 7.56428C71.3289 7.646 71.1907 7.75467 71.0521 7.86335C70.8853 7.94525 70.6914 8.02698 70.47 8.1087C70.2487 8.1906 69.9717 8.21737 69.6938 8.21737C69.2784 8.21737 68.9186 8.13565 68.5861 8.00002C68.281 7.8364 68.004 7.646 67.7544 7.40153C67.533 7.15618 67.3662 6.85711 67.2277 6.55787C67.1166 6.2588 67.062 5.93172 67.062 5.60553C67.062 5.22456 67.1166 4.87053 67.2552 4.54452C67.3945 4.21744 67.5603 3.91837 67.81 3.70085C68.0314 3.4555 68.3083 3.2651 68.6408 3.12948C68.9734 2.99298 69.3341 2.93909 69.7221 2.93909C70.0546 2.93909 70.3872 2.99298 70.7197 3.12948C71.0523 3.2651 71.3018 3.4555 71.5232 3.7278L70.9411 4.13572Z" fill="#212121"/>
<path d="M72.1326 6.39484C72.1326 6.14949 72.1881 5.93197 72.271 5.71462C72.3822 5.49728 72.4935 5.30688 72.6592 5.17021C72.8258 5.00658 73.0199 4.87096 73.2411 4.78924C73.4625 4.68056 73.7123 4.62561 73.9619 4.62561C74.2114 4.62561 74.4601 4.68039 74.6824 4.78924C74.9038 4.87096 75.0979 5.00658 75.2645 5.17021C75.4303 5.30671 75.5414 5.49728 75.6517 5.71462C75.7355 5.93215 75.7901 6.14949 75.7901 6.39484C75.7901 6.66696 75.7355 6.88431 75.6517 7.10183C75.5414 7.32023 75.4303 7.51063 75.2645 7.6732C75.0977 7.80988 74.9038 7.9455 74.6824 8.02722C74.4601 8.13589 74.2114 8.16372 73.9619 8.16372C73.7123 8.16372 73.4625 8.13589 73.2411 8.02722C73.0199 7.9455 72.8258 7.80988 72.6592 7.6732C72.4935 7.51063 72.3822 7.32023 72.271 7.10183C72.1881 6.88431 72.1326 6.66696 72.1326 6.39484ZM72.8258 6.39484C72.8258 6.58524 72.8533 6.74869 72.9088 6.88431C72.9644 7.02099 73.0474 7.15661 73.1302 7.23833C73.2413 7.347 73.3525 7.42873 73.4909 7.48263C73.6295 7.5374 73.7952 7.59236 73.9619 7.59236C74.1276 7.59236 74.2944 7.53758 74.433 7.48263C74.5715 7.42873 74.6826 7.347 74.7928 7.23833C74.8767 7.15661 74.9596 7.02099 75.0151 6.88431C75.0708 6.74869 75.0981 6.58524 75.0981 6.39484C75.0981 6.23122 75.0708 6.06865 75.0151 5.93197C74.9596 5.79635 74.8767 5.65985 74.7928 5.57795C74.6826 5.46927 74.5715 5.38755 74.433 5.33365C74.2944 5.25193 74.1278 5.22498 73.9619 5.22498C73.7952 5.22498 73.6295 5.25211 73.4909 5.33365C73.3525 5.38755 73.2413 5.46927 73.1302 5.57795C73.0472 5.65985 72.9644 5.79635 72.9088 5.93197C72.8533 6.06865 72.8258 6.23122 72.8258 6.39484Z" fill="#212121"/>
<path d="M80.0309 8.08189H79.3933V7.61919H79.366C79.2547 7.78282 79.0608 7.91844 78.8394 8.02711C78.6455 8.13578 78.3957 8.16361 78.1745 8.16361C77.9249 8.16361 77.6752 8.13578 77.4538 8.05406C77.2315 7.94539 77.0658 7.83654 76.899 7.67309C76.7605 7.51052 76.6494 7.31994 76.5664 7.10154C76.4835 6.8842 76.428 6.66668 76.428 6.39455C76.428 6.1492 76.4835 5.93168 76.5664 5.71451C76.6494 5.49699 76.7605 5.30659 76.899 5.14297C77.0658 4.97952 77.2315 4.87085 77.4538 4.762C77.6752 4.68028 77.9249 4.6255 78.1745 4.6255C78.4232 4.6255 78.6455 4.68028 78.8669 4.78912C79.0881 4.8978 79.2549 5.03447 79.366 5.19687H79.3933V2.72064L80.0309 2.72082V8.08189ZM78.2573 7.59224C78.423 7.59224 78.5898 7.53747 78.7282 7.48251C78.8669 7.42862 78.9778 7.34689 79.0881 7.23822C79.1719 7.15649 79.2549 7.02088 79.3105 6.8842C79.366 6.74858 79.3935 6.58513 79.3935 6.39473C79.3935 6.23111 79.366 6.06854 79.3105 5.93186C79.2549 5.79624 79.1719 5.65974 79.0881 5.57783C78.978 5.46916 78.8669 5.38744 78.7282 5.33354C78.5898 5.25182 78.4232 5.22487 78.2573 5.22487C78.0905 5.22487 77.9247 5.25199 77.7863 5.33354C77.6477 5.38744 77.5367 5.46916 77.4254 5.57783C77.3424 5.65974 77.2597 5.79624 77.2042 5.93186C77.1485 6.06854 77.1212 6.23111 77.1212 6.39473C77.1212 6.58513 77.1485 6.74858 77.2042 6.8842C77.2597 7.02088 77.3426 7.15649 77.4254 7.23822C77.5367 7.34689 77.6479 7.42862 77.7863 7.48251C77.9247 7.53729 78.0905 7.59224 78.2573 7.59224Z" fill="#212121"/>
<path d="M81.4994 6.63984C81.4994 6.77564 81.5551 6.91126 81.6097 7.04776C81.6651 7.15643 81.749 7.26528 81.8592 7.34701C81.9704 7.42873 82.1088 7.51045 82.2473 7.56435C82.3859 7.59235 82.5243 7.61913 82.6627 7.61913C82.885 7.61913 83.0508 7.56435 83.1892 7.48263C83.356 7.40178 83.4944 7.26528 83.6056 7.12948L84.1038 7.48263C83.744 7.94532 83.2449 8.16372 82.5798 8.16372C82.3029 8.16372 82.0815 8.13589 81.8592 8.05399C81.6378 7.94532 81.4437 7.83665 81.2771 7.67302C81.1385 7.51046 81.0284 7.32006 80.9446 7.10165C80.8616 6.88413 80.8062 6.66679 80.8062 6.39467C80.8062 6.14932 80.8616 5.93179 80.9446 5.71445C81.0284 5.4971 81.167 5.30671 81.3328 5.14308C81.4712 4.97945 81.6651 4.87096 81.8876 4.76211C82.1088 4.68039 82.3302 4.62561 82.58 4.62561C82.885 4.62561 83.1621 4.68039 83.3562 4.78906C83.5774 4.89773 83.7442 5.03441 83.8826 5.19698C84.0212 5.3606 84.104 5.551 84.1595 5.76834C84.2425 5.98675 84.2708 6.20409 84.2708 6.42161V6.63984H81.4994ZM83.5774 6.12237C83.5501 5.98675 83.5501 5.85007 83.4944 5.7414C83.4671 5.63272 83.3833 5.52387 83.3005 5.44215C83.2176 5.33348 83.1337 5.2787 82.9953 5.22481C82.885 5.17003 82.7466 5.1429 82.5798 5.1429C82.4141 5.1429 82.2756 5.17003 82.1361 5.25158C81.9977 5.30635 81.8874 5.3872 81.8036 5.4691C81.7206 5.55082 81.6378 5.6595 81.5824 5.79617C81.5267 5.90485 81.4994 6.01352 81.4994 6.12219L83.5774 6.12237Z" fill="#212121"/>
<path d="M87.3746 7.04769C87.4847 7.21131 87.6515 7.34693 87.8456 7.45561C88.0397 7.53733 88.2611 7.59211 88.455 7.59211C88.5663 7.59211 88.7046 7.56428 88.8148 7.53733C88.9261 7.48255 89.0373 7.42866 89.1473 7.37371C89.2312 7.29198 89.3141 7.21131 89.3698 7.10158C89.4528 6.99291 89.4799 6.88406 89.4799 6.74844C89.4799 6.55805 89.4253 6.3946 89.286 6.28575C89.1757 6.20402 89.0091 6.12212 88.8148 6.04039C88.6491 5.95867 88.4268 5.90478 88.2054 5.85C87.9842 5.76828 87.7901 5.68743 87.596 5.5777C87.4292 5.46903 87.2634 5.30646 87.1523 5.11606C87.0139 4.92566 86.9584 4.68032 86.9584 4.32629C86.9584 4.19067 86.9866 4.02705 87.0422 3.8636C87.1252 3.70103 87.208 3.56435 87.3464 3.42873C87.485 3.2651 87.6789 3.15643 87.9014 3.07471C88.1226 2.96603 88.3724 2.93909 88.6765 2.93909C88.9816 2.93909 89.2314 2.96603 89.4801 3.04776C89.758 3.12948 89.9794 3.2651 90.1733 3.51045L89.5912 4.0001C89.5082 3.89143 89.3973 3.78258 89.2314 3.70085C89.0646 3.61913 88.8988 3.56435 88.6765 3.56435C88.4824 3.56435 88.344 3.59218 88.2054 3.64607C88.067 3.70085 87.9842 3.75475 87.9012 3.83647C87.8174 3.91837 87.7617 4.0001 87.7344 4.08182C87.7071 4.19049 87.6788 4.27222 87.6788 4.32612C87.6788 4.54452 87.7617 4.70709 87.8729 4.84376C88.0113 4.95244 88.1497 5.03416 88.3438 5.11588C88.5379 5.16978 88.732 5.25151 88.9532 5.30628C89.1757 5.36018 89.3696 5.44208 89.5637 5.52381C89.7578 5.63248 89.8963 5.7681 90.0349 5.95867C90.1449 6.12212 90.2006 6.36747 90.2006 6.66654C90.2006 6.91083 90.1731 7.12941 90.062 7.31981C89.979 7.51021 89.8406 7.67295 89.7022 7.80945C89.5354 7.94508 89.3414 8.05375 89.12 8.1087C88.9261 8.19042 88.6764 8.21737 88.4268 8.21737C88.0943 8.21737 87.7901 8.16348 87.513 8.05375C87.208 7.94507 86.9866 7.7545 86.7925 7.51021L87.3746 7.04769Z" fill="#212121"/>
<path d="M92.9162 5.27883H91.9741V6.80254C91.9741 6.91121 91.9741 6.99293 91.9741 7.07483C92.0024 7.18351 92.0024 7.26523 92.0297 7.34696C92.0854 7.40174 92.1127 7.45563 92.1955 7.51058C92.2511 7.56448 92.335 7.59231 92.4734 7.59231C92.5564 7.59231 92.6391 7.56448 92.7221 7.56448C92.8059 7.53735 92.8616 7.51058 92.9446 7.48258V8.05412C92.8616 8.1089 92.7505 8.13602 92.6393 8.16385C92.5007 8.16385 92.4179 8.16385 92.3624 8.16385C92.0854 8.16385 91.8913 8.13602 91.7803 8.08213C91.6417 8.00023 91.5307 7.9185 91.476 7.80983C91.3921 7.70116 91.3648 7.56448 91.3367 7.42886C91.3367 7.29236 91.3367 7.15674 91.3367 7.02094V5.27883H90.5886V4.73529H91.3365V3.78278H91.9741V4.73529H92.9162V5.27883Z" fill="#212121"/>
<path d="M93.7753 5.14308C93.9421 4.97963 94.1635 4.84401 94.4131 4.76211C94.6343 4.68039 94.884 4.62561 95.1336 4.62561C95.3832 4.62561 95.6046 4.68039 95.7703 4.73534C95.9644 4.78924 96.1039 4.87096 96.2142 4.97963C96.3253 5.0883 96.4365 5.19698 96.4872 5.33365C96.5164 5.46928 96.5456 5.60578 96.5456 5.76852V7.48263C96.5456 7.59236 96.5749 7.70103 96.5749 7.80988C96.5749 7.91837 96.5749 8.00027 96.6041 8.082H96.0201C95.9926 7.91837 95.9926 7.75492 95.9926 7.59236H95.9646C95.826 7.80988 95.6602 7.9455 95.4663 8.05417C95.2722 8.13589 95.0227 8.16372 94.7731 8.16372C94.6073 8.16372 94.4687 8.16372 94.3303 8.10895C94.1635 8.082 94.0534 8.00027 93.9423 7.91855C93.8311 7.83682 93.7482 7.72815 93.6927 7.59253C93.6097 7.4828 93.5815 7.32023 93.5815 7.15678C93.5815 6.93926 93.637 6.77581 93.7482 6.61219C93.8311 6.47657 93.9696 6.33989 94.1364 6.25905C94.3021 6.17732 94.5244 6.0956 94.7458 6.06865C94.9672 6.01387 95.2167 6.01387 95.4663 6.01387L95.9644 6.01369V5.85025C95.9644 5.76852 95.9371 5.68768 95.9098 5.60595C95.8816 5.52405 95.826 5.44233 95.743 5.3606C95.6875 5.30671 95.6046 5.25193 95.4934 5.19698C95.3834 5.17003 95.2722 5.14308 95.1336 5.14308C95.0225 5.14308 94.9124 5.17021 94.8011 5.19698C94.7181 5.19698 94.6343 5.25175 94.5515 5.27888C94.4685 5.30671 94.4131 5.3606 94.3303 5.38755C94.2746 5.44233 94.219 5.49711 94.1635 5.52405L93.7753 5.14308ZM95.6046 6.47657C95.438 6.47657 95.2995 6.47657 95.1336 6.50351C94.9668 6.50351 94.8286 6.55829 94.6899 6.58524C94.5515 6.64002 94.4404 6.69391 94.3574 6.80276C94.2744 6.88448 94.2463 6.99316 94.2463 7.12984C94.2463 7.32023 94.3019 7.45585 94.4402 7.53775C94.5788 7.61948 94.7454 7.67338 94.9668 7.67338C95.1607 7.67338 95.2993 7.64643 95.4378 7.5647C95.5489 7.51081 95.6601 7.42908 95.743 7.34718C95.8258 7.23869 95.8815 7.15679 95.9098 7.02116C95.9371 6.91143 95.9642 6.80276 95.9642 6.69409V6.47657H95.6046Z" fill="#212121"/>
<path d="M97.5205 4.73516H98.1542V5.25175H98.1836C98.2615 5.06135 98.4079 4.92573 98.5931 4.816C98.7881 4.68038 99.0417 4.62561 99.2855 4.62561C99.4609 4.62561 99.6267 4.65344 99.7926 4.70733C99.9293 4.76211 100.066 4.84383 100.173 4.95268C100.29 5.03441 100.368 5.17003 100.456 5.33365C100.514 5.49728 100.534 5.71463 100.534 5.93197V8.082H99.8999V6.09542C99.8999 5.93197 99.8704 5.8233 99.812 5.68768C99.7924 5.57795 99.7341 5.49728 99.6462 5.44233C99.5976 5.3606 99.5097 5.3067 99.4026 5.2787C99.3147 5.25175 99.2075 5.22481 99.1198 5.22481C98.9833 5.22481 98.8468 5.25193 98.7395 5.30671C98.6224 5.33365 98.5151 5.41538 98.4274 5.4971C98.3494 5.60578 98.2909 5.71445 98.2324 5.85007C98.1836 5.98675 98.1544 6.14932 98.1544 6.36772V8.082L97.5205 8.08182V4.73516Z" fill="#212121"/>
<path d="M104.97 8.08206H104.307V7.61919C104.171 7.78282 104.005 7.91844 103.781 8.02711C103.557 8.13578 103.332 8.16361 103.118 8.16361C102.835 8.16361 102.611 8.13578 102.396 8.05406C102.172 7.94539 101.977 7.83654 101.84 7.67309C101.675 7.51052 101.567 7.31994 101.48 7.10154C101.392 6.8842 101.372 6.66668 101.372 6.39455C101.372 6.1492 101.392 5.93168 101.48 5.71451C101.567 5.49699 101.675 5.30659 101.84 5.14297C101.977 4.97952 102.172 4.87085 102.396 4.762C102.611 4.68028 102.835 4.6255 103.118 4.6255C103.362 4.6255 103.586 4.68028 103.81 4.78912C104.025 4.8978 104.19 5.03447 104.307 5.19687V2.72064L104.97 2.72082V8.08206ZM103.196 7.59224C103.361 7.59224 103.527 7.53747 103.664 7.48251C103.81 7.42862 103.917 7.34689 104.005 7.23822C104.112 7.15649 104.19 7.02088 104.219 6.8842C104.278 6.74858 104.307 6.58513 104.307 6.39473C104.307 6.23111 104.278 6.06854 104.219 5.93186C104.19 5.79624 104.112 5.65974 104.005 5.57783C103.917 5.46916 103.81 5.38744 103.664 5.33354C103.527 5.25182 103.361 5.22487 103.196 5.22487C103.001 5.22487 102.864 5.25199 102.728 5.33354C102.591 5.38744 102.445 5.46916 102.367 5.57783C102.259 5.65974 102.201 5.79624 102.143 5.93186C102.084 6.06854 102.065 6.23111 102.065 6.39473C102.065 6.58513 102.084 6.74858 102.143 6.8842C102.201 7.02088 102.259 7.15649 102.367 7.23822C102.445 7.34689 102.591 7.42862 102.728 7.48251C102.864 7.53729 103.001 7.59224 103.196 7.59224Z" fill="#212121"/>
<path d="M105.965 5.14308C106.16 4.97963 106.355 4.84401 106.609 4.76211C106.852 4.68039 107.077 4.62561 107.33 4.62561C107.574 4.62561 107.798 4.68039 107.964 4.73534C108.159 4.78924 108.295 4.87096 108.403 4.97963C108.549 5.0883 108.627 5.19698 108.685 5.33366C108.744 5.46928 108.763 5.60578 108.763 5.76852V7.48263C108.763 7.59236 108.763 7.70103 108.763 7.80988C108.763 7.91838 108.763 8.00028 108.793 8.082L108.218 8.08218C108.188 7.91855 108.188 7.75492 108.188 7.59253C108.023 7.80988 107.857 7.9455 107.662 8.05417C107.467 8.13607 107.242 8.1639 106.969 8.1639C106.804 8.1639 106.657 8.1639 106.521 8.10912C106.384 8.08218 106.248 8.00045 106.131 7.91873C106.024 7.83683 105.946 7.72833 105.887 7.59253C105.829 7.48298 105.77 7.32041 105.77 7.15678C105.77 6.93944 105.828 6.77581 105.946 6.61236C106.024 6.47656 106.16 6.34007 106.326 6.25922C106.521 6.1775 106.716 6.0956 106.94 6.06882C107.165 6.01405 107.408 6.01405 107.691 6.01405L108.159 6.01369V5.85025C108.159 5.76852 108.13 5.68768 108.101 5.60595C108.071 5.52405 108.023 5.44233 107.935 5.3606C107.876 5.30671 107.798 5.25193 107.691 5.19698C107.603 5.17003 107.467 5.14308 107.33 5.14308C107.213 5.14308 107.106 5.17021 106.999 5.19698C106.911 5.19698 106.823 5.25175 106.745 5.27888C106.658 5.30671 106.609 5.3606 106.55 5.38738C106.472 5.44233 106.414 5.49711 106.355 5.52405L105.965 5.14308ZM107.798 6.47657C107.662 6.47657 107.496 6.47657 107.33 6.50351C107.164 6.50351 107.018 6.55829 106.882 6.58524C106.745 6.64002 106.657 6.69391 106.55 6.80276C106.472 6.88448 106.443 6.99316 106.443 7.12984C106.443 7.32023 106.491 7.45585 106.638 7.53775C106.774 7.61948 106.94 7.67338 107.184 7.67338C107.35 7.67338 107.496 7.64643 107.632 7.5647C107.769 7.51081 107.857 7.42908 107.935 7.34718C108.022 7.23869 108.071 7.15679 108.1 7.02116C108.13 6.91144 108.159 6.80276 108.159 6.69409V6.47657H107.798Z" fill="#212121"/>
<path d="M109.709 4.73516H110.343V5.25175H110.372C110.402 5.14308 110.49 5.06136 110.538 5.0064C110.626 4.92556 110.704 4.87078 110.792 4.816C110.87 4.76211 110.987 4.70733 111.094 4.68038C111.182 4.65326 111.289 4.62561 111.396 4.62561C111.513 4.62561 111.591 4.65344 111.679 4.68038L111.65 5.36043C111.591 5.36043 111.562 5.33348 111.513 5.33348C111.455 5.33348 111.396 5.33348 111.347 5.33348C111.016 5.33348 110.792 5.4152 110.626 5.57777C110.431 5.76817 110.343 6.04047 110.343 6.39449V8.08182L109.709 8.082V4.73516Z" fill="#212121"/>
<path d="M54.9241 11.5921H56.725C57.0575 11.5921 57.3355 11.6191 57.5285 11.7277C57.751 11.8095 57.9167 11.9181 58.0278 12.0543C58.1663 12.1902 58.2492 12.3264 58.3047 12.5168C58.3331 12.6801 58.3602 12.8433 58.3602 13.0066C58.3602 13.1426 58.3331 13.3059 58.3047 13.4693C58.2492 13.6597 58.1663 13.7957 58.0277 13.9318C57.9167 14.068 57.7508 14.1766 57.5285 14.2584C57.3355 14.367 57.0575 14.3943 56.725 14.3943H55.6173V16.6256H54.9241V11.5921ZM55.6173 13.7957H56.5311C56.6695 13.7957 56.809 13.7957 56.9191 13.7684C57.0577 13.7413 57.1687 13.714 57.28 13.6597C57.3901 13.6053 57.4739 13.5236 57.5285 13.4149C57.5842 13.306 57.6398 13.1699 57.6398 13.0066C57.6398 12.8162 57.5842 12.6801 57.5285 12.5712C57.4741 12.4624 57.3901 12.3808 57.28 12.3264C57.1687 12.2718 57.0575 12.2447 56.9191 12.2174C56.809 12.1902 56.6695 12.1902 56.5311 12.1902H55.6173V13.7957Z" fill="#212121"/>
<path d="M59.5519 15.1562C59.5519 15.3195 59.5792 15.4554 59.6348 15.5645C59.6903 15.7004 59.7732 15.782 59.8844 15.891C59.9955 15.9726 60.134 16.027 60.2724 16.0814C60.411 16.1358 60.5495 16.1358 60.6879 16.1358C60.9103 16.1358 61.0761 16.1085 61.2143 15.9999C61.3811 15.9181 61.5196 15.7822 61.6298 15.646L62.129 15.9997C61.7693 16.4622 61.27 16.7072 60.6049 16.7072C60.3281 16.7072 60.1058 16.6528 59.8844 16.5712C59.663 16.4895 59.4689 16.3535 59.3305 16.1903C59.1638 16.027 59.0536 15.8364 58.9697 15.6187C58.8868 15.4283 58.8313 15.1835 58.8313 14.9385C58.8313 14.6937 58.8868 14.4489 58.9697 14.2312C59.0536 14.0135 59.1922 13.8229 59.3579 13.6598C59.4964 13.5236 59.6903 13.3877 59.9117 13.3059C60.1341 13.1971 60.3554 13.1698 60.6049 13.1698C60.9102 13.1698 61.187 13.2242 61.3811 13.3331C61.6025 13.4148 61.7693 13.5508 61.9078 13.7413C62.0462 13.9044 62.129 14.095 62.1847 14.2854C62.2676 14.5031 62.2958 14.7208 62.2958 14.9385V15.1562H59.5519ZM61.6025 14.6664C61.5752 14.5031 61.5752 14.3943 61.5196 14.2583C61.4914 14.1494 61.4084 14.0406 61.3528 13.9589C61.27 13.8773 61.1589 13.7956 61.0202 13.7412C60.9102 13.6867 60.7707 13.6867 60.6049 13.6867C60.4381 13.6867 60.2999 13.7139 60.1613 13.7683C60.0228 13.8229 59.9117 13.9044 59.8287 13.9862C59.7458 14.0948 59.663 14.2039 59.6075 14.3125C59.5518 14.4214 59.5519 14.5304 59.5519 14.6664H61.6025Z" fill="#212121"/>
<path d="M63.071 13.2513H63.6805V13.7683C63.7088 13.7139 63.7361 13.6596 63.7916 13.6052C63.8746 13.5235 63.9302 13.4692 64.0413 13.3875C64.1241 13.3331 64.2353 13.2788 64.3737 13.2242C64.485 13.1971 64.6233 13.1698 64.7892 13.1698C65.0388 13.1698 65.2602 13.2242 65.427 13.3331C65.6209 13.4148 65.7593 13.5779 65.8706 13.7958C65.9807 13.5781 66.1193 13.4148 66.3416 13.3331C66.5355 13.2242 66.7298 13.1698 66.951 13.1698C67.2006 13.1698 67.422 13.1971 67.5888 13.2788C67.7545 13.3875 67.893 13.4963 68.0041 13.6325C68.0871 13.7685 68.1699 13.9317 68.1982 14.095C68.2255 14.2854 68.2537 14.476 68.2537 14.6664V16.6255H67.5888V14.7479C67.5888 14.612 67.5888 14.476 67.5604 14.367C67.5604 14.2583 67.5331 14.1494 67.4775 14.0677C67.422 13.9589 67.339 13.9044 67.2552 13.85C67.1451 13.7956 67.0065 13.7683 66.8681 13.7683C66.5355 13.7683 66.3133 13.85 66.1748 14.0404C66.0637 14.231 65.9809 14.476 65.9809 14.7752V16.6255H65.344V14.857C65.344 14.6937 65.3158 14.5575 65.3158 14.4216C65.2885 14.2854 65.2602 14.1767 65.2047 14.0679C65.1501 13.9589 65.0944 13.9044 64.9833 13.8502C64.9003 13.7958 64.7621 13.7685 64.6235 13.7685C64.485 13.7685 64.3739 13.7958 64.2627 13.8229C64.1525 13.8773 64.0686 13.9317 63.9859 14.0406C63.9029 14.1221 63.8473 14.231 63.7916 14.367C63.7361 14.5031 63.7088 14.6664 63.7088 14.8568V16.6255H63.071V13.2513Z" fill="#212121"/>
<path d="M69.2231 11.2382H69.888V13.7416C70.0267 13.551 70.1933 13.415 70.3874 13.3062C70.6088 13.2244 70.8583 13.17 71.0797 13.17C71.3566 13.17 71.6062 13.1973 71.8003 13.3062C72.0227 13.3877 72.2158 13.5239 72.3553 13.66C72.521 13.8231 72.6322 14.0137 72.7151 14.2314C72.7981 14.4491 72.8262 14.6939 72.8262 14.9387C72.8262 15.1837 72.7981 15.4285 72.7151 15.6189C72.632 15.8366 72.5208 16.0272 72.3551 16.1905C72.2156 16.3538 72.0226 16.4897 71.8003 16.5713C71.6062 16.653 71.3566 16.7074 71.0797 16.7074C70.8583 16.7074 70.6371 16.653 70.4147 16.5442C70.1934 16.4626 70.0266 16.3266 69.8882 16.1361V16.6257H69.2231V11.2382ZM71.0241 16.1088C71.1909 16.1088 71.3566 16.0816 71.4961 16.0272C71.6345 15.9457 71.7448 15.8639 71.8286 15.7822C71.9387 15.6734 72.0226 15.5374 72.0499 15.4013C72.1055 15.2653 72.1328 15.102 72.1328 14.9387C72.1328 14.7755 72.1055 14.6122 72.0499 14.4489C72.0226 14.3128 71.9387 14.2041 71.8286 14.0951C71.7448 13.9862 71.6345 13.9047 71.4961 13.8501C71.3566 13.7956 71.1909 13.7685 71.0241 13.7685C70.831 13.7685 70.6917 13.7956 70.5531 13.8501C70.4147 13.9047 70.2762 13.9864 70.1933 14.0951C70.0821 14.2041 70.0266 14.3128 69.9719 14.4491C69.9164 14.6122 69.888 14.7755 69.888 14.9387C69.888 15.102 69.9164 15.2653 69.9719 15.4014C70.0265 15.5374 70.0821 15.6735 70.1933 15.7824C70.2762 15.8639 70.4147 15.9457 70.5531 16.0272C70.6917 16.0816 70.831 16.1089 71.0241 16.1089V16.1088Z" fill="#212121"/>
<path d="M73.6569 13.6596C73.851 13.4963 74.0733 13.3604 74.2946 13.2787C74.5442 13.1969 74.7929 13.1698 75.0425 13.1698C75.2921 13.1698 75.4862 13.1969 75.6803 13.2513C75.846 13.3058 76.0128 13.3873 76.1239 13.4963C76.234 13.605 76.317 13.7412 76.3726 13.85C76.4281 13.986 76.4565 14.1494 76.4565 14.2854V15.9997C76.4565 16.1357 76.4565 16.2445 76.4565 16.3262C76.4838 16.4351 76.4838 16.5166 76.4838 16.6255H75.9015C75.9015 16.4351 75.9015 16.2718 75.9015 16.1085H75.8744C75.7357 16.3262 75.5691 16.4895 75.375 16.5711C75.1536 16.6528 74.9324 16.7072 74.6827 16.7072C74.5159 16.7072 74.3501 16.6801 74.2117 16.6255C74.0731 16.5984 73.9338 16.5439 73.851 16.4351C73.7407 16.3535 73.6569 16.2447 73.5739 16.1358C73.5184 15.9999 73.491 15.8637 73.491 15.7004C73.491 15.4828 73.5466 15.2922 73.6296 15.1562C73.7407 14.9929 73.8792 14.8841 74.0451 14.7752C74.2117 14.6935 74.4058 14.6393 74.6545 14.5848C74.8768 14.5575 75.1255 14.5304 75.375 14.5304H75.846V14.3944C75.846 14.3127 75.846 14.2039 75.7903 14.1223C75.763 14.0408 75.7074 13.959 75.6519 13.9046C75.5973 13.8231 75.4862 13.7686 75.4032 13.7413C75.2921 13.6871 75.1808 13.6871 75.0425 13.6871C74.9039 13.6871 74.7929 13.6871 74.71 13.7142C74.5988 13.7412 74.5159 13.7683 74.4604 13.7956C74.3774 13.8229 74.2946 13.8773 74.239 13.9317C74.1833 13.9589 74.1279 14.0133 74.0451 14.0679L73.6569 13.6596ZM75.5135 14.9929C75.3477 14.9929 75.1809 14.9929 75.0425 15.0202C74.8768 15.0474 74.7383 15.0745 74.5988 15.1289C74.4604 15.1562 74.3501 15.2377 74.2663 15.3195C74.1833 15.401 74.1278 15.5099 74.1278 15.646C74.1278 15.8364 74.2117 15.9726 74.3503 16.0541C74.4604 16.1358 74.6545 16.1903 74.8768 16.1903C75.0425 16.1903 75.2093 16.163 75.3194 16.1085C75.458 16.0541 75.5691 15.9726 75.6246 15.8637C75.7076 15.7822 75.7632 15.6733 75.7903 15.5645C75.846 15.4283 75.846 15.3195 75.846 15.2106V14.9929H75.5135Z" fill="#212121"/>
<path d="M77.01 13.2515H77.758L78.7838 15.891L79.7531 13.2515H80.4463L78.8393 17.3332C78.7838 17.4965 78.7 17.6326 78.6452 17.7413C78.5897 17.8503 78.5069 17.959 78.4231 18.0407C78.3401 18.1495 78.2288 18.204 78.1187 18.2584C77.9803 18.2857 77.8408 18.3128 77.6478 18.3128C77.5639 18.3128 77.4537 18.3128 77.3698 18.3128C77.2596 18.2857 77.1757 18.2584 77.0928 18.2313L77.1757 17.6597C77.2869 17.687 77.4255 17.7143 77.5639 17.7143C77.6478 17.7143 77.7307 17.7143 77.8135 17.687C77.869 17.6597 77.9247 17.6326 77.9803 17.5782C78.0347 17.5238 78.0904 17.4693 78.1187 17.3878C78.146 17.3334 78.1744 17.2516 78.2017 17.1701L78.4231 16.6258L77.01 13.2515Z" fill="#212121"/>
<path d="M81.0286 13.6596C81.2225 13.4963 81.4441 13.3604 81.6653 13.2787C81.9149 13.1969 82.1647 13.1698 82.4142 13.1698C82.6629 13.1698 82.8568 13.1969 83.0509 13.2513C83.2177 13.3058 83.3835 13.3873 83.4948 13.4963C83.6059 13.605 83.6887 13.7412 83.7444 13.85C83.7998 13.986 83.8272 14.1494 83.8272 14.2854V15.9997C83.8272 16.1357 83.8271 16.2445 83.8546 16.3262C83.8546 16.4351 83.8546 16.5166 83.8546 16.6255H83.2734C83.2734 16.4351 83.2734 16.2718 83.2734 16.1085H83.2452C83.1066 16.3262 82.9409 16.4895 82.7468 16.5711C82.5245 16.6528 82.3031 16.7072 82.0535 16.7072C81.8878 16.7072 81.721 16.6801 81.5825 16.6255C81.4439 16.5984 81.333 16.5439 81.2225 16.4351C81.1114 16.3535 81.0286 16.2447 80.9446 16.1358C80.8902 15.9999 80.8618 15.8637 80.8618 15.7004C80.8618 15.4828 80.9173 15.2922 81.0003 15.1562C81.1114 14.9929 81.2498 14.8841 81.4166 14.7752C81.5824 14.6935 81.7765 14.6393 82.026 14.5848C82.2474 14.5575 82.497 14.5304 82.7466 14.5304H83.2177V14.3944C83.2177 14.3127 83.2177 14.2039 83.1623 14.1223C83.1339 14.0408 83.0793 13.959 83.0236 13.9046C82.9682 13.8231 82.8568 13.7686 82.7741 13.7413C82.6629 13.6871 82.5528 13.6871 82.4142 13.6871C82.2758 13.6871 82.1647 13.6871 82.0817 13.7142C81.9979 13.7412 81.8878 13.7683 81.8321 13.7956C81.7492 13.8229 81.6653 13.8773 81.6098 13.9317C81.5552 13.9589 81.4996 14.0133 81.4441 14.0679L81.0286 13.6596ZM82.8852 14.9929C82.7186 14.9929 82.5528 14.9929 82.4142 15.0202C82.2476 15.0474 82.109 15.0745 81.9706 15.1289C81.8321 15.1562 81.721 15.2377 81.638 15.3195C81.5552 15.401 81.4996 15.5099 81.4996 15.646C81.4996 15.8364 81.5825 15.9726 81.721 16.0541C81.8321 16.1358 82.0262 16.1903 82.2474 16.1903C82.4415 16.1903 82.58 16.163 82.7186 16.1085C82.8297 16.0541 82.9409 15.9726 82.9955 15.8637C83.0793 15.7822 83.1339 15.6733 83.1623 15.5645C83.2177 15.4283 83.2177 15.3195 83.2177 15.2106V14.9929H82.8852Z" fill="#212121"/>
<path d="M84.7693 13.2513H85.4344V13.7683C85.49 13.6867 85.5455 13.6052 85.6284 13.5235C85.6839 13.4419 85.7669 13.3875 85.8507 13.3331C85.9608 13.2788 86.0438 13.2515 86.1551 13.1971C86.2662 13.1698 86.3763 13.1698 86.4874 13.1698C86.5704 13.1698 86.6815 13.1698 86.7645 13.1971L86.737 13.9044C86.6815 13.8773 86.6259 13.8773 86.5704 13.8502C86.5158 13.8502 86.4601 13.8502 86.4047 13.8502C86.0994 13.8502 85.8507 13.9317 85.6839 14.095C85.5182 14.2854 85.4344 14.5577 85.4344 14.9387V16.6255H84.7693V13.2513Z" fill="#212121"/>
<path d="M87.4846 13.6596C87.6514 13.4963 87.8726 13.3604 88.1224 13.2787C88.3436 13.1969 88.5934 13.1698 88.8429 13.1698C89.0925 13.1698 89.2856 13.1969 89.4797 13.2513C89.6738 13.3058 89.8122 13.3875 89.9233 13.4963C90.0346 13.6052 90.1174 13.7412 90.1729 13.85C90.2286 13.9862 90.2559 14.1494 90.2559 14.2854V15.9997C90.2559 16.1357 90.2559 16.2445 90.2842 16.3262C90.2842 16.4351 90.2842 16.5166 90.2842 16.6255H89.7292C89.7019 16.4351 89.7019 16.2718 89.7019 16.1085H89.6738C89.5353 16.3262 89.3696 16.4895 89.1755 16.5712C88.9814 16.6528 88.7318 16.7072 88.4822 16.7072C88.3165 16.7072 88.1779 16.6801 88.0111 16.6255C87.8726 16.5984 87.7615 16.5439 87.6512 16.4351C87.5401 16.3535 87.4573 16.2447 87.3744 16.1358C87.3187 15.9999 87.2905 15.8637 87.2905 15.7004C87.2905 15.4828 87.3462 15.2922 87.429 15.1562C87.5403 14.9929 87.6785 14.8841 87.8453 14.7752C88.0111 14.6935 88.2052 14.6393 88.4548 14.5848C88.6761 14.5575 88.9259 14.5304 89.1755 14.5304H89.6464V14.3944C89.6464 14.3127 89.6464 14.2039 89.6191 14.1223C89.5635 14.0408 89.5353 13.959 89.4523 13.9046C89.3967 13.8231 89.3139 13.7686 89.2028 13.7413C89.0927 13.6871 88.9814 13.6871 88.8429 13.6871C88.7043 13.6871 88.5934 13.6871 88.5104 13.7142C88.4266 13.7412 88.3436 13.7683 88.2608 13.7956C88.1779 13.8229 88.094 13.8773 88.0394 13.9317C87.984 13.9589 87.9283 14.0133 87.8726 14.0679L87.4846 13.6596ZM89.3139 14.9929C89.1471 14.9929 89.0089 14.9929 88.8429 15.0202C88.6761 15.0474 88.5377 15.0745 88.3993 15.1289C88.2608 15.1562 88.1497 15.2377 88.0667 15.3195C87.984 15.401 87.9556 15.5099 87.9556 15.646C87.9556 15.8364 88.0111 15.9726 88.1495 16.0541C88.2881 16.1358 88.4547 16.1903 88.676 16.1903C88.8701 16.1903 89.0085 16.163 89.1471 16.1085C89.2583 16.0541 89.3694 15.9726 89.4522 15.8637C89.5078 15.7822 89.5635 15.6733 89.619 15.5645C89.6463 15.4283 89.6463 15.3195 89.6463 15.2106V14.9929H89.3139Z" fill="#212121"/>
<path d="M91.2263 13.2513H91.863V13.7683H91.8912C91.9742 13.5779 92.1126 13.4419 92.3067 13.3329C92.5006 13.2242 92.7504 13.1698 93 13.1698C93.1657 13.1698 93.3325 13.1969 93.4709 13.2242C93.6367 13.2786 93.7753 13.3602 93.8864 13.4691C93.9976 13.5779 94.0805 13.7139 94.1633 13.8773C94.219 14.0404 94.2463 14.231 94.2463 14.4487V16.6255H93.6094V14.6393C93.6094 14.476 93.5812 14.3398 93.5264 14.231C93.4982 14.1221 93.4426 14.0133 93.3598 13.9589C93.2768 13.8773 93.194 13.8502 93.1102 13.7958C93.0273 13.7685 92.9161 13.7685 92.8332 13.7685C92.6947 13.7685 92.5563 13.7685 92.4451 13.8229C92.3349 13.8773 92.2237 13.9317 92.1408 14.0133C92.0569 14.1221 91.9742 14.231 91.9469 14.3671C91.8912 14.5304 91.863 14.6935 91.863 14.8841V16.6255H91.2263V13.2513Z" fill="#212121"/>
<path d="M97.4036 11.5921H98.3201L101.148 15.7277H101.177V11.5921H101.87V16.6256H100.982L98.1252 12.4897H98.0958V16.6256H97.4036V11.5921Z" fill="#212121"/>
<path d="M103.03 13.6596C103.196 13.4963 103.42 13.3604 103.664 13.2787C103.888 13.1969 104.142 13.1698 104.385 13.1698C104.639 13.1698 104.863 13.1969 105.029 13.2513C105.224 13.3058 105.36 13.3873 105.468 13.4963C105.585 13.605 105.663 13.7412 105.721 13.85C105.77 13.986 105.799 14.1494 105.799 14.2854L105.799 15.9999C105.799 16.1358 105.799 16.2447 105.828 16.3264C105.828 16.4351 105.828 16.5168 105.828 16.6257L105.273 16.6255C105.243 16.4351 105.243 16.2718 105.243 16.1085H105.224C105.078 16.3262 104.912 16.4895 104.717 16.5712C104.532 16.6528 104.278 16.7072 104.025 16.7072C103.859 16.7072 103.722 16.6801 103.556 16.6255C103.42 16.5984 103.313 16.5439 103.196 16.4351C103.088 16.3535 103.001 16.2447 102.952 16.1358C102.864 15.9999 102.835 15.8637 102.835 15.7004C102.835 15.4828 102.893 15.2922 102.971 15.1562C103.089 14.9929 103.225 14.8841 103.391 14.7752C103.557 14.6935 103.752 14.6393 104.005 14.5848C104.22 14.5575 104.473 14.5304 104.717 14.5304H105.195V14.3944C105.195 14.3127 105.195 14.2039 105.165 14.1223C105.107 14.0408 105.078 13.959 105 13.9046C104.941 13.8231 104.863 13.7686 104.746 13.7413C104.639 13.6871 104.532 13.6871 104.385 13.6871C104.249 13.6871 104.171 13.6871 104.054 13.7142C103.976 13.7413 103.888 13.7686 103.81 13.7958C103.722 13.8231 103.664 13.8775 103.586 13.9317C103.527 13.959 103.478 14.0135 103.42 14.0679L103.03 13.6596ZM104.863 14.9929C104.697 14.9929 104.551 14.9929 104.385 15.0202C104.22 15.0474 104.083 15.0745 103.947 15.1289C103.81 15.1562 103.693 15.2377 103.615 15.3195C103.527 15.401 103.498 15.5099 103.498 15.646C103.498 15.8364 103.556 15.9726 103.693 16.0541C103.839 16.1358 104.005 16.1903 104.22 16.1903C104.415 16.1903 104.551 16.163 104.697 16.1085C104.805 16.0541 104.912 15.9726 105 15.8637C105.058 15.7822 105.107 15.6733 105.165 15.5645C105.195 15.4283 105.195 15.3195 105.195 15.2106V14.9929H104.863Z" fill="#212121"/>
<path d="M108.578 14.0948C108.52 13.9862 108.403 13.9317 108.295 13.85C108.188 13.7956 108.052 13.7683 107.876 13.7683C107.74 13.7683 107.603 13.7956 107.496 13.85C107.379 13.9316 107.301 14.0133 107.301 14.1494C107.301 14.231 107.349 14.3125 107.408 14.367C107.467 14.4487 107.545 14.4758 107.632 14.5302C107.74 14.5575 107.827 14.5847 107.935 14.612C108.022 14.6391 108.1 14.6391 108.188 14.6662C108.325 14.6935 108.461 14.7479 108.578 14.7751C108.715 14.8295 108.822 14.8839 108.91 14.9655C108.988 15.047 109.075 15.1287 109.095 15.2376C109.154 15.3466 109.183 15.4826 109.183 15.6458C109.183 15.8362 109.154 15.9997 109.075 16.1357C108.988 16.2716 108.881 16.3805 108.744 16.4622C108.627 16.5439 108.461 16.5982 108.295 16.6526C108.13 16.6799 107.964 16.707 107.798 16.707C107.525 16.707 107.272 16.6526 107.047 16.5711C106.823 16.4895 106.638 16.3262 106.472 16.1085L106.969 15.7003C107.077 15.8091 107.184 15.8907 107.33 15.9724C107.437 16.0539 107.603 16.1084 107.798 16.1084C107.876 16.1084 107.964 16.1084 108.052 16.0811C108.129 16.0539 108.217 16.0266 108.266 15.9995C108.325 15.9724 108.383 15.918 108.432 15.8635C108.461 15.8091 108.49 15.7547 108.49 15.673C108.49 15.5914 108.461 15.5099 108.403 15.4554C108.354 15.3739 108.266 15.3466 108.188 15.2922C108.1 15.2651 108.022 15.2378 107.905 15.2106C107.827 15.1835 107.74 15.1835 107.662 15.1562C107.525 15.1289 107.379 15.1018 107.271 15.0474C107.135 14.9929 107.018 14.9385 106.94 14.8841C106.823 14.8025 106.774 14.7208 106.716 14.612C106.637 14.5031 106.608 14.3671 106.608 14.2039C106.608 14.0133 106.657 13.8773 106.716 13.7412C106.803 13.6052 106.911 13.4963 107.018 13.4146C107.164 13.3329 107.301 13.2786 107.437 13.2242C107.603 13.1969 107.769 13.1698 107.905 13.1698C108.159 13.1698 108.383 13.1969 108.578 13.2787C108.793 13.3873 108.958 13.5235 109.095 13.7139L108.578 14.0948Z" fill="#212121"/>
<path d="M109.875 12.0543C109.875 11.9182 109.934 11.8093 110.012 11.7006C110.1 11.6189 110.207 11.5641 110.344 11.5641C110.49 11.5641 110.597 11.6189 110.675 11.7006C110.792 11.8093 110.821 11.9182 110.821 12.0543C110.821 12.163 110.792 12.2718 110.675 12.3809C110.597 12.4624 110.49 12.5168 110.344 12.5168C110.207 12.5168 110.1 12.4624 110.012 12.3809C109.934 12.272 109.875 12.1632 109.875 12.0543ZM110.012 13.2515H110.675V16.6256H110.012V13.2515Z" fill="#212121"/>
<path d="M111.543 14.9385C111.543 14.6937 111.591 14.4489 111.679 14.2312C111.786 14.0408 111.904 13.8502 112.069 13.6869C112.235 13.5236 112.43 13.3877 112.645 13.3059C112.869 13.1971 113.122 13.1698 113.366 13.1698C113.62 13.1698 113.864 13.1971 114.088 13.3059C114.312 13.3875 114.507 13.5236 114.673 13.6869C114.838 13.8502 114.946 14.0408 115.063 14.2312C115.141 14.4489 115.199 14.6937 115.199 14.9385C115.199 15.1835 115.141 15.4012 115.063 15.6187C114.946 15.8364 114.838 16.027 114.673 16.1903C114.507 16.3535 114.312 16.4624 114.088 16.5712C113.863 16.6528 113.62 16.7072 113.366 16.7072C113.122 16.7072 112.869 16.6528 112.645 16.5712C112.43 16.4624 112.235 16.3535 112.069 16.1903C111.904 16.027 111.786 15.8364 111.679 15.6187C111.592 15.401 111.543 15.1835 111.543 14.9385ZM112.235 14.9385C112.235 15.1018 112.254 15.265 112.313 15.4012C112.371 15.5372 112.449 15.6733 112.537 15.7822C112.645 15.8637 112.762 15.9454 112.898 16.027C113.035 16.0814 113.2 16.1087 113.366 16.1087C113.532 16.1087 113.698 16.0814 113.834 16.027C113.98 15.9454 114.088 15.8639 114.195 15.7822C114.283 15.6733 114.361 15.5373 114.419 15.4012C114.478 15.265 114.507 15.102 114.507 14.9385C114.507 14.7754 114.478 14.612 114.419 14.4489C114.361 14.3127 114.283 14.2039 114.195 14.0948C114.088 13.9862 113.98 13.9044 113.834 13.85C113.698 13.7956 113.532 13.7683 113.366 13.7683C113.2 13.7683 113.035 13.7956 112.898 13.85C112.762 13.9044 112.645 13.9862 112.537 14.0948C112.449 14.2039 112.372 14.3127 112.313 14.4489C112.254 14.612 112.235 14.7752 112.235 14.9385Z" fill="#212121"/>
<path d="M115.999 13.2513H116.662V13.7683C116.75 13.5779 116.886 13.4419 117.111 13.3329C117.306 13.2242 117.52 13.1698 117.803 13.1698C117.969 13.1698 118.134 13.1969 118.271 13.2242C118.437 13.2786 118.554 13.3602 118.69 13.4691C118.798 13.5779 118.885 13.7139 118.934 13.8773C119.022 14.0404 119.051 14.231 119.051 14.4487V16.6255H118.388V14.6393C118.388 14.476 118.388 14.3398 118.33 14.231C118.3 14.1221 118.212 14.0133 118.164 13.9589C118.076 13.8773 117.998 13.8502 117.91 13.7958C117.803 13.7685 117.715 13.7685 117.608 13.7685C117.471 13.7685 117.355 13.7685 117.247 13.8229C117.14 13.8773 117.023 13.9317 116.945 14.0133C116.857 14.1221 116.779 14.231 116.721 14.3671C116.691 14.5304 116.662 14.6937 116.662 14.8841L116.662 16.6255H115.999V13.2513Z" fill="#212121"/>
<path d="M120.046 13.6596C120.241 13.4963 120.436 13.3604 120.68 13.2787C120.933 13.1969 121.157 13.1698 121.401 13.1698C121.655 13.1698 121.879 13.1969 122.045 13.2513C122.24 13.3058 122.376 13.3873 122.513 13.4963C122.62 13.605 122.708 13.7412 122.766 13.85C122.815 13.986 122.844 14.1494 122.844 14.2854L122.844 15.9999C122.844 16.1358 122.844 16.2447 122.844 16.3264C122.844 16.4351 122.844 16.5168 122.874 16.6257L122.289 16.6255C122.259 16.4351 122.259 16.2718 122.259 16.1085C122.094 16.3262 121.928 16.4895 121.733 16.5712C121.548 16.6528 121.323 16.7072 121.04 16.7072C120.904 16.7072 120.738 16.6801 120.602 16.6255C120.465 16.5984 120.319 16.5439 120.212 16.4351C120.104 16.3535 120.017 16.2447 119.968 16.1358C119.909 15.9999 119.851 15.8637 119.851 15.7004C119.851 15.4828 119.909 15.2922 120.017 15.1562C120.104 14.9929 120.241 14.8841 120.407 14.7752C120.602 14.6935 120.797 14.6393 121.021 14.5848C121.236 14.5575 121.489 14.5304 121.762 14.5304H122.24V14.3944C122.24 14.3127 122.21 14.2039 122.181 14.1223C122.152 14.0408 122.094 13.959 122.045 13.9046C121.957 13.8231 121.879 13.7686 121.762 13.7413C121.684 13.6871 121.548 13.6871 121.401 13.6871C121.294 13.6871 121.187 13.6871 121.07 13.7142C120.992 13.7413 120.904 13.7686 120.826 13.7958C120.738 13.8231 120.68 13.8775 120.631 13.9317C120.543 13.959 120.494 14.0135 120.436 14.0679L120.046 13.6596ZM121.879 14.9929C121.733 14.9929 121.567 14.9929 121.401 15.0202C121.236 15.0474 121.099 15.0745 120.962 15.1289C120.826 15.1562 120.738 15.2377 120.66 15.3195C120.543 15.401 120.514 15.5099 120.514 15.646C120.514 15.8364 120.572 15.9726 120.709 16.0541C120.846 16.1358 121.021 16.1903 121.265 16.1903C121.431 16.1903 121.596 16.163 121.713 16.1085C121.85 16.0541 121.928 15.9726 122.016 15.8637C122.094 15.7822 122.152 15.6733 122.181 15.5645C122.211 15.4283 122.24 15.3195 122.24 15.2106V14.9929H121.879Z" fill="#212121"/>
<path d="M123.839 16.6259H124.476V11.2382H123.839V16.6259Z" fill="#212121"/>
</svg>
