<svg width="156" height="100" viewBox="0 0 156 100" fill="none" xmlns="http://www.w3.org/2000/svg">
    <path opacity="0.61"
        d="M122.223 98.5895C132.971 88.1243 139.585 73.8711 139.585 58.1671C139.585 26.0288 111.922 0 77.7923 0C43.663 0 16 26.0413 16 58.1671C16 73.7869 22.5417 87.9714 33.1857 98.4179"
        fill="#FFF9E1" />
    <g style="mix-blend-mode:multiply" opacity="0.5">
        <path
            d="M131.55 97.9186C131.55 96.9139 107.584 97.2259 79.5244 97.2259C51.4653 97.2259 26.9772 97.7813 26.9772 98.786C26.9772 99.7907 51.6413 99.9967 79.7004 99.9967C107.76 99.9967 131.55 98.9233 131.55 97.9186Z"
            fill="#382D44" />
    </g>
    <path d="M91.671 85.1725H75.8591V87.7467H91.671V85.1725Z" fill="#28292E" />
    <path
        d="M115.75 76.4266C115.546 75.5026 115.029 74.6759 114.286 74.0838C113.542 73.4918 112.617 73.1701 111.664 73.1722H86.4433V85.1725H114.537C114.916 85.173 115.291 85.0889 115.634 84.9264C115.976 84.7638 116.277 84.5271 116.515 84.2336C116.753 83.94 116.921 83.5973 117.007 83.2305C117.094 82.8638 117.096 82.4825 117.014 82.1147L115.75 76.4266Z"
        fill="#FBB03B" />
    <path
        d="M70.3107 83.5094C70.798 83.9213 72.2314 84.7575 73.4543 84.4455C73.6932 84.3893 73.9384 84.3363 74.1867 84.2864C74.435 84.2365 74.6331 84.1928 74.8563 84.1491C75.3247 84.0555 75.7993 83.9712 76.2551 83.8901C77.6634 83.6498 79.713 79.5436 80.5272 79.4376C80.8258 79.4001 79.9865 77.3096 80.1374 77.294C80.2128 77.191 80.2914 77.0943 80.3732 76.982C80.5827 76.724 80.8028 76.4744 81.0333 76.2331C81.3401 75.915 81.6644 75.6139 82.0047 75.3314L81.9701 73.6745L81.7972 66.81L81.75 64.9379V64.7632H81.6777L80.9107 64.7788C79.9834 64.8069 79.0246 64.8568 78.1255 64.9192C77.4308 64.966 76.7581 65.019 76.1357 65.0752C75.8056 65.1033 75.4881 65.1345 75.1926 65.1657C74.8091 65.2 74.457 65.2375 74.1427 65.2687C73.4857 65.3404 72.9796 65.4028 72.6967 65.4372C72.5395 65.8771 71.6467 66.6166 71.2444 68.1424C71.0683 68.8007 70.9489 69.8647 70.7728 70.6916C70.6911 71.0504 70.6125 71.4217 70.5371 71.8118C70.4616 72.2018 70.6157 72.6355 70.5371 73.0817C70.2133 74.9507 70.4302 81.1786 70.3107 83.5094Z"
        fill="#C7BBBB" />
    <path
        d="M76.1326 65.0627L81.0396 76.2581C81.3464 75.94 81.6707 75.6389 82.011 75.3563L81.9701 73.6745L78.1224 64.9067C77.4434 64.9535 76.755 65.0066 76.1326 65.0627Z"
        fill="#FFF1F0" />
    <path
        d="M72.4609 65.2749L78.8894 81.007C79.2855 80.5618 79.7052 80.1378 80.1468 79.7371L80.0934 77.3876L75.0638 65.0533C74.1553 65.1189 73.2751 65.1969 72.4609 65.2749Z"
        fill="#FFF1F0" />
    <path
        d="M71.2381 70.6729L74.8625 84.1616C75.3309 84.068 75.8056 83.9838 76.2614 83.9026L71.785 68.4388C71.5996 69.0972 71.4141 69.8461 71.2381 70.6729Z"
        fill="#FFF1F0" />
    <path
        d="M70.7666 73.0943L73.4606 84.4581C73.6995 84.4019 73.9447 84.3489 74.193 84.299L71.0023 71.8025C70.9237 72.2144 70.842 72.645 70.7666 73.0943Z"
        fill="#FFF1F0" />
    <path
        d="M84.3749 73.6746C84.8244 73.4 85.0539 72.7385 85.3179 72.6043C85.3531 72.5854 85.3858 72.5623 85.4154 72.5357C85.4941 72.4706 85.5556 72.3873 85.5945 72.2933C85.6334 72.1992 85.6485 72.0971 85.6386 71.9959C85.362 69.2907 84.7364 66.0987 84.4032 65.1626L83.8122 65.0784C83.3155 64.9848 82.976 65.1033 82.2593 65.0628C82.1021 65.0628 81.9261 65.1533 81.7532 65.147L81.8129 67.6432L81.8538 69.3468L81.9009 71.219L81.989 74.7354H82.0047C82.385 74.4546 82.8849 74.517 83.2306 74.283"
        fill="#C7BBBB" />
    <path
        d="M83.0043 64.7632L82.5076 64.7476L85.5034 72.6948C85.953 72.4202 86.3208 72.2112 86.5691 72.0708C86.6033 72.0504 86.6359 72.0275 86.6665 72.0021L83.501 64.7788L83.0043 64.7632Z"
        fill="#FFF1F0" />
    <path
        d="M80.9956 64.9193H80.4989L84.1894 74.5295C84.6389 74.2549 85.0099 74.0459 85.2582 73.9055L85.3557 73.8368L81.4891 64.938L80.9956 64.9193Z"
        fill="#FFF1F0" />
    <path
        d="M65.718 98.6768C64.204 98.6768 62.752 98.0798 61.6814 97.0172C60.6108 95.9545 60.0094 94.5133 60.0094 93.0105C60.0094 91.5077 60.6108 90.0665 61.6814 89.0038C62.752 87.9412 64.204 87.3442 65.718 87.3442C65.8218 87.3442 78.6819 86.4393 82.9634 86.4393C87.2449 86.4393 100.105 87.3348 100.234 87.3442C100.984 87.346 101.726 87.4944 102.417 87.7809C103.109 88.0673 103.738 88.4863 104.266 89.0137C104.795 89.5412 105.214 90.1669 105.499 90.8551C105.785 91.5433 105.93 92.2804 105.928 93.0246C105.927 93.7687 105.777 94.5051 105.489 95.1919C105.2 95.8786 104.778 96.5023 104.246 97.0271C103.715 97.552 103.085 97.9678 102.391 98.2509C101.698 98.5339 100.955 98.6787 100.206 98.6768H65.718Z"
        fill="#535B65" />
    <path
        d="M100.206 97.8719C100.849 97.8737 101.486 97.7498 102.081 97.5072C102.676 97.2646 103.217 96.9081 103.673 96.458C104.129 96.0079 104.491 95.473 104.739 94.8839C104.987 94.2948 105.116 93.663 105.117 93.0246C105.119 92.3862 104.994 91.7537 104.75 91.1632C104.506 90.5727 104.146 90.0358 103.693 89.5831C103.24 89.1304 102.701 88.7707 102.107 88.5247C101.514 88.2787 100.877 88.1511 100.234 88.1493H100.174C100.049 88.1493 87.2135 87.2476 82.9634 87.2476C78.7134 87.2476 65.9035 88.1399 65.7872 88.1493H65.7212C64.4223 88.1493 63.1765 88.6615 62.2581 89.5731C61.3396 90.4848 60.8236 91.7213 60.8236 93.0106C60.8236 94.2999 61.3396 95.5364 62.2581 96.448C63.1765 97.3597 64.4223 97.8719 65.7212 97.8719H100.206Z"
        fill="#28292E" />
    <path d="M100.803 90.9824H65.1208V95.0356H100.803V90.9824Z" fill="#FBB03B" />
    <path
        d="M70.6157 93.0199C70.6157 92.0585 70.3284 91.1186 69.7903 90.3191C69.2521 89.5197 68.4872 88.8966 67.5923 88.5287C66.6974 88.1607 65.7126 88.0645 64.7626 88.252C63.8125 88.4396 62.9398 88.9026 62.2549 89.5825C61.57 90.2623 61.1035 91.1285 60.9145 92.0715C60.7256 93.0145 60.8225 93.992 61.1932 94.8803C61.5639 95.7686 62.1916 96.5278 62.9971 97.0619C63.8025 97.5961 64.7494 97.8812 65.718 97.8812C66.3613 97.8816 66.9984 97.7562 67.5928 97.512C68.1872 97.2679 68.7272 96.9098 69.1821 96.4583C69.637 96.0068 69.9977 95.4707 70.2437 94.8807C70.4897 94.2908 70.6161 93.6584 70.6157 93.0199Z"
        fill="#B9BCBA" />
    <path
        d="M65.7212 95.8031C65.1647 95.8031 64.6208 95.6393 64.1581 95.3325C63.6954 95.0256 63.3348 94.5895 63.1219 94.0792C62.9089 93.5689 62.8532 93.0074 62.9618 92.4657C63.0703 91.924 63.3383 91.4264 63.7318 91.0358C64.1252 90.6453 64.6265 90.3793 65.1723 90.2716C65.7181 90.1638 66.2837 90.2191 66.7978 90.4305C67.3119 90.6418 67.7513 90.9998 68.0605 91.459C68.3696 91.9182 68.5346 92.4582 68.5346 93.0105C68.5305 93.7499 68.2328 94.4578 67.706 94.9806C67.1793 95.5035 66.4661 95.799 65.7212 95.8031Z"
        fill="#28292E" />
    <path
        d="M92.1017 89.1633C92.1017 88.8831 92.018 88.6092 91.8612 88.3763C91.7043 88.1433 91.4815 87.9618 91.2207 87.8545C90.9599 87.7473 90.6729 87.7193 90.3961 87.7739C90.1193 87.8286 89.865 87.9635 89.6654 88.1616C89.4658 88.3597 89.3298 88.6121 89.2748 88.8869C89.2197 89.1617 89.248 89.4465 89.356 89.7054C89.464 89.9642 89.6469 90.1855 89.8816 90.3411C90.1163 90.4968 90.3923 90.5799 90.6745 90.5799C91.053 90.5799 91.416 90.4306 91.6837 90.165C91.9513 89.8993 92.1017 89.539 92.1017 89.1633Z"
        fill="#B9BCBA" />
    <path d="M71.7101 40.0015L73.0175 37.851L58.4704 29.1372L57.163 31.2877L71.7101 40.0015Z" fill="#666666" />
    <path d="M57.4292 30.8511L58.2023 29.5795L49.3368 24.2691L48.5636 25.5407L57.4292 30.8511Z" fill="#B9BCBA" />
    <path
        d="M78.1004 64.9379V56.2388C78.1004 52.1825 75.7082 47.5615 71.697 44.8219C67.6859 42.0824 53.2571 36.2413 50.934 34.9995C48.4192 33.6578 47.7716 32.8465 47.3756 31.6452C47.0015 30.5157 47.9351 29.2021 48.9473 29.5516C49.9595 29.901 72.6212 37.4457 76.296 39.1119C80.0337 40.8031 84.749 47.5365 84.749 54.0702V64.9379H78.1004Z"
        fill="#FBB03B" />
    <path
        d="M33.6572 66.0955C33.6572 66.0955 47.6868 34.7342 48.3406 33.249C48.9945 31.7638 49.6326 24.8775 49.6326 23.6793C49.6326 22.4812 47.6145 22.7713 46.8254 23.2238C46.0364 23.6762 41.4029 29.33 40.9439 30.4003C40.485 31.4705 31.5856 63.6899 31.5856 64.5822C31.5856 65.4746 33.2737 66.0955 33.6572 66.0955Z"
        fill="#E58126" />
    <path
        d="M36.0369 65.4278L33.937 63.9769C33.7596 63.8555 33.5551 63.7788 33.3412 63.7532C33.1273 63.7277 32.9103 63.7541 32.709 63.8302C32.5076 63.9064 32.3279 64.0299 32.1854 64.1903C32.0428 64.3506 31.9416 64.543 31.8906 64.7507L31.3499 68.8944L34.4745 77.812L36.0369 65.4278Z"
        fill="#FBB03B" />
    <path
        d="M45.043 70.2049C45.043 70.2049 47.517 70.2954 47.9194 70.1768C48.6487 69.9647 50.2047 66.4918 50.7863 66.158C51.0245 65.9961 51.291 65.8797 51.5722 65.8148L49.2554 71.6652L47.2309 71.3843L45.043 70.2049Z"
        fill="#28292E" />
    <path
        d="M47.6176 74.6606L34.1004 67.378L35.7414 64.3826C35.7414 64.3826 40.29 68.0207 41.9907 68.9381C43.6913 69.8554 49.2428 71.6652 49.2428 71.6652L47.6176 74.6606Z"
        fill="#535B65" />
    <path
        d="M40.8653 71.0192L34.5342 67.6026C34.5342 67.6026 33.3051 73.6714 33.0568 74.9725C32.7959 76.3423 33.9307 77.5186 34.4745 77.8119L36.5367 78.9259L38.5988 80.0367C39.1426 80.33 40.7553 80.6357 41.7706 79.6716C42.7357 78.7574 47.1964 74.4359 47.1964 74.4359L40.8653 71.0192Z"
        fill="#28292E" />
    <path
        d="M85.1293 68.4981C84.954 67.3758 84.7062 66.2659 84.3875 65.1751L83.7965 65.0908L83.6236 65.0659L83.501 64.7851L83.0043 64.7632L82.5076 64.7476L82.6334 65.0815C82.5171 65.0815 82.3882 65.0815 82.2436 65.0815C82.099 65.0815 81.9292 65.1626 81.7563 65.1626V64.9286V64.7539H81.684L80.917 64.7695C79.9896 64.7975 79.0309 64.8475 78.1318 64.9099C77.4371 64.9567 76.7644 65.0097 76.142 65.0659C75.8119 65.094 75.4944 65.1252 75.1989 65.1564H75.1203L75.0763 65.0503C74.1678 65.1158 73.2877 65.1938 72.4735 65.2718L72.6086 65.6057C72.3226 66.0644 71.6027 66.7976 71.2506 68.1268C71.0746 68.7852 70.9551 69.8492 70.7791 70.676C70.6974 71.0349 70.6188 71.4062 70.5433 71.7962C70.4679 72.1862 70.6219 72.6199 70.5433 73.0661C70.229 74.9382 70.4427 81.1787 70.3233 83.5064C70.8105 83.9182 72.244 84.7544 73.4668 84.4424C73.7057 84.3863 73.9509 84.3332 74.1993 84.2833C74.4476 84.2334 74.6457 84.1897 74.8688 84.146C75.3372 84.0524 75.8119 83.9682 76.2677 83.887C77.3302 83.7061 78.748 81.3316 79.7256 80.1428C79.8671 80.0055 80.0085 79.8682 80.1531 79.7371V79.6747C80.2543 79.5652 80.3853 79.4871 80.5303 79.4501C80.829 79.4126 79.9897 77.3221 80.1405 77.3065C80.216 77.2035 80.2946 77.1068 80.3763 76.9945C80.5859 76.7365 80.8059 76.4869 81.0364 76.2456C81.3432 75.9275 81.6675 75.6265 82.0078 75.3439V74.7386C82.3882 74.4609 82.8849 74.5233 83.2275 74.2892L83.9694 73.8961L84.202 74.5045C84.6515 74.23 85.0224 74.0209 85.2708 73.8805L85.3682 73.8118L84.9879 72.9881C85.0672 72.8451 85.174 72.719 85.3022 72.6168C85.3373 72.5978 85.37 72.5748 85.3997 72.5482C85.3997 72.5482 85.4217 72.5232 85.4342 72.5138L85.5034 72.6948C85.9529 72.4202 86.3207 72.2112 86.5691 72.0708C86.6033 72.0504 86.6359 72.0275 86.6665 72.0021L85.1293 68.4981Z"
        fill="white" />
    <path
        d="M92.0703 96.4521C92.0703 96.1719 91.9865 95.898 91.8297 95.6651C91.6729 95.4321 91.45 95.2506 91.1892 95.1434C90.9284 95.0361 90.6415 95.0081 90.3647 95.0627C90.0878 95.1174 89.8335 95.2523 89.6339 95.4504C89.4343 95.6485 89.2984 95.901 89.2433 96.1757C89.1883 96.4505 89.2165 96.7353 89.3246 96.9942C89.4326 97.253 89.6155 97.4743 89.8502 97.6299C90.0849 97.7856 90.3608 97.8687 90.6431 97.8687C91.0216 97.8687 91.3846 97.7194 91.6522 97.4538C91.9199 97.1881 92.0703 96.8278 92.0703 96.4521Z"
        fill="#B9BCBA" />
    <path
        d="M76.6764 96.4521C76.6764 96.1719 76.5927 95.898 76.4358 95.6651C76.279 95.4321 76.0561 95.2506 75.7954 95.1434C75.5346 95.0361 75.2476 95.0081 74.9708 95.0627C74.6939 95.1174 74.4397 95.2523 74.2401 95.4504C74.0405 95.6485 73.9045 95.901 73.8495 96.1757C73.7944 96.4505 73.8227 96.7353 73.9307 96.9942C74.0387 97.253 74.2216 97.4743 74.4563 97.6299C74.691 97.7856 74.967 97.8687 75.2492 97.8687C75.6277 97.8687 75.9907 97.7194 76.2584 97.4538C76.526 97.1881 76.6764 96.8278 76.6764 96.4521Z"
        fill="#B9BCBA" />
    <path
        d="M73.8221 89.1633C73.8221 88.8831 73.9058 88.6092 74.0626 88.3763C74.2194 88.1433 74.4423 87.9618 74.7031 87.8545C74.9638 87.7473 75.2508 87.7193 75.5276 87.7739C75.8045 87.8286 76.0588 87.9635 76.2584 88.1616C76.458 88.3597 76.5939 88.6121 76.649 88.8869C76.704 89.1617 76.6758 89.4465 76.5677 89.7054C76.4597 89.9642 76.2768 90.1855 76.0421 90.3411C75.8074 90.4968 75.5315 90.5799 75.2492 90.5799C74.8707 90.5799 74.5077 90.4306 74.2401 90.165C73.9724 89.8993 73.8221 89.539 73.8221 89.1633Z"
        fill="#B9BCBA" />
    <path
        d="M95.3081 93.0199C95.3081 92.0585 95.5953 91.1186 96.1335 90.3191C96.6716 89.5197 97.4365 88.8966 98.3315 88.5287C99.2264 88.1607 100.211 88.0645 101.161 88.252C102.111 88.4396 102.984 88.9026 103.669 89.5825C104.354 90.2623 104.82 91.1285 105.009 92.0715C105.198 93.0145 105.101 93.992 104.731 94.8803C104.36 95.7686 103.732 96.5278 102.927 97.0619C102.121 97.5961 101.174 97.8812 100.206 97.8812C99.5624 97.8816 98.9254 97.7562 98.331 97.512C97.7366 97.2679 97.1965 96.9098 96.7416 96.4583C96.2868 96.0068 95.926 95.4707 95.68 94.8807C95.4341 94.2908 95.3077 93.6584 95.3081 93.0199Z"
        fill="#B9BCBA" />
    <path
        d="M100.206 95.8031C99.6492 95.8031 99.1053 95.6393 98.6426 95.3325C98.1799 95.0256 97.8193 94.5895 97.6064 94.0792C97.3934 93.5689 97.3377 93.0074 97.4463 92.4657C97.5548 91.924 97.8228 91.4264 98.2163 91.0358C98.6097 90.6453 99.111 90.3793 99.6568 90.2716C100.203 90.1638 100.768 90.2191 101.282 90.4305C101.796 90.6418 102.236 90.9998 102.545 91.459C102.854 91.9182 103.019 92.4582 103.019 93.0105C103.015 93.7499 102.717 94.4578 102.191 94.9806C101.664 95.5035 100.951 95.799 100.206 95.8031Z"
        fill="#28292E" />
    <path
        d="M85.6512 65.0285C85.6199 64.709 85.47 64.4125 85.2306 64.1968C84.9912 63.9811 84.6794 63.8615 84.356 63.8615H73.5737C73.3339 63.8597 73.0967 63.9109 72.8793 64.0113C72.6618 64.1116 72.4695 64.2587 72.3163 64.4419C68.673 68.7914 69.1508 76.6762 69.1508 79.6436V82.6546C69.1504 82.9851 69.2156 83.3124 69.3427 83.6179C69.4699 83.9234 69.6565 84.201 69.8918 84.4349C70.1271 84.6687 70.4065 84.8543 70.7141 84.9808C71.0218 85.1074 71.3515 85.1726 71.6845 85.1726H86.4339V73.1722L85.6512 65.0285ZM83.4161 73.9866L81.64 74.7729C81.1455 74.9936 80.7035 75.3156 80.3433 75.7179C79.983 76.1201 79.7125 76.5935 79.5496 77.1068L77.9967 82.0274C77.8387 82.5277 77.5239 82.9649 77.0981 83.2753C76.6723 83.5856 76.1578 83.753 75.6296 83.7529H71.8259C71.4874 83.7529 71.1628 83.6194 70.9235 83.3818C70.6841 83.1443 70.5497 82.822 70.5497 82.4861V79.5375C70.5497 79.266 70.5497 78.954 70.5497 78.6014C70.5088 75.4812 70.4239 68.9537 73.3788 65.4278C73.4149 65.3848 73.4601 65.3502 73.5111 65.3265C73.5622 65.3027 73.6179 65.2905 73.6743 65.2906H84.224C84.2405 65.2905 84.2564 65.2965 84.2686 65.3075C84.2808 65.3185 84.2885 65.3336 84.29 65.3498L84.881 71.4904C84.9329 72.0066 84.8193 72.5259 84.5562 72.9742C84.2931 73.4225 83.8941 73.7768 83.4161 73.9866Z"
        fill="#E58126" />
    <path
        d="M97.9486 74.6106H92.4097C92.24 74.6106 92.0954 74.9913 92.0954 75.4593H98.2473C98.2536 74.9975 98.1152 74.6106 97.9486 74.6106Z"
        fill="#E58126" />
    <path
        d="M97.9486 76.3735H92.4097C92.24 76.3735 92.0954 76.7542 92.0954 77.2254H98.2473C98.2536 76.7542 98.1152 76.3735 97.9486 76.3735Z"
        fill="#E58126" />
    <path
        d="M97.9486 78.1334H92.4097C92.24 78.1334 92.0954 78.514 92.0954 78.9821H98.2473C98.2536 78.514 98.1152 78.1334 97.9486 78.1334Z"
        fill="#E58126" />
    <path
        d="M104.984 74.6106H99.4481C99.2815 74.6106 99.1337 74.9913 99.1337 75.4593H105.286C105.292 74.9975 105.154 74.6106 104.984 74.6106Z"
        fill="#E58126" />
    <path
        d="M104.984 76.3735H99.4481C99.2815 76.3735 99.1337 76.7542 99.1337 77.2254H105.286C105.292 76.7542 105.154 76.3735 104.984 76.3735Z"
        fill="#E58126" />
    <path
        d="M104.984 78.1334H99.4481C99.2815 78.1334 99.1337 78.514 99.1337 78.9821H105.286C105.292 78.514 105.154 78.1334 104.984 78.1334Z"
        fill="#E58126" />
    <path
        d="M112.022 74.6106H106.483C106.314 74.6106 106.169 74.9913 106.169 75.4593H112.337C112.337 74.9975 112.192 74.6106 112.022 74.6106Z"
        fill="#E58126" />
    <path
        d="M112.022 76.3735H106.483C106.314 76.3735 106.169 76.7542 106.169 77.2254H112.337C112.337 76.7542 112.192 76.3735 112.022 76.3735Z"
        fill="#E58126" />
    <path
        d="M112.022 78.1334H106.483C106.314 78.1334 106.169 78.514 106.169 78.9821H112.337C112.337 78.514 112.192 78.1334 112.022 78.1334Z"
        fill="#E58126" />
    <path
        d="M90.6682 70.077H108.124C108.374 70.077 108.614 70.1756 108.791 70.3511C108.968 70.5267 109.067 70.7648 109.067 71.013V73.166H89.7157V71.013C89.7157 70.8893 89.7404 70.7668 89.7884 70.6526C89.8364 70.5384 89.9067 70.4348 89.9953 70.3478C90.0838 70.2607 90.1889 70.192 90.3044 70.1455C90.4199 70.099 90.5436 70.0757 90.6682 70.077Z"
        fill="#E58126" />
    <path d="M92.3814 70.077H91.671V72.0427H92.3814V70.077Z" fill="#535B65" />
    <path d="M94.4845 70.077H93.774V72.0427H94.4845V70.077Z" fill="#535B65" />
    <path d="M96.5843 70.077H95.8739V72.0427H96.5843V70.077Z" fill="#535B65" />
    <path d="M98.6874 70.077H97.9769V72.0427H98.6874V70.077Z" fill="#535B65" />
    <path d="M100.79 70.077H100.08V72.0427H100.79V70.077Z" fill="#535B65" />
    <path d="M102.89 70.077H102.18V72.0427H102.89V70.077Z" fill="#535B65" />
    <path d="M104.993 70.077H104.283V72.0427H104.993V70.077Z" fill="#535B65" />
    <path d="M107.096 70.077H106.386V72.0427H107.096V70.077Z" fill="#535B65" />
    <circle cx="116" cy="35" r="22.5" fill="white" stroke="#F44336" stroke-width="5" />
    <path fill-rule="evenodd" clip-rule="evenodd"
        d="M105.258 23.4029C106.106 22.5554 107.617 22.6928 108.634 23.7098L127.049 42.124C128.066 43.141 128.203 44.6525 127.356 45.4999C126.508 46.3474 124.997 46.21 123.98 45.193L105.565 26.7788C104.548 25.7618 104.411 24.2504 105.258 23.4029Z"
        fill="#F44336" />
    <path fill-rule="evenodd" clip-rule="evenodd"
        d="M127.355 23.4029C128.203 24.2504 128.066 25.7618 127.049 26.7788L108.634 45.193C107.617 46.21 106.106 46.3474 105.258 45.4999C104.411 44.6525 104.548 43.141 105.565 42.124L123.979 23.7098C124.996 22.6928 126.508 22.5554 127.355 23.4029Z"
        fill="#F44336" />
</svg>