<svg width="20" height="20" viewBox="0 0 20 20" fill="none" xmlns="http://www.w3.org/2000/svg">
<path d="M10 2C8.41775 2 6.87103 2.46919 5.55544 3.34824C4.23985 4.22729 3.21447 5.47672 2.60897 6.93853C2.00347 8.40034 1.84504 10.0089 2.15372 11.5607C2.4624 13.1126 3.22433 14.538 4.34315 15.6569C5.46197 16.7757 6.88743 17.5376 8.43928 17.8463C9.99113 18.155 11.5997 17.9965 13.0615 17.391C14.5233 16.7855 15.7727 15.7602 16.6518 14.4446C17.5308 13.129 18 11.5822 18 10C18 8.94942 17.7931 7.90914 17.391 6.93853C16.989 5.96793 16.3997 5.08601 15.6569 4.34315C14.914 3.60028 14.0321 3.011 13.0615 2.60896C12.0909 2.20693 11.0506 2 10 2ZM10.8 13.2C10.8 13.4122 10.7157 13.6157 10.5657 13.7657C10.4157 13.9157 10.2122 14 10 14C9.78783 14 9.58435 13.9157 9.43432 13.7657C9.28429 13.6157 9.2 13.4122 9.2 13.2V9.2C9.2 8.98782 9.28429 8.78434 9.43432 8.63431C9.58435 8.48428 9.78783 8.4 10 8.4C10.2122 8.4 10.4157 8.48428 10.5657 8.63431C10.7157 8.78434 10.8 8.98782 10.8 9.2V13.2ZM10 7.6C9.84178 7.6 9.6871 7.55308 9.55555 7.46517C9.42399 7.37727 9.32145 7.25233 9.2609 7.10615C9.20035 6.95996 9.18451 6.79911 9.21537 6.64393C9.24624 6.48874 9.32243 6.3462 9.43432 6.23431C9.5462 6.12243 9.68874 6.04624 9.84393 6.01537C9.99911 5.9845 10.16 6.00035 10.3061 6.06089C10.4523 6.12145 10.5773 6.22398 10.6652 6.35554C10.7531 6.4871 10.8 6.64177 10.8 6.8C10.8 7.01217 10.7157 7.21565 10.5657 7.36568C10.4157 7.51571 10.2122 7.6 10 7.6Z" fill="#1565C0"/>
</svg>
