<svg width="20" height="20" viewBox="0 0 20 20" fill="none" xmlns="http://www.w3.org/2000/svg">
<path d="M17.7724 14.238L11.6615 2.98242C11.4997 2.68516 11.2608 2.43703 10.9699 2.26414C10.6789 2.09125 10.3468 2 10.0083 2C9.66989 2 9.33772 2.09125 9.04678 2.26414C8.75584 2.43703 8.5169 2.68516 8.35512 2.98242L2.23796 14.238C2.07785 14.5254 1.99586 14.8497 2.00016 15.1787C2.00447 15.5076 2.09491 15.8297 2.26249 16.1128C2.43006 16.3959 2.66891 16.6301 2.95523 16.7922C3.24154 16.9542 3.56532 17.0383 3.89429 17.0362H16.1161C16.4423 17.0365 16.7631 16.952 17.0469 16.7909C17.3306 16.6299 17.5676 16.3978 17.7347 16.1176C17.9017 15.8373 17.993 15.5184 17.9996 15.1922C18.0062 14.866 17.9279 14.5436 17.7724 14.2568V14.238ZM9.07035 6.20726C9.07035 5.95766 9.16951 5.71829 9.346 5.5418C9.52249 5.36531 9.76186 5.26616 10.0115 5.26616C10.2611 5.26616 10.5004 5.36531 10.6769 5.5418C10.8534 5.71829 10.9526 5.95766 10.9526 6.20726V10.5301C10.9526 10.7797 10.8534 11.019 10.6769 11.1955C10.5004 11.372 10.2611 11.4712 10.0115 11.4712C9.76186 11.4712 9.52249 11.372 9.346 11.1955C9.16951 11.019 9.07035 10.7797 9.07035 10.5301V6.20726ZM10.0366 14.6835C9.82312 14.6835 9.61448 14.6202 9.43702 14.5016C9.25956 14.383 9.12124 14.2145 9.03957 14.0173C8.95789 13.8201 8.93652 13.6031 8.97816 13.3938C9.0198 13.1845 9.12257 12.9922 9.27349 12.8413C9.42441 12.6903 9.61669 12.5876 9.82603 12.5459C10.0354 12.5043 10.2523 12.5257 10.4495 12.6073C10.6467 12.689 10.8152 12.8273 10.9338 13.0048C11.0524 13.1823 11.1157 13.3909 11.1157 13.6043C11.1157 13.8905 11.002 14.165 10.7996 14.3674C10.5972 14.5698 10.3228 14.6835 10.0366 14.6835Z" fill="#FF9500"/>
</svg>
