<svg width="16" height="16" viewBox="0 0 16 16" fill="none" xmlns="http://www.w3.org/2000/svg">
<mask id="mask0_1_49" style="mask-type:alpha" maskUnits="userSpaceOnUse" x="0" y="0" width="16" height="16">
<rect width="16" height="16" fill="#D9D9D9"/>
</mask>
<g mask="url(#mask0_1_49)">
<path d="M3.33333 14.6667C2.96667 14.6667 2.65278 14.5361 2.39167 14.275C2.13056 14.0139 2 13.7 2 13.3333V4C2 3.63333 2.13056 3.31944 2.39167 3.05833C2.65278 2.79722 2.96667 2.66667 3.33333 2.66667H4V2C4 1.81111 4.06389 1.65278 4.19167 1.525C4.31944 1.39722 4.47778 1.33333 4.66667 1.33333C4.85556 1.33333 5.01389 1.39722 5.14167 1.525C5.26944 1.65278 5.33333 1.81111 5.33333 2V2.66667H10.6667V2C10.6667 1.81111 10.7306 1.65278 10.8583 1.525C10.9861 1.39722 11.1444 1.33333 11.3333 1.33333C11.5222 1.33333 11.6806 1.39722 11.8083 1.525C11.9361 1.65278 12 1.81111 12 2V2.66667H12.6667C13.0333 2.66667 13.3472 2.79722 13.6083 3.05833C13.8694 3.31944 14 3.63333 14 4V13.3333C14 13.7 13.8694 14.0139 13.6083 14.275C13.3472 14.5361 13.0333 14.6667 12.6667 14.6667H3.33333ZM3.33333 13.3333H12.6667V6.66667H3.33333V13.3333ZM3.33333 5.33333H12.6667V4H3.33333V5.33333ZM8 9.33333C7.81111 9.33333 7.65278 9.26944 7.525 9.14167C7.39722 9.01389 7.33333 8.85555 7.33333 8.66667C7.33333 8.47778 7.39722 8.31944 7.525 8.19167C7.65278 8.06389 7.81111 8 8 8C8.18889 8 8.34722 8.06389 8.475 8.19167C8.60278 8.31944 8.66667 8.47778 8.66667 8.66667C8.66667 8.85555 8.60278 9.01389 8.475 9.14167C8.34722 9.26944 8.18889 9.33333 8 9.33333ZM5.33333 9.33333C5.14444 9.33333 4.98611 9.26944 4.85833 9.14167C4.73056 9.01389 4.66667 8.85555 4.66667 8.66667C4.66667 8.47778 4.73056 8.31944 4.85833 8.19167C4.98611 8.06389 5.14444 8 5.33333 8C5.52222 8 5.68056 8.06389 5.80833 8.19167C5.93611 8.31944 6 8.47778 6 8.66667C6 8.85555 5.93611 9.01389 5.80833 9.14167C5.68056 9.26944 5.52222 9.33333 5.33333 9.33333ZM10.6667 9.33333C10.4778 9.33333 10.3194 9.26944 10.1917 9.14167C10.0639 9.01389 10 8.85555 10 8.66667C10 8.47778 10.0639 8.31944 10.1917 8.19167C10.3194 8.06389 10.4778 8 10.6667 8C10.8556 8 11.0139 8.06389 11.1417 8.19167C11.2694 8.31944 11.3333 8.47778 11.3333 8.66667C11.3333 8.85555 11.2694 9.01389 11.1417 9.14167C11.0139 9.26944 10.8556 9.33333 10.6667 9.33333ZM8 12C7.81111 12 7.65278 11.9361 7.525 11.8083C7.39722 11.6806 7.33333 11.5222 7.33333 11.3333C7.33333 11.1444 7.39722 10.9861 7.525 10.8583C7.65278 10.7306 7.81111 10.6667 8 10.6667C8.18889 10.6667 8.34722 10.7306 8.475 10.8583C8.60278 10.9861 8.66667 11.1444 8.66667 11.3333C8.66667 11.5222 8.60278 11.6806 8.475 11.8083C8.34722 11.9361 8.18889 12 8 12ZM5.33333 12C5.14444 12 4.98611 11.9361 4.85833 11.8083C4.73056 11.6806 4.66667 11.5222 4.66667 11.3333C4.66667 11.1444 4.73056 10.9861 4.85833 10.8583C4.98611 10.7306 5.14444 10.6667 5.33333 10.6667C5.52222 10.6667 5.68056 10.7306 5.80833 10.8583C5.93611 10.9861 6 11.1444 6 11.3333C6 11.5222 5.93611 11.6806 5.80833 11.8083C5.68056 11.9361 5.52222 12 5.33333 12ZM10.6667 12C10.4778 12 10.3194 11.9361 10.1917 11.8083C10.0639 11.6806 10 11.5222 10 11.3333C10 11.1444 10.0639 10.9861 10.1917 10.8583C10.3194 10.7306 10.4778 10.6667 10.6667 10.6667C10.8556 10.6667 11.0139 10.7306 11.1417 10.8583C11.2694 10.9861 11.3333 11.1444 11.3333 11.3333C11.3333 11.5222 11.2694 11.6806 11.1417 11.8083C11.0139 11.9361 10.8556 12 10.6667 12Z" fill="#424242"/>
</g>
</svg>
