<svg width="16" height="16" viewBox="0 0 16 16" fill="none" xmlns="http://www.w3.org/2000/svg">
<path d="M8.42401 2.66666C9.72604 2.66666 10.9748 3.18389 11.8954 4.10457C12.8161 5.02525 13.3333 6.27395 13.3333 7.57599M8.66667 5.33332C9.19711 5.33332 9.70581 5.54404 10.0809 5.91911C10.456 6.29418 10.6667 6.80289 10.6667 7.33332M4.66667 3.99999L3.01001 4.41399C2.41667 4.56266 1.98734 5.09999 2.10867 5.69932C2.81534 9.17466 6.82534 13.1847 10.3007 13.8907C10.9007 14.0127 11.4373 13.584 11.586 12.9907L11.9993 11.3333L9.66601 9.99999L8.66601 11C7.33267 10.3333 5.66601 8.66666 4.99934 7.33332L6.00001 6.33332L4.66667 3.99999Z" stroke="black" stroke-width="1.33333" stroke-linecap="round" stroke-linejoin="round"/>
</svg>
