<svg width="16" height="16" viewBox="0 0 16 16" fill="none" xmlns="http://www.w3.org/2000/svg">
<g clip-path="url(#clip0_37_14123)">
<path d="M5.32333 13.6702C5.11629 13.4587 5 13.1721 5 12.8733C5 12.5744 5.11629 12.2878 5.32333 12.0763L9.33286 7.98643L5.32333 3.89653C5.12804 3.68275 5.02172 3.4 5.02678 3.10784C5.03183 2.81568 5.14786 2.53693 5.35042 2.33031C5.55298 2.12369 5.82625 2.00533 6.11267 2.00018C6.39909 1.99502 6.67629 2.10347 6.88587 2.30267L11.6767 7.1895C11.8837 7.40095 12 7.68758 12 7.98643C12 8.28528 11.8837 8.57191 11.6767 8.78336L6.88587 13.6702C6.67857 13.8814 6.39757 14 6.1046 14C5.81162 14 5.53062 13.8814 5.32333 13.6702Z" fill="black"/>
</g>
<defs>
<clipPath id="clip0_37_14123">
<rect width="12" height="12" fill="white" transform="translate(2 14) rotate(-90)"/>
</clipPath>
</defs>
</svg>
