<svg width="16" height="16" viewBox="0 0 16 16" fill="none" xmlns="http://www.w3.org/2000/svg">
<g clip-path="url(#clip0_37_14126)">
<path d="M10.6767 2.32981C10.8837 2.54126 11 2.82789 11 3.12674C11 3.42559 10.8837 3.71222 10.6767 3.92367L6.66714 8.01357L10.6767 12.1035C10.872 12.3173 10.9783 12.6 10.9732 12.8922C10.9682 13.1843 10.8521 13.4631 10.6496 13.6697C10.447 13.8763 10.1737 13.9947 9.88733 13.9998C9.60091 14.005 9.32371 13.8965 9.11413 13.6973L4.32333 8.8105C4.11629 8.59905 4 8.31242 4 8.01357C4 7.71472 4.11629 7.42809 4.32333 7.21664L9.11413 2.32981C9.32143 2.11862 9.60243 2 9.8954 2C10.1884 2 10.4694 2.11862 10.6767 2.32981Z" fill="black"/>
</g>
<defs>
<clipPath id="clip0_37_14126">
<rect width="12" height="12" fill="white" transform="matrix(0 1 -1 0 14 2)"/>
</clipPath>
</defs>
</svg>
