<svg width="16" height="16" viewBox="0 0 16 16" fill="none" xmlns="http://www.w3.org/2000/svg">
<g clip-path="url(#clip0_37_14083)">
<path fill-rule="evenodd" clip-rule="evenodd" d="M12.9 3.79999H3.1C2.7134 3.79999 2.4 4.11339 2.4 4.49999V11.5C2.4 11.8866 2.7134 12.2 3.1 12.2H12.9C13.2866 12.2 13.6 11.8866 13.6 11.5V4.49999C13.6 4.11339 13.2866 3.79999 12.9 3.79999ZM3.1 2.39999C1.9402 2.39999 1 3.3402 1 4.49999V11.5C1 12.6598 1.9402 13.6 3.1 13.6H12.9C14.0598 13.6 15 12.6598 15 11.5V4.49999C15 3.3402 14.0598 2.39999 12.9 2.39999H3.1Z" fill="#9E9E9E"/>
<path fill-rule="evenodd" clip-rule="evenodd" d="M6.61712 8.42013L1.93903 4.3268L2.86093 3.27319L7.53903 7.36653C7.80295 7.59745 8.19701 7.59745 8.46093 7.36653L13.139 3.27319L14.0609 4.3268L9.38284 8.42013C8.59108 9.11292 7.40888 9.11292 6.61712 8.42013Z" fill="#9E9E9E"/>
</g>
<defs>
<clipPath id="clip0_37_14083">
<rect width="14" height="11.2" fill="white" transform="translate(1 2.39999)"/>
</clipPath>
</defs>
</svg>
