<svg width="16" height="16" viewBox="0 0 16 16" fill="none" xmlns="http://www.w3.org/2000/svg">
<path d="M8.75 3.75C12.25 4.25 14.25 8 14.25 8C14.25 8 13.75 9.25 12.75 10.25M10.25 11.75C4.25 13.75 1.75 8 1.75 8C1.75 8 2.25 6.25 4.75 4.75" stroke="#424242" stroke-width="1.5" stroke-linecap="round" stroke-linejoin="round"/>
<path d="M8.625 9.083C8.35417 9.2393 8.03459 9.28842 7.72933 9.22067C7.42406 9.15291 7.15527 8.97321 6.976 8.717C6.79647 8.4609 6.71948 8.1468 6.76021 7.83671C6.80093 7.52662 6.95643 7.24306 7.196 7.042L8 8L8.625 9.083Z" fill="#424242" stroke="#424242" stroke-width="1.5" stroke-linecap="round" stroke-linejoin="round"/>
<path d="M3.75 1.75L12.25 14.25" stroke="#424242" stroke-width="1.5" stroke-linecap="round" stroke-linejoin="round"/>
</svg>
