<svg width="49" height="50" viewBox="0 0 49 50" fill="none" xmlns="http://www.w3.org/2000/svg">
    <defs>
        <filter id="filter0_d_288_60380" x="0.557762" y="5.68499" width="43.3374" height="43.3374"
            filterUnits="userSpaceOnUse" color-interpolation-filters="sRGB">
            <feFlood flood-opacity="0" result="BackgroundImageFix" />
            <feColorMatrix in="SourceAlpha" type="matrix" values="0 0 0 0 0 0 0 0 0 0 0 0 0 0 0 0 0 0 127 0"
                result="hardAlpha" />
            <feOffset dy="2.34256" />
            <feGaussianBlur stdDeviation="3.51384" />
            <feComposite in2="hardAlpha" operator="out" />
            <feColorMatrix type="matrix" values="0 0 0 0 0.72549 0 0 0 0 0.764706 0 0 0 0 0.827451 0 0 0 0.5 0" />
            <feBlend mode="normal" in2="BackgroundImageFix" result="effect1_dropShadow_288_60380" />
            <feBlend mode="normal" in="SourceGraphic" in2="effect1_dropShadow_288_60380" result="shape" />
        </filter>
    </defs>
    <rect x="23.5051" y="0.814063" width="28.6964" height="28.6964" rx="4.3923" transform="rotate(30 23.5051 0.814063)"
        fill="white" />
    <rect x="23.5051" y="0.814063" width="28.6964" height="28.6964" rx="4.3923" transform="rotate(30 23.5051 0.814063)"
        stroke="#E3E7ED" stroke-width="0.585641" />
    <mask id="mask0_288_60380" style="mask-type:alpha" maskUnits="userSpaceOnUse" x="19" y="10" width="20" height="21">
        <rect x="26.1846" y="10.8138" width="14.0554" height="14.0554" transform="rotate(30 26.1846 10.8138)"
            fill="#D9D9D9" />
    </mask>
    <g mask="url(#mask0_288_60380)">
        <path
            d="M21.5569 22.3431C21.2779 22.182 21.0965 21.9448 21.0125 21.6315C20.9286 21.3182 20.9671 21.022 21.1282 20.7431L24.642 14.6569C24.8031 14.378 25.0402 14.1965 25.3536 14.1126C25.6669 14.0286 25.9631 14.0672 26.242 14.2282L27.8396 15.1506L28.8689 14.8319C29.0204 14.7842 29.1788 14.7685 29.344 14.785C29.5092 14.8015 29.6636 14.8512 29.8073 14.9342L31.8994 16.142C32.0431 16.225 32.1355 16.3432 32.1766 16.4965C32.2177 16.6498 32.1968 16.7983 32.1138 16.942C32.0308 17.0858 31.9127 17.1781 31.7594 17.2192C31.606 17.2603 31.4575 17.2394 31.3138 17.1564L29.2217 15.9485L27.7104 16.4285L25.6564 15.2426L22.1425 21.3287L30.2574 26.0138L32.6 21.9564C32.6829 21.8127 32.8011 21.7203 32.9544 21.6792C33.1077 21.6381 33.2563 21.6591 33.4 21.742C33.5437 21.825 33.6361 21.9432 33.6771 22.0965C33.7182 22.2498 33.6973 22.3983 33.6143 22.542L31.2718 26.5995C31.1107 26.8784 30.8735 27.0599 30.5602 27.1438C30.2468 27.2278 29.9507 27.1893 29.6718 27.0282L21.5569 22.3431ZM34.3569 18.9133L33.8497 18.6205C33.706 18.5375 33.6136 18.4194 33.5725 18.2661C33.5314 18.1127 33.5524 17.9642 33.6353 17.8205C33.7183 17.6768 33.8365 17.5844 33.9898 17.5433C34.1431 17.5022 34.2916 17.5232 34.4353 17.6062L34.9425 17.899L35.2353 17.3918C35.3183 17.2481 35.4365 17.1557 35.5898 17.1146C35.7431 17.0735 35.8916 17.0945 36.0353 17.1774C36.179 17.2604 36.2714 17.3785 36.3125 17.5319C36.3536 17.6852 36.3327 17.8337 36.2497 17.9774L35.9569 18.4846L36.4641 18.7774C36.6078 18.8604 36.7002 18.9785 36.7412 19.1319C36.7823 19.2852 36.7614 19.4337 36.6784 19.5774C36.5955 19.7211 36.4773 19.8135 36.324 19.8546C36.1706 19.8957 36.0221 19.8748 35.8784 19.7918L35.3712 19.499L35.0784 20.0062C34.9955 20.1499 34.8773 20.2422 34.724 20.2833C34.5706 20.3244 34.4221 20.3035 34.2784 20.2205C34.1347 20.1375 34.0423 20.0194 34.0012 19.8661C33.9602 19.7127 33.9811 19.5642 34.0641 19.4205L34.3569 18.9133ZM26.6392 22.9105C27.2732 23.2765 27.9401 23.3658 28.6401 23.1782C29.3401 22.9906 29.8732 22.5799 30.2392 21.9459C30.6052 21.3119 30.6944 20.6449 30.5069 19.9449C30.3193 19.2449 29.9085 18.7119 29.2746 18.3459C28.6406 17.9799 27.9736 17.8906 27.2736 18.0782C26.5736 18.2658 26.0406 18.6765 25.6746 19.3105C25.3085 19.9445 25.2193 20.6115 25.4069 21.3115C25.5944 22.0115 26.0052 22.5445 26.6392 22.9105ZM27.2248 21.8962C26.8698 21.6912 26.6405 21.3954 26.5369 21.0087C26.4333 20.622 26.484 20.2512 26.6889 19.8962C26.8939 19.5411 27.1897 19.3118 27.5764 19.2082C27.9631 19.1046 28.3339 19.1553 28.6889 19.3603C29.044 19.5652 29.2733 19.8611 29.3769 20.2477C29.4805 20.6344 29.4298 21.0052 29.2248 21.3603C29.0199 21.7153 28.724 21.9446 28.3374 22.0482C27.9507 22.1518 27.5799 22.1011 27.2248 21.8962Z"
            fill="#212121" />
    </g>
    <g filter="url(#filter0_d_288_60380)">
        <rect x="7.58545" y="10.3701" width="29.282" height="29.282" rx="4.68513" fill="white" />
        <rect x="7.87827" y="10.6629" width="28.6964" height="28.6964" rx="4.3923" stroke="#E3E7ED"
            stroke-width="0.585641" />
        <mask id="mask1_288_60380" style="mask-type:alpha" maskUnits="userSpaceOnUse" x="15" y="17" width="15"
            height="16">
            <rect x="15.1987" y="17.9833" width="14.0554" height="14.0554" fill="#D9D9D9" />
        </mask>
        <g mask="url(#mask1_288_60380)">
            <path
                d="M16.9557 30.2818C16.6336 30.2818 16.3579 30.1671 16.1285 29.9377C15.8991 29.7084 15.7844 29.4326 15.7844 29.1105V22.0828C15.7844 21.7607 15.8991 21.485 16.1285 21.2556C16.3579 21.0262 16.6336 20.9115 16.9557 20.9115H18.8005L19.5325 20.1209C19.6399 20.0038 19.7692 19.9111 19.9205 19.8428C20.0718 19.7744 20.2304 19.7403 20.3963 19.7403H22.8121C22.978 19.7403 23.1171 19.7964 23.2294 19.9086C23.3416 20.0209 23.3978 20.16 23.3978 20.3259C23.3978 20.4918 23.3416 20.6309 23.2294 20.7432C23.1171 20.8554 22.978 20.9115 22.8121 20.9115H20.3963L19.3275 22.0828H16.9557V29.1105H26.326V24.4254C26.326 24.2595 26.3821 24.1204 26.4943 24.0081C26.6066 23.8959 26.7457 23.8398 26.9116 23.8398C27.0775 23.8398 27.2166 23.8959 27.3289 24.0081C27.4411 24.1204 27.4972 24.2595 27.4972 24.4254V29.1105C27.4972 29.4326 27.3825 29.7084 27.1532 29.9377C26.9238 30.1671 26.6481 30.2818 26.326 30.2818H16.9557ZM26.326 20.9115H25.7403C25.5744 20.9115 25.4353 20.8554 25.323 20.7432C25.2108 20.6309 25.1547 20.4918 25.1547 20.3259C25.1547 20.16 25.2108 20.0209 25.323 19.9086C25.4353 19.7964 25.5744 19.7403 25.7403 19.7403H26.326V19.1546C26.326 18.9887 26.3821 18.8496 26.4943 18.7374C26.6066 18.6251 26.7457 18.569 26.9116 18.569C27.0775 18.569 27.2166 18.6251 27.3289 18.7374C27.4411 18.8496 27.4972 18.9887 27.4972 19.1546V19.7403H28.0829C28.2488 19.7403 28.3879 19.7964 28.5001 19.9086C28.6124 20.0209 28.6685 20.16 28.6685 20.3259C28.6685 20.4918 28.6124 20.6309 28.5001 20.7432C28.3879 20.8554 28.2488 20.9115 28.0829 20.9115H27.4972V21.4972C27.4972 21.6631 27.4411 21.8022 27.3289 21.9145C27.2166 22.0267 27.0775 22.0828 26.9116 22.0828C26.7457 22.0828 26.6066 22.0267 26.4943 21.9145C26.3821 21.8022 26.326 21.6631 26.326 21.4972V20.9115ZM21.6408 28.2321C22.3729 28.2321 22.9951 27.9758 23.5076 27.4634C24.02 26.951 24.2762 26.3287 24.2762 25.5967C24.2762 24.8646 24.02 24.2424 23.5076 23.7299C22.9951 23.2175 22.3729 22.9613 21.6408 22.9613C20.9088 22.9613 20.2865 23.2175 19.7741 23.7299C19.2617 24.2424 19.0054 24.8646 19.0054 25.5967C19.0054 26.3287 19.2617 26.951 19.7741 27.4634C20.2865 27.9758 20.9088 28.2321 21.6408 28.2321ZM21.6408 27.0608C21.2309 27.0608 20.8844 26.9192 20.6013 26.6362C20.3183 26.3531 20.1767 26.0066 20.1767 25.5967C20.1767 25.1867 20.3183 24.8402 20.6013 24.5572C20.8844 24.2741 21.2309 24.1326 21.6408 24.1326C22.0508 24.1326 22.3973 24.2741 22.6803 24.5572C22.9634 24.8402 23.1049 25.1867 23.1049 25.5967C23.1049 26.0066 22.9634 26.3531 22.6803 26.6362C22.3973 26.9192 22.0508 27.0608 21.6408 27.0608Z"
                fill="#212121" />
        </g>
    </g>
</svg>