<svg width="16" height="16" viewBox="0 0 16 16" fill="none" xmlns="http://www.w3.org/2000/svg">
<path fill-rule="evenodd" clip-rule="evenodd" d="M7.2361 1.89923C8.08314 1.30243 9.09679 0.987901 10.1329 1.00036C11.169 1.01281 12.1748 1.35162 13.0072 1.96861C13.8397 2.58559 14.4564 3.44934 14.7696 4.43699C15.0828 5.42465 15.0765 6.48592 14.7518 7.46983C14.427 8.45375 13.8002 9.3102 12.9606 9.91738C12.121 10.5246 11.1113 10.8515 10.0751 10.8519C9.75034 10.8521 9.42674 10.8203 9.10899 10.757L8.64453 10.6409C8.79756 10.6871 8.95257 10.7259 9.10899 10.757L8.0618 11.8041C7.78633 12.0796 7.41266 12.2345 7.0231 12.2346H6.70157C6.70326 12.2059 6.70411 12.1771 6.70411 12.1481C6.70411 12.1711 6.69499 12.1931 6.67879 12.2093C6.66259 12.2255 6.64063 12.2346 6.61775 12.2346H6.70157C6.68047 12.5927 6.52886 12.9319 6.27376 13.187C6.01808 13.4427 5.67788 13.5944 5.31885 13.6149C5.32045 13.587 5.32126 13.559 5.32126 13.5309C5.32126 13.5538 5.31214 13.5758 5.29594 13.592C5.27974 13.6082 5.25778 13.6173 5.2349 13.6173C5.26298 13.6173 5.29097 13.6165 5.31885 13.6149C5.2983 13.9739 5.14658 14.3141 4.89091 14.5697C4.61537 14.8452 4.24168 15 3.85205 15H2.4692C2.07957 15 1.70588 14.8452 1.43035 14.5697C1.15481 14.2942 1 13.9205 1 13.5309V11.743C1.00008 11.3534 1.15492 10.9796 1.43044 10.7042L5.24301 6.89201C5.27427 7.04828 5.31319 7.20344 5.3598 7.35693L5.24301 6.89201C5.07236 6.03888 5.13022 5.15268 5.41493 4.32454C5.7518 3.3447 6.38907 2.49602 7.2361 1.89923ZM10.1142 2.5558C9.40522 2.54728 8.71163 2.7625 8.13206 3.17085C7.55249 3.5792 7.11646 4.15988 6.88598 4.83028C6.6555 5.50067 6.6423 6.22667 6.84826 6.905C6.93166 7.17969 6.85697 7.47798 6.65397 7.68096L2.55556 11.779V13.4444H3.76824C3.78933 13.0863 3.94095 12.7471 4.19605 12.492C4.45173 12.2363 4.79193 12.0847 5.15095 12.0641C5.17151 11.7051 5.32323 11.3649 5.5789 11.1093C5.85443 10.8338 6.22813 10.679 6.61775 10.679H6.98704L8.31978 9.3464C8.52256 9.14364 8.82045 9.0689 9.09492 9.15193C9.41243 9.24798 9.74239 9.29662 10.0741 9.2963C10.7831 9.29609 11.4746 9.07234 12.0491 8.65689C12.6236 8.24143 13.0524 7.65543 13.2746 6.98225C13.4968 6.30906 13.5011 5.58296 13.2868 4.90722C13.0725 4.23147 12.6505 3.64048 12.081 3.21832C11.5114 2.79616 10.8232 2.56432 10.1142 2.5558ZM9.2971 4.54321C9.2971 4.11366 9.64533 3.76543 10.0749 3.76543C10.6479 3.76543 11.1974 3.99304 11.6026 4.3982C12.0079 4.80336 12.2355 5.3529 12.2355 5.92593C12.2355 6.35548 11.8873 6.7037 11.4577 6.7037C11.0282 6.7037 10.68 6.35548 10.68 5.92593C10.68 5.76551 10.6162 5.61165 10.5028 5.4982C10.3893 5.38474 10.2354 5.32099 10.0749 5.32099C9.64533 5.32099 9.2971 4.97276 9.2971 4.54321Z" fill="#424242"/>
</svg>
