<svg width="16" height="16" viewBox="0 0 16 16" fill="none" xmlns="http://www.w3.org/2000/svg">
<mask id="mask0_136_19082" style="mask-type:alpha" maskUnits="userSpaceOnUse" x="0" y="0" width="16" height="16">
<rect width="16" height="16" fill="#D9D9D9"/>
</mask>
<g mask="url(#mask0_136_19082)">
<path d="M4.00001 14.6667C3.63334 14.6667 3.31945 14.5361 3.05834 14.275C2.79723 14.0139 2.66667 13.7 2.66667 13.3333V6.66667C2.66667 6.3 2.79723 5.98611 3.05834 5.725C3.31945 5.46389 3.63334 5.33333 4.00001 5.33333H4.66667V4C4.66667 3.07778 4.99167 2.29167 5.64167 1.64167C6.29167 0.991667 7.07778 0.666667 8.00001 0.666667C8.92223 0.666667 9.70834 0.991667 10.3583 1.64167C11.0083 2.29167 11.3333 3.07778 11.3333 4V5.33333H12C12.3667 5.33333 12.6806 5.46389 12.9417 5.725C13.2028 5.98611 13.3333 6.3 13.3333 6.66667V13.3333C13.3333 13.7 13.2028 14.0139 12.9417 14.275C12.6806 14.5361 12.3667 14.6667 12 14.6667H4.00001ZM4.00001 13.3333H12V6.66667H4.00001V13.3333ZM8.00001 11.3333C8.36667 11.3333 8.68056 11.2028 8.94167 10.9417C9.20278 10.6806 9.33334 10.3667 9.33334 10C9.33334 9.63333 9.20278 9.31945 8.94167 9.05833C8.68056 8.79722 8.36667 8.66667 8.00001 8.66667C7.63334 8.66667 7.31945 8.79722 7.05834 9.05833C6.79723 9.31945 6.66667 9.63333 6.66667 10C6.66667 10.3667 6.79723 10.6806 7.05834 10.9417C7.31945 11.2028 7.63334 11.3333 8.00001 11.3333ZM6.00001 5.33333H10V4C10 3.44444 9.80556 2.97222 9.41667 2.58333C9.02778 2.19444 8.55556 2 8.00001 2C7.44445 2 6.97223 2.19444 6.58334 2.58333C6.19445 2.97222 6.00001 3.44444 6.00001 4V5.33333Z" fill="#424242"/>
</g>
</svg>
