<svg width="16" height="16" viewBox="0 0 16 16" fill="none" xmlns="http://www.w3.org/2000/svg">
<g clip-path="url(#clip0_1_23)">
<path fill-rule="evenodd" clip-rule="evenodd" d="M12.9 3.8H3.1C2.7134 3.8 2.4 4.1134 2.4 4.5V11.5C2.4 11.8866 2.7134 12.2 3.1 12.2H12.9C13.2866 12.2 13.6 11.8866 13.6 11.5V4.5C13.6 4.1134 13.2866 3.8 12.9 3.8ZM3.1 2.4C1.9402 2.4 1 3.3402 1 4.5V11.5C1 12.6598 1.9402 13.6 3.1 13.6H12.9C14.0598 13.6 15 12.6598 15 11.5V4.5C15 3.3402 14.0598 2.4 12.9 2.4H3.1Z" fill="#424242"/>
<path fill-rule="evenodd" clip-rule="evenodd" d="M6.61714 8.42014L1.93904 4.3268L2.86095 3.2732L7.53904 7.36653C7.80296 7.59746 8.19703 7.59746 8.46095 7.36653L13.139 3.2732L14.0609 4.3268L9.38285 8.42014C8.5911 9.11292 7.40889 9.11292 6.61714 8.42014Z" fill="#424242"/>
</g>
<defs>
<clipPath id="clip0_1_23">
<rect width="14" height="11.2" fill="white" transform="translate(1 2.4)"/>
</clipPath>
</defs>
</svg>
