<svg width="16" height="16" viewBox="0 0 16 16" fill="none" xmlns="http://www.w3.org/2000/svg">
<g clip-path="url(#clip0_1_40)">
<g clip-path="url(#clip1_1_40)">
<path fill-rule="evenodd" clip-rule="evenodd" d="M5.17157 3.75736C4.78105 3.36683 4.14788 3.36683 3.75736 3.75736C3.36683 4.14788 3.36683 4.78105 3.75736 5.17157L6.58579 8L3.75736 10.8284C3.36683 11.219 3.36683 11.8521 3.75736 12.2426C4.14788 12.6332 4.78105 12.6332 5.17157 12.2426L8 9.41421L10.8284 12.2426C11.219 12.6332 11.8521 12.6332 12.2426 12.2426C12.6332 11.8521 12.6332 11.219 12.2426 10.8284L9.41421 8L12.2426 5.17157C12.6332 4.78105 12.6332 4.14788 12.2426 3.75736C11.8521 3.36684 11.219 3.36683 10.8284 3.75736L8 6.58579L5.17157 3.75736Z" fill="#424242"/>
</g>
</g>
<defs>
<clipPath id="clip0_1_40">
<rect width="16" height="16" fill="white"/>
</clipPath>
<clipPath id="clip1_1_40">
<rect width="12" height="12" fill="white" transform="translate(-0.485283 8) rotate(-45)"/>
</clipPath>
</defs>
</svg>
