<svg width="16" height="16" viewBox="0 0 16 16" fill="none" xmlns="http://www.w3.org/2000/svg">
<path d="M12.9598 3.03704C12.3148 2.38879 11.5466 1.87481 10.6998 1.52508C9.85313 1.17535 8.94491 0.996864 8.02814 1.00004C4.18693 1.00004 1.05628 4.11503 1.05628 7.93702C1.05628 9.16202 1.3799 10.352 1.98492 11.402L1 15L4.69347 14.034C5.71357 14.587 6.8603 14.881 8.02814 14.881C11.8693 14.881 15 11.766 15 7.94402C15 6.08903 14.2754 4.34603 12.9598 3.03704ZM8.02814 13.705C6.98693 13.705 5.96683 13.425 5.07337 12.9L4.86231 12.774L2.66734 13.348L3.25126 11.22L3.11055 11.003C2.53208 10.0839 2.22492 9.02149 2.22412 7.93702C2.22412 4.75903 4.82714 2.16904 8.0211 2.16904C9.56884 2.16904 11.0251 2.77104 12.1156 3.86303C12.6555 4.39781 13.0834 5.03389 13.3744 5.73443C13.6655 6.43496 13.8139 7.186 13.8111 7.94402C13.8251 11.122 11.2221 13.705 8.02814 13.705ZM11.208 9.39302C11.0322 9.30902 10.1739 8.88902 10.0191 8.82602C9.85729 8.77002 9.74472 8.74202 9.62512 8.91002C9.50553 9.08502 9.17487 9.47702 9.07638 9.58902C8.97789 9.70802 8.87236 9.72202 8.69648 9.63102C8.5206 9.54702 7.95779 9.35802 7.29648 8.77002C6.77588 8.30802 6.43116 7.74102 6.32563 7.56602C6.22714 7.39102 6.31156 7.30002 6.40301 7.20902C6.4804 7.13202 6.57889 7.00602 6.66332 6.90802C6.74774 6.81002 6.78291 6.73302 6.8392 6.62102C6.89548 6.50202 6.86734 6.40403 6.82513 6.32003C6.78291 6.23603 6.43116 5.38203 6.29045 5.03203C6.14975 4.69603 6.00201 4.73803 5.89648 4.73103H5.55879C5.4392 4.73103 5.25628 4.77303 5.09447 4.94803C4.9397 5.12303 4.48945 5.54303 4.48945 6.39703C4.48945 7.25102 5.11558 8.07702 5.2 8.18902C5.28442 8.30802 6.43116 10.058 8.17588 10.807C8.59095 10.989 8.91457 11.094 9.16784 11.171C9.58291 11.304 9.96281 11.283 10.2653 11.241C10.603 11.192 11.2995 10.821 11.4402 10.415C11.5879 10.009 11.5879 9.66602 11.5387 9.58902C11.4894 9.51202 11.3839 9.47702 11.208 9.39302Z" fill="black"/>
</svg>
