<svg width="24" height="24" viewBox="0 0 24 24" fill="none" xmlns="http://www.w3.org/2000/svg">
<circle cx="14.5" cy="8.5" r="8.5" fill="#FFB900"/>
<mask id="mask0_236_69287" style="mask-type:alpha" maskUnits="userSpaceOnUse" x="0" y="0" width="24" height="24">
<rect width="24" height="24" fill="#D9D9D9"/>
</mask>
<g mask="url(#mask0_236_69287)">
<path d="M4 7H18V5H4V7ZM4 21C3.45 21 2.97917 20.8042 2.5875 20.4125C2.19583 20.0208 2 19.55 2 19V5C2 4.45 2.19583 3.97917 2.5875 3.5875C2.97917 3.19583 3.45 3 4 3H5V2C5 1.71667 5.09583 1.47917 5.2875 1.2875C5.47917 1.09583 5.71667 1 6 1C6.28333 1 6.52083 1.09583 6.7125 1.2875C6.90417 1.47917 7 1.71667 7 2V3H15V2C15 1.71667 15.0958 1.47917 15.2875 1.2875C15.4792 1.09583 15.7167 1 16 1C16.2833 1 16.5208 1.09583 16.7125 1.2875C16.9042 1.47917 17 1.71667 17 2V3H18C18.55 3 19.0208 3.19583 19.4125 3.5875C19.8042 3.97917 20 4.45 20 5V10.675C19.6833 10.525 19.3583 10.4 19.025 10.3C18.6917 10.2 18.35 10.125 18 10.075V9H4V19H10.3C10.4167 19.3667 10.5542 19.7167 10.7125 20.05C10.8708 20.3833 11.0583 20.7 11.275 21H4Z" fill="#212121"/>
<path d="M13.4625 20.5375C14.4375 21.5125 15.6167 22 17 22C18.3833 22 19.5625 21.5125 20.5375 20.5375C21.5125 19.5625 22 18.3833 22 17C22 15.6167 21.5125 14.4375 20.5375 13.4625C19.5625 12.4875 18.3833 12 17 12C15.6167 12 14.4375 12.4875 13.4625 13.4625C12.4875 14.4375 12 15.6167 12 17C12 18.3833 12.4875 19.5625 13.4625 20.5375Z" stroke="#212121" stroke-width="2"/>
<path d="M17.5 14.5V16.8L19.025 18.325C19.125 18.425 19.175 18.5417 19.175 18.675C19.175 18.8083 19.125 18.925 19.025 19.025C18.925 19.125 18.8083 19.175 18.675 19.175C18.5417 19.175 18.425 19.125 18.325 19.025L16.8 17.5C16.7 17.4 16.625 17.2875 16.575 17.1625C16.525 17.0375 16.5 16.9083 16.5 16.775V14.5C16.5 14.3667 16.55 14.25 16.65 14.15C16.75 14.05 16.8667 14 17 14C17.1333 14 17.25 14.05 17.35 14.15C17.45 14.25 17.5 14.3667 17.5 14.5Z" fill="#212121" stroke="#212121" stroke-width="0.5"/>
</g>
</svg>
