<svg width="24" height="24" viewBox="0 0 24 24" fill="none" xmlns="http://www.w3.org/2000/svg">
<circle cx="14.5" cy="9.5" r="8.5" fill="#FFB900"/>
<path fill-rule="evenodd" clip-rule="evenodd" d="M19 16.8122V10.6777C19 9.97761 18.6658 9.32382 18.1094 8.93547L13.1094 5.4456C12.4376 4.9767 11.5624 4.9767 10.8906 5.4456L5.8906 8.93547C5.3342 9.32382 5 9.97761 5 10.6777V16.8122C5 17.9686 5.89543 18.9061 7 18.9061H17C18.1046 18.9061 19 17.9686 19 16.8122ZM4.7812 7.19322C3.6684 7.96992 3 9.2775 3 10.6777V16.8122C3 19.125 4.79086 21 7 21H17C19.2091 21 21 19.125 21 16.8122V10.6777C21 9.2775 20.3316 7.96992 19.2188 7.19322L14.2188 3.70335C12.8752 2.76555 11.1248 2.76555 9.7812 3.70335L4.7812 7.19322Z" fill="#212121"/>
<path fill-rule="evenodd" clip-rule="evenodd" d="M8 16C8 15.4477 8.44772 15 9 15H15C15.5523 15 16 15.4477 16 16C16 16.5523 15.5523 17 15 17H9C8.44772 17 8 16.5523 8 16Z" fill="#212121"/>
</svg>
