<svg width="24" height="24" viewBox="0 0 24 24" fill="none" xmlns="http://www.w3.org/2000/svg">
<circle cx="14.3742" cy="9.62589" r="8.07206" fill="#FFB900"/>
<path d="M10.1636 4.7511H3.93146V10.9832H10.1636V4.7511Z" stroke="#212121" stroke-width="1.8" stroke-linejoin="round"/>
<path d="M13.5829 20H3.77186C2.93173 20 2.12601 19.6663 1.53195 19.0722C0.937894 18.4782 0.604156 17.6724 0.604156 16.8323C0.604156 15.9922 0.937894 15.1865 1.53195 14.5924C2.12601 13.9983 2.93173 13.6646 3.77186 13.6646H13.5829C14.423 13.6646 15.2288 13.9983 15.8228 14.5924C16.4169 15.1865 16.7506 15.9922 16.7506 16.8323C16.7506 17.6724 16.4169 18.4782 15.8228 19.0722C15.2288 19.6663 14.423 20 13.5829 20ZM3.77186 15.1743C3.55412 15.1743 3.33852 15.2172 3.13736 15.3005C2.9362 15.3838 2.75342 15.506 2.59946 15.6599C2.4455 15.8139 2.32337 15.9967 2.24005 16.1978C2.15672 16.399 2.11384 16.6146 2.11384 16.8323C2.11384 17.05 2.15672 17.2657 2.24005 17.4668C2.32337 17.668 2.4455 17.8508 2.59946 18.0047C2.75342 18.1587 2.9362 18.2808 3.13736 18.3641C3.33852 18.4474 3.55412 18.4903 3.77186 18.4903H13.5829C14.0226 18.4903 14.4444 18.3157 14.7553 18.0047C15.0663 17.6938 15.2409 17.272 15.2409 16.8323C15.2409 16.3926 15.0663 15.9709 14.7553 15.6599C14.4444 15.349 14.0226 15.1743 13.5829 15.1743H3.77186Z" fill="#212121"/>
<path d="M16.0615 16.8323H18.8893" stroke="#212121" stroke-width="2" stroke-miterlimit="10"/>
<mask id="mask0_236_69209" style="mask-type:alpha" maskUnits="userSpaceOnUse" x="17" y="10" width="7" height="11">
<path d="M18.8893 11.8301V19.2452H22.6448C22.6448 19.2452 18.8724 16.4643 18.8893 11.8301Z" stroke="#212121" stroke-width="2" stroke-linecap="round" stroke-linejoin="round"/>
</mask>
<g mask="url(#mask0_236_69209)">
<path d="M9 12H24V21H9V12Z" fill="#212121"/>
</g>
<path d="M3.75872 17.7472C4.27024 17.7472 4.68491 17.3325 4.68491 16.821C4.68491 16.3095 4.27024 15.8948 3.75872 15.8948C3.2472 15.8948 2.83253 16.3095 2.83253 16.821C2.83253 17.3325 3.2472 17.7472 3.75872 17.7472Z" fill="#212121" stroke="#212121" stroke-width="0.2"/>
<path d="M7.02969 17.7472C7.54121 17.7472 7.95588 17.3325 7.95588 16.821C7.95588 16.3095 7.54121 15.8948 7.02969 15.8948C6.51816 15.8948 6.10349 16.3095 6.10349 16.821C6.10349 17.3325 6.51816 17.7472 7.02969 17.7472Z" fill="#212121" stroke="#212121" stroke-width="0.2"/>
<path d="M10.1242 17.7472C10.6357 17.7472 11.0504 17.3325 11.0504 16.821C11.0504 16.3095 10.6357 15.8948 10.1242 15.8948C9.61265 15.8948 9.19797 16.3095 9.19797 16.821C9.19797 17.3325 9.61265 17.7472 10.1242 17.7472Z" fill="#212121" stroke="#212121" stroke-width="0.2"/>
<path d="M13.3839 17.7472C13.8954 17.7472 14.3101 17.3325 14.3101 16.821C14.3101 16.3095 13.8954 15.8948 13.3839 15.8948C12.8723 15.8948 12.4577 16.3095 12.4577 16.821C12.4577 17.3325 12.8723 17.7472 13.3839 17.7472Z" fill="#212121" stroke="#212121" stroke-width="0.2"/>
<path d="M13.8993 11.5252C13.6381 11.5252 13.4146 11.4322 13.2286 11.2462C13.0426 11.0603 12.9496 10.8367 12.9496 10.5755V5.82728C12.9496 5.56612 13.0426 5.34256 13.2286 5.15658C13.4146 4.97061 13.6381 4.87762 13.8993 4.87762H14.3741V3.92797C14.3741 3.27112 14.6056 2.71122 15.0686 2.24827C15.5315 1.78531 16.0914 1.55383 16.7483 1.55383C17.4051 1.55383 17.965 1.78531 18.428 2.24827C18.8909 2.71122 19.1224 3.27112 19.1224 3.92797V4.87762H19.5972C19.8584 4.87762 20.0819 4.97061 20.2679 5.15658C20.4539 5.34256 20.5469 5.56612 20.5469 5.82728V10.5755C20.5469 10.8367 20.4539 11.0603 20.2679 11.2462C20.0819 11.4322 19.8584 11.5252 19.5972 11.5252H13.8993ZM14.3741 10.1007H19.1224V6.3021H14.3741V10.1007ZM16.7483 9.15106C17.0094 9.15106 17.233 9.05808 17.419 8.8721C17.6049 8.68613 17.6979 8.46256 17.6979 8.20141C17.6979 7.94025 17.6049 7.71669 17.419 7.53072C17.233 7.34474 17.0094 7.25176 16.7483 7.25176C16.4871 7.25176 16.2635 7.34474 16.0776 7.53072C15.8916 7.71669 15.7986 7.94025 15.7986 8.20141C15.7986 8.46256 15.8916 8.68613 16.0776 8.8721C16.2635 9.05808 16.4871 9.15106 16.7483 9.15106ZM15.3238 4.87762H18.1727V3.92797C18.1727 3.53228 18.0343 3.19594 17.7573 2.91896C17.4803 2.64198 17.144 2.50349 16.7483 2.50349C16.3526 2.50349 16.0162 2.64198 15.7393 2.91896C15.4623 3.19594 15.3238 3.53228 15.3238 3.92797V4.87762Z" fill="#212121"/>
<mask id="mask1_236_69209" style="mask-type:alpha" maskUnits="userSpaceOnUse" x="1" y="9" width="17" height="9">
<path d="M15.3686 10.5213H10.1636V10.9832H3.93335V10.5213H3.76623C3.56362 10.5211 3.36296 10.5607 3.17571 10.6381C2.98845 10.7155 2.81829 10.829 2.67494 10.9722C2.53159 11.1153 2.41786 11.2854 2.34027 11.4725C2.26268 11.6597 2.22275 11.8603 2.22275 12.0629V14.9884C2.65682 14.623 3.20638 14.4234 3.77374 14.4251H13.5848C14.167 14.4271 14.729 14.639 15.1677 15.0218C15.6064 15.4046 15.8924 15.9327 15.9732 16.5093C16.1745 16.4008 16.3425 16.2398 16.4595 16.0434C16.5766 15.847 16.6382 15.6226 16.638 15.394V11.7888C16.638 11.6222 16.6051 11.4572 16.5413 11.3033C16.4775 11.1494 16.384 11.0096 16.2661 10.8919C16.1482 10.7742 16.0082 10.6808 15.8542 10.6172C15.7002 10.5537 15.5352 10.5211 15.3686 10.5213Z" stroke="#212121" stroke-width="1.8" stroke-linecap="round" stroke-linejoin="round"/>
</mask>
<g mask="url(#mask1_236_69209)">
<path fill-rule="evenodd" clip-rule="evenodd" d="M12.3333 9H1V19H9V21H24V12H12.3333V9Z" fill="#212121"/>
</g>
</svg>
