<svg width="24" height="24" viewBox="0 0 24 24" fill="none" xmlns="http://www.w3.org/2000/svg">
<circle cx="14.5" cy="9.5" r="8.5" fill="#FFB900"/>
<mask id="mask0_236_69245" style="mask-type:alpha" maskUnits="userSpaceOnUse" x="0" y="0" width="24" height="24">
<rect width="24" height="24" fill="#D9D9D9"/>
</mask>
<g mask="url(#mask0_236_69245)">
</g>
<g clip-path="url(#clip0_236_69245)">
<path d="M16 8V5H8V8H6V4C6 3.71667 6.09583 3.47917 6.2875 3.2875C6.47917 3.09583 6.71667 3 7 3H17C17.2833 3 17.5208 3.09583 17.7125 3.2875C17.9042 3.47917 18 3.71667 18 4V8H16ZM8 19H16V15H8V19ZM8 21C7.45 21 6.97917 20.8042 6.5875 20.4125C6.19583 20.0208 6 19.55 6 19V17H3C2.71667 17 2.47917 16.9042 2.2875 16.7125C2.09583 16.5208 2 16.2833 2 16V11C2 10.15 2.29167 9.4375 2.875 8.8625C3.45833 8.2875 4.16667 8 5 8H19C19.85 8 20.5625 8.2875 21.1375 8.8625C21.7125 9.4375 22 10.15 22 11V16C22 16.2833 21.9042 16.5208 21.7125 16.7125C21.5208 16.9042 21.2833 17 21 17H18V19C18 19.55 17.8042 20.0208 17.4125 20.4125C17.0208 20.8042 16.55 21 16 21H8ZM20 15V11C20 10.7167 19.9042 10.4792 19.7125 10.2875C19.5208 10.0958 19.2833 10 19 10H5C4.71667 10 4.47917 10.0958 4.2875 10.2875C4.09583 10.4792 4 10.7167 4 11V15H6V13H18V15H20Z" fill="#212121"/>
</g>
<mask id="mask1_236_69245" style="mask-type:alpha" maskUnits="userSpaceOnUse" x="6" y="0" width="12" height="8">
<rect x="6" width="12" height="8" fill="#D9D9D9"/>
</mask>
<g mask="url(#mask1_236_69245)">
<path d="M16 8V5H8V8H6V4C6 3.71667 6.09583 3.47917 6.2875 3.2875C6.47917 3.09583 6.71667 3 7 3H17C17.2833 3 17.5208 3.09583 17.7125 3.2875C17.9042 3.47917 18 3.71667 18 4V8H16ZM18 12.5C18.2833 12.5 18.5208 12.4042 18.7125 12.2125C18.9042 12.0208 19 11.7833 19 11.5C19 11.2167 18.9042 10.9792 18.7125 10.7875C18.5208 10.5958 18.2833 10.5 18 10.5C17.7167 10.5 17.4792 10.5958 17.2875 10.7875C17.0958 10.9792 17 11.2167 17 11.5C17 11.7833 17.0958 12.0208 17.2875 12.2125C17.4792 12.4042 17.7167 12.5 18 12.5ZM8 19H16V15H8V19ZM8 21C7.45 21 6.97917 20.8042 6.5875 20.4125C6.19583 20.0208 6 19.55 6 19V17H3C2.71667 17 2.47917 16.9042 2.2875 16.7125C2.09583 16.5208 2 16.2833 2 16V11C2 10.15 2.29167 9.4375 2.875 8.8625C3.45833 8.2875 4.16667 8 5 8H19C19.85 8 20.5625 8.2875 21.1375 8.8625C21.7125 9.4375 22 10.15 22 11V16C22 16.2833 21.9042 16.5208 21.7125 16.7125C21.5208 16.9042 21.2833 17 21 17H18V19C18 19.55 17.8042 20.0208 17.4125 20.4125C17.0208 20.8042 16.55 21 16 21H8ZM20 15V11C20 10.7167 19.9042 10.4792 19.7125 10.2875C19.5208 10.0958 19.2833 10 19 10H5C4.71667 10 4.47917 10.0958 4.2875 10.2875C4.09583 10.4792 4 10.7167 4 11V15H6V13H18V15H20Z" fill="#212121"/>
</g>
<path d="M6.78955 12.5293C6.6665 12.5293 6.55615 12.5098 6.4585 12.4707C6.36084 12.4307 6.27783 12.3755 6.20947 12.3052C6.14209 12.2349 6.09033 12.1533 6.0542 12.0605C6.01807 11.9668 6 11.8672 6 11.7617V11.7031C6 11.583 6.01709 11.4731 6.05127 11.3735C6.08545 11.2739 6.13428 11.1875 6.19775 11.1143C6.26221 11.041 6.34033 10.9849 6.43213 10.9458C6.52393 10.9058 6.62744 10.8857 6.74268 10.8857C6.85498 10.8857 6.95459 10.9043 7.0415 10.9414C7.12842 10.9785 7.20117 11.0312 7.25977 11.0996C7.31934 11.168 7.36426 11.25 7.39453 11.3457C7.4248 11.4404 7.43994 11.5459 7.43994 11.6621V11.8379H6.18018V11.5566H7.02539V11.5244C7.02539 11.4658 7.01465 11.4136 6.99316 11.3677C6.97266 11.3208 6.94141 11.2837 6.89941 11.2563C6.85742 11.229 6.80371 11.2153 6.73828 11.2153C6.68262 11.2153 6.63477 11.2275 6.59473 11.252C6.55469 11.2764 6.52197 11.3105 6.49658 11.3545C6.47217 11.3984 6.45361 11.4502 6.44092 11.5098C6.4292 11.5684 6.42334 11.6328 6.42334 11.7031V11.7617C6.42334 11.8252 6.43213 11.8838 6.44971 11.9375C6.46826 11.9912 6.49414 12.0376 6.52734 12.0767C6.56152 12.1157 6.60254 12.146 6.65039 12.1675C6.69922 12.189 6.75439 12.1997 6.81592 12.1997C6.89209 12.1997 6.96289 12.1851 7.02832 12.1558C7.09473 12.1255 7.15186 12.0801 7.19971 12.0195L7.40479 12.2422C7.37158 12.29 7.32617 12.3359 7.26855 12.3799C7.21191 12.4238 7.14355 12.46 7.06348 12.4883C6.9834 12.5156 6.89209 12.5293 6.78955 12.5293Z" fill="#212121"/>
<path d="M8.54221 11.4189V11.75H7.71457V11.4189H8.54221Z" fill="#212121"/>
<path d="M9.7807 12.062C9.7807 12.0317 9.77191 12.0044 9.75434 11.98C9.73676 11.9556 9.70404 11.9331 9.65619 11.9126C9.60932 11.8911 9.54145 11.8716 9.45258 11.854C9.3725 11.8364 9.29779 11.8145 9.22846 11.7881C9.1601 11.7607 9.10053 11.728 9.04975 11.6899C8.99994 11.6519 8.96088 11.6069 8.93256 11.5552C8.90424 11.5024 8.89008 11.4424 8.89008 11.375C8.89008 11.3086 8.90424 11.2461 8.93256 11.1875C8.96186 11.1289 9.00336 11.0771 9.05707 11.0322C9.11176 10.9863 9.17816 10.9507 9.25629 10.9253C9.33539 10.8989 9.42426 10.8857 9.52289 10.8857C9.66059 10.8857 9.77875 10.9077 9.87738 10.9517C9.97699 10.9956 10.0532 11.0562 10.1059 11.1333C10.1596 11.2095 10.1865 11.2964 10.1865 11.394H9.76459C9.76459 11.353 9.7558 11.3164 9.73822 11.2842C9.72162 11.251 9.69525 11.2251 9.65912 11.2065C9.62396 11.187 9.57807 11.1772 9.52143 11.1772C9.47455 11.1772 9.43402 11.1855 9.39984 11.2021C9.36566 11.2178 9.3393 11.2393 9.32074 11.2666C9.30316 11.293 9.29437 11.3223 9.29437 11.3545C9.29437 11.3789 9.29926 11.4009 9.30902 11.4204C9.31977 11.439 9.33686 11.4561 9.36029 11.4717C9.38373 11.4873 9.414 11.502 9.45111 11.5156C9.4892 11.5283 9.53607 11.54 9.59174 11.5508C9.706 11.5742 9.80805 11.605 9.89789 11.6431C9.98773 11.6802 10.059 11.731 10.1118 11.7954C10.1645 11.8589 10.1909 11.9424 10.1909 12.0459C10.1909 12.1162 10.1752 12.1807 10.144 12.2393C10.1127 12.2979 10.0678 12.3491 10.0092 12.3931C9.95062 12.436 9.88031 12.4697 9.79828 12.4941C9.71723 12.5176 9.62592 12.5293 9.52436 12.5293C9.37689 12.5293 9.25189 12.5029 9.14936 12.4502C9.04779 12.3975 8.97064 12.3306 8.91791 12.2495C8.86615 12.1675 8.84027 12.0835 8.84027 11.9976H9.24018C9.24213 12.0552 9.25678 12.1016 9.28412 12.1367C9.31244 12.1719 9.34809 12.1973 9.39105 12.2129C9.435 12.2285 9.48236 12.2363 9.53314 12.2363C9.58783 12.2363 9.63324 12.229 9.66937 12.2144C9.70551 12.1987 9.73285 12.1782 9.75141 12.1528C9.77094 12.1265 9.7807 12.0962 9.7807 12.062Z" fill="#212121"/>
<path d="M11.3503 12.1426V11.4365C11.3503 11.3857 11.342 11.3423 11.3254 11.3062C11.3088 11.269 11.2829 11.2402 11.2477 11.2197C11.2135 11.1992 11.1691 11.189 11.1144 11.189C11.0675 11.189 11.027 11.1973 10.9928 11.2139C10.9587 11.2295 10.9323 11.2524 10.9137 11.2827C10.8952 11.312 10.8859 11.3467 10.8859 11.3867H10.464C10.464 11.3193 10.4796 11.2554 10.5109 11.1948C10.5421 11.1343 10.5876 11.0811 10.6471 11.0352C10.7067 10.9883 10.7775 10.9517 10.8595 10.9253C10.9425 10.8989 11.0353 10.8857 11.1379 10.8857C11.2609 10.8857 11.3703 10.9062 11.466 10.9473C11.5617 10.9883 11.6369 11.0498 11.6916 11.1318C11.7472 11.2139 11.7751 11.3164 11.7751 11.4395V12.1177C11.7751 12.2046 11.7804 12.2759 11.7912 12.3315C11.8019 12.3862 11.8175 12.4341 11.838 12.4751V12.5H11.4118C11.3913 12.457 11.3756 12.4033 11.3649 12.3389C11.3551 12.2734 11.3503 12.208 11.3503 12.1426ZM11.4059 11.5347L11.4088 11.7734H11.173C11.1173 11.7734 11.069 11.7798 11.028 11.7925C10.987 11.8052 10.9533 11.8232 10.9269 11.8467C10.9005 11.8691 10.881 11.8955 10.8683 11.9258C10.8566 11.9561 10.8507 11.9893 10.8507 12.0254C10.8507 12.0615 10.859 12.0942 10.8756 12.1235C10.8922 12.1519 10.9162 12.1743 10.9474 12.1909C10.9787 12.2065 11.0153 12.2144 11.0573 12.2144C11.1208 12.2144 11.1759 12.2017 11.2228 12.1763C11.2697 12.1509 11.3058 12.1196 11.3312 12.0825C11.3576 12.0454 11.3713 12.0103 11.3722 11.9771L11.4836 12.1558C11.4679 12.1958 11.4464 12.2373 11.4191 12.2803C11.3927 12.3232 11.359 12.3638 11.318 12.4019C11.277 12.439 11.2277 12.4697 11.1701 12.4941C11.1125 12.5176 11.0441 12.5293 10.965 12.5293C10.8644 12.5293 10.7731 12.5093 10.6911 12.4692C10.61 12.4282 10.5456 12.3721 10.4977 12.3008C10.4508 12.2285 10.4274 12.1465 10.4274 12.0547C10.4274 11.9717 10.443 11.8979 10.4743 11.8335C10.5055 11.769 10.5514 11.7148 10.612 11.6709C10.6735 11.626 10.7502 11.5923 10.842 11.5698C10.9338 11.5464 11.0402 11.5347 11.1613 11.5347H11.4059Z" fill="#212121"/>
<path d="M12.5521 11.2432V12.5H12.1288V10.915H12.5258L12.5521 11.2432ZM12.4935 11.6519H12.3763C12.3763 11.5415 12.3895 11.4399 12.4159 11.3472C12.4432 11.2534 12.4828 11.1724 12.5346 11.104C12.5873 11.0347 12.6522 10.981 12.7294 10.9429C12.8065 10.9048 12.8959 10.8857 12.9974 10.8857C13.0678 10.8857 13.1322 10.8965 13.1908 10.918C13.2494 10.9385 13.2997 10.9712 13.3417 11.0161C13.3846 11.0601 13.4179 11.1177 13.4413 11.189C13.4647 11.2593 13.4764 11.3438 13.4764 11.4424V12.5H13.0546V11.4893C13.0546 11.417 13.0448 11.3613 13.0253 11.3223C13.0057 11.2832 12.9779 11.2559 12.9418 11.2402C12.9066 11.2246 12.8641 11.2168 12.8143 11.2168C12.7596 11.2168 12.7118 11.228 12.6708 11.2505C12.6307 11.2729 12.5975 11.3042 12.5712 11.3442C12.5448 11.3833 12.5253 11.4292 12.5126 11.4819C12.4999 11.5347 12.4935 11.5913 12.4935 11.6519ZM13.4369 11.6035L13.286 11.6226C13.286 11.519 13.2987 11.4229 13.3241 11.334C13.3505 11.2451 13.389 11.167 13.4398 11.0996C13.4916 11.0322 13.5555 10.98 13.6317 10.9429C13.7079 10.9048 13.7958 10.8857 13.8954 10.8857C13.9716 10.8857 14.0409 10.897 14.1034 10.9194C14.1659 10.9409 14.2191 10.9756 14.2631 11.0234C14.308 11.0703 14.3422 11.1318 14.3656 11.208C14.39 11.2842 14.4022 11.3774 14.4022 11.4878V12.5H13.9789V11.4878C13.9789 11.4146 13.9691 11.3589 13.9496 11.3208C13.931 11.2817 13.9037 11.2549 13.8676 11.2402C13.8324 11.2246 13.7904 11.2168 13.7416 11.2168C13.6908 11.2168 13.6464 11.2271 13.6083 11.2476C13.5702 11.2671 13.5385 11.2944 13.5131 11.3296C13.4877 11.3647 13.4686 11.4058 13.4559 11.4526C13.4432 11.4985 13.4369 11.5488 13.4369 11.6035Z" fill="#212121"/>
<path d="M15.6158 12.062C15.6158 12.0317 15.607 12.0044 15.5895 11.98C15.5719 11.9556 15.5392 11.9331 15.4913 11.9126C15.4444 11.8911 15.3766 11.8716 15.2877 11.854C15.2076 11.8364 15.1329 11.8145 15.0636 11.7881C14.9952 11.7607 14.9356 11.728 14.8849 11.6899C14.8351 11.6519 14.796 11.6069 14.7677 11.5552C14.7394 11.5024 14.7252 11.4424 14.7252 11.375C14.7252 11.3086 14.7394 11.2461 14.7677 11.1875C14.797 11.1289 14.8385 11.0771 14.8922 11.0322C14.9469 10.9863 15.0133 10.9507 15.0914 10.9253C15.1705 10.8989 15.2594 10.8857 15.358 10.8857C15.4957 10.8857 15.6139 10.9077 15.7125 10.9517C15.8121 10.9956 15.8883 11.0562 15.941 11.1333C15.9947 11.2095 16.0216 11.2964 16.0216 11.394H15.5997C15.5997 11.353 15.5909 11.3164 15.5733 11.2842C15.5567 11.251 15.5304 11.2251 15.4942 11.2065C15.4591 11.187 15.4132 11.1772 15.3565 11.1772C15.3097 11.1772 15.2691 11.1855 15.235 11.2021C15.2008 11.2178 15.1744 11.2393 15.1559 11.2666C15.1383 11.293 15.1295 11.3223 15.1295 11.3545C15.1295 11.3789 15.1344 11.4009 15.1441 11.4204C15.1549 11.439 15.172 11.4561 15.1954 11.4717C15.2188 11.4873 15.2491 11.502 15.2862 11.5156C15.3243 11.5283 15.3712 11.54 15.4269 11.5508C15.5411 11.5742 15.6432 11.605 15.733 11.6431C15.8229 11.6802 15.8941 11.731 15.9469 11.7954C15.9996 11.8589 16.026 11.9424 16.026 12.0459C16.026 12.1162 16.0104 12.1807 15.9791 12.2393C15.9479 12.2979 15.9029 12.3491 15.8443 12.3931C15.7857 12.436 15.7154 12.4697 15.6334 12.4941C15.5523 12.5176 15.461 12.5293 15.3595 12.5293C15.212 12.5293 15.087 12.5029 14.9845 12.4502C14.8829 12.3975 14.8058 12.3306 14.753 12.2495C14.7013 12.1675 14.6754 12.0835 14.6754 11.9976H15.0753C15.0772 12.0552 15.0919 12.1016 15.1192 12.1367C15.1476 12.1719 15.1832 12.1973 15.2262 12.2129C15.2701 12.2285 15.3175 12.2363 15.3683 12.2363C15.4229 12.2363 15.4684 12.229 15.5045 12.2144C15.5406 12.1987 15.568 12.1782 15.5865 12.1528C15.6061 12.1265 15.6158 12.0962 15.6158 12.062Z" fill="#212121"/>
<path d="M17.1854 12.1426V11.4365C17.1854 11.3857 17.1771 11.3423 17.1605 11.3062C17.1439 11.269 17.118 11.2402 17.0828 11.2197C17.0487 11.1992 17.0042 11.189 16.9495 11.189C16.9027 11.189 16.8621 11.1973 16.8279 11.2139C16.7938 11.2295 16.7674 11.2524 16.7488 11.2827C16.7303 11.312 16.721 11.3467 16.721 11.3867H16.2991C16.2991 11.3193 16.3148 11.2554 16.346 11.1948C16.3773 11.1343 16.4227 11.0811 16.4822 11.0352C16.5418 10.9883 16.6126 10.9517 16.6946 10.9253C16.7777 10.8989 16.8704 10.8857 16.973 10.8857C17.096 10.8857 17.2054 10.9062 17.3011 10.9473C17.3968 10.9883 17.472 11.0498 17.5267 11.1318C17.5823 11.2139 17.6102 11.3164 17.6102 11.4395V12.1177C17.6102 12.2046 17.6155 12.2759 17.6263 12.3315C17.637 12.3862 17.6527 12.4341 17.6732 12.4751V12.5H17.2469C17.2264 12.457 17.2108 12.4033 17.2 12.3389C17.1903 12.2734 17.1854 12.208 17.1854 12.1426ZM17.241 11.5347L17.244 11.7734H17.0081C16.9525 11.7734 16.9041 11.7798 16.8631 11.7925C16.8221 11.8052 16.7884 11.8232 16.762 11.8467C16.7357 11.8691 16.7161 11.8955 16.7034 11.9258C16.6917 11.9561 16.6859 11.9893 16.6859 12.0254C16.6859 12.0615 16.6942 12.0942 16.7108 12.1235C16.7274 12.1519 16.7513 12.1743 16.7825 12.1909C16.8138 12.2065 16.8504 12.2144 16.8924 12.2144C16.9559 12.2144 17.0111 12.2017 17.0579 12.1763C17.1048 12.1509 17.1409 12.1196 17.1663 12.0825C17.1927 12.0454 17.2064 12.0103 17.2073 11.9771L17.3187 12.1558C17.303 12.1958 17.2816 12.2373 17.2542 12.2803C17.2279 12.3232 17.1942 12.3638 17.1531 12.4019C17.1121 12.439 17.0628 12.4697 17.0052 12.4941C16.9476 12.5176 16.8792 12.5293 16.8001 12.5293C16.6995 12.5293 16.6082 12.5093 16.5262 12.4692C16.4451 12.4282 16.3807 12.3721 16.3328 12.3008C16.286 12.2285 16.2625 12.1465 16.2625 12.0547C16.2625 11.9717 16.2781 11.8979 16.3094 11.8335C16.3406 11.769 16.3865 11.7148 16.4471 11.6709C16.5086 11.626 16.5853 11.5923 16.6771 11.5698C16.7689 11.5464 16.8753 11.5347 16.9964 11.5347H17.241Z" fill="#212121"/>
<path d="M18.7417 10.915V11.2139H17.8189V10.915H18.7417ZM18.0474 10.5239H18.4693V12.0225C18.4693 12.0684 18.4751 12.1035 18.4869 12.1279C18.4996 12.1523 18.5181 12.1694 18.5425 12.1792C18.5669 12.188 18.5977 12.1924 18.6348 12.1924C18.6612 12.1924 18.6846 12.1914 18.7051 12.1895C18.7266 12.1865 18.7447 12.1836 18.7593 12.1807L18.7608 12.4912C18.7246 12.5029 18.6856 12.5122 18.6436 12.519C18.6016 12.5259 18.5552 12.5293 18.5044 12.5293C18.4117 12.5293 18.3306 12.5142 18.2613 12.4839C18.1929 12.4526 18.1402 12.4028 18.1031 12.3345C18.066 12.2661 18.0474 12.1763 18.0474 12.0649V10.5239Z" fill="#212121"/>
<defs>
<clipPath id="clip0_236_69245">
<rect width="20" height="18" fill="white" transform="translate(2 3)"/>
</clipPath>
</defs>
</svg>
