<svg width="24" height="24" viewBox="0 0 24 24" fill="none" xmlns="http://www.w3.org/2000/svg">
<circle cx="14.5" cy="9.5" r="8.5" fill="#FFB900"/>
<mask id="mask0_236_69254" style="mask-type:alpha" maskUnits="userSpaceOnUse" x="0" y="0" width="24" height="24">
<rect width="24" height="24" fill="#D9D9D9"/>
</mask>
<g mask="url(#mask0_236_69254)">
</g>
<g clip-path="url(#clip0_236_69254)">
<path d="M16 8V5H8V8H6V4C6 3.71667 6.09583 3.47917 6.2875 3.2875C6.47917 3.09583 6.71667 3 7 3H17C17.2833 3 17.5208 3.09583 17.7125 3.2875C17.9042 3.47917 18 3.71667 18 4V8H16ZM8 19H16V15H8V19ZM8 21C7.45 21 6.97917 20.8042 6.5875 20.4125C6.19583 20.0208 6 19.55 6 19V17H3C2.71667 17 2.47917 16.9042 2.2875 16.7125C2.09583 16.5208 2 16.2833 2 16V11C2 10.15 2.29167 9.4375 2.875 8.8625C3.45833 8.2875 4.16667 8 5 8H19C19.85 8 20.5625 8.2875 21.1375 8.8625C21.7125 9.4375 22 10.15 22 11V16C22 16.2833 21.9042 16.5208 21.7125 16.7125C21.5208 16.9042 21.2833 17 21 17H18V19C18 19.55 17.8042 20.0208 17.4125 20.4125C17.0208 20.8042 16.55 21 16 21H8ZM20 15V11C20 10.7167 19.9042 10.4792 19.7125 10.2875C19.5208 10.0958 19.2833 10 19 10H5C4.71667 10 4.47917 10.0958 4.2875 10.2875C4.09583 10.4792 4 10.7167 4 11V15H6V13H18V15H20Z" fill="#212121"/>
</g>
<mask id="mask1_236_69254" style="mask-type:alpha" maskUnits="userSpaceOnUse" x="6" y="0" width="12" height="8">
<rect x="6" width="12" height="8" fill="#D9D9D9"/>
</mask>
<g mask="url(#mask1_236_69254)">
<path d="M16 8V5H8V8H6V4C6 3.71667 6.09583 3.47917 6.2875 3.2875C6.47917 3.09583 6.71667 3 7 3H17C17.2833 3 17.5208 3.09583 17.7125 3.2875C17.9042 3.47917 18 3.71667 18 4V8H16ZM18 12.5C18.2833 12.5 18.5208 12.4042 18.7125 12.2125C18.9042 12.0208 19 11.7833 19 11.5C19 11.2167 18.9042 10.9792 18.7125 10.7875C18.5208 10.5958 18.2833 10.5 18 10.5C17.7167 10.5 17.4792 10.5958 17.2875 10.7875C17.0958 10.9792 17 11.2167 17 11.5C17 11.7833 17.0958 12.0208 17.2875 12.2125C17.4792 12.4042 17.7167 12.5 18 12.5ZM8 19H16V15H8V19ZM8 21C7.45 21 6.97917 20.8042 6.5875 20.4125C6.19583 20.0208 6 19.55 6 19V17H3C2.71667 17 2.47917 16.9042 2.2875 16.7125C2.09583 16.5208 2 16.2833 2 16V11C2 10.15 2.29167 9.4375 2.875 8.8625C3.45833 8.2875 4.16667 8 5 8H19C19.85 8 20.5625 8.2875 21.1375 8.8625C21.7125 9.4375 22 10.15 22 11V16C22 16.2833 21.9042 16.5208 21.7125 16.7125C21.5208 16.9042 21.2833 17 21 17H18V19C18 19.55 17.8042 20.0208 17.4125 20.4125C17.0208 20.8042 16.55 21 16 21H8ZM20 15V11C20 10.7167 19.9042 10.4792 19.7125 10.2875C19.5208 10.0958 19.2833 10 19 10H5C4.71667 10 4.47917 10.0958 4.2875 10.2875C4.09583 10.4792 4 10.7167 4 11V15H6V13H18V15H20Z" fill="#212121"/>
</g>
<defs>
<clipPath id="clip0_236_69254">
<rect width="20" height="18" fill="white" transform="translate(2 3)"/>
</clipPath>
</defs>
</svg>
