<svg width="24" height="24" viewBox="0 0 24 24" fill="none" xmlns="http://www.w3.org/2000/svg">
<circle cx="14.5" cy="8.5" r="8.5" fill="#FFB900"/>
<mask id="mask0_236_69301" style="mask-type:alpha" maskUnits="userSpaceOnUse" x="0" y="0" width="24" height="24">
<rect width="24" height="24" fill="#D9D9D9"/>
</mask>
<g mask="url(#mask0_236_69301)">
<path fill-rule="evenodd" clip-rule="evenodd" d="M13 19.5H5.49999V18.5C5.49999 18.2708 5.55728 18.0625 5.67187 17.875C5.78645 17.6875 5.93749 17.5417 6.12499 17.4375C7.24999 16.875 8.38541 16.4531 9.53125 16.1719C10.6771 15.8906 11.8333 15.75 13 15.75C13.5912 15.75 14.1798 15.7861 14.7656 15.8583C14.9485 15.8809 15.1311 15.9069 15.3135 15.9365L17.424 13.826C17.3037 13.7941 17.1832 13.7636 17.0625 13.7344C15.7292 13.4115 14.375 13.25 13 13.25C11.625 13.25 10.2708 13.4115 8.9375 13.7344C7.60416 14.0573 6.29166 14.5417 4.99999 15.1875C4.39582 15.5 3.91144 15.9531 3.54686 16.5469C3.18228 17.1406 2.99998 17.7917 2.99998 18.5V19.5C2.99998 20.1875 3.24478 20.776 3.73436 21.2656C4.22395 21.7552 4.81249 22 5.49999 22H12.375L13 19.5Z" fill="#212121"/>
<path d="M13 12C11.625 12 10.4479 11.5104 9.46874 10.5312C8.48957 9.55208 7.99998 8.375 7.99998 7C7.99998 5.625 8.48957 4.44792 9.46874 3.46875C10.4479 2.48958 11.625 2 13 2C14.375 2 15.5521 2.48958 16.5313 3.46875C17.5104 4.44792 18 5.625 18 7C18 8.375 17.5104 9.55208 16.5313 10.5312C15.5521 11.5104 14.375 12 13 12ZM13 9.5C13.6875 9.5 14.276 9.25521 14.7656 8.76562C15.2552 8.27604 15.5 7.6875 15.5 7C15.5 6.3125 15.2552 5.72396 14.7656 5.23438C14.276 4.74479 13.6875 4.5 13 4.5C12.3125 4.5 11.724 4.74479 11.2344 5.23438C10.7448 5.72396 10.5 6.3125 10.5 7C10.5 7.6875 10.7448 8.27604 11.2344 8.76562C11.724 9.25521 12.3125 9.5 13 9.5Z" fill="#212121"/>
<path d="M18.7048 14.263L14.4705 18.6185C14.2517 18.8433 14.1043 19.1278 14.047 19.4361L13.6783 21.4275L15.6585 21.0021C15.9651 20.9362 16.245 20.7815 16.4638 20.5564L20.6981 16.2009C20.8253 16.07 20.9256 15.9153 20.993 15.7457C21.0605 15.5761 21.0939 15.3948 21.0913 15.2123C21.0887 15.0298 21.0502 14.8496 20.978 14.6819C20.9058 14.5143 20.8012 14.3625 20.6704 14.2353C20.5395 14.108 20.3848 14.0078 20.2152 13.9403C20.0456 13.8729 19.8643 13.8395 19.6818 13.8421C19.4993 13.8446 19.3191 13.8831 19.1514 13.9554C18.9838 14.0276 18.832 14.1321 18.7048 14.263Z" stroke="#212121" stroke-width="1.50003" stroke-linecap="round" stroke-linejoin="round"/>
<path d="M17.7031 15.6761L19.3139 17.2413" stroke="#212121" stroke-width="1.50003" stroke-linecap="round" stroke-linejoin="round"/>
</g>
</svg>
