<svg width="24" height="24" viewBox="0 0 24 24" fill="none" xmlns="http://www.w3.org/2000/svg">
<mask id="mask0_295_120072" style="mask-type:alpha" maskUnits="userSpaceOnUse" x="0" y="0" width="24" height="24">
<rect width="24" height="24" fill="#D9D9D9"/>
</mask>
<g mask="url(#mask0_295_120072)">
<path d="M4 20C3.45 20 2.97917 19.8042 2.5875 19.4125C2.19583 19.0208 2 18.55 2 18V6C2 5.45 2.19583 4.97917 2.5875 4.5875C2.97917 4.19583 3.45 4 4 4H9.175C9.44167 4 9.69583 4.05 9.9375 4.15C10.1792 4.25 10.3917 4.39167 10.575 4.575L12 6H20C20.55 6 21.0208 6.19583 21.4125 6.5875C21.8042 6.97917 22 7.45 22 8V18C22 18.55 21.8042 19.0208 21.4125 19.4125C21.0208 19.8042 20.55 20 20 20H4ZM4 18H20V8H11.175L9.175 6H4V18Z" fill="#757575"/>
<path d="M19 17H11V16.45C11 15.7 11.3667 15.1042 12.1 14.6625C12.8333 14.2208 13.8 14 15 14C16.2 14 17.1667 14.2208 17.9 14.6625C18.6333 15.1042 19 15.7 19 16.45V17Z" fill="#757575"/>
<path d="M16.4125 12.4125C16.0208 12.8042 15.55 13 15 13C14.45 13 13.9792 12.8042 13.5875 12.4125C13.1958 12.0208 13 11.55 13 11C13 10.45 13.1958 9.97917 13.5875 9.5875C13.9792 9.19583 14.45 9 15 9C15.55 9 16.0208 9.19583 16.4125 9.5875C16.8042 9.97917 17 10.45 17 11C17 11.55 16.8042 12.0208 16.4125 12.4125Z" fill="#757575"/>
</g>
</svg>
