<svg width="24" height="24" viewBox="0 0 24 24" fill="none" xmlns="http://www.w3.org/2000/svg">
<circle cx="14.5" cy="9.5" r="8.5" fill="#FFB900"/>
<mask id="mask0_236_69274" style="mask-type:alpha" maskUnits="userSpaceOnUse" x="0" y="0" width="24" height="24">
<rect width="24" height="24" fill="#D9D9D9"/>
</mask>
<g mask="url(#mask0_236_69274)">
<path d="M3.2 19.4C2.595 19.4 2.07708 19.1846 1.64625 18.7538C1.21542 18.3229 1 17.805 1 17.2V6.2C1 5.595 1.21542 5.07708 1.64625 4.64625C2.07708 4.21542 2.595 4 3.2 4H17.5C18.105 4 18.6229 4.21542 19.0538 4.64625C19.4846 5.07708 19.7 5.595 19.7 6.2V11.81C19.5167 11.7733 19.3333 11.7458 19.15 11.7275C18.9667 11.7092 18.7833 11.7 18.6 11.7C18.4167 11.7 18.2333 11.7046 18.05 11.7138C17.8667 11.7229 17.6833 11.7458 17.5 11.7825V7.74L10.24 12.8L3.2 7.7675V17.2H12.0825C12.0458 17.3833 12.0229 17.5667 12.0138 17.75C12.0046 17.9333 12 18.1167 12 18.3C12 18.4833 12.0092 18.6667 12.0275 18.85C12.0458 19.0333 12.0733 19.2167 12.11 19.4H3.2ZM4.795 6.2L10.24 10.105L15.85 6.2H4.795Z" fill="#212121"/>
<path d="M17.06 21.16L18.6 22.7L23 18.3L18.6 13.9L17.06 15.44L18.7925 17.2H14.2V19.4H18.7925L17.06 21.16Z" fill="#212121"/>
</g>
</svg>
