<svg width="24" height="24" viewBox="0 0 24 24" fill="none" xmlns="http://www.w3.org/2000/svg">
<circle cx="12.5" cy="9.5" r="8.5" fill="#FFB900"/>
<path d="M16.474 5.40802L18.592 7.52502" stroke="#212121" stroke-width="2" stroke-linecap="round" stroke-linejoin="round"/>
<path d="M17.836 3.54301L12.109 9.27001C11.8131 9.56551 11.6113 9.94199 11.529 10.352L11 13L13.648 12.47C14.058 12.388 14.434 12.187 14.73 11.891L20.457 6.16401C20.6291 5.99191 20.7656 5.7876 20.8588 5.56275C20.9519 5.33789 20.9998 5.09689 20.9998 4.85351C20.9998 4.61013 20.9519 4.36913 20.8588 4.14427C20.7656 3.91942 20.6291 3.71511 20.457 3.54301C20.2849 3.37091 20.0806 3.2344 19.8557 3.14126C19.6309 3.04812 19.3899 3.00018 19.1465 3.00018C18.9031 3.00018 18.6621 3.04812 18.4373 3.14126C18.2124 3.2344 18.0081 3.37091 17.836 3.54301Z" stroke="#212121" stroke-width="2" stroke-linecap="round" stroke-linejoin="round"/>
<path d="M19 15V18C19 18.5304 18.7893 19.0391 18.4142 19.4142C18.0391 19.7893 17.5304 20 17 20H11M4 14V7C4 6.46957 4.21071 5.96086 4.58579 5.58579C4.96086 5.21071 5.46957 5 6 5H9" stroke="#212121" stroke-width="2" stroke-linecap="round" stroke-linejoin="round"/>
<path d="M4.24023 19.2383V20H1.26367V19.3555L2.63477 17.9141C2.75586 17.7754 2.85352 17.6514 2.92773 17.542C3.00195 17.4307 3.05566 17.3301 3.08887 17.2402C3.12402 17.1504 3.1416 17.0693 3.1416 16.9971C3.1416 16.874 3.12305 16.7715 3.08594 16.6895C3.05078 16.6055 2.99805 16.542 2.92773 16.499C2.85938 16.4561 2.77441 16.4346 2.67285 16.4346C2.57129 16.4346 2.48242 16.4639 2.40625 16.5225C2.33008 16.5811 2.27051 16.6611 2.22754 16.7627C2.18652 16.8643 2.16602 16.9785 2.16602 17.1055H1.17578C1.17578 16.8438 1.23926 16.6045 1.36621 16.3877C1.49512 16.1709 1.67383 15.998 1.90234 15.8691C2.13086 15.7383 2.39551 15.6729 2.69629 15.6729C3.01074 15.6729 3.27441 15.7217 3.4873 15.8193C3.7002 15.917 3.86035 16.0586 3.96777 16.2441C4.07715 16.4277 4.13184 16.6494 4.13184 16.9092C4.13184 17.0576 4.1084 17.2002 4.06152 17.3369C4.01465 17.4736 3.94727 17.6094 3.85938 17.7441C3.77148 17.877 3.66406 18.0137 3.53711 18.1543C3.41211 18.2949 3.26953 18.4443 3.10938 18.6025L2.55859 19.2383H4.24023ZM4.82324 19.5371C4.82324 19.3965 4.87402 19.2793 4.97559 19.1855C5.07715 19.0898 5.20801 19.042 5.36816 19.042C5.53027 19.042 5.66113 19.0898 5.76074 19.1855C5.8623 19.2793 5.91309 19.3965 5.91309 19.5371C5.91309 19.6777 5.8623 19.7959 5.76074 19.8916C5.66113 19.9854 5.53027 20.0322 5.36816 20.0322C5.20801 20.0322 5.07715 19.9854 4.97559 19.8916C4.87402 19.7959 4.82324 19.6777 4.82324 19.5371ZM9.52246 17.4775V18.2568C9.52246 18.5635 9.48633 18.8301 9.41406 19.0566C9.34375 19.2832 9.24219 19.4707 9.10938 19.6191C8.97852 19.7676 8.82227 19.8779 8.64062 19.9502C8.45898 20.0225 8.25879 20.0586 8.04004 20.0586C7.86426 20.0586 7.7002 20.0361 7.54785 19.9912C7.39551 19.9443 7.25781 19.874 7.13477 19.7803C7.01367 19.6846 6.90918 19.5654 6.82129 19.4229C6.7334 19.2803 6.66602 19.1123 6.61914 18.9189C6.57227 18.7236 6.54883 18.5029 6.54883 18.2568V17.4775C6.54883 17.1689 6.58398 16.9023 6.6543 16.6777C6.72656 16.4512 6.8291 16.2637 6.96191 16.1152C7.09473 15.9668 7.25195 15.8564 7.43359 15.7842C7.61523 15.7119 7.81543 15.6758 8.03418 15.6758C8.20996 15.6758 8.37305 15.6992 8.52344 15.7461C8.67578 15.791 8.81348 15.8613 8.93652 15.957C9.05957 16.0508 9.16406 16.1689 9.25 16.3115C9.33789 16.4541 9.40527 16.623 9.45215 16.8184C9.49902 17.0117 9.52246 17.2314 9.52246 17.4775ZM8.53516 18.377V17.3516C8.53516 17.2148 8.52734 17.0957 8.51172 16.9941C8.49805 16.8926 8.47656 16.8066 8.44727 16.7363C8.41992 16.666 8.38574 16.6094 8.34473 16.5664C8.30371 16.5215 8.25684 16.4893 8.2041 16.4697C8.15332 16.4482 8.09668 16.4375 8.03418 16.4375C7.95605 16.4375 7.88574 16.4541 7.82324 16.4873C7.7627 16.5186 7.71094 16.5693 7.66797 16.6396C7.625 16.71 7.5918 16.8037 7.56836 16.9209C7.54688 17.0381 7.53613 17.1816 7.53613 17.3516V18.377C7.53613 18.5156 7.54297 18.6367 7.55664 18.7402C7.57227 18.8418 7.59375 18.9287 7.62109 19.001C7.65039 19.0713 7.68555 19.1289 7.72656 19.1738C7.76758 19.2168 7.81445 19.248 7.86719 19.2676C7.91992 19.2871 7.97754 19.2969 8.04004 19.2969C8.11621 19.2969 8.18457 19.2812 8.24512 19.25C8.30566 19.2188 8.35742 19.168 8.40039 19.0977C8.44531 19.0254 8.47852 18.9307 8.5 18.8135C8.52344 18.6943 8.53516 18.5488 8.53516 18.377Z" fill="#212121"/>
</svg>
