<svg width="24" height="24" viewBox="0 0 24 24" fill="none" xmlns="http://www.w3.org/2000/svg">
<circle cx="14" cy="9.5" r="8.5" fill="#FFB900"/>
<path d="M11.4555 7.90002H18.1C19.0941 7.90002 19.9 8.70591 19.9 9.70002V18.1C19.9 19.0941 19.0941 19.9 18.1 19.9H5.69999C4.70588 19.9 3.89999 19.0941 3.89999 18.1V7.90002H7.89999" stroke="#212121" stroke-width="1.8" stroke-linejoin="round"/>
<path d="M15.9 7.90002V4.80002C15.9 4.30297 15.4971 3.90002 15 3.90002H11.6143M3.89999 7.90002V5.70002C3.89999 4.70591 4.70588 3.90002 5.69999 3.90002H9.47142" stroke="#212121" stroke-width="1.8" stroke-linejoin="round"/>
<rect x="16.3444" y="12.9" width="2" height="2" rx="1" fill="#212121"/>
<path d="M7.5 11.2L11.1 4L9.75 9.85H12.9L10.2 14.8L10.65 11.2H7.5Z" fill="#212121"/>
</svg>
