<svg width="24" height="24" viewBox="0 0 24 24" fill="none" xmlns="http://www.w3.org/2000/svg">
    <g clip-path="url(#clip0_236_69200)">
        <circle cx="12.5" cy="9.5" r="8.5" fill="#FFB900" />
        <path fill-rule="evenodd" clip-rule="evenodd"
            d="M16.8098 11.1722C17.1932 10.7917 17.5441 10.4178 17.8625 10.0504C18.2244 9.63297 18.5401 9.22542 18.8098 8.82776L18.8098 17.7347H22.9156C23.4679 17.7347 23.9156 18.1824 23.9156 18.7347C23.9156 19.287 23.4679 19.7347 22.9156 19.7347H17.8098C17.2575 19.7347 16.8098 19.287 16.8098 18.7347V11.1722Z"
            fill="#212121" />
        <path
            d="M3.49101 20.9463C4.80195 20.9463 5.86467 19.8903 5.86467 18.5875C5.86467 17.2848 4.80195 16.2288 3.49101 16.2288C2.18007 16.2288 1.11734 17.2848 1.11734 18.5875C1.11734 19.8903 2.18007 20.9463 3.49101 20.9463Z"
            stroke="#212121" stroke-width="2" stroke-linecap="round" stroke-linejoin="round" />
        <path
            d="M12.8668 20.9463C14.1777 20.9463 15.2405 19.8903 15.2405 18.5875C15.2405 17.2848 14.1777 16.2288 12.8668 16.2288C11.5559 16.2288 10.4931 17.2848 10.4931 18.5875C10.4931 19.8903 11.5559 20.9463 12.8668 20.9463Z"
            stroke="#212121" stroke-width="2" stroke-linecap="round" stroke-linejoin="round" />
        <path d="M14.1835 13.0359H8.86011L6.05853 10.9515H2.10303" stroke="#212121" stroke-width="2"
            stroke-linecap="round" stroke-linejoin="round" />
        <path d="M10.4932 18.5875H5.86469" stroke="#212121" stroke-width="2" stroke-linecap="round"
            stroke-linejoin="round" />
        <path fill-rule="evenodd" clip-rule="evenodd"
            d="M3.24604 4.45471C3.33856 4.36277 3.46538 4.31 3.59891 4.31H7.91033C7.98977 4.31014 8.0678 4.32894 8.13801 4.36456C8.20815 4.40015 8.26822 4.45137 8.31373 4.51356L8.31339 4.5131L9.12162 3.92423L8.31401 4.51395L10.5919 7.64035L12.0234 6.20881L9.92985 3.33536L9.92922 3.3345C9.69728 3.01686 9.39345 2.75883 9.04294 2.581C8.69246 2.40317 8.30497 2.31041 7.91207 2.31H7.91101H3.59891C2.93898 2.31 2.30483 2.57045 1.83628 3.03606C1.36753 3.50187 1.10303 4.135 1.10303 4.7965V16.6776C1.10303 17.2299 1.55074 17.6776 2.10303 17.6776C2.65531 17.6776 3.10303 17.2299 3.10303 16.6776V4.7965C3.10303 4.66951 3.15373 4.54644 3.24604 4.45471ZM14.9234 10.2477C14.6295 10.2297 14.3407 10.1085 14.1161 9.88388L13 8.76777L12.0821 9.68567L13.0918 11.0715L13.092 11.0717C13.1519 11.1539 13.1836 11.252 13.1835 11.3521L13.1835 11.3531V16.4414C13.1835 16.9937 13.6312 17.4414 14.1835 17.4414C14.7358 17.4414 15.1835 16.9937 15.1835 16.4414V11.3542V11.3531H14.1835L15.1835 11.3542C15.1839 10.9681 15.0939 10.5896 14.9234 10.2477ZM7.91033 4.31L7.90995 4.31L7.91101 3.31V4.31H7.91033Z"
            fill="#212121" />
        <path d="M10 10L13 7L15 9L17 7L18 6M18 6L17 5H19V7L18 6Z" stroke="#212121" stroke-width="1.5"
            stroke-linecap="round" stroke-linejoin="round" />
    </g>
    <defs>
        <clipPath id="clip0_236_69200">
            <rect width="24" height="24" fill="white" />
        </clipPath>
    </defs>
</svg>