<svg width="24" height="24" viewBox="0 0 24 24" fill="none" xmlns="http://www.w3.org/2000/svg">
<mask id="mask0_295_120113" style="mask-type:alpha" maskUnits="userSpaceOnUse" x="0" y="0" width="24" height="24">
<rect width="24" height="24" fill="#D9D9D9"/>
</mask>
<g mask="url(#mask0_295_120113)">
<path d="M15 8V5H5V19H15V16C15 15.7167 15.0958 15.4792 15.2875 15.2875C15.4792 15.0958 15.7167 15 16 15C16.2833 15 16.5208 15.0958 16.7125 15.2875C16.9042 15.4792 17 15.7167 17 16V19C17 19.55 16.8042 20.0208 16.4125 20.4125C16.0208 20.8042 15.55 21 15 21H5C4.45 21 3.97917 20.8042 3.5875 20.4125C3.19583 20.0208 3 19.55 3 19V5C3 4.45 3.19583 3.97917 3.5875 3.5875C3.97917 3.19583 4.45 3 5 3H15C15.55 3 16.0208 3.19583 16.4125 3.5875C16.8042 3.97917 17 4.45 17 5V8C17 8.28333 16.9042 8.52083 16.7125 8.7125C16.5208 8.90417 16.2833 9 16 9C15.7167 9 15.4792 8.90417 15.2875 8.7125C15.0958 8.52083 15 8.28333 15 8Z" fill="#757575"/>
<path d="M9 13H20.15L19.3 13.85C19.1 14.05 19.0042 14.2833 19.0125 14.55C19.0208 14.8167 19.1167 15.05 19.3 15.25C19.5 15.45 19.7375 15.5542 20.0125 15.5625C20.2875 15.5708 20.525 15.475 20.725 15.275L23.3 12.7C23.5 12.5 23.6 12.2667 23.6 12C23.6 11.7333 23.5 11.5 23.3 11.3L20.725 8.72501C20.525 8.52501 20.2875 8.42918 20.0125 8.43751C19.7375 8.44585 19.5 8.55001 19.3 8.75001C19.1167 8.95001 19.0208 9.18335 19.0125 9.45001C19.0042 9.71668 19.1 9.95001 19.3 10.15L20.15 11H9C8.71667 11 8.47917 11.0958 8.2875 11.2875C8.09583 11.4792 8 11.7167 8 12C8 12.2833 8.09583 12.5208 8.2875 12.7125C8.47917 12.9042 8.71667 13 9 13Z" fill="#757575"/>
</g>
</svg>
