<svg width="24" height="24" viewBox="0 0 24 24" fill="none" xmlns="http://www.w3.org/2000/svg">
<g clip-path="url(#clip0_236_69200)">
<circle cx="12.5" cy="9.5" r="8.5" fill="#FFB900"/>
<path fill-rule="evenodd" clip-rule="evenodd" d="M16.8098 11.1722C17.1932 10.7917 17.5441 10.4178 17.8625 10.0504C18.2244 9.63297 18.5401 9.22542 18.8098 8.82776L18.8098 17.7347H22.9156C23.4679 17.7347 23.9156 18.1824 23.9156 18.7347C23.9156 19.287 23.4679 19.7347 22.9156 19.7347H17.8098C17.2575 19.7347 16.8098 19.287 16.8098 18.7347V11.1722Z" fill="#212121"/>
<path d="M3.49101 20.9463C4.80195 20.9463 5.86467 19.8903 5.86467 18.5875C5.86467 17.2848 4.80195 16.2288 3.49101 16.2288C2.18007 16.2288 1.11734 17.2848 1.11734 18.5875C1.11734 19.8903 2.18007 20.9463 3.49101 20.9463Z" stroke="#212121" stroke-width="2" stroke-linecap="round" stroke-linejoin="round"/>
<path d="M12.8668 20.9463C14.1777 20.9463 15.2405 19.8903 15.2405 18.5875C15.2405 17.2848 14.1777 16.2288 12.8668 16.2288C11.5559 16.2288 10.4931 17.2848 10.4931 18.5875C10.4931 19.8903 11.5559 20.9463 12.8668 20.9463Z" stroke="#212121" stroke-width="2" stroke-linecap="round" stroke-linejoin="round"/>
<path d="M14.1835 13.0359H8.86011L6.05853 10.9515H2.10303" stroke="#212121" stroke-width="2" stroke-linecap="round" stroke-linejoin="round"/>
<path d="M10.4932 18.5875H5.86469" stroke="#212121" stroke-width="2" stroke-linecap="round" stroke-linejoin="round"/>
<path fill-rule="evenodd" clip-rule="evenodd" d="M14.5 12C14.3687 12 14.2375 11.9763 14.1063 11.9288C13.975 11.8814 13.8578 11.8103 13.7547 11.7154C13.5259 11.5017 13.307 11.29 13.0981 11.0803C13.154 11.1607 13.1836 11.2555 13.1835 11.3521L13.1835 11.3531V16.4414C13.1835 16.9937 13.6312 17.4414 14.1835 17.4414C14.7358 17.4414 15.1835 16.9937 15.1835 16.4414V11.7681C15.096 11.8371 14.9994 11.8906 14.8937 11.9288C14.7625 11.9763 14.6313 12 14.5 12ZM10.3022 3.84636L9.92985 3.33536L9.92922 3.3345C9.69728 3.01686 9.39345 2.75883 9.04294 2.581C8.69246 2.40317 8.30497 2.31041 7.91207 2.31H7.91101H3.59891C2.93898 2.31 2.30483 2.57045 1.83628 3.03606C1.36753 3.50187 1.10303 4.135 1.10303 4.7965V16.6776C1.10303 17.2299 1.55074 17.6776 2.10303 17.6776C2.65531 17.6776 3.10303 17.2299 3.10303 16.6776V4.7965C3.10303 4.66951 3.15373 4.54644 3.24604 4.45471C3.33856 4.36277 3.46538 4.31 3.59891 4.31H7.91033C7.98977 4.31014 8.0678 4.32894 8.13801 4.36456C8.20815 4.40015 8.26822 4.45137 8.31373 4.51356L8.31339 4.5131L9.12162 3.92423L8.31401 4.51395L10.3694 7.33498C10.3244 7.22644 10.2833 7.11888 10.2461 7.01229C10.082 6.54269 10 6.09444 10 5.66753C10 4.99604 10.1007 4.38899 10.3022 3.84636ZM7.91033 4.31L7.90995 4.31L7.91101 3.31V4.31H7.91033Z" fill="#212121"/>
<path d="M14.2697 10.486L14.2702 10.4865C14.3717 10.5787 14.4873 10.6481 14.6164 10.6942C14.7432 10.7395 14.8712 10.7625 15 10.7625C15.1288 10.7625 15.2568 10.7395 15.3836 10.6942C15.5127 10.6481 15.6283 10.5787 15.7298 10.4865L15.7303 10.486C16.2742 9.98398 16.7559 9.49397 17.1752 9.01594C17.5947 8.53769 17.946 8.07299 18.2285 7.62182C18.5108 7.17098 18.7268 6.73521 18.8755 6.31458C19.0245 5.89313 19.1 5.48807 19.1 5.1C19.1 3.82646 18.6893 2.80237 17.8615 2.03899C17.0396 1.28092 16.0844 0.9 15 0.9C13.9156 0.9 12.9604 1.28092 12.1385 2.03899C11.3107 2.80237 10.9 3.82646 10.9 5.1C10.9 5.48807 10.9755 5.89313 11.1245 6.31458C11.2732 6.73521 11.4892 7.17098 11.7715 7.62182C12.054 8.07299 12.4053 8.53769 12.8248 9.01594C13.2441 9.49397 13.7258 9.98398 14.2697 10.486ZM17.1785 7.07706C16.704 7.81286 15.979 8.63349 15 9.53902C14.021 8.63349 13.296 7.81286 12.8215 7.07706C12.3351 6.32272 12.1 5.66475 12.1 5.1C12.1 4.21502 12.3812 3.49775 12.9395 2.93946C13.4993 2.37962 14.184 2.1 15 2.1C15.816 2.1 16.5007 2.37962 17.0605 2.93946C17.6188 3.49775 17.9 4.21502 17.9 5.1C17.9 5.66475 17.6649 6.32272 17.1785 7.07706ZM15 6.1C15.3017 6.1 15.5625 5.9914 15.777 5.77696C15.9914 5.56252 16.1 5.30173 16.1 5C16.1 4.69827 15.9914 4.43748 15.777 4.22304C15.5625 4.0086 15.3017 3.9 15 3.9C14.6983 3.9 14.4375 4.0086 14.223 4.22304C14.0086 4.43748 13.9 4.69827 13.9 5C13.9 5.30173 14.0086 5.56252 14.223 5.77696C14.4375 5.9914 14.6983 6.1 15 6.1Z" fill="#212121" stroke="#212121" stroke-width="0.2"/>
</g>
<defs>
<clipPath id="clip0_236_69200">
<rect width="24" height="24" fill="white"/>
</clipPath>
</defs>
</svg>
