<svg width="24" height="24" viewBox="0 0 24 24" fill="none" xmlns="http://www.w3.org/2000/svg">
<circle cx="14.5" cy="9.5" r="8.5" fill="#FFB900"/>
<path fill-rule="evenodd" clip-rule="evenodd" d="M7 3.5L4.5 1.5L1 3.5V15.5C1 17.7091 2.79086 19.5 5 19.5H13V3.5L10 1.5L7 3.5ZM10 3.9037L6.89258 5.97531L4.31206 3.9109L3 4.66065V15.5C3 16.6046 3.89543 17.5 5 17.5H11V4.57037L10 3.9037Z" fill="#212121"/>
<path fill-rule="evenodd" clip-rule="evenodd" d="M5 9.5C5 8.94772 5.44772 8.5 6 8.5H8C8.55228 8.5 9 8.94772 9 9.5C9 10.0523 8.55228 10.5 8 10.5H6C5.44772 10.5 5 10.0523 5 9.5Z" fill="#212121"/>
<path fill-rule="evenodd" clip-rule="evenodd" d="M5 13.5C5 12.9477 5.44772 12.5 6 12.5H8C8.55228 12.5 9 12.9477 9 13.5C9 14.0523 8.55228 14.5 8 14.5H6C5.44772 14.5 5 14.0523 5 13.5Z" fill="#212121"/>
<path d="M17.9402 18.4839L16.1096 20.3145C15.9688 20.4553 15.9 20.6347 15.9 20.8443C15.9 21.0539 15.9688 21.2332 16.1096 21.374C16.2504 21.5148 16.4297 21.5836 16.6393 21.5836C16.8489 21.5836 17.0283 21.5148 17.1691 21.374L18.9997 19.5434L20.8129 21.3723C20.9521 21.5235 21.1288 21.6 21.3361 21.6C21.5437 21.6 21.7247 21.5233 21.874 21.374C22.0148 21.2332 22.0836 21.0539 22.0836 20.8443C22.0836 20.6347 22.0148 20.4553 21.874 20.3145L20.0434 18.4839L21.8723 16.6707C22.0235 16.5315 22.1 16.3548 22.1 16.1475C22.1 15.9399 22.0233 15.7589 21.874 15.6096C21.7332 15.4688 21.5539 15.4 21.3443 15.4C21.1347 15.4 20.9553 15.4688 20.8145 15.6096L20.8142 15.6099L18.9997 17.4402L17.1691 15.6096C17.0283 15.4688 16.8489 15.4 16.6393 15.4C16.4297 15.4 16.2504 15.4688 16.1096 15.6096C15.9688 15.7504 15.9 15.9297 15.9 16.1393C15.9 16.3489 15.9688 16.5283 16.1096 16.6691L16.1099 16.6694L17.9402 18.4839Z" fill="#212121" stroke="#212121" stroke-width="0.2"/>
<path d="M19 14.5V11.5C19 10.9477 18.5523 10.5 18 10.5H17H12V17.5V18.5H15" stroke="#212121" stroke-width="2" stroke-linecap="round"/>
</svg>
