<svg width="24" height="24" viewBox="0 0 24 24" fill="none" xmlns="http://www.w3.org/2000/svg">
<circle cx="14.5" cy="9.5" r="8.5" fill="#FFB900"/>
<path fill-rule="evenodd" clip-rule="evenodd" d="M13.1873 5.46937C13.1873 5.78426 13.0622 6.08626 12.8396 6.30893C12.6169 6.53159 12.3149 6.65668 12 6.65668C11.6851 6.65668 11.3831 6.53159 11.1604 6.30893C10.9378 6.08626 10.8127 5.78426 10.8127 5.46937C10.8127 5.15447 10.9378 4.85248 11.1604 4.62981C11.3831 4.40715 11.6851 4.28205 12 4.28205C12.3149 4.28205 12.6169 4.40715 12.8396 4.62981C13.0622 4.85248 13.1873 5.15447 13.1873 5.46937ZM14.9089 4.87571C14.7727 4.20471 14.4086 3.60144 13.8785 3.16813C13.3483 2.73482 12.6847 2.49811 12 2.49811C11.3153 2.49811 10.6517 2.73482 10.1215 3.16813C9.59137 3.60144 9.22733 4.20471 9.09108 4.87571H6.06343C5.74853 4.87571 5.44653 5.0008 5.22387 5.22347C5.00121 5.44613 4.87611 5.74813 4.87611 6.06303V20.3108C4.87611 20.6257 5.00121 20.9277 5.22387 21.1504C5.44653 21.373 5.74853 21.4981 6.06343 21.4981H17.9366C18.2515 21.4981 18.5535 21.373 18.7761 21.1504C18.9988 20.9277 19.1239 20.6257 19.1239 20.3108V6.06303C19.1239 5.74813 18.9988 5.44613 18.7761 5.22347C18.5535 5.0008 18.2515 4.87571 17.9366 4.87571H14.9089ZM12 8.43765H9.03171V6.65668H6.65708V19.7171H17.3429V6.65668H14.9683V8.43765H12Z" fill="#212121"/>
<path d="M8.69887 11.0731C8.53187 11.2401 8.43805 11.4666 8.43805 11.7028C8.43805 11.939 8.53187 12.1655 8.69887 12.3325C8.86587 12.4995 9.09236 12.5933 9.32853 12.5933H14.6714C14.9076 12.5933 15.1341 12.4995 15.3011 12.3325C15.4681 12.1655 15.5619 11.939 15.5619 11.7028C15.5619 11.4666 15.4681 11.2401 15.3011 11.0731C15.1341 10.9061 14.9076 10.8123 14.6714 10.8123H9.32853C9.09236 10.8123 8.86587 10.9061 8.69887 11.0731Z" fill="#212121"/>
<path d="M8.69887 14.0414C8.86587 13.8744 9.09236 13.7806 9.32853 13.7806H14.6714C14.9076 13.7806 15.1341 13.8744 15.3011 14.0414C15.4681 14.2084 15.5619 14.4349 15.5619 14.6711C15.5619 14.9073 15.4681 15.1338 15.3011 15.3008C15.1341 15.4678 14.9076 15.5616 14.6714 15.5616H9.32853C9.09236 15.5616 8.86587 15.4678 8.69887 15.3008C8.53187 15.1338 8.43805 14.9073 8.43805 14.6711C8.43805 14.4349 8.53187 14.2084 8.69887 14.0414Z" fill="#212121"/>
</svg>
