<svg width="24" height="24" viewBox="0 0 24 24" fill="none" xmlns="http://www.w3.org/2000/svg">
<circle cx="14.5" cy="9.5" r="8.5" fill="#FFB900"/>
<mask id="mask0_236_69232" style="mask-type:alpha" maskUnits="userSpaceOnUse" x="0" y="0" width="24" height="24">
<rect width="24" height="24" fill="#D9D9D9"/>
</mask>
<g mask="url(#mask0_236_69232)">
<mask id="mask1_236_69232" style="mask-type:alpha" maskUnits="userSpaceOnUse" x="13" y="11" width="12" height="12">
<rect x="13" y="11" width="12" height="12" fill="#D9D9D9"/>
</mask>
<g mask="url(#mask1_236_69232)">
<path d="M17.625 22L17.425 20.4C17.3167 20.3583 17.2146 20.3083 17.1188 20.25C17.0229 20.1917 16.9292 20.1292 16.8375 20.0625L15.35 20.6875L13.975 18.3125L15.2625 17.3375C15.2542 17.2792 15.25 17.2229 15.25 17.1688V16.8313C15.25 16.7771 15.2542 16.7208 15.2625 16.6625L13.975 15.6875L15.35 13.3125L16.8375 13.9375C16.9292 13.8708 17.025 13.8083 17.125 13.75C17.225 13.6917 17.325 13.6417 17.425 13.6L17.625 12H20.375L20.575 13.6C20.6833 13.6417 20.7854 13.6917 20.8813 13.75C20.9771 13.8083 21.0708 13.8708 21.1625 13.9375L22.65 13.3125L24.025 15.6875L22.7375 16.6625C22.7458 16.7208 22.75 16.7771 22.75 16.8313V17.1688C22.75 17.2229 22.7417 17.2792 22.725 17.3375L24.0125 18.3125L22.6375 20.6875L21.1625 20.0625C21.0708 20.1292 20.975 20.1917 20.875 20.25C20.775 20.3083 20.675 20.3583 20.575 20.4L20.375 22H17.625ZM19.025 18.75C19.5083 18.75 19.9208 18.5792 20.2625 18.2375C20.6042 17.8958 20.775 17.4833 20.775 17C20.775 16.5167 20.6042 16.1042 20.2625 15.7625C19.9208 15.4208 19.5083 15.25 19.025 15.25C18.5333 15.25 18.1188 15.4208 17.7813 15.7625C17.4438 16.1042 17.275 16.5167 17.275 17C17.275 17.4833 17.4438 17.8958 17.7813 18.2375C18.1188 18.5792 18.5333 18.75 19.025 18.75ZM19.025 17.75C18.8167 17.75 18.6396 17.6771 18.4938 17.5312C18.3479 17.3854 18.275 17.2083 18.275 17C18.275 16.7917 18.3479 16.6146 18.4938 16.4688C18.6396 16.3229 18.8167 16.25 19.025 16.25C19.2333 16.25 19.4104 16.3229 19.5563 16.4688C19.7021 16.6146 19.775 16.7917 19.775 17C19.775 17.2083 19.7021 17.3854 19.5563 17.5312C19.4104 17.6771 19.2333 17.75 19.025 17.75ZM18.5 21H19.4875L19.6625 19.675C19.9208 19.6083 20.1604 19.5104 20.3813 19.3812C20.6021 19.2521 20.8042 19.0958 20.9875 18.9125L22.225 19.425L22.7125 18.575L21.6375 17.7625C21.6792 17.6458 21.7083 17.5229 21.725 17.3938C21.7417 17.2646 21.75 17.1333 21.75 17C21.75 16.8667 21.7417 16.7354 21.725 16.6063C21.7083 16.4771 21.6792 16.3542 21.6375 16.2375L22.7125 15.425L22.225 14.575L20.9875 15.1C20.8042 14.9083 20.6021 14.7479 20.3813 14.6188C20.1604 14.4896 19.9208 14.3917 19.6625 14.325L19.5 13H18.5125L18.3375 14.325C18.0792 14.3917 17.8396 14.4896 17.6188 14.6188C17.3979 14.7479 17.1958 14.9042 17.0125 15.0875L15.775 14.575L15.2875 15.425L16.3625 16.225C16.3208 16.35 16.2917 16.475 16.275 16.6C16.2583 16.725 16.25 16.8583 16.25 17C16.25 17.1333 16.2583 17.2625 16.275 17.3875C16.2917 17.5125 16.3208 17.6375 16.3625 17.7625L15.2875 18.575L15.775 19.425L17.0125 18.9C17.1958 19.0917 17.3979 19.2521 17.6188 19.3812C17.8396 19.5104 18.0792 19.6083 18.3375 19.675L18.5 21Z" fill="#212121"/>
</g>
<path d="M6 20V17H3C2.71667 17 2.47917 16.9042 2.2875 16.7125C2.09583 16.5208 2 16.2833 2 16V11C2 10.15 2.29167 9.4375 2.875 8.8625C3.45833 8.2875 4.16667 8 5 8H19C19.85 8 20.5625 8.2875 21.1375 8.8625C21.7125 9.4375 22 10.15 22 11V11.75C21.7 11.5833 21.3833 11.4417 21.05 11.325C20.7167 11.2083 20.3667 11.125 20 11.075V11C20 10.7167 19.9042 10.4792 19.7125 10.2875C19.5208 10.0958 19.2833 10 19 10H5C4.71667 10 4.47917 10.0958 4.2875 10.2875C4.09583 10.4792 4 10.7167 4 11V15H6V14C6 13.7167 6.09583 13.4792 6.2875 13.2875C6.47917 13.0958 6.71667 13 7 13H14.5C14.2333 13.2833 13.9917 13.5917 13.775 13.925C13.5583 14.2583 13.3833 14.6167 13.25 15H8V19H13.1C13.2167 19.3667 13.3583 19.7167 13.525 20.05C13.6917 20.3833 13.8917 20.7 14.125 21H7C6.71667 21 6.47917 20.9042 6.2875 20.7125C6.09583 20.5208 6 20.2833 6 20ZM6 8V5C6 4.45 6.19583 3.97917 6.5875 3.5875C6.97917 3.19583 7.45 3 8 3H16C16.55 3 17.0208 3.19583 17.4125 3.5875C17.8042 3.97917 18 4.45 18 5V8H16V5H8V8H6Z" fill="#212121"/>
</g>
</svg>
