<svg width="24" height="24" viewBox="0 0 24 24" fill="none" xmlns="http://www.w3.org/2000/svg">
<circle cx="15.5" cy="8.5" r="8.5" fill="#FFB900"/>
<path d="M21 9V5C21 4.44772 20.5523 4 20 4H5C4.44772 4 4 4.44772 4 5V9" stroke="#212121" stroke-width="2.5"/>
<path d="M9 20H5C4.44772 20 4 19.5523 4 19V9H9M9 20H15M9 20V9M16 9H21V12.5M16 9H9M16 9V13.5" stroke="#212121" stroke-width="2.5" stroke-linecap="round"/>
<path d="M17.5377 16.2496C17.4275 16.1712 17.401 16.0176 17.4874 15.9135C17.9014 15.415 18.4557 15.0493 19.0811 14.8659C19.7851 14.6595 20.538 14.6962 21.2186 14.9699C21.8993 15.2436 22.4679 15.7385 22.8329 16.3749C23.198 17.0112 23.3382 17.7519 23.2309 18.4776C23.1236 19.2033 22.7751 19.8718 22.2416 20.3753C21.708 20.8788 21.0205 21.188 20.2898 21.2531C19.5591 21.3182 18.8278 21.1354 18.2136 20.7341C17.668 20.3777 17.2432 19.8673 16.9912 19.2703C16.9385 19.1456 17.0084 19.0063 17.1366 18.9631C17.2648 18.92 17.4027 18.9896 17.457 19.1135C17.6728 19.6064 18.0282 20.0278 18.4816 20.324C19.0036 20.6651 19.6252 20.8205 20.2463 20.7651C20.8674 20.7098 21.4518 20.447 21.9053 20.019C22.3588 19.591 22.6551 19.0228 22.7462 18.406C22.8374 17.7891 22.7183 17.1595 22.408 16.6186C22.0977 16.0777 21.6144 15.6571 21.0358 15.4244C20.4573 15.1917 19.8173 15.1606 19.2189 15.3361C18.6992 15.4884 18.2371 15.789 17.8879 16.1984C17.8001 16.3013 17.648 16.328 17.5377 16.2496Z" fill="#212121" stroke="#212121" stroke-width="0.8"/>
<path fill-rule="evenodd" clip-rule="evenodd" d="M18.4167 16.95C18.6008 16.95 18.75 16.8008 18.75 16.6167C18.75 16.4326 18.6008 16.2833 18.4167 16.2833H17.4167V15.2833C17.4167 15.0992 17.2674 14.95 17.0833 14.95C16.8992 14.95 16.75 15.0992 16.75 15.2833V16.6167C16.75 16.6627 16.7593 16.7065 16.7762 16.7464C16.7941 16.7888 16.8206 16.8267 16.8534 16.858C16.9132 16.915 16.9942 16.95 17.0833 16.95H18.4167Z" fill="#212121"/>
<line x1="19.7681" y1="16.7956" x2="19.7681" y2="18.8696" stroke="#212121" stroke-width="0.8" stroke-linecap="round"/>
<line x1="19.7681" y1="18.8697" x2="20.7644" y2="18.8697" stroke="#212121" stroke-width="0.8" stroke-linecap="round"/>
</svg>
