<svg width="24" height="24" viewBox="0 0 24 24" fill="none" xmlns="http://www.w3.org/2000/svg">
<circle cx="14.5" cy="9.5" r="8.5" fill="#FFB900"/>
<path d="M11.9 19.9H18.1C19.0941 19.9 19.9 19.0941 19.9 18.1V9.70002C19.9 8.70591 19.0941 7.90002 18.1 7.90002H11.4555H7.89999H3.89999V10.5" stroke="#212121" stroke-width="1.8" stroke-linecap="round" stroke-linejoin="round"/>
<path d="M15.9 7.90002V4.80002C15.9 4.30297 15.4971 3.90002 15 3.90002H11.6143H9.47142H5.69999C4.70588 3.90002 3.89999 4.70591 3.89999 5.70002V7.90002" stroke="#212121" stroke-width="1.8" stroke-linejoin="round"/>
<rect x="16.7944" y="13.35" width="1.1" height="1.1" rx="0.55" stroke="#212121" stroke-width="0.9"/>
<path d="M3.64173 13.4858C3.51373 13.3508 3.51865 13.1366 3.66284 13.019C4.3535 12.4561 5.19835 12.1096 6.09072 12.028C7.09522 11.936 8.10143 12.185 8.9472 12.7346C9.79297 13.2843 10.4291 14.1028 10.7529 15.058C11.0768 16.0133 11.0697 17.0498 10.7326 18.0006C10.3956 18.9513 9.74824 19.7609 8.89495 20.2988C8.04167 20.8368 7.03212 21.0718 6.02898 20.966C5.02584 20.8602 4.08754 20.4197 3.36525 19.7156C2.72361 19.0901 2.28564 18.2888 2.1038 17.4165C2.06584 17.2344 2.197 17.0649 2.38143 17.0407C2.56586 17.0165 2.7335 17.1469 2.77387 17.3284C2.93445 18.0507 3.3022 18.7134 3.83547 19.2332C4.44941 19.8318 5.24697 20.2061 6.09964 20.2961C6.95231 20.386 7.81042 20.1862 8.53571 19.729C9.261 19.2717 9.81123 18.5836 10.0977 17.7755C10.3842 16.9674 10.3903 16.0863 10.115 15.2743C9.8397 14.4623 9.29903 13.7667 8.58012 13.2994C7.86122 12.8322 7.00594 12.6206 6.15211 12.6988C5.41047 12.7666 4.70744 13.0497 4.12778 13.5095C3.98205 13.6251 3.76972 13.6208 3.64173 13.4858Z" fill="#212121" stroke="#212121" stroke-width="0.7"/>
<path fill-rule="evenodd" clip-rule="evenodd" d="M4.64675 14.0553C4.8121 14.0553 4.94614 13.9213 4.94614 13.7559C4.94614 13.5906 4.8121 13.4566 4.64675 13.4566H3.74861V12.5584C3.74861 12.3931 3.61457 12.259 3.44922 12.259C3.28388 12.259 3.14984 12.3931 3.14984 12.5584V13.7559C3.14984 13.7973 3.15822 13.8367 3.17337 13.8725C3.19166 13.9157 3.21983 13.9538 3.25504 13.9838C3.30732 14.0284 3.37513 14.0553 3.44923 14.0553H4.64675Z" fill="#212121"/>
<line x1="6.36813" y1="15.3956" x2="6.36813" y2="17.2696" stroke="#212121" stroke-linecap="round"/>
<line x1="6.36813" y1="17.2697" x2="7.16443" y2="17.2697" stroke="#212121" stroke-linecap="round"/>
</svg>
