<svg width="24" height="24" viewBox="0 0 24 24" fill="none" xmlns="http://www.w3.org/2000/svg">
<circle cx="14.5" cy="9.5" r="8.5" fill="#FFB900"/>
<path fill-rule="evenodd" clip-rule="evenodd" d="M8.15999 4.8L5.75999 2.88L2.39999 4.8V16.32C2.39999 18.4408 4.11922 20.16 6.23999 20.16H12.96C13.4902 20.16 13.92 19.7302 13.92 19.2V4.8L11.04 2.88L8.15999 4.8ZM11.04 5.18756L8.05687 7.17631L5.57957 5.19447L4.31999 5.91422V16.32C4.31999 17.3804 5.17961 18.24 6.23999 18.24H12V5.82756L11.04 5.18756Z" fill="#212121"/>
<path fill-rule="evenodd" clip-rule="evenodd" d="M6.23999 10.56C6.23999 10.0298 6.6698 9.59998 7.19999 9.59998H9.11999C9.65018 9.59998 10.08 10.0298 10.08 10.56C10.08 11.0902 9.65018 11.52 9.11999 11.52H7.19999C6.6698 11.52 6.23999 11.0902 6.23999 10.56Z" fill="#212121"/>
<path fill-rule="evenodd" clip-rule="evenodd" d="M6.23999 14.4C6.23999 13.8698 6.6698 13.44 7.19999 13.44H9.11999C9.65018 13.44 10.08 13.8698 10.08 14.4C10.08 14.9302 9.65018 15.36 9.11999 15.36H7.19999C6.6698 15.36 6.23999 14.9302 6.23999 14.4Z" fill="#212121"/>
<path d="M19.68 12.48V12C19.68 11.7349 19.4651 11.52 19.2 11.52H17.76H12.96V18.24V19.2" stroke="#212121" stroke-width="1.92" stroke-linecap="round"/>
<path d="M15.3963 15.5996C15.2904 15.5244 15.2649 15.3769 15.3479 15.277C15.7453 14.7984 16.2775 14.4473 16.8779 14.2713C17.5537 14.0732 18.2765 14.1083 18.9299 14.3711C19.5833 14.6339 20.1292 15.109 20.4797 15.7199C20.8301 16.3307 20.9647 17.0418 20.8617 17.7385C20.7587 18.4352 20.4241 19.0769 19.9119 19.5603C19.3997 20.0436 18.7397 20.3405 18.0383 20.403C17.3368 20.4655 16.6347 20.29 16.0451 19.9048C15.5213 19.5626 15.1135 19.0726 14.8715 18.4995C14.821 18.3798 14.8881 18.246 15.0112 18.2046C15.1343 18.1632 15.2667 18.23 15.3187 18.3489C15.5259 18.8222 15.8671 19.2267 16.3023 19.5111C16.8035 19.8385 17.4003 19.9877 17.9965 19.9345C18.5928 19.8814 19.1538 19.6291 19.5892 19.2182C20.0245 18.8074 20.3089 18.2619 20.3964 17.6697C20.484 17.0775 20.3696 16.4731 20.0717 15.9539C19.7738 15.4346 19.3098 15.0308 18.7544 14.8074C18.1991 14.5841 17.5846 14.5542 17.0102 14.7226C16.5112 14.8689 16.0677 15.1574 15.7324 15.5504C15.6482 15.6493 15.5021 15.6749 15.3963 15.5996Z" fill="#212121" stroke="#212121" stroke-width="0.768"/>
<path fill-rule="evenodd" clip-rule="evenodd" d="M16.24 16.272C16.4167 16.272 16.56 16.1287 16.56 15.952C16.56 15.7753 16.4167 15.632 16.24 15.632H15.28V14.672C15.28 14.4953 15.1367 14.352 14.96 14.352C14.7833 14.352 14.64 14.4953 14.64 14.672V15.9484C14.64 15.9496 14.64 15.9508 14.64 15.952C14.64 16.1287 14.7833 16.272 14.96 16.272H14.96H16.24Z" fill="#212121"/>
<line x1="17.5374" y1="16.1237" x2="17.5374" y2="18.1149" stroke="#212121" stroke-width="0.768" stroke-linecap="round"/>
<line x1="17.5374" y1="18.1148" x2="18.4938" y2="18.1148" stroke="#212121" stroke-width="0.768" stroke-linecap="round"/>
</svg>
