<svg width="24" height="24" viewBox="0 0 24 24" fill="none" xmlns="http://www.w3.org/2000/svg">
<circle cx="15.5" cy="8.5" r="8.5" fill="#FFB900"/>
<path d="M20 21H5C4.45 21 3.97917 20.8042 3.5875 20.4125C3.19583 20.0208 3 19.55 3 19V5C3 4.45 3.19583 3.97917 3.5875 3.5875C3.97917 3.19583 4.45 3 5 3H20C20.55 3 21.0208 3.19583 21.4125 3.5875C21.8042 3.97917 22 4.45 22 5V19C22 19.55 21.8042 20.0208 21.4125 20.4125C21.0208 20.8042 20.55 21 20 21ZM5 8H20V5H5V8ZM8 10H5V19H8V10ZM17 10V19H20V10H17ZM15 10H10V19H15V10Z" fill="#212121"/>
<mask id="path-3-inside-1_236_69311" fill="white">
<path d="M3 8H22V19C22 20.1046 21.1046 21 20 21H5C3.89543 21 3 20.1046 3 19V8Z"/>
</mask>
<path d="M3 8H22V19C22 20.1046 21.1046 21 20 21H5C3.89543 21 3 20.1046 3 19V8Z" stroke="#212121" stroke-width="5" mask="url(#path-3-inside-1_236_69311)"/>
<mask id="path-4-inside-2_236_69311" fill="white">
<path d="M8 8H17V19C17 20.1046 16.1046 21 15 21H10C8.89543 21 8 20.1046 8 19V8Z"/>
</mask>
<path d="M8 8H17V19C17 20.1046 16.1046 21 15 21H10C8.89543 21 8 20.1046 8 19V8Z" stroke="#212121" stroke-width="5" mask="url(#path-4-inside-2_236_69311)"/>
</svg>
