<svg width="16" height="16" viewBox="0 0 16 16" fill="none" xmlns="http://www.w3.org/2000/svg">
<path d="M13.6702 10.6767C13.4587 10.8837 13.1721 11 12.8733 11C12.5744 11 12.2878 10.8837 12.0763 10.6767L7.98643 6.66714L3.89653 10.6767C3.68275 10.872 3.4 10.9783 3.10784 10.9732C2.81568 10.9682 2.53693 10.8521 2.33031 10.6496C2.12369 10.447 2.00533 10.1737 2.00018 9.88733C1.99502 9.60091 2.10347 9.32371 2.30267 9.11413L7.1895 4.32333C7.40095 4.11629 7.68758 4 7.98643 4C8.28528 4 8.57191 4.11629 8.78336 4.32333L13.6702 9.11413C13.8814 9.32143 14 9.60243 14 9.8954C14 10.1884 13.8814 10.4694 13.6702 10.6767Z" fill="#212121"/>
</svg>
