<svg width="16" height="16" viewBox="0 0 16 16" fill="none" xmlns="http://www.w3.org/2000/svg">
<path d="M2.32981 5.32333C2.54126 5.11629 2.82789 5 3.12674 5C3.42559 5 3.71222 5.11629 3.92367 5.32333L8.01357 9.33286L12.1035 5.32333C12.3173 5.12804 12.6 5.02172 12.8922 5.02678C13.1843 5.03183 13.4631 5.14786 13.6697 5.35042C13.8763 5.55298 13.9947 5.82625 13.9998 6.11267C14.005 6.39909 13.8965 6.67629 13.6973 6.88587L8.8105 11.6767C8.59905 11.8837 8.31242 12 8.01357 12C7.71472 12 7.42809 11.8837 7.21664 11.6767L2.32981 6.88587C2.11862 6.67857 2 6.39757 2 6.1046C2 5.81162 2.11862 5.53062 2.32981 5.32333Z" fill="#212121"/>
</svg>
