<svg width="16" height="16" viewBox="0 0 16 16" fill="none" xmlns="http://www.w3.org/2000/svg">
<g clip-path="url(#clip0_1_62)">
<path d="M11.6767 2.32981C11.8837 2.54126 12 2.82789 12 3.12674C12 3.42559 11.8837 3.71222 11.6767 3.92367L7.66714 8.01357L11.6767 12.1035C11.872 12.3173 11.9783 12.6 11.9732 12.8922C11.9682 13.1843 11.8521 13.4631 11.6496 13.6697C11.447 13.8763 11.1737 13.9947 10.8873 13.9998C10.6009 14.005 10.3237 13.8965 10.1141 13.6973L5.32333 8.8105C5.11629 8.59905 5 8.31242 5 8.01357C5 7.71472 5.11629 7.42809 5.32333 7.21664L10.1141 2.32981C10.3214 2.11862 10.6024 2 10.8954 2C11.1884 2 11.4694 2.11862 11.6767 2.32981Z" fill="#212121"/>
</g>
<defs>
<clipPath id="clip0_1_62">
<rect width="12" height="12" fill="white" transform="translate(2 14) rotate(-90)"/>
</clipPath>
</defs>
</svg>
