<svg width="142" height="142" viewBox="0 0 142 142" fill="none" xmlns="http://www.w3.org/2000/svg">
    <g clip-path="url(#clip0_907_24190)">
        <circle cx="71" cy="71" r="71" fill="#FFF9E1" />
        <rect x="35.6752" y="46.0234" width="60.1169" height="62.0027" rx="10.4228" fill="#BA5E44" />
        <path
            d="M35.6752 56.4462C35.6752 50.6898 40.3417 46.0234 46.098 46.0234H50.3742V108.026H46.098C40.3416 108.026 35.6752 103.36 35.6752 97.6032V56.4462Z"
            fill="#824042" fill-opacity="0.22" />
        <path
            d="M79.5196 84.5981C79.5196 80.2648 83.0325 76.7519 87.3658 76.7519H103.521V82.0215C103.521 87.7778 98.8548 92.4443 93.0984 92.4443H87.3658C83.0325 92.4443 79.5196 88.9314 79.5196 84.5981Z"
            fill="#F8B46E" />
        <circle cx="87.5525" cy="84.5982" r="4.09518" fill="#994D47" />
        <rect x="35.6752" y="46.0234" width="60.1169" height="20.9997" rx="10.4228" fill="#824042" />
        <rect x="38.3711" y="48.4193" width="54.7249" height="15.7292" rx="7.8646" fill="#492930" />
        <path fill-rule="evenodd" clip-rule="evenodd"
            d="M36.3592 65.3623C36.7189 65.3623 37.0106 65.654 37.0106 66.0137C37.0106 66.872 37.2063 67.6828 37.555 68.4054C37.7113 68.7295 37.5753 69.1189 37.2513 69.2752C36.9273 69.4315 36.5378 69.2956 36.3815 68.9715C35.9495 68.0761 35.7077 67.0723 35.7077 66.0137C35.7077 65.654 35.9994 65.3623 36.3592 65.3623ZM95.199 65.3623C95.5588 65.3623 95.8505 65.654 95.8505 66.0137C95.8505 67.0723 95.6087 68.0761 95.1767 68.9715C95.0204 69.2956 94.631 69.4315 94.3069 69.2752C93.9829 69.1189 93.8469 68.7295 94.0033 68.4054C94.3519 67.6828 94.5476 66.872 94.5476 66.0137C94.5476 65.654 94.8393 65.3623 95.199 65.3623ZM39.2611 71.2851C39.4175 70.961 39.8069 70.8251 40.1309 70.9814C40.8536 71.33 41.6643 71.5257 42.5226 71.5257H45.1805C45.5403 71.5257 45.8319 71.8174 45.8319 72.1772C45.8319 72.5369 45.5403 72.8286 45.1805 72.8286H42.5226C41.4641 72.8286 40.4602 72.5868 39.5648 72.1548C39.2408 71.9985 39.1048 71.6091 39.2611 71.2851ZM92.2971 71.2851C92.4534 71.6091 92.3175 71.9985 91.9934 72.1548C91.098 72.5868 90.0941 72.8286 89.0356 72.8286H86.3777C86.0179 72.8286 85.7263 72.5369 85.7263 72.1772C85.7263 71.8174 86.0179 71.5257 86.3777 71.5257H89.0356C89.8939 71.5257 90.7047 71.33 91.4273 70.9814C91.7513 70.8251 92.1408 70.961 92.2971 71.2851ZM48.5159 72.1772C48.5159 71.8174 48.8076 71.5257 49.1673 71.5257H54.4831C54.8429 71.5257 55.1345 71.8174 55.1345 72.1772C55.1345 72.5369 54.8429 72.8286 54.4831 72.8286H49.1673C48.8076 72.8286 48.5159 72.5369 48.5159 72.1772ZM57.8185 72.1772C57.8185 71.8174 58.1102 71.5257 58.4699 71.5257H63.7857C64.1455 71.5257 64.4371 71.8174 64.4371 72.1772C64.4371 72.5369 64.1455 72.8286 63.7857 72.8286H58.4699C58.1102 72.8286 57.8185 72.5369 57.8185 72.1772ZM67.1211 72.1772C67.1211 71.8174 67.4128 71.5257 67.7725 71.5257H73.0883C73.4481 71.5257 73.7397 71.8174 73.7397 72.1772C73.7397 72.5369 73.4481 72.8286 73.0883 72.8286H67.7725C67.4128 72.8286 67.1211 72.5369 67.1211 72.1772ZM76.4237 72.1772C76.4237 71.8174 76.7154 71.5257 77.0751 71.5257H82.3909C82.7507 71.5257 83.0423 71.8174 83.0423 72.1772C83.0423 72.5369 82.7507 72.8286 82.3909 72.8286H77.0751C76.7154 72.8286 76.4237 72.5369 76.4237 72.1772Z"
            fill="#D37F52" />
        <path fill-rule="evenodd" clip-rule="evenodd"
            d="M36.3592 93.6173C36.7189 93.6173 37.0106 93.909 37.0106 94.2687C37.0106 95.127 37.2063 95.9378 37.555 96.6604C37.7113 96.9845 37.5753 97.3739 37.2513 97.5302C36.9273 97.6865 36.5378 97.5506 36.3815 97.2265C35.9495 96.3311 35.7077 95.3273 35.7077 94.2687C35.7077 93.909 35.9994 93.6173 36.3592 93.6173ZM95.199 93.6173C95.5588 93.6173 95.8505 93.909 95.8505 94.2687C95.8505 95.3273 95.6087 96.3311 95.1767 97.2265C95.0204 97.5506 94.631 97.6865 94.3069 97.5302C93.9829 97.3739 93.8469 96.9845 94.0033 96.6604C94.3519 95.9378 94.5476 95.127 94.5476 94.2687C94.5476 93.909 94.8393 93.6173 95.199 93.6173ZM39.2611 99.5401C39.4175 99.216 39.8069 99.0801 40.1309 99.2364C40.8536 99.585 41.6643 99.7807 42.5226 99.7807H45.1805C45.5403 99.7807 45.8319 100.072 45.8319 100.432C45.8319 100.792 45.5403 101.084 45.1805 101.084H42.5226C41.4641 101.084 40.4602 100.842 39.5648 100.41C39.2408 100.254 39.1048 99.8641 39.2611 99.5401ZM92.2971 99.5401C92.4534 99.8641 92.3175 100.254 91.9934 100.41C91.098 100.842 90.0941 101.084 89.0356 101.084H86.3777C86.0179 101.084 85.7263 100.792 85.7263 100.432C85.7263 100.072 86.0179 99.7807 86.3777 99.7807H89.0356C89.8939 99.7807 90.7047 99.585 91.4273 99.2364C91.7513 99.0801 92.1408 99.216 92.2971 99.5401ZM48.5159 100.432C48.5159 100.072 48.8076 99.7807 49.1673 99.7807H54.4831C54.8429 99.7807 55.1345 100.072 55.1345 100.432C55.1345 100.792 54.8429 101.084 54.4831 101.084H49.1673C48.8076 101.084 48.5159 100.792 48.5159 100.432ZM57.8185 100.432C57.8185 100.072 58.1102 99.7807 58.4699 99.7807H63.7857C64.1455 99.7807 64.4371 100.072 64.4371 100.432C64.4371 100.792 64.1455 101.084 63.7857 101.084H58.4699C58.1102 101.084 57.8185 100.792 57.8185 100.432ZM67.1211 100.432C67.1211 100.072 67.4128 99.7807 67.7725 99.7807H73.0883C73.4481 99.7807 73.7397 100.072 73.7397 100.432C73.7397 100.792 73.4481 101.084 73.0883 101.084H67.7725C67.4128 101.084 67.1211 100.792 67.1211 100.432ZM76.4237 100.432C76.4237 100.072 76.7154 99.7807 77.0751 99.7807H82.3909C82.7507 99.7807 83.0423 100.072 83.0423 100.432C83.0423 100.792 82.7507 101.084 82.3909 101.084H77.0751C76.7154 101.084 76.4237 100.792 76.4237 100.432Z"
            fill="#D37F52" />
        <path d="M95.7921 70.1102H99.6126C101.771 70.1102 103.521 71.8602 103.521 74.0188V76.7521H95.7921V70.1102Z"
            fill="#F8B46E" />
        <path
            d="M95.7921 72.1772H98.1488C99.4121 72.1772 100.436 73.2014 100.436 74.4646C100.436 75.7279 99.4121 76.752 98.1488 76.752H95.7921V72.1772Z"
            fill="#994D47" />
        <path
            d="M59.3816 37.8825C59.3816 35.7239 61.1315 33.9739 63.2902 33.9739H86.0012C88.1599 33.9739 89.9098 35.7239 89.9098 37.8825V60.2399C89.9098 62.3985 88.1599 64.1485 86.0012 64.1485H59.3816V37.8825Z"
            fill="#5C9937" />
        <path
            d="M62.7115 39.1475C62.7115 38.428 63.2948 37.8447 64.0143 37.8447H85.2771C85.9967 37.8447 86.58 38.428 86.58 39.1475V64.1484H62.7115V39.1475Z"
            fill="#92BE30" />
        <path
            d="M78.6015 64.1484C78.6015 63.629 78.4991 63.1146 78.3003 62.6347C78.1016 62.1547 77.8102 61.7187 77.4429 61.3513C77.0755 60.984 76.6395 60.6926 76.1595 60.4939C75.6796 60.2951 75.1652 60.1927 74.6458 60.1927C74.1263 60.1927 73.6119 60.2951 73.132 60.4939C72.6521 60.6927 72.216 60.984 71.8487 61.3513C71.4814 61.7187 71.19 62.1547 70.9912 62.6347C70.7924 63.1146 70.6901 63.629 70.6901 64.1484L74.6458 64.1484H78.6015Z"
            fill="#5C9937" />
        <circle cx="85.2755" cy="40.7339" r="3.95569" fill="#5C9937" />
        <circle cx="63.5723" cy="40.215" r="3.95569" fill="#5C9937" />
        <path
            d="M45.5255 49.9319C45.5255 47.7733 47.2754 46.0234 49.434 46.0234H72.8454C75.004 46.0234 76.7539 47.7733 76.7539 49.9319V64.1484H45.5255V49.9319Z"
            fill="black" fill-opacity="0.2" />
        <path
            d="M43.181 44.4041C43.181 42.2455 44.931 40.4955 47.0896 40.4955H69.8007C71.9593 40.4955 73.7092 42.2455 73.7092 44.4041V64.1485H44.4839C43.7643 64.1485 43.181 63.5652 43.181 62.8457V44.4041Z"
            fill="#F88029" />
        <path
            d="M46.5109 45.6691C46.5109 44.9496 47.0942 44.3663 47.8138 44.3663H69.0766C69.7961 44.3663 70.3794 44.9496 70.3794 45.6691V64.1486H46.5109V45.6691Z"
            fill="#FFB63B" />
        <circle cx="69.075" cy="47.2556" r="3.95569" fill="#F88029" />
        <circle cx="47.3717" cy="46.7366" r="3.95569" fill="#F88029" />
        <g clip-path="url(#clip1_907_24190)">
            <circle cx="123.127" cy="123.127" r="18.8734" fill="#FFA600" />
            <line x1="123.276" y1="126.422" x2="123.276" y2="122.977" stroke="white" stroke-width="1.79747"
                stroke-linecap="round" />
            <rect x="122.078" y="118.932" width="2.09705" height="2.09705" rx="1.04852" fill="white" />
            <circle cx="123.127" cy="123.127" r="7.48945" stroke="white" stroke-width="1.79747" />
        </g>
    </g>
    <defs>
        <clipPath id="clip0_907_24190">
            <rect width="142" height="142" fill="white" />
        </clipPath>
        <clipPath id="clip1_907_24190">
            <rect width="37.7468" height="37.7468" fill="white" transform="translate(104.253 104.253)" />
        </clipPath>
    </defs>
</svg>