<svg width="40" height="40" viewBox="0 0 40 40" fill="none" xmlns="http://www.w3.org/2000/svg">
<rect width="40" height="40" rx="20" fill="white" fill-opacity="0.04"/>
<rect x="8.04968" y="11.2013" width="21.1779" height="21.8422" rx="3.67174" fill="#BA5E44"/>
<path d="M8.04968 14.873C8.04968 12.8452 9.69358 11.2013 11.7214 11.2013H13.2278V33.0435H11.7214C9.69358 33.0435 8.04968 31.3996 8.04968 29.3717V14.873Z" fill="#824042" fill-opacity="0.22"/>
<path d="M23.4951 24.7904C23.4951 23.2638 24.7326 22.0263 26.2592 22.0263H31.9504V23.8827C31.9504 25.9105 30.3065 27.5544 28.2786 27.5544H26.2592C24.7326 27.5544 23.4951 26.3169 23.4951 24.7904Z" fill="#F8B46E"/>
<circle cx="26.3249" cy="24.7903" r="1.44264" fill="#994D47"/>
<rect x="8.04968" y="11.2013" width="21.1779" height="7.39775" rx="3.67174" fill="#824042"/>
<rect x="8.99942" y="12.0453" width="19.2784" height="5.54106" rx="2.77053" fill="#492930"/>
<path d="M29.0187 18.2434V18.2434C29.0187 19.4426 28.0466 20.4147 26.8474 20.4147H10.4619C9.26273 20.4147 8.29063 19.4426 8.29063 18.2434V18.2434" stroke="#D37F52" stroke-width="0.229484" stroke-linecap="round" stroke-linejoin="round" stroke-dasharray="1.84 1.38"/>
<path d="M29.0187 28.1971V28.1971C29.0187 29.3962 28.0466 30.3683 26.8474 30.3683H10.4619C9.26273 30.3683 8.29063 29.3962 8.29063 28.1971V28.1971" stroke="#D37F52" stroke-width="0.229484" stroke-linecap="round" stroke-linejoin="round" stroke-dasharray="1.84 1.38"/>
<path d="M29.2276 19.6865H30.5735C31.3339 19.6865 31.9504 20.303 31.9504 21.0634V22.0263H29.2276V19.6865Z" fill="#F8B46E"/>
<path d="M29.2276 20.4147H30.0578C30.5028 20.4147 30.8636 20.7754 30.8636 21.2205C30.8636 21.6655 30.5028 22.0263 30.0578 22.0263H29.2276V20.4147Z" fill="#994D47"/>
<path d="M16.4009 8.33342C16.4009 7.57298 17.0174 6.95651 17.7778 6.95651H25.7785C26.5389 6.95651 27.1554 7.57297 27.1554 8.33342V16.2094C27.1554 16.9699 26.5389 17.5863 25.7785 17.5863H16.4009V8.33342Z" fill="#5C9937"/>
<path d="M17.574 8.77907C17.574 8.52559 17.7795 8.3201 18.033 8.3201H25.5234C25.7769 8.3201 25.9824 8.52559 25.9824 8.77907V17.5863H17.574V8.77907Z" fill="#92BE30"/>
<path d="M23.1717 17.5863C23.1717 17.4033 23.1357 17.2221 23.0656 17.0531C22.9956 16.884 22.8929 16.7304 22.7635 16.601C22.6342 16.4716 22.4805 16.3689 22.3115 16.2989C22.1424 16.2289 21.9612 16.1928 21.7782 16.1928C21.5952 16.1928 21.414 16.2289 21.2449 16.2989C21.0759 16.3689 20.9222 16.4716 20.7928 16.601C20.6634 16.7304 20.5608 16.884 20.4908 17.0531C20.4207 17.2221 20.3847 17.4033 20.3847 17.5863H21.7782H23.1717Z" fill="#5C9937"/>
<circle cx="25.5228" cy="9.33793" r="1.3935" fill="#5C9937"/>
<circle cx="17.8772" cy="9.1551" r="1.3935" fill="#5C9937"/>
<path d="M11.5197 12.5782C11.5197 11.8177 12.1361 11.2013 12.8966 11.2013H21.1439C21.9043 11.2013 22.5208 11.8177 22.5208 12.5782V17.5863H11.5197V12.5782Z" fill="black" fill-opacity="0.2"/>
<path d="M10.6938 10.6308C10.6938 9.87037 11.3103 9.25391 12.0707 9.25391H20.0714C20.8318 9.25391 21.4483 9.87037 21.4483 10.6308V17.5863H11.1528C10.8993 17.5863 10.6938 17.3809 10.6938 17.1274V10.6308Z" fill="#F88029"/>
<path d="M11.8669 11.0765C11.8669 10.823 12.0724 10.6175 12.3259 10.6175H19.8163C20.0698 10.6175 20.2752 10.823 20.2752 11.0765V17.5864H11.8669V11.0765Z" fill="#FFB63B"/>
<circle cx="19.8157" cy="11.6353" r="1.3935" fill="#F88029"/>
<circle cx="12.1701" cy="11.4525" r="1.3935" fill="#F88029"/>
<rect x="28.5147" y="28.7491" width="3.61692" height="4.29897" rx="0.994278" fill="#424242"/>
<rect x="15.0804" y="28.7491" width="3.61692" height="4.29897" rx="0.994278" fill="#424242"/>
<path d="M15.0804 25.9415C15.0804 25.1178 15.7481 24.4501 16.5718 24.4501H30.6402C31.4639 24.4501 32.1316 25.1178 32.1316 25.9415V29.4946C32.1316 29.9732 31.7436 30.3612 31.265 30.3612H15.947C15.4684 30.3612 15.0804 29.9732 15.0804 29.4946V25.9415Z" fill="#1E88E5"/>
<path d="M27.7049 24.9875H19.5071C19.1362 24.9875 18.8959 25.3789 19.0638 25.7096L19.65 26.8648C19.7347 27.0317 19.9061 27.1369 20.0933 27.1369H27.1186C27.3059 27.1369 27.4772 27.0317 27.562 26.8648L28.1482 25.7096C28.316 25.3789 28.0758 24.9875 27.7049 24.9875Z" fill="#1976D2"/>
<rect x="16.1138" y="22.8381" width="2.58352" height="1.61211" rx="0.806057" fill="#424242"/>
<rect x="28.5147" y="22.8381" width="2.58352" height="1.61211" rx="0.806057" fill="#424242"/>
<path d="M19.0932 20.2038C19.2119 19.8512 19.5425 19.6137 19.9145 19.6137H27.2975C27.6695 19.6137 28.0001 19.8512 28.1188 20.2038L29.5481 24.45H17.6639L19.0932 20.2038Z" fill="#1E88E5"/>
<path d="M19.852 20.759C19.9651 20.3973 20.3001 20.1511 20.6791 20.1511H26.5329C26.9119 20.1511 27.2468 20.3973 27.36 20.759L28.3127 23.8045C28.4129 24.1247 28.1737 24.4501 27.8383 24.4501H19.3737C19.0383 24.4501 18.7991 24.1247 18.8993 23.8045L19.852 20.759Z" fill="#E3F2FD"/>
<path d="M19.7646 20.776C19.8721 20.4058 20.2113 20.1511 20.5968 20.1511H23.515C23.9005 20.1511 24.2396 20.4058 24.3472 20.776L25.2298 23.8143C25.3221 24.1323 25.0836 24.4501 24.7524 24.4501H19.3594C19.0282 24.4501 18.7896 24.1323 18.882 23.8143L19.7646 20.776Z" fill="#BBDEFB"/>
<path d="M20.0267 29.1313L20.5204 27.9761C20.5986 27.7931 20.7785 27.6743 20.9775 27.6743H26.7512C26.9503 27.6743 27.1302 27.7931 27.2084 27.9761L27.7021 29.1313C27.8422 29.4593 27.6016 29.8238 27.2449 29.8238H20.4838C20.1271 29.8238 19.8865 29.4593 20.0267 29.1313Z" fill="#1976D2"/>
<path d="M21.4479 29.1984L21.7564 28.0432C21.8145 27.8257 22.0116 27.6743 22.2367 27.6743H25.492C25.7171 27.6743 25.9142 27.8257 25.9723 28.0432L26.2808 29.1984C26.3651 29.5141 26.1272 29.8238 25.8005 29.8238H21.9282C21.6015 29.8238 21.3636 29.5141 21.4479 29.1984Z" fill="#1565C0"/>
<path d="M16.387 26.2068C16.2562 25.8802 16.4967 25.5248 16.8485 25.5248H17.7151C17.9182 25.5248 18.101 25.6484 18.1765 25.837L18.4241 26.4549C18.5549 26.7815 18.3144 27.1369 17.9626 27.1369H17.0961C16.8929 27.1369 16.7101 27.0133 16.6346 26.8246L16.387 26.2068Z" fill="white"/>
<path d="M29.0355 25.837C29.111 25.6484 29.2938 25.5248 29.497 25.5248H30.3635C30.7153 25.5248 30.9558 25.8802 30.825 26.2068L30.5774 26.8246C30.5019 27.0133 30.3191 27.1369 30.116 27.1369H29.2494C28.8976 27.1369 28.6571 26.7815 28.7879 26.4549L29.0355 25.837Z" fill="white"/>
</svg>
