<svg width="40" height="40" viewBox="0 0 40 40" fill="none" xmlns="http://www.w3.org/2000/svg">
<rect width="40" height="40" rx="20" fill="white" fill-opacity="0.04"/>
<rect x="8.04965" y="11.2013" width="21.1779" height="21.8422" rx="3.67174" fill="#BA5E44"/>
<path d="M8.04965 14.873C8.04965 12.8452 9.69355 11.2013 11.7214 11.2013H13.2278V33.0435H11.7214C9.69355 33.0435 8.04965 31.3996 8.04965 29.3718V14.873Z" fill="#824042" fill-opacity="0.22"/>
<path d="M23.4951 24.7904C23.4951 23.2638 24.7326 22.0263 26.2592 22.0263H31.9503V23.8827C31.9503 25.9105 30.3064 27.5544 28.2786 27.5544H26.2592C24.7326 27.5544 23.4951 26.3169 23.4951 24.7904Z" fill="#F8B46E"/>
<circle cx="26.3249" cy="24.7904" r="1.44264" fill="#994D47"/>
<rect x="8.04965" y="11.2013" width="21.1779" height="7.39775" rx="3.67174" fill="#824042"/>
<rect x="8.99939" y="12.0453" width="19.2784" height="5.54106" rx="2.77053" fill="#492930"/>
<path d="M29.0186 18.2434V18.2434C29.0186 19.4426 28.0465 20.4147 26.8474 20.4147H10.4618C9.2627 20.4147 8.2906 19.4426 8.2906 18.2434V18.2434" stroke="#D37F52" stroke-width="0.229484" stroke-linecap="round" stroke-linejoin="round" stroke-dasharray="1.84 1.38"/>
<path d="M29.0186 28.1971V28.1971C29.0186 29.3963 28.0465 30.3684 26.8474 30.3684H10.4618C9.2627 30.3684 8.2906 29.3963 8.2906 28.1971V28.1971" stroke="#D37F52" stroke-width="0.229484" stroke-linecap="round" stroke-linejoin="round" stroke-dasharray="1.84 1.38"/>
<path d="M29.2275 19.6865H30.5734C31.3339 19.6865 31.9503 20.303 31.9503 21.0634V22.0263H29.2275V19.6865Z" fill="#F8B46E"/>
<path d="M29.2275 20.4147H30.0578C30.5028 20.4147 30.8636 20.7755 30.8636 21.2205C30.8636 21.6655 30.5028 22.0263 30.0578 22.0263H29.2275V20.4147Z" fill="#994D47"/>
<path d="M16.4009 8.33345C16.4009 7.57301 17.0174 6.95654 17.7778 6.95654H25.7784C26.5389 6.95654 27.1553 7.573 27.1553 8.33345V16.2095C27.1553 16.9699 26.5389 17.5864 25.7784 17.5864H16.4009V8.33345Z" fill="#5C9937"/>
<path d="M17.574 8.7791C17.574 8.52562 17.7795 8.32013 18.0329 8.32013H25.5234C25.7769 8.32013 25.9823 8.52562 25.9823 8.7791V17.5864H17.574V8.7791Z" fill="#92BE30"/>
<path d="M23.1717 17.5864C23.1717 17.4034 23.1356 17.2222 23.0656 17.0531C22.9955 16.884 22.8929 16.7304 22.7635 16.601C22.6341 16.4716 22.4805 16.369 22.3114 16.2989C22.1424 16.2289 21.9611 16.1929 21.7781 16.1929C21.5951 16.1929 21.4139 16.2289 21.2449 16.2989C21.0758 16.369 20.9222 16.4716 20.7928 16.601C20.6634 16.7304 20.5607 16.884 20.4907 17.0531C20.4207 17.2222 20.3846 17.4034 20.3846 17.5864H21.7781H23.1717Z" fill="#5C9937"/>
<circle cx="25.5228" cy="9.33796" r="1.3935" fill="#5C9937"/>
<circle cx="17.8772" cy="9.15513" r="1.3935" fill="#5C9937"/>
<path d="M11.5197 12.5782C11.5197 11.8178 12.1361 11.2013 12.8966 11.2013H21.1439C21.9043 11.2013 22.5208 11.8178 22.5208 12.5782V17.5864H11.5197V12.5782Z" fill="black" fill-opacity="0.2"/>
<path d="M10.6938 10.6308C10.6938 9.8704 11.3103 9.25394 12.0707 9.25394H20.0713C20.8318 9.25394 21.4482 9.8704 21.4482 10.6308V17.5864H11.1528C10.8993 17.5864 10.6938 17.3809 10.6938 17.1274V10.6308Z" fill="#F88029"/>
<path d="M11.8669 11.0765C11.8669 10.823 12.0723 10.6175 12.3258 10.6175H19.8162C20.0697 10.6175 20.2752 10.823 20.2752 11.0765V17.5864H11.8669V11.0765Z" fill="#FFB63B"/>
<circle cx="19.8157" cy="11.6353" r="1.3935" fill="#F88029"/>
<circle cx="12.1701" cy="11.4525" r="1.3935" fill="#F88029"/>
</svg>
