<svg width="34" height="34" viewBox="0 0 34 34" fill="none" xmlns="http://www.w3.org/2000/svg">
<g clip-path="url(#clip0_560_18250)">
<path d="M4.59674 26.8338L23.1606 26.8338V20.7361L4.59674 20.7361V26.8338Z" fill="#535B65"/>
<path d="M14.2753 28.1975H18.1339C18.4128 28.1975 18.6389 27.9676 18.6389 27.6841V24.4175C18.6389 24.134 18.4128 23.9042 18.1339 23.9042H14.2753C13.9964 23.9042 13.7703 24.134 13.7703 24.4175V27.6841C13.7703 27.9676 13.9964 28.1975 14.2753 28.1975Z" fill="#B9BCBA"/>
<path d="M9.14909 31C11.5252 31 13.4515 29.0419 13.4515 26.6264C13.4515 24.2109 11.5252 22.2528 9.14909 22.2528C6.77293 22.2528 4.84668 24.2109 4.84668 26.6264C4.84668 29.0419 6.77293 31 9.14909 31Z" fill="#34373D"/>
<path d="M7.02466 26.6264C7.02466 27.0535 7.14926 27.471 7.38269 27.8262C7.61613 28.1813 7.94791 28.4581 8.3361 28.6216C8.72429 28.785 9.15144 28.8278 9.56354 28.7445C9.97564 28.6611 10.3542 28.4555 10.6513 28.1534C10.9484 27.8514 11.1507 27.4666 11.2327 27.0477C11.3147 26.6288 11.2726 26.1946 11.1118 25.7999C10.951 25.4053 10.6787 25.0681 10.3294 24.8308C9.98 24.5935 9.56926 24.4668 9.14909 24.4668C8.58566 24.4668 8.0453 24.6943 7.64689 25.0993C7.24849 25.5043 7.02466 26.0536 7.02466 26.6264Z" fill="#FBB03B"/>
<path d="M23.1606 31C25.5367 31 27.463 29.0419 27.463 26.6264C27.463 24.2109 25.5367 22.2528 23.1606 22.2528C20.7844 22.2528 18.8582 24.2109 18.8582 26.6264C18.8582 29.0419 20.7844 31 23.1606 31Z" fill="#34373D"/>
<path d="M23.1606 28.786C24.3339 28.786 25.285 27.8191 25.285 26.6264C25.285 25.4337 24.3339 24.4668 23.1606 24.4668C21.9873 24.4668 21.0362 25.4337 21.0362 26.6264C21.0362 27.8191 21.9873 28.786 23.1606 28.786Z" fill="#FBB03B"/>
<path d="M13.9514 23.6968H14.2064L12.4518 20.7258H4.5993V23.6865H4.85434L6.63957 21.405H11.7402L13.9514 23.6968Z" fill="#FBB03B"/>
<path d="M14.5609 23.4972L10.261 15.9736H4.84668V15.2296H11.9264L12.7119 16.0281H30.4137L32.2857 19.5436L14.5609 23.4972Z" fill="#FBB03B"/>
<path d="M31.6991 19.2713L30.1842 16.4196H10.9649L14.7522 23.0513L31.6991 19.2713Z" fill="#E58126"/>
<path d="M3.99996 26.8338H4.59674L4.59674 20.7361H3.99996L3.99996 26.8338Z" fill="#E58126"/>
<path d="M10.8757 20.7361V18.3484L10.3018 17.1481H6.46103L7.44291 20.7361H10.8757Z" fill="#E58126"/>
<path d="M7.77957 19.6291H9.74333V17.4436H8.28199L7.77957 19.6291Z" fill="white"/>
<path d="M7.91217 17.4436L7.40721 19.6291L6.80533 17.4436H7.91217Z" fill="white"/>
<path d="M17.4683 28.1975H17.8126V23.9042H17.4683V28.1975Z" fill="#535B65"/>
<path d="M14.9434 23.9042H14.5992V28.1975H14.9434V23.9042Z" fill="#535B65"/>
<path d="M15.9814 24.8738C15.9809 24.9192 15.9937 24.9636 16.0182 25.0015C16.0426 25.0395 16.0777 25.0691 16.1188 25.0867C16.1599 25.1043 16.2052 25.109 16.249 25.1003C16.2928 25.0916 16.333 25.0698 16.3645 25.0377C16.3961 25.0057 16.4175 24.9648 16.4261 24.9203C16.4346 24.8758 16.43 24.8297 16.4127 24.7879C16.3954 24.7461 16.3662 24.7105 16.3289 24.6857C16.2916 24.6608 16.2479 24.6478 16.2033 24.6483C16.1445 24.6483 16.088 24.672 16.0464 24.7143C16.0048 24.7566 15.9814 24.814 15.9814 24.8738Z" fill="#535B65"/>
<path d="M15.1679 16.4196L18.4808 22.2191L16.5757 22.6468L13.0179 16.4196H15.1679Z" fill="#FBB03B"/>
<path d="M19.6565 16.4196L22.4618 21.3324L20.5542 21.7576L17.5065 16.4196H19.6565Z" fill="#FBB03B"/>
<path d="M24.1425 16.4196L26.4403 20.4432L24.5352 20.8709L21.9926 16.4196H24.1425Z" fill="#FBB03B"/>
<path d="M28.6285 16.4196L30.4214 19.5565L28.5137 19.9817L26.4786 16.4196H28.6285Z" fill="#FBB03B"/>
<path d="M12.7451 16.0281L13.4234 15.6729L13.7983 15.0481H14.8899L15.8692 14.3481L16.8842 13.8011L17.8228 14.9133L20.3833 13.8011L21.2861 13L23.204 13.3993L23.9181 14.3481L25.6854 14.514L26.2873 14.737L27.2666 15.6729L28.2817 16.0281H12.7451Z" fill="#1B2326"/>
</g>
<circle cx="23" cy="13" r="9" fill="#F44336"/>
<circle cx="23.2993" cy="9.29934" r="1.29934" fill="white"/>
<rect x="22" y="12.5215" width="2.71291" height="5.42582" rx="1.35646" fill="white"/>
<defs>
<clipPath id="clip0_560_18250">
<rect width="28.2857" height="18" fill="white" transform="translate(3.99997 13)"/>
</clipPath>
</defs>
</svg>
