<svg width="34" height="34" viewBox="0 0 34 34" fill="none" xmlns="http://www.w3.org/2000/svg">
<g clip-path="url(#clip0_560_18291)">
<g clip-path="url(#clip1_560_18291)">
<path d="M5.45391 21.8338L24.0178 21.8338V15.7361L5.45391 15.7361V21.8338Z" fill="#535B65"/>
<path d="M15.1324 23.1975H18.9911C19.2699 23.1975 19.496 22.9676 19.496 22.6841V19.4175C19.496 19.134 19.2699 18.9042 18.9911 18.9042H15.1324C14.8535 18.9042 14.6274 19.134 14.6274 19.4175V22.6841C14.6274 22.9676 14.8535 23.1975 15.1324 23.1975Z" fill="#B9BCBA"/>
<path d="M10.0062 26C12.3824 26 14.3086 24.0419 14.3086 21.6264C14.3086 19.2109 12.3824 17.2528 10.0062 17.2528C7.63008 17.2528 5.70383 19.2109 5.70383 21.6264C5.70383 24.0419 7.63008 26 10.0062 26Z" fill="#34373D"/>
<path d="M7.88181 21.6264C7.88181 22.0535 8.0064 22.471 8.23984 22.8262C8.47327 23.1813 8.80506 23.4581 9.19325 23.6216C9.58144 23.785 10.0086 23.8278 10.4207 23.7445C10.8328 23.6611 11.2113 23.4555 11.5084 23.1534C11.8055 22.8514 12.0079 22.4666 12.0898 22.0477C12.1718 21.6288 12.1297 21.1946 11.9689 20.7999C11.8081 20.4053 11.5359 20.0681 11.1865 19.8308C10.8371 19.5935 10.4264 19.4668 10.0062 19.4668C9.4428 19.4668 8.90245 19.6943 8.50404 20.0993C8.10563 20.5043 7.88181 21.0536 7.88181 21.6264Z" fill="#FBB03B"/>
<path d="M24.0177 26C26.3939 26 28.3201 24.0419 28.3201 21.6264C28.3201 19.2109 26.3939 17.2528 24.0177 17.2528C21.6416 17.2528 19.7153 19.2109 19.7153 21.6264C19.7153 24.0419 21.6416 26 24.0177 26Z" fill="#34373D"/>
<path d="M24.0177 23.786C25.191 23.786 26.1422 22.8191 26.1422 21.6264C26.1422 20.4337 25.191 19.4668 24.0177 19.4668C22.8444 19.4668 21.8933 20.4337 21.8933 21.6264C21.8933 22.8191 22.8444 23.786 24.0177 23.786Z" fill="#FBB03B"/>
<path d="M14.8085 18.6968H15.0635L13.3089 15.7258H5.45645V18.6865H5.71148L7.49672 16.405H12.5974L14.8085 18.6968Z" fill="#FBB03B"/>
<path d="M15.418 18.4972L11.1182 10.9736H5.70383V10.2296H12.7835L13.569 11.0281H31.2709L33.1428 14.5436L15.418 18.4972Z" fill="#FBB03B"/>
<path d="M32.5563 14.2713L31.0414 11.4196H11.8221L15.6093 18.0513L32.5563 14.2713Z" fill="#E58126"/>
<path d="M4.85711 21.8338H5.45389L5.45389 15.7361H4.85711L4.85711 21.8338Z" fill="#E58126"/>
<path d="M11.7328 15.7361V13.3484L11.159 12.1481H7.31818L8.30005 15.7361H11.7328Z" fill="#E58126"/>
<path d="M8.63672 14.6291H10.6005V12.4436H9.13913L8.63672 14.6291Z" fill="white"/>
<path d="M8.76932 12.4436L8.26435 14.6291L7.66248 12.4436H8.76932Z" fill="white"/>
<path d="M18.3254 23.1975H18.6697V18.9042H18.3254V23.1975Z" fill="#535B65"/>
<path d="M15.8006 18.9042H15.4563V23.1975H15.8006V18.9042Z" fill="#535B65"/>
<path d="M16.8386 19.8738C16.8381 19.9192 16.8509 19.9636 16.8753 20.0015C16.8998 20.0395 16.9348 20.0691 16.9759 20.0867C17.017 20.1043 17.0624 20.109 17.1061 20.1003C17.1499 20.0916 17.1901 20.0698 17.2217 20.0377C17.2532 20.0057 17.2746 19.9648 17.2832 19.9203C17.2918 19.8758 17.2871 19.8297 17.2698 19.7879C17.2525 19.7461 17.2234 19.7105 17.1861 19.6857C17.1488 19.6608 17.1051 19.6478 17.0605 19.6483C17.0016 19.6483 16.9452 19.672 16.9036 19.7143C16.862 19.7566 16.8386 19.814 16.8386 19.8738Z" fill="#535B65"/>
<path d="M16.025 11.4196L19.3379 17.2191L17.4328 17.6468L13.8751 11.4196H16.025Z" fill="#FBB03B"/>
<path d="M20.5136 11.4196L23.319 16.3324L21.4113 16.7576L18.3637 11.4196H20.5136Z" fill="#FBB03B"/>
<path d="M24.9996 11.4196L27.2975 15.4432L25.3924 15.8709L22.8497 11.4196H24.9996Z" fill="#FBB03B"/>
<path d="M29.4857 11.4196L31.2785 14.5565L29.3709 14.9817L27.3357 11.4196H29.4857Z" fill="#FBB03B"/>
<path d="M13.6022 11.0281L14.2806 10.6729L14.6555 10.0481H15.747L16.7264 9.34812L17.7414 8.80109L18.6799 9.91329L21.2404 8.80109L22.1433 8L24.0611 8.39925L24.7752 9.34812L26.5426 9.51404L27.1445 9.737L28.1238 10.6729L29.1388 11.0281H13.6022Z" fill="#1B2326"/>
</g>
</g>
<defs>
<clipPath id="clip0_560_18291">
<rect width="28.2857" height="18" fill="white" transform="translate(4.85712 8)"/>
</clipPath>
<clipPath id="clip1_560_18291">
<rect width="28.2857" height="18" fill="white" transform="translate(4.85712 8)"/>
</clipPath>
</defs>
</svg>
