<svg width="34" height="34" viewBox="0 0 34 34" fill="none" xmlns="http://www.w3.org/2000/svg">
<g clip-path="url(#clip0_560_18204)">
<path d="M4.59674 26.8338L23.1606 26.8338V20.7361L4.59674 20.7361V26.8338Z" fill="#535B65"/>
<path d="M14.2753 28.1975H18.1339C18.4128 28.1975 18.6389 27.9676 18.6389 27.6841V24.4175C18.6389 24.134 18.4128 23.9042 18.1339 23.9042H14.2753C13.9964 23.9042 13.7703 24.134 13.7703 24.4175V27.6841C13.7703 27.9676 13.9964 28.1975 14.2753 28.1975Z" fill="#B9BCBA"/>
<path d="M9.14909 31C11.5252 31 13.4515 29.0419 13.4515 26.6264C13.4515 24.2109 11.5252 22.2528 9.14909 22.2528C6.77293 22.2528 4.84668 24.2109 4.84668 26.6264C4.84668 29.0419 6.77293 31 9.14909 31Z" fill="#34373D"/>
<path d="M7.02466 26.6264C7.02466 27.0535 7.14926 27.471 7.38269 27.8262C7.61613 28.1813 7.94791 28.4581 8.3361 28.6216C8.72429 28.785 9.15144 28.8278 9.56354 28.7445C9.97564 28.6611 10.3542 28.4555 10.6513 28.1534C10.9484 27.8514 11.1507 27.4666 11.2327 27.0477C11.3147 26.6288 11.2726 26.1946 11.1118 25.7999C10.951 25.4053 10.6787 25.0681 10.3294 24.8308C9.98 24.5935 9.56926 24.4668 9.14909 24.4668C8.58566 24.4668 8.0453 24.6943 7.64689 25.0993C7.24849 25.5043 7.02466 26.0536 7.02466 26.6264Z" fill="#FBB03B"/>
<path d="M23.1606 31C25.5367 31 27.463 29.0419 27.463 26.6264C27.463 24.2109 25.5367 22.2528 23.1606 22.2528C20.7844 22.2528 18.8582 24.2109 18.8582 26.6264C18.8582 29.0419 20.7844 31 23.1606 31Z" fill="#34373D"/>
<path d="M23.1606 28.786C24.3339 28.786 25.285 27.8191 25.285 26.6264C25.285 25.4337 24.3339 24.4668 23.1606 24.4668C21.9873 24.4668 21.0362 25.4337 21.0362 26.6264C21.0362 27.8191 21.9873 28.786 23.1606 28.786Z" fill="#FBB03B"/>
<path d="M13.9514 23.6968H14.2064L12.4518 20.7258H4.5993V23.6865H4.85434L6.63957 21.405H11.7402L13.9514 23.6968Z" fill="#FBB03B"/>
<path d="M14.5609 23.4972L10.261 15.9736H4.84668V15.2296H11.9264L12.7119 16.0281H30.4137L32.2857 19.5436L14.5609 23.4972Z" fill="#FBB03B"/>
<path d="M31.6991 19.2713L30.1842 16.4196H10.9649L14.7522 23.0513L31.6991 19.2713Z" fill="#E58126"/>
<path d="M3.99996 26.8338H4.59674L4.59674 20.7361H3.99996L3.99996 26.8338Z" fill="#E58126"/>
<path d="M10.8757 20.7361V18.3484L10.3018 17.1481H6.46103L7.44291 20.7361H10.8757Z" fill="#E58126"/>
<path d="M7.77957 19.6291H9.74333V17.4436H8.28199L7.77957 19.6291Z" fill="white"/>
<path d="M7.91217 17.4436L7.40721 19.6291L6.80533 17.4436H7.91217Z" fill="white"/>
<path d="M17.4683 28.1975H17.8126V23.9042H17.4683V28.1975Z" fill="#535B65"/>
<path d="M14.9434 23.9042H14.5992V28.1975H14.9434V23.9042Z" fill="#535B65"/>
<path d="M15.9814 24.8738C15.9809 24.9192 15.9937 24.9636 16.0182 25.0015C16.0426 25.0395 16.0777 25.0691 16.1188 25.0867C16.1599 25.1043 16.2052 25.109 16.249 25.1003C16.2928 25.0916 16.333 25.0698 16.3645 25.0377C16.3961 25.0057 16.4175 24.9648 16.4261 24.9203C16.4346 24.8758 16.43 24.8297 16.4127 24.7879C16.3954 24.7461 16.3662 24.7105 16.3289 24.6857C16.2916 24.6608 16.2479 24.6478 16.2033 24.6483C16.1445 24.6483 16.088 24.672 16.0464 24.7143C16.0048 24.7566 15.9814 24.814 15.9814 24.8738Z" fill="#535B65"/>
<path d="M15.1679 16.4196L18.4808 22.2191L16.5757 22.6468L13.0179 16.4196H15.1679Z" fill="#FBB03B"/>
<path d="M19.6565 16.4196L22.4618 21.3324L20.5542 21.7576L17.5065 16.4196H19.6565Z" fill="#FBB03B"/>
<path d="M24.1425 16.4196L26.4403 20.4432L24.5352 20.8709L21.9926 16.4196H24.1425Z" fill="#FBB03B"/>
<path d="M28.6285 16.4196L30.4214 19.5565L28.5137 19.9817L26.4786 16.4196H28.6285Z" fill="#FBB03B"/>
<path d="M12.7451 16.0281L13.4234 15.6729L13.7983 15.0481H14.8899L15.8692 14.3481L16.8842 13.8011L17.8228 14.9133L20.3833 13.8011L21.2861 13L23.204 13.3993L23.9181 14.3481L25.6854 14.514L26.2873 14.737L27.2666 15.6729L28.2817 16.0281H12.7451Z" fill="#1B2326"/>
</g>
<circle cx="23" cy="13" r="9" fill="#1FB767"/>
<path fill-rule="evenodd" clip-rule="evenodd" d="M24.9065 10.5792C25.1073 10.78 25.1073 11.1057 24.9065 11.3065L21.8208 14.3922C21.6199 14.5931 21.2943 14.5931 21.0935 14.3922C20.8926 14.1914 20.8926 13.8658 21.0935 13.6649L24.1792 10.5792C24.38 10.3784 24.7057 10.3784 24.9065 10.5792Z" fill="white"/>
<path d="M21.7143 11.4571C21.8563 11.4571 21.9714 11.342 21.9714 11.2C21.9714 11.058 21.8563 10.9429 21.7143 10.9429C21.5722 10.9429 21.4571 11.058 21.4571 11.2C21.4571 11.342 21.5722 11.4571 21.7143 11.4571Z" fill="white"/>
<path fill-rule="evenodd" clip-rule="evenodd" d="M21.7143 11.4571C21.8563 11.4571 21.9714 11.342 21.9714 11.2C21.9714 11.058 21.8563 10.9429 21.7143 10.9429C21.5723 10.9429 21.4571 11.058 21.4571 11.2C21.4571 11.342 21.5723 11.4571 21.7143 11.4571ZM20.9428 11.2C20.9428 10.774 21.2882 10.4286 21.7143 10.4286C22.1403 10.4286 22.4857 10.774 22.4857 11.2C22.4857 11.6261 22.1403 11.9714 21.7143 11.9714C21.2882 11.9714 20.9428 11.6261 20.9428 11.2Z" fill="white"/>
<path d="M24.2857 14.0286C24.4277 14.0286 24.5429 13.9134 24.5429 13.7714C24.5429 13.6294 24.4277 13.5143 24.2857 13.5143C24.1437 13.5143 24.0286 13.6294 24.0286 13.7714C24.0286 13.9134 24.1437 14.0286 24.2857 14.0286Z" fill="white"/>
<path fill-rule="evenodd" clip-rule="evenodd" d="M24.2857 14.0286C24.4277 14.0286 24.5429 13.9134 24.5429 13.7714C24.5429 13.6294 24.4277 13.5143 24.2857 13.5143C24.1437 13.5143 24.0286 13.6294 24.0286 13.7714C24.0286 13.9134 24.1437 14.0286 24.2857 14.0286ZM23.5143 13.7714C23.5143 13.3454 23.8597 13 24.2857 13C24.7118 13 25.0571 13.3454 25.0571 13.7714C25.0571 14.1975 24.7118 14.5429 24.2857 14.5429C23.8597 14.5429 23.5143 14.1975 23.5143 13.7714Z" fill="white"/>
<path fill-rule="evenodd" clip-rule="evenodd" d="M20.4286 8.88572C20.2922 8.88572 20.1614 8.9399 20.0649 9.03635C19.9685 9.1328 19.9143 9.26361 19.9143 9.4V16.6676L20.6576 16.1721C20.8616 16.0361 21.1332 16.063 21.3065 16.2363L21.9714 16.9013L22.6363 16.2363C22.8372 16.0355 23.1628 16.0355 23.3637 16.2363L24.0286 16.9013L24.6935 16.2363C24.8668 16.063 25.1384 16.0361 25.3424 16.1721L26.0857 16.6676V9.4C26.0857 9.26361 26.0315 9.1328 25.9351 9.03635C25.8386 8.9399 25.7078 8.88572 25.5714 8.88572H20.4286ZM19.3376 8.30904C19.6269 8.0197 20.0194 7.85715 20.4286 7.85715H25.5714C25.9806 7.85715 26.373 8.0197 26.6624 8.30904C26.9517 8.59838 27.1143 8.99081 27.1143 9.4V17.6286C27.1143 17.8182 27.0099 17.9925 26.8427 18.082C26.6754 18.1715 26.4725 18.1617 26.3147 18.0565L25.1227 17.2618L24.3922 17.9922C24.1914 18.1931 23.8658 18.1931 23.6649 17.9922L23 17.3273L22.3351 17.9922C22.1342 18.1931 21.8086 18.1931 21.6078 17.9922L20.8773 17.2618L19.6853 18.0565C19.5275 18.1617 19.3246 18.1715 19.1573 18.082C18.9901 17.9925 18.8857 17.8182 18.8857 17.6286V9.4C18.8857 8.99081 19.0483 8.59838 19.3376 8.30904Z" fill="white"/>
<defs>
<clipPath id="clip0_560_18204">
<rect width="28.2857" height="18" fill="white" transform="translate(3.99997 13)"/>
</clipPath>
</defs>
</svg>
