<svg width="34" height="34" viewBox="0 0 34 34" fill="none" xmlns="http://www.w3.org/2000/svg">
<g clip-path="url(#clip0_560_18271)">
<path d="M3.59674 26.8338L22.1606 26.8338V20.7361L3.59674 20.7361V26.8338Z" fill="#535B65"/>
<path d="M13.2753 28.1975H17.1339C17.4128 28.1975 17.6389 27.9676 17.6389 27.6841V24.4175C17.6389 24.134 17.4128 23.9042 17.1339 23.9042H13.2753C12.9964 23.9042 12.7703 24.134 12.7703 24.4175V27.6841C12.7703 27.9676 12.9964 28.1975 13.2753 28.1975Z" fill="#B9BCBA"/>
<path d="M8.14909 31C10.5252 31 12.4515 29.0419 12.4515 26.6264C12.4515 24.2109 10.5252 22.2528 8.14909 22.2528C5.77293 22.2528 3.84668 24.2109 3.84668 26.6264C3.84668 29.0419 5.77293 31 8.14909 31Z" fill="#34373D"/>
<path d="M6.02466 26.6264C6.02466 27.0535 6.14926 27.471 6.38269 27.8262C6.61613 28.1813 6.94791 28.4581 7.3361 28.6216C7.72429 28.785 8.15144 28.8278 8.56354 28.7445C8.97564 28.6611 9.35418 28.4555 9.65128 28.1534C9.94839 27.8514 10.1507 27.4666 10.2327 27.0477C10.3147 26.6288 10.2726 26.1946 10.1118 25.7999C9.951 25.4053 9.67871 25.0681 9.32936 24.8308C8.98 24.5935 8.56926 24.4668 8.14909 24.4668C7.58566 24.4668 7.0453 24.6943 6.64689 25.0993C6.24849 25.5043 6.02466 26.0536 6.02466 26.6264Z" fill="#FBB03B"/>
<path d="M22.1606 31C24.5367 31 26.463 29.0419 26.463 26.6264C26.463 24.2109 24.5367 22.2528 22.1606 22.2528C19.7844 22.2528 17.8582 24.2109 17.8582 26.6264C17.8582 29.0419 19.7844 31 22.1606 31Z" fill="#34373D"/>
<path d="M22.1606 28.786C23.3339 28.786 24.285 27.8191 24.285 26.6264C24.285 25.4337 23.3339 24.4668 22.1606 24.4668C20.9873 24.4668 20.0362 25.4337 20.0362 26.6264C20.0362 27.8191 20.9873 28.786 22.1606 28.786Z" fill="#FBB03B"/>
<path d="M12.9514 23.6968H13.2064L11.4518 20.7258H3.5993V23.6865H3.85434L5.63957 21.405H10.7402L12.9514 23.6968Z" fill="#FBB03B"/>
<path d="M13.5609 23.4972L9.26103 15.9736H3.84668V15.2296H10.9264L11.7119 16.0281H29.4137L31.2857 19.5436L13.5609 23.4972Z" fill="#FBB03B"/>
<path d="M30.6991 19.2713L29.1842 16.4196H9.96494L13.7522 23.0513L30.6991 19.2713Z" fill="#E58126"/>
<path d="M2.99996 26.8338H3.59674L3.59674 20.7361H2.99996L2.99996 26.8338Z" fill="#E58126"/>
<path d="M9.87565 20.7361V18.3484L9.30183 17.1481H5.46103L6.44291 20.7361H9.87565Z" fill="#E58126"/>
<path d="M6.77957 19.6291H8.74333V17.4436H7.28199L6.77957 19.6291Z" fill="white"/>
<path d="M6.91217 17.4436L6.40721 19.6291L5.80533 17.4436H6.91217Z" fill="white"/>
<path d="M16.4683 28.1975H16.8126V23.9042H16.4683V28.1975Z" fill="#535B65"/>
<path d="M13.9434 23.9042H13.5992V28.1975H13.9434V23.9042Z" fill="#535B65"/>
<path d="M14.9814 24.8738C14.9809 24.9192 14.9937 24.9636 15.0182 25.0015C15.0426 25.0395 15.0777 25.0691 15.1188 25.0867C15.1599 25.1043 15.2052 25.109 15.249 25.1003C15.2928 25.0916 15.333 25.0698 15.3645 25.0377C15.3961 25.0057 15.4175 24.9648 15.4261 24.9203C15.4346 24.8758 15.43 24.8297 15.4127 24.7879C15.3954 24.7461 15.3662 24.7105 15.3289 24.6857C15.2916 24.6608 15.2479 24.6478 15.2033 24.6483C15.1445 24.6483 15.088 24.672 15.0464 24.7143C15.0048 24.7566 14.9814 24.814 14.9814 24.8738Z" fill="#535B65"/>
<path d="M14.1679 16.4196L17.4808 22.2191L15.5757 22.6468L12.0179 16.4196H14.1679Z" fill="#FBB03B"/>
<path d="M18.6565 16.4196L21.4618 21.3324L19.5542 21.7576L16.5065 16.4196H18.6565Z" fill="#FBB03B"/>
<path d="M23.1425 16.4196L25.4403 20.4432L23.5352 20.8709L20.9926 16.4196H23.1425Z" fill="#FBB03B"/>
<path d="M27.6285 16.4196L29.4214 19.5565L27.5137 19.9817L25.4786 16.4196H27.6285Z" fill="#FBB03B"/>
<path d="M11.7451 16.0281L12.4234 15.6729L12.7983 15.0481H13.8899L14.8692 14.3481L15.8842 13.8011L16.8228 14.9133L19.3833 13.8011L20.2861 13L22.204 13.3993L22.9181 14.3481L24.6854 14.514L25.2873 14.737L26.2666 15.6729L27.2817 16.0281H11.7451Z" fill="#1B2326"/>
</g>
<circle cx="22" cy="13" r="9" fill="#FF9500"/>
<path d="M22 9.625C22.6675 9.625 23.32 9.82294 23.875 10.1938C24.4301 10.5646 24.8626 11.0917 25.1181 11.7084C25.3735 12.3251 25.4404 13.0037 25.3102 13.6584C25.1799 14.3131 24.8585 14.9145 24.3865 15.3865C23.9145 15.8585 23.3131 16.1799 22.6584 16.3101C22.0037 16.4404 21.3251 16.3735 20.7084 16.1181C20.0917 15.8626 19.5646 15.4301 19.1938 14.875C18.8229 14.32 18.625 13.6675 18.625 13C18.625 12.8508 18.5657 12.7077 18.4602 12.6022C18.3548 12.4968 18.2117 12.4375 18.0625 12.4375C17.9133 12.4375 17.7702 12.4968 17.6648 12.6022C17.5593 12.7077 17.5 12.8508 17.5 13C17.5001 14.0097 17.8398 14.99 18.4644 15.7834C19.089 16.5767 19.9623 17.1369 20.9438 17.3738C21.9253 17.6108 22.958 17.5108 23.8758 17.0899C24.7936 16.6691 25.5432 15.9517 26.004 15.0533C26.4648 14.1549 26.6101 13.1276 26.4165 12.1366C26.2229 11.1457 25.7016 10.2486 24.9365 9.58971C24.1714 8.93082 23.2069 8.54839 22.1982 8.50391C21.1895 8.45944 20.1951 8.7555 19.375 9.3445V9.0625C19.375 8.91331 19.3157 8.77024 19.2102 8.66475C19.1048 8.55926 18.9617 8.5 18.8125 8.5C18.6633 8.5 18.5202 8.55926 18.4148 8.66475C18.3093 8.77024 18.25 8.91331 18.25 9.0625V10.9375C18.25 11.248 18.502 11.5 18.8125 11.5H19.9375C20.0867 11.5 20.2298 11.4407 20.3352 11.3352C20.4407 11.2298 20.5 11.0867 20.5 10.9375C20.5 10.7883 20.4407 10.6452 20.3352 10.5397C20.2298 10.4343 20.0867 10.375 19.9375 10.375H19.8783C20.4783 9.88854 21.2276 9.62368 22 9.625ZM22.375 11.3125C22.375 11.1633 22.3157 11.0202 22.2102 10.9147C22.1048 10.8093 21.9617 10.75 21.8125 10.75C21.6633 10.75 21.5202 10.8093 21.4148 10.9147C21.3093 11.0202 21.25 11.1633 21.25 11.3125V13.1875C21.25 13.498 21.502 13.75 21.8125 13.75H22.9375C23.0867 13.75 23.2298 13.6907 23.3352 13.5852C23.4407 13.4798 23.5 13.3367 23.5 13.1875C23.5 13.0383 23.4407 12.8952 23.3352 12.7897C23.2298 12.6843 23.0867 12.625 22.9375 12.625H22.375V11.3125Z" fill="white"/>
<defs>
<clipPath id="clip0_560_18271">
<rect width="28.2857" height="18" fill="white" transform="translate(2.99997 13)"/>
</clipPath>
</defs>
</svg>
