<svg width="24" height="24" viewBox="0 0 24 24" fill="none" xmlns="http://www.w3.org/2000/svg">
<path d="M13 14C13 12.8954 13.8954 12 15 12H20V16H15C13.8954 16 13 15.1046 13 14Z" fill="#FFA600"/>
<path d="M5 9H18C18.5523 9 19 9.44772 19 10V18C19 18.5523 18.5523 19 18 19H6C5.44772 19 5 18.5523 5 18V9Z" stroke="#212121" stroke-width="2"/>
<path d="M5 6C5 5.44772 5.44772 5 6 5H15C15.5523 5 16 5.44772 16 6V8C16 8.55228 15.5523 9 15 9H6C5.44772 9 5 8.55228 5 8V6Z" stroke="#212121" stroke-width="2"/>
</svg>
