<svg width="24" height="24" viewBox="0 0 24 24" fill="none" xmlns="http://www.w3.org/2000/svg">
<path d="M17.4087 3.98444L12.1889 7.48389" stroke="#212121" stroke-width="1.8" stroke-miterlimit="10"/>
<path d="M5.32718 13.8612V16.1158" stroke="#212121" stroke-width="1.8" stroke-miterlimit="10"/>
<path d="M11.3889 13.8612V15.8709" stroke="#212121" stroke-width="1.8" stroke-miterlimit="10"/>
<path d="M7.08325 5.82245V9.61318L8.13871 11.4105H14.308V9.84181L12.1889 7.48389L10.6956 5.82245H7.08325Z" stroke="#212121" stroke-width="1.8" stroke-linejoin="round"/>
<path d="M7.21798 9.84186H2.82776V13.8612H14.308V11.4105H8.13874L7.21798 9.84186Z" stroke="#FFA600" stroke-width="1.8" stroke-linecap="round" stroke-linejoin="round"/>
<path d="M17.7964 5.52792C18.7118 5.52792 19.4539 4.7928 19.4539 3.886C19.4539 2.97919 18.7118 2.24408 17.7964 2.24408C16.881 2.24408 16.1389 2.97919 16.1389 3.886C16.1389 4.7928 16.881 5.52792 17.7964 5.52792Z" fill="#212121" stroke="#212121" stroke-width="0.8" stroke-miterlimit="10"/>
<path d="M3.75591 19.5314C4.16146 19.5314 4.49022 19.2058 4.49022 18.8041C4.49022 18.4023 4.16146 18.0767 3.75591 18.0767C3.35037 18.0767 3.02161 18.4023 3.02161 18.8041C3.02161 19.2058 3.35037 19.5314 3.75591 19.5314Z" fill="#212121" stroke="#212121" stroke-miterlimit="10"/>
<path d="M7.08324 19.5314C7.48879 19.5314 7.81755 19.2058 7.81755 18.8041C7.81755 18.4023 7.48879 18.0767 7.08324 18.0767C6.6777 18.0767 6.34894 18.4023 6.34894 18.8041C6.34894 19.2058 6.6777 19.5314 7.08324 19.5314Z" fill="#212121" stroke="#212121" stroke-miterlimit="10"/>
<path d="M10.3991 19.5314C10.8047 19.5314 11.1334 19.2058 11.1334 18.8041C11.1334 18.4023 10.8047 18.0767 10.3991 18.0767C9.99358 18.0767 9.66483 18.4023 9.66483 18.8041C9.66483 19.2058 9.99358 19.5314 10.3991 19.5314Z" fill="#212121" stroke="#212121" stroke-miterlimit="10"/>
<path d="M13.7142 19.5314C14.1197 19.5314 14.4485 19.2058 14.4485 18.8041C14.4485 18.4023 14.1197 18.0767 13.7142 18.0767C13.3086 18.0767 12.9799 18.4023 12.9799 18.8041C12.9799 19.2058 13.3086 19.5314 13.7142 19.5314Z" fill="#212121" stroke="#212121" stroke-miterlimit="10"/>
<path d="M13.8242 16.3859H3.60804C2.3025 16.3859 1.24414 17.4343 1.24414 18.7275V18.9212C1.24414 20.2144 2.3025 21.2628 3.60804 21.2628H13.8242C15.1298 21.2628 16.1881 20.2144 16.1881 18.9212V18.7275C16.1881 17.4343 15.1298 16.3859 13.8242 16.3859Z" stroke="#212121" stroke-width="1.8" stroke-miterlimit="10"/>
<path d="M19.2863 5.52795L22.7246 9.54813V13.7636L22.1636 14.4169H18.304L22.2301 9.38459" stroke="#FFA600" stroke-width="1.8" stroke-linejoin="round"/>
</svg>
