<svg width="24" height="24" viewBox="0 0 24 24" fill="none" xmlns="http://www.w3.org/2000/svg">
<path d="M19.6524 20.6954H13.5654C13.2194 20.6954 12.8876 20.558 12.643 20.3134C12.3984 20.0688 12.261 19.737 12.261 19.3911V9.82567C12.261 9.47973 12.3984 9.14796 12.643 8.90334C12.8876 8.65873 13.2194 8.5213 13.5654 8.5213H19.6524C19.9984 8.5213 20.3301 8.65873 20.5747 8.90334C20.8194 9.14796 20.9568 9.47973 20.9568 9.82567V19.3911C20.9568 19.737 20.8194 20.0688 20.5747 20.3134C20.3301 20.558 19.9984 20.6954 19.6524 20.6954ZM13.5654 9.39088C13.45 9.39088 13.3395 9.43669 13.2579 9.51823C13.1764 9.59977 13.1306 9.71036 13.1306 9.82567V19.3911C13.1306 19.5064 13.1764 19.617 13.2579 19.6985C13.3395 19.78 13.45 19.8258 13.5654 19.8258H19.6524C19.7677 19.8258 19.8783 19.78 19.9599 19.6985C20.0414 19.617 20.0872 19.5064 20.0872 19.3911V9.82567C20.0872 9.71036 20.0414 9.59977 19.9599 9.51823C19.8783 9.43669 19.7677 9.39088 19.6524 9.39088H13.5654Z" fill="#212121"/>
<path d="M18.7828 10.2604H17.9133C17.6731 10.2604 17.4785 10.4551 17.4785 10.6952V12.8692C17.4785 13.1093 17.6731 13.304 17.9133 13.304H18.7828C19.023 13.304 19.2176 13.1093 19.2176 12.8692V10.6952C19.2176 10.4551 19.023 10.2604 18.7828 10.2604Z" fill="#FFA600"/>
<path d="M16.6089 10.6952V13.304C16.6089 13.4193 16.5631 13.5299 16.4815 13.6114C16.4 13.693 16.2894 13.7388 16.1741 13.7388C16.0588 13.7388 15.9482 13.693 15.8667 13.6114C15.7851 13.5299 15.7393 13.4193 15.7393 13.304V10.6952C15.7393 10.5799 15.7851 10.4693 15.8667 10.3878C15.9482 10.3063 16.0588 10.2604 16.1741 10.2604C16.2894 10.2604 16.4 10.3063 16.4815 10.3878C16.5631 10.4693 16.6089 10.5799 16.6089 10.6952Z" fill="#212121"/>
<path d="M16.6089 13.3039V15.9127C16.6089 16.028 16.5631 16.1386 16.4815 16.2201C16.4 16.3017 16.2894 16.3475 16.1741 16.3475C16.0588 16.3475 15.9482 16.3017 15.8667 16.2201C15.7851 16.1386 15.7393 16.028 15.7393 15.9127V13.3039C15.7393 13.1886 15.7851 13.078 15.8667 12.9965C15.9482 12.915 16.0588 12.8692 16.1741 12.8692C16.2894 12.8692 16.4 12.915 16.4815 12.9965C16.5631 13.078 16.6089 13.1886 16.6089 13.3039Z" fill="#212121"/>
<path d="M19.3263 17.2171H17.3698C17.2833 17.2171 17.2003 17.1712 17.1392 17.0897C17.078 17.0082 17.0437 16.8976 17.0437 16.7823C17.0437 16.6669 17.078 16.5564 17.1392 16.4748C17.2003 16.3933 17.2833 16.3475 17.3698 16.3475H19.3263C19.4128 16.3475 19.4957 16.3933 19.5569 16.4748C19.6181 16.5564 19.6524 16.6669 19.6524 16.7823C19.6524 16.8976 19.6181 17.0082 19.5569 17.0897C19.4957 17.1712 19.4128 17.2171 19.3263 17.2171Z" fill="#212121"/>
<path d="M19.3263 18.9563H17.3698C17.2833 18.9563 17.2003 18.9104 17.1392 18.8289C17.078 18.7474 17.0437 18.6368 17.0437 18.5215C17.0437 18.4061 17.078 18.2956 17.1392 18.214C17.2003 18.1325 17.2833 18.0867 17.3698 18.0867H19.3263C19.4128 18.0867 19.4957 18.1325 19.5569 18.214C19.6181 18.2956 19.6524 18.4061 19.6524 18.5215C19.6524 18.6368 19.6181 18.7474 19.5569 18.8289C19.4957 18.9104 19.4128 18.9563 19.3263 18.9563Z" fill="#212121"/>
<path d="M16.6089 15.9127V18.5214C16.6089 18.6368 16.5631 18.7474 16.4815 18.8289C16.4 18.9104 16.2894 18.9562 16.1741 18.9562C16.0588 18.9562 15.9482 18.9104 15.8667 18.8289C15.7851 18.7474 15.7393 18.6368 15.7393 18.5214V15.9127C15.7393 15.7974 15.7851 15.6868 15.8667 15.6053C15.9482 15.5237 16.0588 15.4779 16.1741 15.4779C16.2894 15.4779 16.4 15.5237 16.4815 15.6053C16.5631 15.6868 16.6089 15.7974 16.6089 15.9127Z" fill="#212121"/>
<path d="M11.6088 7.65174H6.8261C5.5054 7.65174 4.43475 7.21695 4.43475 11.1301V18.0867C4.43475 22.652 5.5054 21.565 6.8261 21.565H11.6088C12.9295 21.565 14.0001 22.652 14.0001 18.0867V11.1301C14.6523 6.78216 12.9295 7.65174 11.6088 7.65174Z" fill="#FAFAFA"/>
<path d="M12.261 8.95605H6.17393C5.9338 8.95605 5.73914 9.15072 5.73914 9.39084V11.9996C5.73914 12.2397 5.9338 12.4344 6.17393 12.4344H12.261C12.5011 12.4344 12.6958 12.2397 12.6958 11.9996V9.39084C12.6958 9.15072 12.5011 8.95605 12.261 8.95605Z" fill="#212121"/>
<path d="M7.04351 15.9127H6.17393C5.9338 15.9127 5.73914 16.1074 5.73914 16.3475V17.2171C5.73914 17.4572 5.9338 17.6519 6.17393 17.6519H7.04351C7.28363 17.6519 7.4783 17.4572 7.4783 17.2171V16.3475C7.4783 16.1074 7.28363 15.9127 7.04351 15.9127Z" fill="#212121"/>
<path d="M7.04351 18.5215H6.17393C5.9338 18.5215 5.73914 18.7161 5.73914 18.9563V19.8259C5.73914 20.066 5.9338 20.2606 6.17393 20.2606H7.04351C7.28363 20.2606 7.4783 20.066 7.4783 19.8259V18.9563C7.4783 18.7161 7.28363 18.5215 7.04351 18.5215Z" fill="#212121"/>
<path d="M7.04351 13.304H6.17393C5.9338 13.304 5.73914 13.4986 5.73914 13.7387V14.6083C5.73914 14.8485 5.9338 15.0431 6.17393 15.0431H7.04351C7.28363 15.0431 7.4783 14.8485 7.4783 14.6083V13.7387C7.4783 13.4986 7.28363 13.304 7.04351 13.304Z" fill="#212121"/>
<path d="M9.65224 13.304H8.78266C8.54253 13.304 8.34787 13.4986 8.34787 13.7387V14.6083C8.34787 14.8485 8.54253 15.0431 8.78266 15.0431H9.65224C9.89237 15.0431 10.087 14.8485 10.087 14.6083V13.7387C10.087 13.4986 9.89237 13.304 9.65224 13.304Z" fill="#212121"/>
<path d="M12.261 13.304H11.3914C11.1513 13.304 10.9566 13.4986 10.9566 13.7387V14.6083C10.9566 14.8485 11.1513 15.0431 11.3914 15.0431H12.261C12.5011 15.0431 12.6958 14.8485 12.6958 14.6083V13.7387C12.6958 13.4986 12.5011 13.304 12.261 13.304Z" fill="#212121"/>
<path d="M12.261 15.9127H11.3914C11.1513 15.9127 10.9566 16.1074 10.9566 16.3475V17.2171C10.9566 17.4572 11.1513 17.6519 11.3914 17.6519H12.261C12.5011 17.6519 12.6958 17.4572 12.6958 17.2171V16.3475C12.6958 16.1074 12.5011 15.9127 12.261 15.9127Z" fill="#212121"/>
<path d="M12.261 18.5215H11.3914C11.1513 18.5215 10.9566 18.7161 10.9566 18.9563V19.8259C10.9566 20.066 11.1513 20.2606 11.3914 20.2606H12.261C12.5011 20.2606 12.6958 20.066 12.6958 19.8259V18.9563C12.6958 18.7161 12.5011 18.5215 12.261 18.5215Z" fill="#FFA600"/>
<path d="M9.65224 15.9127H8.78266C8.54253 15.9127 8.34787 16.1074 8.34787 16.3475V17.2171C8.34787 17.4572 8.54253 17.6519 8.78266 17.6519H9.65224C9.89237 17.6519 10.087 17.4572 10.087 17.2171V16.3475C10.087 16.1074 9.89237 15.9127 9.65224 15.9127Z" fill="#212121"/>
<path d="M9.65224 18.5215H8.78266C8.54253 18.5215 8.34787 18.7161 8.34787 18.9563V19.8259C8.34787 20.066 8.54253 20.2606 8.78266 20.2606H9.65224C9.89237 20.2606 10.087 20.066 10.087 19.8259V18.9563C10.087 18.7161 9.89237 18.5215 9.65224 18.5215Z" fill="#212121"/>
<path d="M13.1306 21.9998H5.30434C4.9584 21.9998 4.62663 21.8624 4.38201 21.6177C4.13739 21.3731 3.99997 21.0414 3.99997 20.6954V8.52129C3.99997 8.17535 4.13739 7.84358 4.38201 7.59896C4.62663 7.35434 4.9584 7.21692 5.30434 7.21692H13.1306C13.4765 7.21692 13.8083 7.35434 14.0529 7.59896C14.2975 7.84358 14.4349 8.17535 14.4349 8.52129V20.6954C14.4349 21.0414 14.2975 21.3731 14.0529 21.6177C13.8083 21.8624 13.4765 21.9998 13.1306 21.9998ZM5.30434 8.0865C5.18903 8.0865 5.07844 8.13231 4.9969 8.21385C4.91536 8.29539 4.86955 8.40598 4.86955 8.52129V20.6954C4.86955 20.8107 4.91536 20.9213 4.9969 21.0029C5.07844 21.0844 5.18903 21.1302 5.30434 21.1302H13.1306C13.2459 21.1302 13.3565 21.0844 13.438 21.0029C13.5195 20.9213 13.5654 20.8107 13.5654 20.6954V8.52129C13.5654 8.40598 13.5195 8.29539 13.438 8.21385C13.3565 8.13231 13.2459 8.0865 13.1306 8.0865H5.30434Z" fill="#212121"/>
<path d="M12.261 8.08653H6.17393C6.05861 8.08653 5.94802 8.04072 5.86648 7.95918C5.78494 7.87764 5.73914 7.76705 5.73914 7.65174V2.43425C5.73919 2.36249 5.75701 2.29186 5.79101 2.22865C5.825 2.16545 5.87411 2.11165 5.93395 2.07204C5.9938 2.03243 6.06251 2.00825 6.13397 2.00166C6.20543 1.99506 6.27741 2.00626 6.34349 2.03425L7.18699 2.39512L8.03048 2.03425C8.08413 2.01153 8.14179 1.99982 8.20005 1.99982C8.25831 1.99982 8.31597 2.01153 8.36962 2.03425L9.21746 2.39512C10.1218 2.01251 10.187 1.96033 10.4044 2.03425L11.2479 2.39512L12.0958 2.03425C12.1616 2.00718 12.2331 1.99672 12.304 2.00376C12.3749 2.01081 12.4429 2.03515 12.5022 2.07465C12.5614 2.11415 12.6101 2.1676 12.6438 2.23031C12.6776 2.29301 12.6954 2.36304 12.6958 2.43425V7.65174C12.6958 7.76705 12.65 7.87764 12.5684 7.95918C12.4869 8.04072 12.3763 8.08653 12.261 8.08653ZM6.60872 7.21695H11.8262V3.09079C11.1175 3.39514 11.3697 3.39514 10.2305 2.90817C9.32615 3.29079 9.26094 3.34296 9.04354 3.26905L8.20005 2.90817L7.35656 3.26905C7.1609 3.35601 7.0609 3.26905 6.60872 3.09513V7.21695Z" fill="#212121"/>
<path d="M10.5218 6.34736H7.91309C7.79778 6.34736 7.68719 6.30156 7.60565 6.22002C7.52411 6.13848 7.4783 6.02789 7.4783 5.91257C7.4783 5.79726 7.52411 5.68667 7.60565 5.60513C7.68719 5.52359 7.79778 5.47778 7.91309 5.47778H10.5218C10.6371 5.47778 10.7477 5.52359 10.8293 5.60513C10.9108 5.68667 10.9566 5.79726 10.9566 5.91257C10.9566 6.02789 10.9108 6.13848 10.8293 6.22002C10.7477 6.30156 10.6371 6.34736 10.5218 6.34736Z" fill="#FFA600"/>
</svg>
