<svg width="24" height="24" viewBox="0 0 24 24" fill="none" xmlns="http://www.w3.org/2000/svg">
<g clip-path="url(#clip0_465_54071)">
<path fill-rule="evenodd" clip-rule="evenodd" d="M11.1304 18.75H15C15.1989 18.75 15.3897 18.671 15.5303 18.5303C15.671 18.3897 15.75 18.1989 15.75 18C15.75 17.8011 15.671 17.6103 15.5303 17.4697C15.3897 17.329 15.1989 17.25 15 17.25H11.7617C11.6138 17.7804 11.4002 18.2835 11.1304 18.75Z" fill="#212121"/>
<path fill-rule="evenodd" clip-rule="evenodd" d="M11.1304 12.25C11.4002 12.7165 11.6138 13.2196 11.7617 13.75H21C21.066 13.7508 21.1292 13.7774 21.1759 13.8241C21.2226 13.8708 21.2492 13.9339 21.25 14V17C21.2492 17.0661 21.2226 17.1292 21.1759 17.1759C21.1292 17.2226 21.066 17.2492 21 17.25H19C18.8011 17.25 18.6103 17.329 18.4697 17.4697C18.329 17.6103 18.25 17.8011 18.25 18C18.25 18.1989 18.329 18.3897 18.4697 18.5303C18.6103 18.671 18.8011 18.75 19 18.75H21C21.4639 18.7494 21.9087 18.5649 22.2368 18.2368C22.5649 17.9087 22.7494 17.464 22.75 17V14C22.7494 13.536 22.5649 13.0913 22.2368 12.7632C21.9087 12.4351 21.4639 12.2506 21 12.25H11.1304Z" fill="#212121"/>
<path d="M17 20.75C16.4561 20.75 15.9244 20.5887 15.4722 20.2865C15.0199 19.9844 14.6675 19.5549 14.4593 19.0524C14.2512 18.5499 14.1967 17.997 14.3028 17.4635C14.409 16.9301 14.6709 16.4401 15.0555 16.0555C15.4401 15.6709 15.9301 15.409 16.4635 15.3028C16.997 15.1967 17.5499 15.2512 18.0524 15.4593C18.5549 15.6675 18.9844 16.0199 19.2865 16.4722C19.5887 16.9244 19.75 17.4561 19.75 18C19.7493 18.7291 19.4593 19.4282 18.9437 19.9437C18.4282 20.4593 17.7291 20.7493 17 20.75ZM17 16.75C16.7528 16.75 16.5111 16.8233 16.3055 16.9607C16.1 17.098 15.9398 17.2932 15.8452 17.5216C15.7505 17.7501 15.7258 18.0014 15.774 18.2439C15.8223 18.4863 15.9413 18.7091 16.1161 18.8839C16.2909 19.0587 16.5137 19.1778 16.7561 19.226C16.9986 19.2742 17.2499 19.2495 17.4784 19.1549C17.7068 19.0602 17.902 18.9 18.0393 18.6945C18.1767 18.4889 18.25 18.2472 18.25 18C18.2497 17.6686 18.1179 17.3508 17.8835 17.1165C17.6492 16.8821 17.3314 16.7503 17 16.75Z" fill="#212121"/>
<path fill-rule="evenodd" clip-rule="evenodd" d="M11.7617 13.75H14C14.1989 13.75 14.3897 13.671 14.5303 13.5303C14.671 13.3897 14.75 13.1989 14.75 13C14.75 12.8011 14.671 12.6103 14.5303 12.4697C14.3897 12.329 14.1989 12.25 14 12.25H11.1304C11.4002 12.7165 11.6138 13.2196 11.7617 13.75ZM1.25 10.5818V5C1.25056 4.53604 1.43512 4.09125 1.76319 3.76319C2.09125 3.43512 2.53604 3.25056 3 3.25H13C13.464 3.25056 13.9087 3.43512 14.2368 3.76319C14.5649 4.09125 14.7494 4.53604 14.75 5V7C14.75 7.19891 14.671 7.38968 14.5303 7.53033C14.3897 7.67098 14.1989 7.75 14 7.75C13.8011 7.75 13.6103 7.67098 13.4697 7.53033C13.329 7.38968 13.25 7.19891 13.25 7V5C13.2499 4.93373 13.2235 4.87022 13.1766 4.82336C13.1298 4.77651 13.0663 4.75013 13 4.75H3C2.93373 4.75013 2.87022 4.77651 2.82336 4.82336C2.77651 4.87022 2.75013 4.93373 2.75 5V9.60868C2.20448 9.86376 1.70023 10.1924 1.25 10.5818Z" fill="#212121"/>
<path d="M21 13.75H14C13.8011 13.75 13.6104 13.6709 13.4697 13.5303C13.3291 13.3896 13.2501 13.1989 13.25 13V10C13.25 9.80109 13.329 9.61033 13.4697 9.46968C13.6103 9.32902 13.8011 9.25001 14 9.25001C14.1989 9.25001 14.3897 9.32902 14.5303 9.46968C14.671 9.61033 14.75 9.80109 14.75 10V12.25H20.1143L19.4688 8.37647C19.4401 8.20124 19.3499 8.04195 19.2144 7.92716C19.079 7.81236 18.9071 7.74956 18.7295 7.75001H14C13.8011 7.75001 13.6103 7.67099 13.4697 7.53034C13.329 7.38968 13.25 7.19892 13.25 7.00001C13.25 6.80109 13.329 6.61033 13.4697 6.46968C13.6103 6.32902 13.8011 6.25001 14 6.25001H18.7295C19.2623 6.2487 19.7781 6.4371 20.1847 6.78146C20.5912 7.12582 20.8619 7.60366 20.9482 8.1294L21.7402 12.877C21.758 12.9844 21.7522 13.0944 21.7232 13.1994C21.6942 13.3044 21.6427 13.4018 21.5723 13.4849C21.5018 13.568 21.4142 13.6347 21.3153 13.6805C21.2165 13.7263 21.1089 13.75 21 13.75Z" fill="#FFA600"/>
<path d="M10.1187 15.4343C10.1187 18.0214 8.02143 20.1187 5.43434 20.1187C2.84725 20.1187 0.75 18.0214 0.75 15.4343C0.75 12.8473 2.84725 10.75 5.43434 10.75C8.02143 10.75 10.1187 12.8473 10.1187 15.4343Z" stroke="#FFA600" stroke-width="1.5"/>
<line x1="5.43011" y1="15.1589" x2="5.43011" y2="17.4498" stroke="#FFA600" stroke-width="1.5" stroke-linecap="round"/>
<ellipse cx="5.43434" cy="13.0834" rx="0.772325" ry="0.772324" fill="#FFA600"/>
</g>
<defs>
<clipPath id="clip0_465_54071">
<rect width="24" height="24" fill="white"/>
</clipPath>
</defs>
</svg>
