<svg width="24" height="24" viewBox="0 0 24 24" fill="none" xmlns="http://www.w3.org/2000/svg">
<path fill-rule="evenodd" clip-rule="evenodd" d="M12.8093 3.0003H10.6277C10.054 2.99132 9.49516 3.18336 9.04807 3.54326C8.59874 3.90498 8.29093 4.41321 8.17855 4.97899L7.58664 8.05235C6.60366 9.08178 6 10.4765 6 12.0123C6 13.5578 6.61139 14.9606 7.60551 15.9919L8.21143 19.0215C8.32388 19.5871 8.63163 20.0951 9.08084 20.4567C9.52794 20.8167 10.0868 21.0087 10.6605 20.9997H12.8748C13.4485 21.0087 14.0074 20.8167 14.4545 20.4567C14.9035 20.0952 15.2114 19.5864 15.324 19.021L15.9474 15.9038C16.8924 14.8814 17.4698 13.5143 17.4698 12.0123C17.4698 10.4699 16.8609 9.06979 15.8705 8.03909L15.2584 4.97899L15.2582 4.97793C15.1457 4.41257 14.838 3.90475 14.3889 3.54326C13.9418 3.18336 13.383 2.99132 12.8093 3.0003ZM14.4845 8.97584C14.5274 9.02815 14.5765 9.07474 14.6304 9.1147C15.3723 9.85607 15.8313 10.8806 15.8313 12.0123C15.8313 14.2746 13.9973 16.1086 11.7349 16.1086C10.66 16.1086 9.6818 15.6946 8.95106 15.0174C8.9326 14.9982 8.91325 14.9799 8.89308 14.9626C8.11968 14.2174 7.63854 13.1711 7.63854 12.0123C7.63854 10.8638 8.11121 9.82564 8.87265 9.08182C8.89757 9.06074 8.92127 9.03814 8.94359 9.01415C9.67513 8.33278 10.6563 7.91593 11.7349 7.91593C12.7931 7.91593 13.7576 8.31718 14.4845 8.97584ZM13.9345 6.71437L13.6513 5.29821C13.6138 5.10961 13.5112 4.9402 13.3615 4.81963C13.2117 4.69906 13.0243 4.63501 12.832 4.63869L12.8163 4.63884H10.6207L10.605 4.63869C10.4127 4.63501 10.2253 4.69906 10.0755 4.81963C9.92628 4.93979 9.82387 5.10845 9.7861 5.29627L9.51103 6.72452C10.1949 6.43656 10.9463 6.27739 11.7349 6.27739C12.5142 6.27739 13.2572 6.43282 13.9345 6.71437ZM9.54061 17.3124L9.81848 18.7018C9.85594 18.8904 9.95854 19.0598 10.1083 19.1804C10.2581 19.3009 10.4455 19.365 10.6378 19.3613L10.6535 19.3612H12.8819L12.8976 19.3613C13.0898 19.365 13.2772 19.3009 13.427 19.1804C13.5768 19.0598 13.6794 18.8904 13.7168 18.7018L14.0008 17.2822C13.3057 17.5814 12.5397 17.7472 11.7349 17.7472C10.9577 17.7472 10.2165 17.5926 9.54061 17.3124Z" fill="#212121"/>
<path d="M11.5904 9.95184C12.0428 9.95184 12.4096 10.3186 12.4096 10.7711V12.0703L12.9889 12.6496C13.3089 12.9696 13.3089 13.4883 12.9889 13.8082C12.669 14.1282 12.1503 14.1282 11.8303 13.8082L11.011 12.989C10.8574 12.8353 10.7711 12.6269 10.7711 12.4097V10.7711C10.7711 10.3186 11.1379 9.95184 11.5904 9.95184Z" fill="#FFA600"/>
</svg>
