<svg width="24" height="24" viewBox="0 0 24 24" fill="none" xmlns="http://www.w3.org/2000/svg">
<path d="M13.5098 6.63807L15 5.75499V19H6C5.44772 19 5 18.5523 5 18V5.75499L6.4902 6.63807L7 6.94017L7.5098 6.63807L10 5.1624L12.4902 6.63807L13 6.94017L13.5098 6.63807Z" stroke="#212121" stroke-width="2"/>
<path d="M15 11H19V18C19 18.5523 18.5523 19 18 19H15V11Z" stroke="#212121" stroke-width="2"/>
<circle cx="8.07819" cy="11.3634" r="0.822418" transform="rotate(-49.7093 8.07819 11.3634)" fill="#FFA600"/>
<circle cx="11.8421" cy="14.5544" r="0.822418" transform="rotate(-49.7093 11.8421 14.5544)" fill="#FFA600"/>
<path fill-rule="evenodd" clip-rule="evenodd" d="M7.88127 15.5093C7.56158 15.2383 7.52214 14.7594 7.79316 14.4397L11.0663 10.5788C11.3374 10.2592 11.8162 10.2197 12.1359 10.4907C12.4556 10.7618 12.495 11.2406 12.224 11.5603L8.95083 15.4212C8.67981 15.7409 8.20095 15.7803 7.88127 15.5093Z" fill="#FFA600"/>
</svg>
