<svg width="24" height="24" viewBox="0 0 24 24" fill="none" xmlns="http://www.w3.org/2000/svg">
<path d="M17.1433 10.5183C17.7 9.96156 17.7 9.06666 17.7 7.27494C17.7 5.48323 17.7 4.58832 17.1433 4.03162M17.1433 10.5183C16.5866 11.075 15.6917 11.075 13.9 11.075H10.1C8.30826 11.075 7.41335 11.075 6.85665 10.5183M17.1433 4.03162C16.5866 3.47491 15.6917 3.47491 13.9 3.47491H10.1C8.30826 3.47491 7.41335 3.47491 6.85665 4.03162M6.85665 4.03162C6.29994 4.58832 6.29994 5.48323 6.29994 7.27494C6.29994 9.06666 6.29994 9.96156 6.85665 10.5183M12.95 7.27494C12.95 7.5269 12.8499 7.76854 12.6717 7.9467C12.4936 8.12486 12.2519 8.22495 12 8.22495C11.748 8.22495 11.5064 8.12486 11.3282 7.9467C11.1501 7.76854 11.05 7.5269 11.05 7.27494C11.05 7.02299 11.1501 6.78135 11.3282 6.60319C11.5064 6.42503 11.748 6.32494 12 6.32494C12.2519 6.32494 12.4936 6.42503 12.6717 6.60319C12.8499 6.78135 12.95 7.02299 12.95 7.27494Z" stroke="#FFA600" stroke-width="1.42501"/>
<path d="M5.34993 19.9936H7.49695C8.45645 19.9936 9.42831 20.0943 10.3622 20.2862C12.0294 20.6288 13.7449 20.6667 15.4257 20.3984C16.2503 20.2654 17.0597 20.0611 17.7931 19.7077C18.4543 19.3875 19.2647 18.9382 19.809 18.4337C20.3524 17.9302 20.9186 17.1066 21.3195 16.4625C21.6653 15.9096 21.4981 15.2322 20.9528 14.8209C20.6464 14.598 20.2772 14.4779 19.8983 14.4779C19.5194 14.4779 19.1503 14.598 18.8438 14.8209L17.1272 16.1176C16.4622 16.6211 15.7354 17.0838 14.8699 17.2215C14.7654 17.2377 14.6562 17.2529 14.5422 17.2662M14.5422 17.2662C14.5074 17.2702 14.4726 17.274 14.4377 17.2776M14.5422 17.2662C14.6943 17.2251 14.8337 17.1467 14.9478 17.0382C15.091 16.9143 15.2079 16.7631 15.2916 16.5933C15.3754 16.4235 15.4243 16.2387 15.4354 16.0498C15.4466 15.8608 15.4198 15.6715 15.3566 15.4931C15.2934 15.3147 15.1951 15.1507 15.0675 15.0109C14.9438 14.8734 14.7996 14.7558 14.64 14.6622C11.9829 13.0766 7.8475 14.2841 5.34993 16.0559M14.5422 17.2662C14.5079 17.2737 14.4728 17.2775 14.4377 17.2776M14.4377 17.2776C13.8648 17.3352 13.2876 17.3364 12.7144 17.2814" stroke="#212121" stroke-width="1.42501" stroke-linecap="round"/>
<path d="M17.7 6.32494C16.9442 6.32494 16.2192 6.02467 15.6848 5.49018C15.1503 4.9557 14.85 4.23079 14.85 3.47491M17.7 8.22495C16.9442 8.22495 16.2192 8.52522 15.6848 9.0597C15.1503 9.59419 14.85 10.3191 14.85 11.075M6.29994 6.32494C7.05581 6.32494 7.78073 6.02467 8.31521 5.49018C8.84969 4.9557 9.14996 4.23079 9.14996 3.47491M6.29994 8.22495C7.05581 8.22495 7.78073 8.52522 8.31521 9.0597C8.84969 9.59419 9.14996 10.3191 9.14996 11.075" stroke="#FFA600" stroke-width="1.42501" stroke-linecap="round"/>
<path d="M5.34994 15.35C5.34994 14.563 4.71194 13.925 3.92493 13.925C3.13791 13.925 2.49992 14.563 2.49992 15.35V20.1C2.49992 20.887 3.13791 21.525 3.92493 21.525C4.71194 21.525 5.34994 20.887 5.34994 20.1V15.35Z" stroke="#212121" stroke-width="1.42501"/>
</svg>
