<svg width="24" height="24" viewBox="0 0 24 24" fill="none" xmlns="http://www.w3.org/2000/svg">
<path d="M15.5551 18.1111V20.7244C15.5543 21.0623 15.4327 21.3861 15.2166 21.6251C15.0006 21.8641 14.7078 21.9989 14.4021 22H5.54876C5.24303 21.9989 4.95011 21.8642 4.73393 21.6252C4.51774 21.3862 4.39586 21.0624 4.39487 20.7244V3.27455C4.39586 2.93667 4.51777 2.61297 4.73398 2.37415C4.95019 2.13533 5.24312 2.00082 5.54876 2H14.4021C14.7076 2.00109 15.0003 2.13573 15.2163 2.37452C15.4323 2.6133 15.5541 2.93685 15.5551 3.27455V5.50967" stroke="#212121" stroke-width="1.5" stroke-linecap="round" stroke-linejoin="round"/>
<path d="M4.89374 17.5555H11.8937" stroke="#212121" stroke-width="1.5" stroke-linecap="round" stroke-linejoin="round"/>
<path d="M10.2058 20.5314C10.6024 20.5314 10.9238 20.176 10.9238 19.7377C10.9238 19.2993 10.6024 18.9439 10.2058 18.9439C9.80928 18.9439 9.48781 19.2993 9.48781 19.7377C9.48781 20.176 9.80928 20.5314 10.2058 20.5314Z" fill="#212121"/>
<path d="M9.0704 4.31494H11.2854" stroke="#212121" stroke-width="1.5" stroke-miterlimit="10" stroke-linecap="round"/>
<path d="M10.0037 9.83832H11.0273" stroke="#212121" stroke-miterlimit="10" stroke-linecap="round"/>
<path d="M10.1322 12.5366H10.9336" stroke="#212121" stroke-miterlimit="10" stroke-linecap="round"/>
<path d="M15.3533 12.5366H16.1547" stroke="#212121" stroke-miterlimit="10" stroke-linecap="round"/>
<path d="M12.244 12.5366H14.1441" stroke="#212121" stroke-miterlimit="10" stroke-linecap="round"/>
<path d="M10.1715 14.207H12.9124" stroke="#212121" stroke-miterlimit="10" stroke-linecap="round"/>
<path d="M18.9593 7.55554H8.53958C8.18289 7.55554 7.89374 7.87519 7.89374 8.26949V15.352C7.89374 15.7463 8.18289 16.066 8.53958 16.066H18.9593C19.316 16.066 19.6051 15.7463 19.6051 15.352V8.26949C19.6051 7.87519 19.316 7.55554 18.9593 7.55554Z" stroke="#FFA600" stroke-miterlimit="10" stroke-linecap="round"/>
<path d="M17.0349 8.73383C16.9214 8.73393 16.8089 8.75566 16.7021 8.79808C16.5954 8.75548 16.4828 8.73374 16.3694 8.73383C16.2236 8.73334 16.0795 8.76812 15.9472 8.83572C15.8148 8.90332 15.6975 9.0021 15.6034 9.12514C15.5092 9.24819 15.4406 9.39251 15.4023 9.54798C15.3639 9.70346 15.3568 9.86632 15.3815 10.0251C15.4061 10.184 15.4619 10.3349 15.5449 10.4674C15.6279 10.5999 15.7361 10.7106 15.8619 10.792C15.9878 10.8733 16.1282 10.9232 16.2733 10.9382C16.4185 10.9532 16.5648 10.933 16.7021 10.8788C16.809 10.9207 16.9215 10.9424 17.0349 10.943C17.2999 10.943 17.554 10.8267 17.7414 10.6195C17.9288 10.4124 18.0341 10.1314 18.0341 9.83844C18.0341 9.54548 17.9288 9.26452 17.7414 9.05736C17.554 8.85021 17.2999 8.73383 17.0349 8.73383ZM17.0349 10.1421C16.975 10.1418 16.9166 10.122 16.8669 10.0851C16.8173 10.0482 16.7786 9.99589 16.7558 9.93472C16.7331 9.87354 16.7272 9.80628 16.739 9.74142C16.7508 9.67656 16.7797 9.61703 16.8221 9.57032C16.8644 9.52362 16.9184 9.49184 16.9771 9.47901C17.0358 9.46618 17.0966 9.47287 17.1519 9.49823C17.2072 9.52359 17.2544 9.5665 17.2876 9.62151C17.3208 9.67653 17.3386 9.7412 17.3386 9.80736C17.3386 9.8514 17.3307 9.895 17.3154 9.93567C17.3002 9.97635 17.2778 10.0133 17.2496 10.0444C17.2214 10.0755 17.1879 10.1001 17.151 10.1169C17.1142 10.1336 17.0747 10.1422 17.0349 10.1421Z" fill="#212121"/>
</svg>
