<?xml version="1.0" standalone="no"?>
<!DOCTYPE svg PUBLIC "-//W3C//DTD SVG 20010904//EN"
 "http://www.w3.org/TR/2001/REC-SVG-20010904/DTD/svg10.dtd">
<svg version="1.0" xmlns="http://www.w3.org/2000/svg"
 width="1133.000000pt" height="1133.000000pt" viewBox="0 0 1133.000000 1133.000000"
 preserveAspectRatio="xMidYMid meet">
<metadata>
Created by potrace 1.14, written by Peter Selinger 2001-2017
</metadata>
<g transform="translate(0.000000,1133.000000) scale(0.100000,-0.100000)"
fill="#000000" stroke="none">
<path d="M5227 10418 c-19 -35 -84 -153 -145 -263 -60 -111 -124 -228 -142
-260 -17 -33 -41 -78 -54 -100 -12 -22 -42 -76 -65 -120 -39 -71 -167 -305
-241 -440 -15 -27 -81 -147 -145 -265 -65 -118 -129 -235 -142 -260 -14 -25
-41 -74 -61 -110 -19 -36 -50 -91 -68 -123 -19 -32 -34 -60 -34 -62 0 -3 -71
-134 -158 -292 -87 -158 -177 -322 -199 -363 -22 -41 -49 -91 -60 -110 -11
-20 -38 -68 -59 -108 -21 -40 -44 -81 -49 -90 -6 -9 -37 -66 -69 -127 -78
-143 -83 -153 -110 -200 -12 -22 -44 -80 -71 -130 -26 -49 -51 -94 -55 -100
-4 -5 -29 -50 -55 -100 -26 -49 -71 -130 -98 -180 -28 -49 -70 -128 -95 -175
-25 -47 -56 -102 -69 -122 -12 -21 -23 -40 -23 -43 0 -3 -31 -60 -68 -128 -38
-67 -90 -162 -117 -212 -26 -49 -96 -178 -155 -285 -230 -419 -400 -729 -445
-815 -27 -49 -57 -102 -67 -117 -10 -14 -18 -28 -18 -31 0 -3 -77 -146 -171
-319 -95 -172 -189 -345 -210 -384 -21 -39 -63 -115 -94 -169 -30 -53 -55 -99
-55 -101 0 -1 -34 -65 -76 -141 -91 -165 -125 -227 -172 -313 -19 -36 -72
-132 -117 -215 -45 -82 -95 -172 -109 -200 -15 -27 -39 -70 -53 -95 -14 -25
-44 -81 -68 -125 -24 -44 -55 -100 -69 -125 -14 -25 -32 -58 -40 -75 -8 -16
-31 -59 -51 -95 -66 -118 -102 -184 -141 -255 -20 -38 -45 -83 -54 -100 -23
-41 -77 -140 -110 -200 -25 -45 -109 -199 -180 -330 -15 -27 -67 -122 -115
-209 -48 -87 -107 -198 -132 -245 -26 -47 -52 -93 -60 -102 -7 -8 -13 -19 -13
-22 0 -4 672 -7 1494 -7 l1494 0 48 88 c26 48 59 110 74 137 30 55 45 82 200
365 118 215 273 499 327 600 20 36 43 79 53 95 10 17 33 59 53 95 36 68 189
349 237 435 27 49 155 283 240 440 24 44 54 98 66 120 13 22 38 69 57 105 19
36 44 81 56 100 11 19 24 42 28 50 8 18 210 389 223 410 5 8 25 45 45 83 20
37 49 90 65 118 17 27 30 52 30 54 0 2 17 34 38 72 22 37 57 102 79 143 22 41
63 116 90 165 27 50 69 126 93 170 23 44 50 94 60 110 10 17 33 59 53 95 19
36 84 155 144 265 60 110 127 232 148 270 21 39 49 90 63 115 14 25 41 74 60
110 70 130 90 166 114 210 45 79 253 462 303 555 26 50 51 95 55 100 4 6 24
42 45 80 21 39 76 140 123 225 123 225 134 246 187 345 26 50 52 95 57 101 4
7 30 52 56 101 103 195 197 363 204 363 3 0 13 -12 20 -27 8 -16 29 -55 48
-88 38 -69 82 -150 118 -215 13 -25 32 -58 42 -75 20 -35 67 -121 121 -221 21
-39 52 -95 69 -123 16 -29 30 -53 30 -55 0 -2 29 -55 63 -117 103 -184 117
-210 160 -289 23 -41 50 -91 62 -112 38 -69 179 -323 200 -363 12 -22 45 -81
73 -132 28 -51 70 -127 93 -170 23 -43 45 -82 49 -88 4 -5 23 -39 42 -75 20
-36 47 -86 62 -112 48 -87 78 -142 114 -208 19 -36 52 -94 72 -130 20 -36 57
-101 80 -145 24 -44 48 -87 53 -95 7 -12 -4 -40 -40 -105 -28 -50 -65 -117
-82 -150 -18 -33 -42 -76 -53 -95 -11 -19 -36 -64 -55 -100 -19 -36 -44 -83
-56 -105 -13 -22 -41 -74 -64 -115 -22 -41 -78 -142 -123 -225 -45 -82 -98
-179 -118 -215 -19 -36 -46 -85 -60 -110 -13 -25 -67 -124 -120 -220 -52 -96
-97 -177 -99 -180 -2 -2 -610 -5 -1351 -6 -741 0 -1348 -2 -1349 -3 0 0 37
-67 84 -148 47 -82 97 -168 111 -193 28 -50 61 -106 79 -135 7 -11 20 -33 28
-50 8 -16 27 -51 43 -76 15 -25 105 -180 200 -345 96 -164 177 -306 182 -314
5 -8 48 -82 95 -165 47 -82 90 -157 95 -165 6 -8 13 -21 17 -29 3 -8 35 -64
71 -125 36 -61 76 -131 90 -156 13 -25 28 -49 32 -55 4 -5 19 -30 32 -55 14
-25 67 -117 118 -205 51 -88 96 -170 101 -182 l9 -23 1496 0 c1271 0 1495 2
1491 14 -3 7 0 22 7 32 7 11 34 60 61 109 63 119 123 226 135 245 6 8 14 25
20 37 5 12 30 59 56 104 25 45 63 114 84 153 21 39 50 91 64 116 14 25 34 61
44 80 40 77 105 196 229 420 42 74 79 144 84 155 5 11 18 34 28 52 11 17 39
67 62 110 23 43 61 112 84 153 23 41 60 109 82 150 56 104 129 238 241 440 13
25 39 72 57 105 18 33 49 89 69 125 21 36 44 79 52 95 8 17 25 48 37 70 43 76
240 433 302 550 24 44 122 224 219 399 l175 320 -36 65 c-19 36 -43 80 -53 96
-9 17 -31 55 -47 85 -17 30 -43 78 -58 105 -15 28 -51 93 -80 145 -29 52 -65
118 -80 145 -15 28 -44 79 -63 115 -19 36 -44 81 -55 100 -11 19 -35 64 -55
100 -19 36 -54 99 -77 140 -23 41 -62 111 -85 155 -24 44 -46 85 -50 90 -4 6
-23 39 -42 75 -33 60 -67 122 -124 225 -13 22 -39 72 -60 110 -20 39 -40 75
-45 81 -5 6 -24 40 -42 75 -19 35 -64 117 -100 183 -37 65 -67 120 -67 122 0
2 -13 25 -28 51 -16 26 -45 79 -66 116 -20 37 -45 82 -55 100 -10 18 -37 68
-61 112 -23 44 -60 109 -80 145 -21 36 -59 106 -85 155 -27 50 -61 112 -77
138 -15 26 -28 50 -28 52 0 2 -13 26 -28 52 -16 26 -46 80 -66 118 -55 99 -83
151 -171 310 -42 77 -91 165 -108 195 -16 30 -62 114 -102 185 -40 72 -84 153
-99 180 -29 55 -44 83 -165 300 -46 83 -99 179 -119 215 -19 36 -50 91 -68
123 -19 32 -34 60 -34 62 0 2 -16 32 -36 67 -35 62 -62 110 -126 226 -53 96
-74 135 -108 197 -18 33 -60 108 -93 168 l-59 107 -1494 0 -1493 0 -34 -62z"/>
</g>
</svg>
